<svg width="44" height="43" viewBox="0 0 44 43" fill="none" xmlns="http://www.w3.org/2000/svg">
<path d="M35.0419 22.2835V33.8556V40.022C35.0419 40.8732 34.3518 41.5635 33.5004 41.5635H6.47653C5.62516 41.5635 4.935 40.8732 4.935 40.022V33.8556V19.4933" stroke="black" stroke-width="1.91629" stroke-linecap="round"/>
<path d="M19.5196 25.5526H10.0894" stroke="black" stroke-width="1.04069" stroke-linecap="round"/>
<path d="M29.8949 35.5051H10.0894" stroke="black" stroke-width="1.04069" stroke-linecap="round"/>
<path d="M25.3876 30.5266H10.0894" stroke="black" stroke-width="1.04069" stroke-linecap="round"/>
<path d="M43.4449 3.5444C43.6347 3.71814 43.7511 3.96354 43.7699 4.22656C43.7883 4.48961 43.7068 4.74906 43.5436 4.94782L41.72 7.16234L37.6645 3.4535L39.4881 1.23896C39.6519 1.04004 39.8846 0.918516 40.135 0.900662C40.3853 0.883033 40.6329 0.970709 40.8228 1.14465L43.4449 3.54244V3.5444ZM40.4839 8.66009L36.4282 4.95123L24.5165 19.4061C24.4203 19.5227 24.351 19.6618 24.3155 19.8118L23.1325 24.7179C23.1113 24.8073 23.1139 24.9013 23.1403 24.99C23.1668 25.078 23.2161 25.1569 23.2825 25.2177C23.3491 25.2788 23.4302 25.3188 23.517 25.3342C23.6036 25.3493 23.6922 25.3387 23.7735 25.3041L28.2188 23.3815C28.3548 23.3235 28.4758 23.2328 28.5722 23.117L40.4839 8.66207V8.66009Z" fill="black"/>
<path d="M7.31427 19.3517C10.6247 19.3517 13.3082 16.6682 13.3082 13.3578C13.3082 10.0474 10.6247 7.36383 7.31427 7.36383C4.00389 7.36383 1.32031 10.0474 1.32031 13.3578C1.32031 16.6682 4.00389 19.3517 7.31427 19.3517Z" stroke="black" stroke-width="1.17431"/>
<path d="M14.0167 12.1632H26.9061" stroke="black" stroke-width="1.91629" stroke-linecap="round"/>
<path d="M5.16113 13.0662L7.34112 10.8863L9.47028 13.0153" stroke="black" stroke-width="0.682406" stroke-linecap="round"/>
<path d="M7.31604 11.1964V15.8233" stroke="black" stroke-width="0.682406" stroke-linecap="round"/>
</svg>
