<svg width="47" height="46" viewBox="0 0 47 46" fill="none" xmlns="http://www.w3.org/2000/svg">
<path d="M35.4715 22.1477L33.8578 19.3855L36.7051 17.3801L38.5385 20.0594L35.4715 22.1477Z" fill="black"/>
<path fill-rule="evenodd" clip-rule="evenodd" d="M36.1392 16.4608C36.1392 19.3129 38.4182 21.625 41.2296 21.625C44.041 21.625 46.32 19.3129 46.32 16.4608C46.32 13.6087 44.041 11.2966 41.2296 11.2966C38.4182 11.2966 36.1392 13.6087 36.1392 16.4608ZM43.1024 16.4618C43.1024 17.5125 42.2628 18.3643 41.227 18.3643C40.1913 18.3643 39.3516 17.5125 39.3516 16.4618C39.3516 15.411 40.1913 14.5592 41.227 14.5592C42.2628 14.5592 43.1024 15.411 43.1024 16.4618Z" fill="black"/>
<path fill-rule="evenodd" clip-rule="evenodd" d="M3.45764 18.3653C3.45764 21.0673 5.61675 23.2577 8.28015 23.2577C10.9435 23.2577 13.1027 21.0673 13.1027 18.3653C13.1027 15.6633 10.9435 13.4729 8.28015 13.4729C5.61675 13.4729 3.45764 15.6633 3.45764 18.3653ZM9.88799 18.3663C9.88799 19.2669 9.1683 19.997 8.28052 19.997C7.39273 19.997 6.67304 19.2669 6.67304 18.3663C6.67304 17.4656 7.39273 16.7355 8.28052 16.7355C9.1683 16.7355 9.88799 17.4656 9.88799 18.3663Z" fill="black"/>
<path fill-rule="evenodd" clip-rule="evenodd" d="M0.773438 35.7591C0.773438 38.4611 2.93255 40.6515 5.59595 40.6515C8.25935 40.6515 10.4185 38.4611 10.4185 35.7591C10.4185 33.0571 8.25935 30.8667 5.59595 30.8667C2.93255 30.8667 0.773438 33.0571 0.773438 35.7591ZM7.20086 35.7597C7.20086 36.6604 6.48117 37.3905 5.59339 37.3905C4.7056 37.3905 3.98591 36.6604 3.98591 35.7597C3.98591 34.8591 4.7056 34.1289 5.59339 34.1289C6.48117 34.1289 7.20086 34.8591 7.20086 35.7597Z" fill="black"/>
<path fill-rule="evenodd" clip-rule="evenodd" d="M18.988 6.94884C18.988 10.2513 21.6269 12.9284 24.8822 12.9284C28.1375 12.9284 30.7764 10.2513 30.7764 6.94884C30.7764 3.6464 28.1375 0.969238 24.8822 0.969238C21.6269 0.969238 18.988 3.6464 18.988 6.94884ZM27.5588 6.94871C27.5588 8.44982 26.3593 9.66671 24.8797 9.66671C23.4 9.66671 22.2005 8.44982 22.2005 6.94871C22.2005 5.44761 23.4 4.23072 24.8797 4.23072C26.3593 4.23072 27.5588 5.44761 27.5588 6.94871Z" fill="black"/>
<path d="M26.107 16.3402H22.8921V12.5026H26.107V16.3402Z" fill="black"/>
<path d="M15.2929 20.8249L13.7368 23.679L10.5893 21.9128L12.1454 19.0587L15.2929 20.8249Z" fill="black"/>
<path d="M12.0946 29.8646L13.7429 32.6649L9.63376 35.1543L7.98541 32.354L12.0946 29.8646Z" fill="black"/>
<path fill-rule="evenodd" clip-rule="evenodd" d="M45.6582 35.4374C45.8937 38.1291 43.9338 40.4993 41.2805 40.7315C38.6272 40.9636 36.2854 38.9697 36.0499 36.278C35.8144 33.5863 37.7744 31.216 40.4277 30.9839C43.0809 30.7518 45.4227 32.7457 45.6582 35.4374ZM39.2543 35.9976C39.3328 36.8948 40.1134 37.5594 40.9978 37.482C41.8822 37.4046 42.5355 36.6146 42.457 35.7173C42.3785 34.8201 41.5979 34.1555 40.7135 34.2329C39.8291 34.3103 39.1758 35.1003 39.2543 35.9976Z" fill="black"/>
<path d="M33.9798 30.8539L32.5979 33.795L36.706 35.7887L38.0879 32.8476L33.9798 30.8539Z" fill="black"/>
<path fill-rule="evenodd" clip-rule="evenodd" d="M30.18 34.3887C30.0393 34.5115 29.8949 34.63 29.7471 34.7441L29.7468 34.7583C28.7981 35.5151 27.6983 36.0645 26.4421 36.4162L24.5263 36.9524L26.4073 40.7754C19.0766 38.1832 15.4562 34.3591 14.8733 28.531L14.823 28.0406C14.7998 27.7688 14.788 27.4937 14.788 27.2158C14.788 21.994 18.9607 17.7609 24.1079 17.7609C29.2551 17.7609 33.4277 21.994 33.4277 27.2158C33.4277 28.0357 33.3248 28.8312 33.1315 29.5897C32.4408 31.6297 31.4622 33.2203 30.18 34.3887ZM31.469 37.5798C34.6368 35.2604 36.6987 31.4828 36.6987 27.2166C36.6987 20.163 31.0623 14.4449 24.1095 14.4449C17.1566 14.4449 11.5203 20.163 11.5203 27.2166C11.5203 27.602 11.5371 27.9834 11.57 28.3602H11.5827L11.6349 28.8687C12.4623 37.1412 18.3022 42.3056 29.1635 45.0405L32.6082 45.9079L29.1593 38.9341C29.9891 38.563 30.7593 38.1111 31.469 37.5798Z" fill="black"/>
</svg>
