<svg width="45" height="45" viewBox="0 0 45 45" fill="none" xmlns="http://www.w3.org/2000/svg">
<path fill-rule="evenodd" clip-rule="evenodd" d="M22.549 44.0055C10.7002 44.0055 1.09473 34.4001 1.09473 22.5512C1.09473 10.7024 10.7002 1.09698 22.549 1.09698C34.3978 1.09698 44.0033 10.7024 44.0033 22.5512C44.0033 24.2733 43.8004 25.9479 43.4174 27.5526C43.3892 27.7014 43.3573 27.8482 43.3089 27.9866C43.3019 28.0131 43.2951 28.0392 43.288 28.0654L43.2802 28.0622C43.2795 28.0639 43.2787 28.0659 43.278 28.0679C42.1707 30.7512 39.4022 32.5786 36.3192 32.5786C33.4696 32.5786 30.9062 30.9986 29.6815 28.6311C29.503 28.2862 29.3617 27.9207 29.253 27.5405C29.2182 27.4252 29.1878 27.3081 29.1626 27.1893C29.0551 26.7218 28.9927 26.2354 28.9675 25.7405C28.8854 24.7395 28.898 23.7906 28.9196 23.2083C28.9418 22.9921 28.9531 22.7725 28.9531 22.5505C28.9531 19.0136 26.0859 16.1461 22.5487 16.1461C19.0118 16.1461 16.1446 19.0136 16.1446 22.5505C16.1446 24.3415 16.88 25.961 18.065 27.1231V31.0487C15.0182 29.438 12.942 26.2367 12.942 22.5505C12.942 17.245 17.243 12.9443 22.5485 12.9443C27.854 12.9443 32.1549 17.245 32.1549 22.5505C32.1549 22.7786 32.1653 23.017 32.1758 23.2584C32.197 23.7441 32.2186 24.2423 32.1575 24.6939C32.1537 24.8133 32.1544 24.9339 32.1554 25.0555C32.1557 25.1083 32.1562 25.1612 32.1562 25.2141C32.1562 27.5131 34.0199 29.3768 36.319 29.3768C38.2673 29.3768 39.9593 28.0385 40.4301 26.2309C40.6736 25.0421 40.8015 23.8113 40.8015 22.5507C40.8015 12.4702 32.6295 4.29845 22.5492 4.29845C12.4687 4.29845 4.29702 12.4702 4.29702 22.5507C4.29702 32.631 12.4687 40.8027 22.5492 40.8027C26.8369 40.8027 30.7794 39.3244 33.8943 36.8494L33.9014 36.858C34.1722 36.6644 34.5041 36.5506 34.8623 36.5506C35.7762 36.5506 36.5168 37.2912 36.5168 38.2051C36.5168 38.9629 36.0075 39.6016 35.3125 39.7977C31.7456 42.4419 27.3301 44.0055 22.549 44.0055ZM23.2244 32.3886C24.8165 32.3886 26.107 31.0981 26.107 29.506C26.107 27.9139 24.8165 26.6234 23.2244 26.6234C21.6323 26.6234 20.3419 27.9139 20.3419 29.506C20.3419 31.0981 21.6323 32.3886 23.2244 32.3886Z" fill="black"/>
<path d="M43.4133 27.5482L43.15 27.4852L43.1477 27.4981L43.4133 27.5482ZM43.3048 27.9822L43.0488 27.8926L43.0432 27.914L43.3048 27.9822ZM43.2839 28.061L43.1784 28.3097L43.4654 28.4316L43.5452 28.1302L43.2839 28.061ZM43.2761 28.0577L43.3816 27.8087L43.1293 27.7017L43.0259 27.9558L43.2761 28.0577ZM43.2738 28.0635L43.0241 27.9603L43.2738 28.0635ZM29.6773 28.6267L29.4374 28.7508L29.6773 28.6267ZM29.2488 27.5361L29.5086 27.4618L29.5076 27.4583L29.2488 27.5361ZM29.1585 27.1849L29.4228 27.1285L29.4218 27.1242L29.1585 27.1849ZM28.9633 25.736L29.2332 25.7222L29.2327 25.7139L28.9633 25.736ZM28.9155 23.2039L28.6461 23.1765L28.6456 23.1938L28.9155 23.2039ZM18.0609 27.1187H18.3312V27.0054L18.2502 26.9258L18.0609 27.1187ZM18.0609 31.0443L17.9345 31.2832L18.3312 31.4929V31.0443H18.0609ZM32.1717 23.254L31.9016 23.2658L31.9021 23.2731L32.1717 23.254ZM32.1717 23.254L32.4418 23.2424L32.4413 23.2349L32.1717 23.254ZM32.1533 24.6895L31.8842 24.653L31.8832 24.6807L32.1533 24.6895ZM32.1513 25.051H32.4215V25.049L32.1513 25.051ZM32.1513 25.051H31.8809V25.053L32.1513 25.051ZM40.426 26.2265L40.6881 26.2947L40.6908 26.2806L40.426 26.2265ZM33.8902 36.845L34.0986 36.6728L33.9297 36.4683L33.7223 36.6332L33.8902 36.845ZM33.8972 36.8535L33.689 37.0257L33.8494 37.2198L34.0546 37.0733L33.8972 36.8535ZM35.3083 39.7933L35.2351 39.5332L35.1872 39.5468L35.1474 39.5763L35.3083 39.7933ZM0.820312 22.5468C0.820312 34.5449 10.5467 44.2715 22.5449 44.2715V43.731C10.8453 43.731 1.36088 34.2466 1.36088 22.5468H0.820312ZM22.5449 0.822266C10.5467 0.822266 0.820312 10.5487 0.820312 22.5468H1.36088C1.36088 10.8473 10.8453 1.36283 22.5449 1.36283V0.822266ZM44.2695 22.5468C44.2695 10.5487 34.543 0.822266 22.5449 0.822266V1.36283C34.2444 1.36283 43.729 10.8473 43.729 22.5468H44.2695ZM43.6761 27.6109C44.0641 25.9858 44.2695 24.2902 44.2695 22.5468H43.729C43.729 24.2477 43.5286 25.9012 43.1502 27.4855L43.6761 27.6109ZM43.5598 28.0716C43.6152 27.9135 43.6502 27.7501 43.6787 27.5983L43.1477 27.4981C43.12 27.6436 43.0911 27.7742 43.0495 27.8928L43.5598 28.0716ZM43.5452 28.1302C43.5523 28.1038 43.5593 28.0771 43.5661 28.0504L43.0432 27.914C43.0364 27.9399 43.0296 27.9658 43.0228 27.9918L43.5452 28.1302ZM43.1706 28.3065L43.1784 28.3097L43.3894 27.8123L43.3816 27.8087L43.1706 28.3065ZM43.5236 28.1667C43.5246 28.1642 43.5256 28.162 43.5266 28.1597L43.0259 27.9558C43.0254 27.9573 43.0246 27.9588 43.0241 27.9603L43.5236 28.1667ZM36.3151 32.8443C39.5021 32.8443 42.3728 30.9559 43.5236 28.1665L43.0241 27.9603C41.9607 30.5375 39.2939 32.3038 36.3151 32.3038V32.8443ZM29.4374 28.7508C30.7095 31.2104 33.367 32.8443 36.3151 32.8443V32.3038C33.5642 32.3038 31.0947 30.7782 29.9175 28.5026L29.4374 28.7508ZM28.989 27.6106C29.1021 28.0061 29.2498 28.3883 29.4374 28.7508L29.9175 28.5026C29.7481 28.175 29.6131 27.8264 29.5086 27.4618L28.989 27.6106ZM29.5076 27.4583C29.4749 27.3495 29.4465 27.2395 29.4228 27.1285L28.8941 27.2413C28.9211 27.3677 28.9533 27.492 28.99 27.6141L29.5076 27.4583ZM28.6932 25.7496C28.7191 26.2582 28.7833 26.7604 28.8949 27.2456L29.4218 27.1242C29.3183 26.6741 29.2576 26.2038 29.2332 25.7222L28.6932 25.7496ZM29.2327 25.7139C29.1517 24.7275 29.164 23.7902 29.1856 23.2142L28.6456 23.1938C28.6235 23.7819 28.6106 24.7424 28.694 25.7582L29.2327 25.7139ZM29.1844 23.2313C29.2075 23.006 29.2194 22.7774 29.2194 22.5461H28.6786C28.6786 22.759 28.6678 22.9693 28.6466 23.1765L29.1844 23.2313ZM29.2194 22.5461C29.2194 18.8599 26.2311 15.8715 22.5446 15.8715V16.4121C25.9325 16.4121 28.6786 19.1584 28.6786 22.5461H29.2194ZM22.5446 15.8715C18.8584 15.8715 15.8701 18.8599 15.8701 22.5461H16.4106C16.4106 19.1584 19.157 16.4121 22.5446 16.4121V15.8715ZM15.8701 22.5461C15.8701 24.4126 16.6367 26.1008 17.8718 27.3118L18.2502 26.9258C17.1148 25.8123 16.4106 24.2615 16.4106 22.5461H15.8701ZM17.7907 27.1187V31.0443H18.3312V27.1187H17.7907ZM18.1872 30.8054C15.2256 29.2397 13.2083 26.1283 13.2083 22.5461H12.6678C12.6678 26.3365 14.8026 29.6277 17.9345 31.2832L18.1872 30.8054ZM13.2083 22.5461C13.2083 17.3899 17.3882 13.21 22.5444 13.21V12.6695C17.0896 12.6695 12.6678 17.0913 12.6678 22.5461H13.2083ZM22.5444 13.21C27.7005 13.21 31.8804 17.3899 31.8804 22.5461H32.4209C32.4209 17.0913 27.9991 12.6695 22.5444 12.6695V13.21ZM31.8804 22.5461C31.8804 22.7812 31.8913 23.0254 31.9016 23.2658L32.4416 23.2422C32.431 22.9997 32.4209 22.7673 32.4209 22.5461H31.8804ZM31.9021 23.2731V23.2734L32.4413 23.2349V23.2346L31.9021 23.2731ZM31.9016 23.2658C31.923 23.757 31.9429 24.2298 31.8855 24.6532L32.4212 24.7258C32.4861 24.2457 32.4625 23.7225 32.4416 23.2424L31.9016 23.2658ZM32.4215 25.049C32.4207 24.9266 32.4197 24.8111 32.4235 24.6983L31.8832 24.6807C31.8792 24.8063 31.8802 24.9324 31.8809 25.053L32.4215 25.049ZM32.4215 25.051H31.8809H32.4215ZM32.4222 25.2096C32.4222 25.1555 32.422 25.1016 32.4215 25.0493L31.8809 25.053C31.8814 25.1061 31.8817 25.158 31.8817 25.2096H32.4222ZM36.3148 29.1023C34.1651 29.1023 32.4222 27.3594 32.4222 25.2096H31.8817C31.8817 27.6579 33.8665 29.6428 36.3148 29.6428V29.1023ZM40.1644 26.1582C39.7246 27.8468 38.1401 29.1023 36.3148 29.1023V29.6428C38.386 29.6428 40.1856 28.2214 40.6876 26.2947L40.1644 26.1582ZM40.5269 22.5463C40.5269 23.7885 40.4011 25.0012 40.1611 26.1723L40.6908 26.2806C40.9378 25.0742 41.0675 23.8252 41.0675 22.5463H40.5269ZM22.5451 4.5643C32.4761 4.5643 40.5269 12.6151 40.5269 22.5463H41.0675C41.0675 12.3165 32.7747 4.02375 22.5451 4.02375V4.5643ZM4.56318 22.5463C4.56318 12.6151 12.6139 4.5643 22.5451 4.5643V4.02375C12.3153 4.02375 4.02261 12.3165 4.02261 22.5463H4.56318ZM22.5451 40.5281C12.6139 40.5281 4.56318 32.4773 4.56318 22.5463H4.02261C4.02261 32.7759 12.3153 41.0687 22.5451 41.0687V40.5281ZM33.7223 36.6332C30.6531 39.0717 26.7696 40.5281 22.5451 40.5281V41.0687C26.8959 41.0687 30.8973 39.5682 34.0584 37.0564L33.7223 36.6332ZM34.1057 36.6813L34.0986 36.6728L33.682 37.0172L33.689 37.0257L34.1057 36.6813ZM34.8582 36.2758C34.4418 36.2758 34.0553 36.4084 33.7401 36.6335L34.0546 37.0733C34.2809 36.9114 34.5581 36.8163 34.8582 36.8163V36.2758ZM36.7831 38.2007C36.7831 37.1375 35.9213 36.2758 34.8582 36.2758V36.8163C35.6228 36.8163 36.2426 37.4361 36.2426 38.2007H36.7831ZM35.3818 40.0536C36.1902 39.8255 36.7831 39.0826 36.7831 38.2007H36.2426C36.2426 38.8343 35.8166 39.3691 35.2351 39.5332L35.3818 40.0536ZM22.5449 44.2715C27.3858 44.2715 31.8575 42.6879 35.4692 40.0105L35.1474 39.5763C31.6257 42.187 27.266 43.731 22.5449 43.731V44.2715ZM25.8328 29.5015C25.8328 30.9443 24.6631 32.114 23.2203 32.114V32.6545C24.9617 32.6545 26.3733 31.2429 26.3733 29.5015H25.8328ZM23.2203 26.8891C24.6631 26.8891 25.8328 28.0587 25.8328 29.5015H26.3733C26.3733 27.7601 24.9617 26.3486 23.2203 26.3486V26.8891ZM20.6079 29.5015C20.6079 28.0587 21.7775 26.8891 23.2203 26.8891V26.3486C21.4789 26.3486 20.0673 27.7601 20.0673 29.5015H20.6079ZM23.2203 32.114C21.7775 32.114 20.6079 30.9443 20.6079 29.5015H20.0673C20.0673 31.2429 21.4789 32.6545 23.2203 32.6545V32.114Z" fill="black"/>
</svg>
