<svg width="41" height="37" viewBox="0 0 41 37" fill="none" xmlns="http://www.w3.org/2000/svg">
<path fill-rule="evenodd" clip-rule="evenodd" d="M21.8885 10.507C23.7469 10.6231 26.1411 10.9282 29.0841 11.421C29.9366 11.5639 30.6541 12.1462 30.9775 12.9576C31.2068 13.5325 31.3822 14.2139 31.5097 15.0066C32.2182 15.272 32.8386 15.671 33.3569 16.2038C33.6937 16.5494 33.9562 16.9394 34.1498 17.3628C34.3479 17.7952 34.4666 18.2425 34.5264 18.7057C34.5666 19.015 34.5752 19.2418 34.5752 19.5967C34.5752 20.6353 34.2255 21.7688 33.4128 22.7077C32.9289 23.2669 32.307 23.7145 31.5589 24.0576L30.9685 26.0723C30.6563 27.1374 29.69 27.8677 28.5928 27.8677H12.2695C11.2053 27.8677 10.2598 27.1796 9.92063 26.1581L9.20913 24.0152C8.46297 23.7386 7.82299 23.3012 7.3094 22.7057C6.44774 21.7066 6.09125 20.6925 6.09125 19.5967C6.09125 18.4184 6.45357 17.2194 7.32804 16.2454C7.82211 15.6949 8.44512 15.2843 9.18097 15.0077C9.41612 13.8101 9.80698 12.8271 10.3748 12.061L10.7072 11.6125L11.2526 11.5153C14.4928 10.9385 17.0991 10.5958 19.0874 10.4896V2.34386C19.0874 1.56061 19.7144 0.925659 20.488 0.925659C21.2615 0.925659 21.8885 1.56061 21.8885 2.34386V10.507ZM26.7214 3.79727C25.9478 3.79727 25.3209 3.16232 25.3209 2.37907C25.3209 1.59583 25.9478 0.960897 26.7214 0.960897H34.722C37.8757 0.960897 40.4323 3.5495 40.4323 6.74272V30.2768C40.4323 33.47 37.8757 36.0587 34.722 36.0587H5.99351C2.83984 36.0587 0.283264 33.47 0.283264 30.2768V6.74272C0.283264 3.5495 2.83984 0.960897 5.99351 0.960897H14.122C14.8956 0.960897 15.5227 1.59583 15.5227 2.37907C15.5227 3.16232 14.8956 3.79727 14.122 3.79727H5.99351C4.38692 3.79727 3.08451 5.116 3.08451 6.74272V30.2768C3.08451 31.9035 4.38692 33.2222 5.99351 33.2222H34.722C36.3285 33.2222 37.631 31.9035 37.631 30.2768V6.74272C37.631 5.116 36.3285 3.79727 34.722 3.79727H26.7214ZM11.6909 17.3153L11.8142 16.2973C11.9222 15.407 12.1086 14.709 12.3554 14.201C15.8707 13.5929 18.5385 13.2904 20.3343 13.2904C22.1189 13.2904 24.8311 13.589 28.444 14.1891C28.6212 14.6991 28.7605 15.3964 28.8513 16.2724L28.961 17.3311L29.9955 17.5202C30.5877 17.6283 31.03 17.853 31.3631 18.1952C31.4682 18.303 31.5482 18.4221 31.6095 18.556C31.7388 18.8385 31.775 19.119 31.775 19.5969C31.775 19.995 31.6299 20.4658 31.3072 20.8385C31.0294 21.1594 30.5895 21.4346 29.9626 21.6494L29.2749 21.8846L28.3528 25.0317H12.5029L11.3713 21.6232L10.574 21.4636C10.0602 21.361 9.69223 21.1557 9.42052 20.8404C9.01604 20.3713 8.89357 20.0231 8.89357 19.5969C8.89357 19.0682 9.05224 18.543 9.40183 18.1535C9.6687 17.8563 10.0855 17.6386 10.6975 17.5153L11.6909 17.3153ZM15.5632 20.4896C16.4977 20.4896 17.2552 19.7224 17.2552 18.7763C17.2552 17.8301 16.4977 17.0629 15.5632 17.0629C14.6287 17.0629 13.8709 17.8301 13.8709 18.7763C13.8709 19.7224 14.6287 20.4896 15.5632 20.4896ZM26.4405 18.7763C26.4405 19.7224 25.6829 20.4896 24.7485 20.4896C23.814 20.4896 23.0562 19.7224 23.0562 18.7763C23.0562 17.8301 23.814 17.0629 24.7485 17.0629C25.6829 17.0629 26.4405 17.8301 26.4405 18.7763Z" fill="black"/>
</svg>
