<svg width="307" height="162" viewBox="0 0 307 162" fill="none" xmlns="http://www.w3.org/2000/svg">
<path style="mix-blend-mode:multiply" opacity="0.8" d="M153.5 162.005C238.276 162.005 307 157.328 307 151.56C307 145.791 238.276 141.115 153.5 141.115C68.7243 141.115 0 145.791 0 151.56C0 157.328 68.7243 162.005 153.5 162.005Z" fill="url(#paint0_linear_1_5155)"/>
<path d="M96.2321 111.868H88.5928V153.529H96.2321V111.868Z" fill="#063956"/>
<path d="M115.139 153.853H70.1596C70.1596 152.43 71.3157 151.276 72.741 151.276H112.562C113.988 151.276 115.144 152.43 115.144 153.853H115.139Z" fill="#063956"/>
<path d="M74.1811 48.4457L45.2382 50.2065C39.5224 50.5546 36.0989 56.6974 38.8098 61.731L62.899 106.397C65.2361 110.734 69.7709 113.435 74.7044 113.435H111.611C116.399 113.435 120.276 109.56 120.276 104.785C120.276 102.87 119.639 101.01 118.468 99.4929L84.3371 53.1958C81.975 49.9926 78.1528 48.207 74.1761 48.4507L74.1811 48.4457Z" fill="#299C90"/>
<path d="M108.845 57.6176L117.122 46.1478C117.122 46.1478 119.708 46.3965 121.951 55.2998C124.183 64.1633 128.893 73.0268 128.893 73.0268L121.956 78.6025C121.956 78.6025 114.242 71.5396 112.313 62.3677C110.385 53.1909 108.84 57.6226 108.84 57.6226L108.845 57.6176Z" fill="#FCBA33"/>
<path d="M122.325 87.7694L125.195 83.9494C125.195 83.9494 127.109 82.0793 132.132 89.4605C132.132 89.4605 148.97 114.992 150.884 116.185C152.798 117.379 161.075 116.996 164.902 115.325C168.729 113.654 170.473 114.972 164.902 118.762C158.155 123.348 155.045 127.486 152.269 127.834C149.185 128.222 148.048 122.726 148.048 122.726C148.048 122.726 141.221 118.573 136.677 116.902C132.132 115.23 123.282 109.739 122.325 103.054C121.368 96.3693 122.325 87.7744 122.325 87.7744V87.7694Z" fill="#F9AF9A"/>
<path d="M138.316 117.568C140.444 113.574 143.254 110.406 145.073 108.59C139.527 100.677 132.127 89.4657 132.127 89.4657C127.104 82.0844 125.19 83.9546 125.19 83.9546L122.32 87.7745C122.32 87.7745 121.363 96.3694 122.32 103.054C123.276 109.739 132.127 115.23 136.671 116.902C137.195 117.096 137.748 117.32 138.316 117.568Z" fill="#F23A30"/>
<g style="mix-blend-mode:multiply" opacity="0.64">
<path d="M122.464 94.8771C122.464 94.8771 128.788 110.754 139.517 115.578L138.316 117.568C138.316 117.568 126.421 113.877 124.183 106.223C123.401 103.542 122.459 94.8771 122.459 94.8771H122.464Z" fill="#F23A30"/>
</g>
<path d="M111.541 89.5849C111.541 89.5849 120.361 88.3912 122.275 93.4049C123.301 96.1007 123.486 99.289 123.884 102.114C124.587 107.123 126.132 112.147 126.7 117.17C127.617 125.307 129.057 133.554 130.198 141.662C130.378 142.925 130.721 144.183 131.429 145.268C133.059 147.76 138.147 148.337 140.818 149.237C141.281 149.391 147.007 151.321 145.238 152.137C140.967 154.111 124.163 153.892 121.318 152.803C119.409 152.072 121.502 146.994 121.368 145.924C120.521 139.229 113.424 132.316 110.076 123.243C106.727 114.171 109.597 103.427 109.597 103.427L111.541 89.5799V89.5849Z" fill="#F9AF9A"/>
<path d="M110.076 123.253C111.865 128.103 114.72 132.331 117.127 136.245C120.765 135.335 125.898 134.176 129.735 133.828C128.305 120.786 125.569 97.0161 124.188 93.41C122.275 88.3963 111.541 89.59 111.541 89.59C111.541 89.59 70.3639 98.7569 76.8223 102.259C83.2806 105.765 109.592 103.437 109.592 103.437C109.592 103.437 106.722 114.181 110.071 123.253H110.076Z" fill="#F23A30"/>
<g style="mix-blend-mode:multiply" opacity="0.3">
<path d="M110.076 123.253C111.865 128.103 114.72 132.331 117.127 136.245C120.765 135.335 125.898 134.176 129.735 133.828C128.305 120.786 125.569 97.0161 124.188 93.41C122.275 88.3963 111.541 89.59 111.541 89.59C111.541 89.59 70.3639 98.7569 76.8223 102.259C83.2806 105.765 109.592 103.437 109.592 103.437C109.592 103.437 106.722 114.181 110.071 123.253H110.076Z" fill="#F23A30"/>
</g>
<g style="mix-blend-mode:multiply" opacity="0.3">
<path d="M114.87 91.6888C114.87 91.6888 106.009 102.577 100.742 104.328L84.7158 104.487L102.312 94.9368L114.865 91.6888H114.87Z" fill="#F23A30"/>
</g>
<path d="M82.1594 81.6813C82.1594 81.6813 78.5564 77.6326 74.9186 82.2782C69.8656 88.7244 71.0716 105.785 87.1426 104.482C105.556 102.99 115.253 86.5757 123.406 91.5894C123.406 91.5894 129.7 93.9022 129.7 89.8783C129.7 89.8783 129.849 82.0395 118.911 81.6813C107.973 81.3232 88.0546 81.6813 88.0546 81.6813H82.1693H82.1594Z" fill="#F23A30"/>
<g style="mix-blend-mode:multiply" opacity="0.43">
<path d="M118.004 56.2001L114.262 68.789C114.262 68.789 118.497 74.8124 119.29 75.7326C119.29 75.7326 116.599 67.3665 117.999 56.2001H118.004Z" fill="#FCBA33"/>
</g>
<path d="M140.818 149.242C131.608 152.201 121.363 145.934 121.363 145.934C121.497 147.004 119.404 152.082 121.313 152.813C124.158 153.902 140.967 154.116 145.233 152.147C147.002 151.331 141.276 149.401 140.813 149.247L140.818 149.242Z" fill="#0A5487"/>
<path d="M164.902 115.325C164 115.718 162.849 116.036 161.598 116.285C156.943 120.751 148.048 122.726 148.048 122.726C148.048 122.726 149.184 128.227 152.269 127.834C155.045 127.486 158.154 123.348 164.902 118.762C170.473 114.972 168.729 113.654 164.902 115.325Z" fill="#0A5487"/>
<path d="M222.558 124.939C222.558 124.939 227.068 131.973 228.767 133.266C230.467 134.559 233.158 134.514 232.475 137.026C231.787 139.538 220.68 153.574 217.829 153.644C214.984 153.713 221.362 138.787 221.362 138.787L214.889 128.759L220.515 124.581L222.558 124.934V124.939Z" fill="#F9AF9A"/>
<path d="M206.801 59.0202C206.801 59.0202 193.077 55.1953 190.436 58.6919C184.93 65.9737 191.617 99.3834 191.617 99.3834C191.767 102.189 192.718 104.89 194.363 107.168L218.816 139.423L227.327 131.306C227.327 131.306 219.389 102.82 209.771 100.458C209.771 100.458 205.117 98.5876 205.167 94.0365C205.216 89.4854 206.801 59.0202 206.801 59.0202Z" fill="#063956"/>
<g style="mix-blend-mode:multiply" opacity="0.15">
<path d="M206.801 59.0202C206.801 59.0202 193.077 55.1953 190.436 58.6919C184.93 65.9737 191.617 99.3834 191.617 99.3834C191.767 102.189 192.718 104.89 194.363 107.168L218.816 139.423L227.327 131.306C227.327 131.306 219.389 102.82 209.771 100.458C209.771 100.458 205.117 98.5876 205.167 94.0365C205.216 89.4854 206.801 59.0202 206.801 59.0202Z" fill="#063956"/>
</g>
<g style="mix-blend-mode:multiply" opacity="0.15">
<path d="M199.032 66.6253L191.542 64.4567L194.293 89.3759C194.293 89.3759 193.939 101.542 198.938 106.929C203.931 112.311 206.532 96.3593 206.532 96.3593L199.042 66.6253H199.032Z" fill="#063956"/>
</g>
<g style="mix-blend-mode:multiply" opacity="0.15">
<path d="M210.574 128.545L216.324 136.131C216.324 136.131 219.424 114.728 216.867 108.033C214.311 101.338 208.919 111.211 208.919 111.211L210.574 128.545Z" fill="#063956"/>
</g>
<path d="M213.2 136.255C213.2 136.255 211.755 144.696 212.148 146.844C212.542 148.993 214.615 150.814 212.358 152.246C210.1 153.679 191.059 155.031 188.851 153.126C186.644 151.221 202.71 145.934 202.71 145.934L202.909 133.872L211.889 134.579L213.195 136.255H213.2Z" fill="#F9AF9A"/>
<path d="M208.057 51.833C208.057 51.833 210.544 48.6845 214.092 52.2856C218.303 56.5632 218.258 77.0954 215.044 88.4359C214.7 89.6496 214.854 90.9428 215.213 92.1564C216.095 95.1109 217.515 100.826 217.854 103.92C219.185 116.155 212.681 144.865 212.681 144.865H200.761L197.572 94.3151L197.343 57.5132L208.052 51.828L208.057 51.833Z" fill="#063956"/>
<g style="mix-blend-mode:multiply" opacity="0.09">
<path d="M217.859 103.925C217.52 100.826 216.1 95.1108 215.218 92.1613C214.859 90.9526 214.65 89.6395 215.049 88.4408C219.05 76.3841 218.213 56.5631 213.997 52.2905C210.449 48.6894 208.057 51.8379 208.057 51.8379L205.067 53.4245C209.064 58.7317 209.402 78.6422 208.505 88.5701C208.391 89.8285 208.6 91.082 209.093 92.2459C210.304 95.081 212.358 100.602 213.045 103.641C215.671 115.315 212.213 143.278 212.019 144.596H212.681C212.681 144.596 219.185 116.16 217.854 103.925H217.859Z" fill="#063956"/>
</g>
<path d="M129.067 43.8996C129.067 43.8996 127.697 42.1438 128.489 42.1687C128.947 42.1836 129.819 43.9593 133.467 47.063C136.921 50.0026 139.462 50.1767 141.082 50.7685C144.266 51.9275 137.578 54.2602 136.642 53.8374C132.59 51.9971 130.467 52.2856 128.748 50.7138C128.484 50.4751 127.726 49.0476 129.207 49.729C130.672 50.4005 131.708 50.0921 131.668 49.4704C131.608 48.5402 128.519 48.0478 126.625 46.6054C124.682 45.1232 123.456 43.4619 124.323 43.064C124.388 43.0341 124.467 43.0491 124.527 43.0888C124.741 43.243 125.918 44.0538 127.597 44.6407C127.597 44.6407 124.986 42.7258 125.419 41.9846C125.853 41.2435 127.004 42.9645 129.062 43.9046L129.067 43.8996Z" fill="#FCB29A"/>
<path d="M170.134 37.6076C170.134 37.6076 165.719 32.201 164.06 33.1112C162.136 34.1657 159.649 45.9041 156.425 50.7586C156.425 50.7586 153.196 52.7283 144.57 50.5398C135.944 48.3512 137.484 48.8138 137.484 48.8138L135.067 54.8969C135.067 54.8969 154.058 63.0392 160.252 61.169C167.269 59.0501 176.164 48.2468 176.164 48.2468L170.134 37.6126V37.6076Z" fill="#299C90"/>
<path d="M176.563 21.9995L178.033 19.0798C178.033 19.0798 178.372 26.5357 180.21 26.9336C182.049 27.3315 182.388 25.9936 186.385 27.1674C190.386 28.3412 184.092 33.0366 184.092 33.0366L179.269 37.4982H174.993L168.29 32.4348C167.568 31.8876 167.757 30.7536 168.619 30.4701C169.456 30.1965 170.877 29.903 171.245 29.7489C172.068 29.3957 170.269 22.6014 170.269 22.6014L176.563 22.0045V21.9995Z" fill="#F9AF9A"/>
<g style="mix-blend-mode:multiply" opacity="0.41">
<path d="M176.563 21.9995L178.033 19.0798C178.033 19.0798 178.372 26.5357 180.21 26.9336C182.049 27.3315 182.388 25.9936 186.385 27.1674C190.386 28.3412 184.092 33.0366 184.092 33.0366L179.269 37.4982H174.993L168.29 32.4348C167.568 31.8876 167.757 30.7536 168.619 30.4701C169.456 30.1965 170.877 29.903 171.245 29.7489C172.068 29.3957 170.269 22.6014 170.269 22.6014L176.563 22.0045V21.9995Z" fill="#FCB29A"/>
</g>
<path d="M164.962 19.5126C164.937 19.6668 164.922 19.816 164.912 19.9702C164.707 22.671 165.968 24.969 167.413 27.0928C171.141 32.5691 179.503 24.8197 179.772 19.6867C180.076 13.9269 177.355 9.42551 172.77 8.70429C169.93 8.25664 166.561 8.76398 165.246 13.5837C164.967 14.6133 165.271 15.6727 165.231 16.7172C165.196 17.6673 165.096 18.5825 164.957 19.5176L164.962 19.5126Z" fill="#F9AF9A"/>
<g style="mix-blend-mode:multiply" opacity="0.41">
<path d="M172.775 8.69925C171.654 8.52018 170.453 8.50029 169.327 8.82857C169.422 8.83851 169.511 8.85344 169.606 8.86338C174.186 9.58957 175.91 12.8674 175.601 18.6222C175.426 21.905 173 28.6993 169.486 28.754C173.588 30.1716 179.548 23.999 179.777 19.6766C180.081 13.9169 177.36 9.41549 172.775 8.69427V8.69925Z" fill="#FCB29A"/>
</g>
<path d="M180.549 26.9684C180.549 26.9684 184.411 26.3119 188.428 26.3766C191.737 26.4313 193.725 28.0428 195.2 29.535C199.75 34.1209 213.583 49.5251 214.082 54.0364C214.406 56.9909 210.663 61.731 205.77 64.1931C200.278 66.9536 188.518 67.0084 188.518 67.0084C188.518 67.0084 177.534 57.4485 172.038 46.0832C171.081 44.1085 162.31 36.5979 163.347 34.0513C164.05 32.3253 169.736 29.4554 170.209 30.2164C174.529 37.2147 180.31 34.2801 180.544 26.9635L180.549 26.9684Z" fill="#299C90"/>
<path d="M177.599 33.6433C177.599 33.6433 179.797 31.6239 179.622 26.3367L181.93 26.6202C181.93 26.6202 183.121 31.7383 181.735 35.5782L177.599 33.6433Z" fill="#D9F1FF"/>
<path d="M171.335 29.3657C171.335 29.3657 173.593 33.3846 177.599 33.7378L176.353 37.9855C176.353 37.9855 170.528 35.4339 169.89 30.1566L171.335 29.3657Z" fill="#D9F1FF"/>
<path d="M174.156 15.4986C174.639 13.3051 174.559 12.0915 172.895 12.6535C168.42 14.1656 161.354 13.7378 162.624 9.21656C162.624 9.21656 164.682 10.276 167.154 8.56995C171.021 5.90394 177.3 6.08797 179.229 8.27649C181.152 10.465 181.486 12.9719 180.709 15.8318L176.956 14.6928C176.956 14.6928 173.598 18.0253 174.156 15.4986Z" fill="#063956"/>
<path d="M178.342 13.4991L176.956 14.6928C176.956 14.6928 178.501 16.8913 177.599 18.4631C176.702 20.0348 177.629 25.4862 179.478 26.1527C179.478 26.1527 179.323 24.2427 180.161 23.0639C182.224 20.1592 183.484 17.8314 182.817 13.8373C182.149 9.84329 180.465 8.08751 177.365 7.48069C175.033 7.02806 175.392 11.2559 175.392 11.2559L178.342 13.4941V13.4991Z" fill="#063956"/>
<path d="M175.845 15.7026C175.845 15.7026 176.363 14.0114 178.058 14.6083C180.006 15.2947 178.9 20.6615 175.925 19.1345" fill="#F9AF9A"/>
<g style="mix-blend-mode:multiply" opacity="0.41">
<path d="M175.845 15.7026C175.845 15.7026 176.363 14.0114 178.058 14.6083C180.006 15.2947 178.9 20.6615 175.925 19.1345" fill="#FCB29A"/>
</g>
<g style="mix-blend-mode:multiply" opacity="0.53">
<path d="M196.84 42.676L198.584 35.444C198.584 35.444 203.741 49.1321 204.434 53.9767C204.823 56.6776 202.765 75.3148 202.765 75.3148L196.835 42.681L196.84 42.676Z" fill="#299C90"/>
</g>
<g style="mix-blend-mode:multiply" opacity="0.53">
<path d="M171.45 46.9237C167.847 57.344 159.191 61.0297 158.563 61.4177C159.191 61.3878 159.769 61.3082 160.252 61.159C165.241 59.6519 171.176 53.7628 174.191 50.48L171.45 46.9237Z" fill="#299C90"/>
</g>
<path d="M212.148 146.481C212.148 146.481 206.816 147.421 202.476 146.019C199.291 147.108 186.938 151.475 188.851 153.131C191.059 155.036 210.464 154.594 212.721 153.161C214.979 151.729 212.537 148.635 212.143 146.486L212.148 146.481Z" fill="#0A5487"/>
<path d="M217.824 153.644C220.67 153.574 232.056 139.533 232.744 137.026C233.432 134.514 229.914 134.017 228.219 132.724C228.219 132.724 224.816 137.11 221.362 138.792C221.362 138.792 214.984 153.718 217.829 153.649L217.824 153.644Z" fill="#0A5487"/>
<path d="M111.7 36.1702C111.7 36.1702 109.174 44.3721 110.913 45.3968C112.418 46.2821 117.81 44.8198 119.16 47.8986C120.511 50.9775 111.252 79.269 111.252 79.269L84.058 79.5625C84.058 79.5625 89.2655 49.535 91.9665 47.2272C94.6674 44.9193 100.363 47.1277 101.714 45.0138C103.064 42.8949 102.795 32.3104 102.795 32.3104L111.7 36.1751V36.1702Z" fill="#F9AF9A"/>
<g style="mix-blend-mode:multiply" opacity="0.3">
<path d="M111.7 36.1702C111.7 36.1702 109.174 44.3721 110.913 45.3968C112.418 46.2821 117.81 44.8198 119.16 47.8986C120.511 50.9775 111.252 79.269 111.252 79.269L84.058 79.5625C84.058 79.5625 89.2655 49.535 91.9665 47.2272C94.6674 44.9193 100.363 47.1277 101.714 45.0138C103.064 42.8949 102.795 32.3104 102.795 32.3104L111.7 36.1751V36.1702Z" fill="#F9AF9A"/>
</g>
<path d="M114.411 33.6881C114.411 33.6881 116.115 43.8349 117.82 44.5511C117.82 44.5511 111.207 44.7501 108.845 43.039C106.483 41.328 109.832 33.6881 109.832 33.6881H114.406H114.411Z" fill="#063956"/>
<g style="mix-blend-mode:multiply" opacity="0.41">
<path d="M114.411 33.6881C114.411 33.6881 116.115 43.8349 117.82 44.5511C117.82 44.5511 111.207 44.7501 108.845 43.039C106.483 41.328 109.832 33.6881 109.832 33.6881H114.406H114.411Z" fill="#063956"/>
</g>
<path d="M107.141 25.0734C110.36 23.9742 113.245 24.77 115.826 28.5004C117.371 30.7287 116.833 33.4196 118.014 34.5338C118.791 35.2699 119.205 35.0311 119.006 35.5733C118.737 36.2995 117.924 36.5333 117.924 36.5333C117.924 36.5333 117.85 41.6166 115.039 43.1038C112.508 44.4418 107.046 43.4917 104.729 39.7912C103.308 37.5181 99.7603 27.5952 107.141 25.0684V25.0734Z" fill="#F9AF9A"/>
<g style="mix-blend-mode:multiply" opacity="0.3">
<path d="M107.141 25.0734C108.038 24.765 108.905 24.6158 109.752 24.6257C105.247 27.6449 107.39 36.0756 108.466 38.1299C110.265 41.5619 112.607 43.4569 115.233 42.9794C115.169 43.0192 115.109 43.0689 115.039 43.1038C112.508 44.4417 107.624 43.6509 104.918 40.0349C103.308 37.8861 99.7653 27.5951 107.146 25.0684L107.141 25.0734Z" fill="#F9AF9A"/>
</g>
<path d="M119.16 47.8936C118.308 45.9488 115.353 45.347 112.433 45.7996C111.162 48.5303 110.19 51.8926 106.333 51.8727C102.152 51.8528 100.398 49.0227 99.6606 45.9637C97.3484 46.2274 93.89 45.5708 91.9615 47.2221C89.2605 49.53 84.053 79.5575 84.053 79.5575L111.247 79.264C111.247 79.264 120.506 50.9774 119.155 47.8936H119.16Z" fill="#FCBA33"/>
<path d="M105.725 26.5307C105.725 26.5307 109.832 27.0032 109.408 29.8085L117.446 28.187C117.446 28.187 116.868 22.1387 109.772 22.9992C108.292 23.1783 106.303 23.3176 105.725 26.5307Z" fill="#063956"/>
<path d="M109.488 27.5354C108.466 27.4111 107.918 28.4954 107.629 29.4852C106.662 32.7829 107.963 39.9055 111.491 44.576L99.551 44.1184C99.551 44.1184 97.9115 41.149 96.875 36.2398C96.0428 32.3004 97.0743 25.0733 104.44 23.5165C107.22 22.9296 110.554 23.2877 111.132 24.3869" fill="#063956"/>
<path d="M122.464 76.7075H102.83V79.4133H122.464V76.7075Z" fill="#0A5487"/>
<path d="M151.656 79.4133H119.718C118.343 79.4133 117.421 77.9957 117.989 76.7423L126.8 57.3142C127.109 56.6378 127.781 56.2001 128.529 56.2001H160.467C161.842 56.2001 162.764 57.6176 162.196 58.8711L153.385 78.2991C153.076 78.9756 152.404 79.4133 151.656 79.4133Z" fill="#0A5487"/>
<g style="mix-blend-mode:multiply" opacity="0.5">
<path d="M145.482 68.9581C145.482 70.2464 143.474 71.2909 140.992 71.2909C138.51 71.2909 136.502 70.2464 136.502 68.9581C136.502 67.6699 138.51 66.6254 140.992 66.6254C143.474 66.6254 145.482 67.6699 145.482 68.9581Z" fill="#0A5487"/>
</g>
<path d="M97.2836 51.5494C97.2836 51.5494 97.5627 46.1229 93.8651 47.3714C90.1675 48.6148 87.1426 51.0719 83.2856 57.6176C79.4285 64.1633 70.3639 75.5386 76.7276 79.0004C81.5016 81.6018 100.209 79.4381 103.891 79.7167C108.222 80.0449 108.342 77.4287 111.252 77.0606C117.212 76.3046 114.356 75.5535 109.338 75.5833C107.35 75.5983 105.297 76.2498 104.23 76.3841C100.298 76.8815 89.3353 72.8129 85.9765 74.0365C85.9765 74.0365 93.9897 64.7253 96.0428 57.6126" fill="#F9AF9A"/>
<g style="mix-blend-mode:multiply" opacity="0.51">
<path d="M82.5032 74.8969C82.5032 74.8969 84.3271 73.723 85.9766 74.0414L87.2772 72.022L82.5032 74.9019V74.8969Z" fill="#F9AF9A"/>
</g>
<path d="M93.7305 46.3617C87.2722 47.4211 76.897 65.6355 75.9651 70.1866C76.4435 68.6248 86.1709 69.545 87.7008 71.6689C89.9881 68.1523 94.6524 61.7708 96.0378 57.6126L99.2919 49.719C99.2919 49.719 97.5826 45.725 93.7305 46.3567V46.3617Z" fill="#FCBA33"/>
<g style="mix-blend-mode:multiply" opacity="0.43">
<path d="M96.5012 56.6576C96.5012 56.6576 97.1192 57.0406 96.8252 59.3435C96.5361 61.6464 87.7008 71.6738 87.7008 71.6738L96.5012 56.6576Z" fill="#FCBA33"/>
</g>
<path d="M269.297 79.4132H59.3608V83.9494H269.297V79.4132Z" fill="#FFC300"/>
<path d="M208.082 77.364C207.613 77.2248 206.427 76.7274 205.68 76.414C205.182 76.2002 204.628 76.1007 204.08 76.1255C204.025 76.1255 203.976 76.1305 203.931 76.1355C203.841 76.1454 203.522 76.1604 203.128 76.1803C202.391 76.2151 201.708 75.842 201.295 75.2302C201.28 75.2103 201.27 75.1954 201.265 75.1904C198.619 73.2506 200.153 57.3889 200.153 57.3889C200.153 57.3889 198.305 41.4326 196.69 36.593C195.076 31.7534 189.704 30.1368 189.704 30.1368C186.155 32.3353 194.328 55.7425 194.109 59.2093C193.8 64.1335 194.278 67.834 195.414 71.649C195.778 72.8627 195.529 74.0315 196.117 75.1457L196.082 74.1708C196.082 74.1708 196.949 78.2544 199.451 79.5625C200.094 79.8958 201.315 80.045 201.883 80.0599C202.451 80.0748 203.457 80.5921 204.394 80.7115C205.331 80.8309 206.074 80.3683 205.725 79.9356C205.515 79.6719 204.723 79.6869 203.278 78.9109C203.851 78.9855 204.369 78.7965 205.037 78.6971C205.874 79.0651 206.921 79.851 207.23 80.0201C207.673 80.2589 209.298 81.0248 208.491 79.6918C208.71 79.8908 208.884 80.045 208.944 80.0649C209.143 80.1395 209.781 80.5026 210.08 80.2837C210.379 80.0599 208.775 77.5779 208.072 77.369L208.082 77.364Z" fill="#F9AF9A"/>
<path d="M201.614 74.708C201.614 69.4456 200.786 52.9422 200.786 52.9422C200.786 52.9422 198.753 40.2139 197.139 35.3743C195.524 30.5347 189.235 29.3808 189.23 29.3808C188.428 29.1371 185.498 31.0669 185.154 31.634C184.361 32.9371 184.81 35.3495 184.7 36.8665C184.586 38.488 185.004 39.9255 185.378 41.4773C185.792 43.2082 186.131 44.8844 186.943 46.4811C187.526 47.6251 188.089 48.784 188.607 49.9628C189.604 52.211 191.757 54.8173 191.597 57.349C191.288 62.2732 196.112 76.0857 196.112 76.0857L201.604 74.7129L201.614 74.708Z" fill="#299C90"/>
<g style="mix-blend-mode:multiply" opacity="0.53">
<path d="M185.762 41.2982C185.582 43.3027 185.981 45.3171 186.908 47.1028L192.36 57.6076L185.762 41.2982Z" fill="#299C90"/>
</g>
<path d="M52.2298 9.04745C52.2298 9.04745 54.7314 17.4185 55.2048 25.3768C55.6782 33.34 46.2399 32.5392 46.2399 32.5392L52.2298 9.04248V9.04745Z" fill="#063956"/>
<path d="M52.6583 28.2367L52.15 23.0838C53.8394 22.5566 56.9041 21.4623 58.5286 21.7856C59.6349 22.0044 60.8508 22.5068 61.8126 23.5663C64.1647 26.1776 74.4502 40.5969 73.6031 44.0189C72.8606 47.0083 64.1049 51.0023 62.1664 49.7986C59.0519 47.8687 58.1898 45.7996 57.0536 42.3278C56.9689 42.0692 56.8891 41.8056 56.8144 41.5419L52.6583 28.2367Z" fill="#0A5487"/>
<path d="M45.7017 16.0508L41.6702 13.8921C41.6702 13.8921 45.3628 22.1836 42.4924 25.8543C40.5789 28.3015 52.748 25.2724 52.748 25.2724C52.748 25.2724 51.0886 21.8205 50.7697 15.5235C50.7148 14.4541 45.6967 16.0557 45.6967 16.0557L45.7017 16.0508Z" fill="#FCB29A"/>
<g style="mix-blend-mode:multiply" opacity="0.3">
<path d="M45.7017 16.0508L41.6702 13.8921C41.6702 13.8921 45.3628 22.1836 42.4924 25.8543C40.5789 28.3015 52.748 25.2724 52.748 25.2724C52.748 25.2724 51.0886 21.8205 50.7697 15.5235C50.7148 14.4541 45.6967 16.0557 45.6967 16.0557L45.7017 16.0508Z" fill="#F9AF9A"/>
</g>
<g style="mix-blend-mode:multiply" opacity="0.48">
<path d="M68.2111 48.1423C67.1198 48.5054 66.6115 50.0871 64.6979 49.7141H63.8458C63.3774 49.4206 62.59 50.1368 62.1614 49.7986L58.4937 39.5126L59.8592 36.3641L60.9206 31.7533C60.9206 31.7533 69.6912 47.6449 68.2062 48.1423H68.2111Z" fill="#0A5487"/>
</g>
<path d="M38.3065 139.04C38.2716 139.309 38.2467 139.528 38.2317 139.682C38.2517 139.533 38.2766 139.304 38.3065 139.04Z" fill="#FCBA33"/>
<path d="M55.5387 153.853L41.3762 153.529L55.5387 153.853Z" fill="#FCBA33"/>
<path d="M38.2118 139.831C38.2118 139.831 38.2068 139.876 38.2068 139.891C38.2068 139.876 38.2068 139.851 38.2118 139.831Z" fill="#FCBA33"/>
<path d="M47.0721 142.582L37.1254 138.563C37.7085 133.808 41.5606 114.086 45.6967 106.745C50.4059 98.3936 52.6583 88.2717 52.6583 88.2717L50.1268 74.1757L56.0569 60.6019L64.9471 61.6465C64.9471 61.6465 72.2626 95.459 70.4337 103.029C68.6048 110.6 46.6286 143.243 47.0671 142.582H47.0721Z" fill="#FCBA33"/>
<path d="M35.6803 149.466C36.1686 149.849 36.6869 150.247 37.2101 150.63C36.6919 150.247 36.1686 149.854 35.6803 149.466Z" fill="#FCBA33"/>
<path d="M38.2267 139.677C38.2168 139.742 38.2118 139.786 38.2068 139.831C38.2068 139.786 38.2168 139.747 38.2267 139.677Z" fill="#F23A30"/>
<path d="M38.3164 138.931C38.3164 138.971 38.3065 139.001 38.3015 139.035C38.3015 139.001 38.3114 138.971 38.3164 138.931Z" fill="#F23A30"/>
<path d="M55.5387 153.853L49.6285 150.61L55.5387 153.853Z" fill="#F23A30"/>
<path d="M38.1919 139.956C38.1919 139.956 38.1919 139.931 38.2018 139.891C38.2018 139.931 38.1919 139.956 38.1919 139.956Z" fill="#F23A30"/>
<path d="M37.9726 140.194C37.6886 140.498 37.1703 141.07 36.5623 141.761C37.1653 141.075 37.6886 140.503 37.9726 140.194Z" fill="#F23A30"/>
<path d="M36.5673 141.761C35.8148 142.622 34.9328 143.661 34.2401 144.591C34.9328 143.661 35.8098 142.622 36.5673 141.761Z" fill="#F23A30"/>
<path d="M32.785 145.541C32.9793 145.223 33.2285 144.87 33.5026 144.502C34.1953 143.572 35.0723 142.532 35.8298 141.672C36.4328 140.985 36.956 140.413 37.2401 140.105C37.3796 139.951 37.4593 139.866 37.4593 139.866C37.4593 139.866 37.4593 139.841 37.4693 139.801C37.4693 139.786 37.4693 139.762 37.4743 139.742C37.4743 139.697 37.4842 139.657 37.4942 139.588C37.5141 139.433 37.539 139.214 37.5689 138.946C37.5689 138.911 37.5789 138.881 37.5839 138.841L46.3395 142.492C45.901 143.154 45.6518 143.522 45.6518 143.522V148.744L48.8959 150.525L54.8061 153.763L40.6436 153.445C40.6436 153.445 38.5606 152.072 36.4776 150.54C35.9593 150.157 35.4361 149.764 34.9477 149.376C34.2152 148.799 33.5574 148.242 33.079 147.765C32.6056 147.292 32.3116 146.899 32.3116 146.655C32.3116 146.412 32.491 146.019 32.785 145.546V145.541Z" fill="#F23A30"/>
<g style="mix-blend-mode:multiply" opacity="0.18">
<path d="M47.0721 142.582L37.1254 138.563C37.7085 133.808 41.5606 114.086 45.6967 106.745C50.4059 98.3936 52.6583 88.2717 52.6583 88.2717L50.1268 74.1757L56.0569 60.6019L64.9471 61.6465C64.9471 61.6465 72.2626 95.459 70.4337 103.029C68.6048 110.6 46.6286 143.243 47.0671 142.582H47.0721Z" fill="#FCBA33"/>
</g>
<g style="mix-blend-mode:multiply" opacity="0.34">
<path d="M54.8011 82.3776L55.7978 69.5251C55.7978 69.5251 57.1333 66.2025 58.1549 78.3687C58.409 81.3878 59.3559 84.3125 60.9655 86.879C62.3408 89.0725 63.6415 91.3605 62.9338 91.1715C62.0917 90.9477 60.6814 90.1817 59.909 89.8683C59.9638 90.2115 60.0186 90.5498 60.0734 90.888C61.3442 92.6488 63.7661 96.0658 62.6697 95.9962C62.0767 95.9564 61.409 95.8818 60.8359 95.8122C61.1598 98.0504 61.3591 99.6819 61.3242 100.154C61.1698 102.293 50.7746 117.881 50.7746 117.881L54.8061 82.3776H54.8011Z" fill="#FCBA33"/>
</g>
<g style="mix-blend-mode:multiply" opacity="0.55">
<path d="M32.785 145.541C32.9793 145.223 33.2285 144.87 33.5026 144.502C34.1953 143.572 35.0723 142.532 35.8298 141.672C36.4328 140.985 36.956 140.413 37.2401 140.105C37.3796 139.951 37.4593 139.866 37.4593 139.866C37.4593 139.866 37.4593 139.841 37.4693 139.801C37.4693 139.786 37.4693 139.762 37.4743 139.742C37.4743 139.697 37.4842 139.657 37.4942 139.588C37.5141 139.433 37.539 139.214 37.5689 138.946C37.5689 138.911 37.5789 138.881 37.5839 138.841L46.3395 142.492C45.901 143.154 45.6518 143.522 45.6518 143.522V148.744L48.8959 150.525L54.8061 153.763L40.6436 153.445C40.6436 153.445 38.5606 152.072 36.4776 150.54C35.9593 150.157 35.4361 149.764 34.9477 149.376C34.2152 148.799 33.5574 148.242 33.079 147.765C32.6056 147.292 32.3116 146.899 32.3116 146.655C32.3116 146.412 32.491 146.019 32.785 145.546V145.541Z" fill="#F23A30"/>
</g>
<path d="M48.7664 144.407L60.1482 150.814C61.11 151.356 61.6332 152.44 61.4488 153.529C61.4488 153.529 41.0473 154.116 39.4427 153.072C37.8331 152.027 41.3114 143.87 41.3114 143.87L48.7614 144.407H48.7664Z" fill="#F23A30"/>
<path d="M39.0542 112.027C39.0741 108.083 42.3331 102.353 42.3331 102.353C42.3331 102.353 36.7419 83.3128 37.2652 74.1758C37.7884 65.0387 42.6222 59.8211 42.6222 59.8211C50.9891 57.2098 56.9391 63.5316 56.9391 63.5316L56.8843 102.622L49.6835 144.407L40.3947 144.054C40.3947 144.054 39.0193 117.876 39.0492 112.022L39.0542 112.027Z" fill="#FCBA33"/>
<g style="mix-blend-mode:multiply" opacity="0.18">
<path d="M37.265 74.1758C37.7882 65.0388 42.622 59.8211 42.622 59.8211C45.7366 58.8512 48.5122 59.1148 50.7747 59.8311C50.4906 59.8808 50.2115 59.9206 49.9225 59.9903C49.9225 59.9903 44.7648 64.8945 43.6585 73.9769C42.936 79.9008 44.5406 90.1918 45.7415 96.638C46.3944 100.135 45.896 103.726 44.4459 106.979C43.7383 108.57 43.1253 110.336 43.0157 111.868C42.6071 117.707 42.3081 143.92 42.3081 143.92L45.7166 144.268L40.3945 144.064C40.3945 144.064 39.0191 117.886 39.049 112.032C39.0689 108.088 42.328 102.358 42.328 102.358C42.328 102.358 36.7367 83.3179 37.26 74.1808L37.265 74.1758Z" fill="#FCBA33"/>
</g>
<path d="M52.4291 22.8948C52.4291 22.8948 51.3278 25.5658 43.0207 24.6108C41.9493 24.4864 38.6653 25.5807 37.6537 27.237C34.6238 32.2059 34.6338 43.3077 36.7916 46.2423C39.6669 50.1568 40.0955 60.0697 38.5257 65.0287C36.956 69.9877 65.6647 67.8589 65.6796 61.6415C65.6996 54.106 63.3674 44.7999 62.4256 39.1943C61.8774 35.9413 59.6598 26.4113 57.532 22.2681C56.9888 21.2086 54.0885 22.4173 52.4241 22.8898L52.4291 22.8948Z" fill="#0A5487"/>
<path d="M38.2118 57.553L54.3925 64.3822C55.444 64.8 56.4656 64.0987 56.7347 63.472L66.0883 39.7266C66.3574 39.0949 66.0584 38.3687 65.4305 38.1051L49.788 31.1316C49.1551 30.8631 47.8893 31.3057 47.6202 31.9374L37.5341 55.7525C37.265 56.3841 37.5789 57.2944 38.2118 57.558V57.553Z" fill="#AEE0F4"/>
<path d="M38.9298 57.2846L55.1102 64.1099C55.7415 64.3762 56.4694 64.0813 56.7362 63.4512L66.8199 39.6363C67.0867 39.0063 66.7912 38.2797 66.16 38.0134L49.9796 31.1881C49.3483 30.9218 48.6203 31.2167 48.3536 31.8468L38.2699 55.6616C38.0031 56.2917 38.2986 57.0183 38.9298 57.2846Z" fill="#D9F1FF"/>
<g style="mix-blend-mode:multiply">
<path d="M50.4856 47.8439C50.5952 48.9779 51.6068 49.8086 52.748 49.6991C53.8842 49.5897 54.7164 48.58 54.6068 47.441C54.4972 46.3069 53.4855 45.4763 52.3444 45.5857C51.2032 45.6952 50.376 46.7049 50.4856 47.8439Z" fill="#C6E7F7"/>
</g>
<g style="mix-blend-mode:multiply" opacity="0.48">
<path d="M42.1586 49.7389L40.9028 48.8983L55.3493 51.9026C55.3493 51.9026 55.5935 52.768 56.5852 52.7382C57.5768 52.7083 60.6415 52.7481 60.6415 52.7481L57.5768 54.9118C57.5768 54.9118 51.1883 55.4639 50.1418 54.9118C49.0953 54.3597 42.1536 49.7439 42.1536 49.7439L42.1586 49.7389Z" fill="#0A5487"/>
</g>
<path d="M65.4355 55.2848C65.3507 54.8969 64.7577 55.1903 63.4172 55.4838C63.3674 55.4937 63.3126 55.5136 63.2578 55.5236C63.0335 55.5485 62.8043 55.5733 62.5751 55.5833C62.4455 55.5833 62.3159 55.5833 62.1814 55.5783C63.2677 55.4142 64.7278 54.9019 64.688 54.5238C64.6381 54.0264 64.085 54.3846 62.3807 54.7427C61.2844 54.9715 60.4023 54.8919 60.1083 54.6283C59.3509 53.9518 61.8375 52.6089 60.6415 52.7382C60.2429 52.783 59.2961 53.0516 58.8226 53.2207C57.9207 53.544 56.0569 54.1657 55.434 53.9319C54.253 53.4893 53.2513 53.8325 53.2513 53.8325C53.2513 53.8325 50.0022 53.4296 52.469 55.7026C53.2962 56.4637 52.8776 57.3042 54.0885 57.7519C56.4905 58.6373 60.7861 58.6671 62.3658 58.3338C62.4654 58.3139 62.5701 58.2941 62.6697 58.2742C63.487 58.1448 64.1548 57.8613 64.1647 57.6375C64.1847 57.2993 63.178 57.4037 62.4455 57.5679C62.2362 57.6126 61.982 57.6325 61.7329 57.6325C63.198 57.5132 64.8524 57.0108 64.8773 56.6328C64.9023 56.2349 63.6863 56.4438 62.8143 56.6328C62.5751 56.6825 62.286 56.6925 61.997 56.6825C63.5019 56.4587 65.565 55.8718 65.4305 55.2799L65.4355 55.2848Z" fill="#F9AF9A"/>
<path d="M46.3296 43.5166C46.504 43.1585 47.0123 43.5812 48.2481 44.1682C48.293 44.1881 48.3428 44.2179 48.3926 44.2428C48.6019 44.3174 48.8212 44.392 49.0454 44.4566C49.17 44.4865 49.2996 44.5163 49.4292 44.5412C48.4076 44.1333 47.102 43.3027 47.2265 42.9446C47.391 42.4721 47.8445 42.9446 49.4242 43.6807C50.4408 44.1532 51.3128 44.2726 51.6617 44.0886C52.5537 43.6061 50.4358 41.7309 51.572 42.1289C51.9507 42.2632 52.8078 42.7407 53.2314 43.0142C54.0387 43.5315 55.7131 44.5611 56.3659 44.4765C57.6167 44.3124 58.5137 44.8745 58.5137 44.8745C58.5137 44.8745 61.7727 45.2177 58.8476 46.874C57.8708 47.4261 58.0851 47.8837 56.8044 48.0428C54.2629 48.3612 50.072 47.8687 48.6119 47.1873C48.5172 47.1426 48.4225 47.1028 48.3328 47.058C47.5654 46.7496 46.9824 46.3169 47.0222 46.103C47.082 45.7698 48.0388 46.103 48.7116 46.4263C48.9059 46.5208 49.1451 46.5904 49.3943 46.6501C47.994 46.1975 46.499 45.337 46.5588 44.964C46.6236 44.571 47.7647 45.0535 48.5671 45.4315C48.7913 45.536 49.0654 45.6106 49.3494 45.6653C47.9342 45.1033 46.0605 44.0637 46.3246 43.5166H46.3296Z" fill="#F9AF9A"/>
<path d="M43.9874 30.0572C43.7432 27.6499 39.5822 25.6255 39.5822 25.6255C39.5822 25.6255 35.3065 26.5556 32.7701 36.001C30.4229 44.7402 29.5459 52.1215 31.8731 54.7377C34.0009 57.1302 47.102 59.3485 54.1234 58.5477L55.5387 52.9223C55.5387 52.9223 43.4642 48.3363 39.2184 48.9133C39.2184 48.9133 44.406 34.1259 43.9924 30.0572H43.9874Z" fill="#0A5487"/>
<g style="mix-blend-mode:multiply" opacity="0.48">
<path d="M42.7017 34.2004L39.2334 48.2318C39.2334 48.2318 43.3246 38.8958 43.4791 37.3589C43.7084 35.1554 42.7017 34.2004 42.7017 34.2004Z" fill="#0A5487"/>
</g>
<path d="M55.135 11.8975C55.1749 12.0417 55.2098 12.1859 55.2397 12.3352C55.7529 14.9315 54.7962 17.3041 53.64 19.5274C50.665 25.2723 41.6552 18.7217 40.7931 13.7726C39.8264 8.22672 41.9443 3.54628 46.3046 2.31275C49.0056 1.54677 52.3344 1.65122 54.1633 6.1725C54.557 7.14241 54.3776 8.19688 54.542 9.20658C54.6865 10.1218 54.8908 11.0022 55.135 11.8875V11.8975Z" fill="#F9AF9A"/>
<g style="mix-blend-mode:multiply" opacity="0.41">
<path d="M46.3096 2.3177C47.3761 2.01429 48.5372 1.85513 49.6684 2.04414C49.5787 2.06901 49.489 2.0889 49.4043 2.11377C45.0489 3.3473 43.7582 6.72458 44.725 12.2705C45.2781 15.4339 48.4176 21.7408 51.8311 21.3876C48.0189 23.2379 41.5257 17.9407 40.7981 13.7776C39.8314 8.23167 41.9493 3.55123 46.3096 2.3177Z" fill="#FCB29A"/>
</g>
<path d="M56.042 43.8847L55.3344 48.595C55.3344 48.595 63.4372 51.5445 69.3772 50.4154C73.5831 49.6147 74.3854 44.969 73.608 42.8203C73.5931 42.3428 73.0798 38.5278 65.6896 42.3229C62.899 43.7554 56.047 43.8797 56.047 43.8797L56.042 43.8847Z" fill="#0A5487"/>
<path d="M43.205 8.5252C43.205 8.5252 43.514 5.88904 45.1984 6.25711C50.4956 7.40608 55.14 6.23224 55.4838 3.44188C55.8277 0.651518 52.9424 -0.373106 49.773 0.124284C46.6036 0.621675 42.5024 -0.820757 39.4626 1.85023C36.4178 4.52121 35.8996 8.18201 36.6171 12.6088C37.3347 17.0356 34.1305 19.2738 30.707 25.4166C27.3034 31.5295 26.0925 43.1983 32.187 49.4405C31.6239 48.8636 32.5608 44.5114 32.6455 43.6758C33.1588 38.6671 34.0009 34.1358 36.3032 29.5947C37.1553 27.9135 38.1869 26.5208 39.9809 25.8195C41.4758 25.2375 43.5439 24.9789 44.3014 23.2977C47.4259 16.3989 42.9559 11.2708 43.205 8.53018V8.5252Z" fill="#063956"/>
<path d="M42.4077 19.4727L44.9193 20.2586C44.9193 20.2586 45.3728 24.8296 40.9028 25.531C36.4328 26.2323 38.3862 33.5688 38.2716 38.1547C38.2716 38.1547 36.946 34.3348 36.7766 31.6588C36.5773 28.5253 37.4394 24.7998 40.5689 24.382C42.6669 24.1035 42.4077 19.4678 42.4077 19.4678V19.4727Z" fill="#063956"/>
<path d="M245.86 111.868H238.221V153.529H245.86V111.868Z" fill="#063956"/>
<path d="M264.762 153.853H219.783C219.783 152.43 220.939 151.276 222.364 151.276H262.185C263.611 151.276 264.767 152.43 264.767 153.853H264.762Z" fill="#063956"/>
<path d="M259.146 49.6245L288.088 51.3853C293.804 51.7335 297.228 57.8762 294.517 62.9098L270.428 107.575C268.091 111.913 263.556 114.614 258.622 114.614H221.716C216.927 114.614 213.05 110.739 213.05 105.964C213.05 104.049 213.688 102.189 214.859 100.672L248.99 54.3746C251.352 51.1714 255.174 49.3858 259.151 49.6295L259.146 49.6245Z" fill="#299C90"/>
<path d="M242.9 90.7538C242.9 90.7538 217.919 81.0547 210.284 82.4424C202.65 83.8301 183.913 132.545 183.913 132.545C183.913 132.545 164.483 139.239 166.795 140.627C169.108 142.015 189.928 141.318 191.313 140.627C192.703 139.936 192.006 134.624 192.006 134.624C192.006 134.624 201.489 124.467 207.04 118.692C212.592 112.922 217.45 103.915 217.45 99.7615C217.45 99.7615 237.389 109.645 248.481 107.163C257.536 105.138 242.895 90.7588 242.895 90.7588L242.9 90.7538Z" fill="#F9AF9A"/>
<path d="M228.284 76.9064L218.821 68.5751C216.16 69.6047 213.723 71.1416 211.65 73.0964L185.896 97.4187C185.896 97.4187 170.383 93.0666 168.42 95.1407C166.531 97.1352 186.15 107.138 188.647 106.889C191.144 106.64 190.895 102.403 190.895 102.403C190.895 102.403 201.384 100.806 211.376 95.7475C221.367 90.689 228.284 76.9064 228.284 76.9064Z" fill="#F9AF9A"/>
<path d="M227.268 48.968C227.268 48.968 226.415 45.6405 225.474 44.7203C224.532 43.8001 218.666 42.114 217.615 42.6213C216.563 43.1286 217.914 44.1632 219.608 44.5661C221.303 44.969 220.411 46.7347 221.068 48.6248C221.726 50.5149 223.037 50.679 223.46 50.9576C223.884 51.2361 225.15 54.4094 226.58 56.3592C228.01 58.309 231.075 55.4589 231.075 55.4589L227.263 48.968H227.268Z" fill="#F9AF9A"/>
<path d="M222.583 46.0185L220.495 45.163C220.495 45.163 219.514 46.481 220.216 46.9138C220.749 47.247 219.798 48.1125 220.515 48.4806C221.023 48.7392 221.083 49.6842 222.558 50.5497C224.033 51.4152 222.583 46.0135 222.583 46.0135V46.0185Z" fill="#F9AF9A"/>
<g style="mix-blend-mode:multiply" opacity="0.2">
<path d="M242.9 90.7538C242.9 90.7538 217.919 81.0547 210.284 82.4424C202.65 83.8301 183.913 132.545 183.913 132.545C183.913 132.545 164.483 139.239 166.795 140.627C169.108 142.015 189.928 141.318 191.313 140.627C192.703 139.936 192.006 134.624 192.006 134.624C192.006 134.624 201.489 124.467 207.04 118.692C212.592 112.922 217.45 103.915 217.45 99.7615C217.45 99.7615 237.389 109.645 248.481 107.163C257.536 105.138 242.895 90.7588 242.895 90.7588L242.9 90.7538Z" fill="#F9AF9A"/>
</g>
<g style="mix-blend-mode:multiply" opacity="0.2">
<path d="M229.64 89.3709L222.798 85.4664C222.798 85.4664 227.851 97.8365 228.284 101.836C228.718 105.84 234.732 98.2941 234.732 98.2941L229.645 89.366L229.64 89.3709Z" fill="#F9AF9A"/>
</g>
<path d="M262.599 94.2901C262.599 94.2901 258.328 104.556 252.239 107.262C244.704 110.614 235.744 106.397 229.714 94.3797C226.341 87.6599 222.349 84.5811 219.309 83.5465C217.645 82.9795 216.359 81.9001 215.527 80.3483C213.464 76.5084 212.353 71.7733 217.874 69.0327C223.884 66.0483 231.822 71.1018 238.55 76.4637C243.583 80.4726 262.599 94.2852 262.599 94.2852V94.2901Z" fill="#F9AF9A"/>
<path d="M170.936 137.578C168.001 138.911 165.953 140.12 166.795 140.627C169.108 142.015 189.928 141.318 191.313 140.627C192.703 139.936 192.006 134.624 192.006 134.624C192.006 134.624 183.783 139.508 170.932 137.578H170.936Z" fill="#063956"/>
<path d="M168.42 95.1407C166.531 97.1352 186.15 107.138 188.647 106.889C191.144 106.64 190.895 102.403 190.895 102.403C190.895 102.403 178.317 100.746 171.838 94.6134C170.179 94.5139 168.898 94.6383 168.42 95.1407Z" fill="#063956"/>
<path d="M233.292 72.604C233.292 72.604 235.923 90.0425 223.221 102.303C223.221 102.303 246.438 115.066 255.891 104.641C265.345 94.2156 262.17 90.6692 262.17 90.6692L243.772 80.4478C243.772 80.4478 235.276 73.8425 233.297 72.604H233.292Z" fill="#F23A30"/>
<path d="M279.188 47.4808L278.082 51.3902C278.082 51.3902 274.444 57.1948 275.162 58.6571C275.884 60.1194 266.446 57.2992 266.446 57.2992L264.762 56.8416C264.762 56.8416 269.625 51.2758 270.298 48.2418C270.971 45.2077 279.188 47.4857 279.188 47.4857V47.4808Z" fill="#F9AF9A"/>
<g style="mix-blend-mode:multiply" opacity="0.3">
<path d="M279.188 47.4808L278.082 51.3902C278.082 51.3902 274.444 57.1948 275.162 58.6571C275.884 60.1194 266.446 57.2992 266.446 57.2992L264.762 56.8416C264.762 56.8416 269.625 51.2758 270.298 48.2418C270.971 45.2077 279.188 47.4857 279.188 47.4857V47.4808Z" fill="#F9AF9A"/>
</g>
<path d="M260.596 56.9313C252.712 67.5406 242.721 76.5981 243.139 80.7861C243.667 86.0684 260.541 98.6026 263.102 93.4546C271.31 76.9512 277.947 64.7055 277.947 64.7055C277.947 64.7055 277.883 54.7378 275.65 55.5435C268.963 57.9658 267.851 56.0161 264.996 55.7475C263.057 55.5634 261.533 55.6629 260.591 56.9263L260.596 56.9313Z" fill="#D9F1FF"/>
<path d="M271.22 77.5082C276.353 68.0429 287.73 65.2376 298.209 51.8777C299.291 50.4999 299.809 48.7143 299.396 47.0132C298.957 45.2226 297.557 43.2778 293.68 42.671C285.931 41.4623 280.609 40.9799 280.609 40.9799L280.115 45.7598L288.602 49.4355C288.602 49.4355 275.286 54.0264 271.898 57.8911C268.399 61.8852 269.247 81.159 271.225 77.5032L271.22 77.5082Z" fill="#D9F1FF"/>
<g style="mix-blend-mode:multiply">
<path d="M292.803 47.9086L288.592 49.4355L279.507 45.536L292.803 47.9086Z" fill="#D9F1FF"/>
</g>
<path d="M260.89 61.2784L261.797 55.9812L243.742 62.2433L227.87 49.2366L223.271 54.6233C223.271 54.6233 232.375 69.744 240.972 72.2409C245.113 73.4396 258.373 71.266 258.373 71.266L260.89 61.2734V61.2784Z" fill="#D9F1FF"/>
<path d="M277.255 34.5237C274.031 32.7033 270.782 32.9818 267.268 36.4536C265.17 38.5277 265.205 41.517 263.715 42.472C262.734 43.1037 262.34 42.7655 262.444 43.3872C262.584 44.2178 263.411 44.6307 263.411 44.6307C263.411 44.6307 262.469 50.087 265.18 52.2407C267.617 54.1806 273.657 54.2552 276.876 50.7585C278.854 48.6098 284.64 38.6968 277.25 34.5237H277.255Z" fill="#F9AF9A"/>
<g style="mix-blend-mode:multiply" opacity="0.3">
<path d="M277.255 34.5237C276.358 34.0163 275.456 33.6781 274.549 33.5189C278.765 37.6473 274.778 46.2471 273.213 48.2317C270.597 51.5443 267.712 53.1012 264.996 52.0716C265.061 52.1263 265.116 52.191 265.18 52.2457C267.617 54.1855 273.004 54.3098 276.627 50.9873C278.78 49.0126 284.64 38.7017 277.25 34.5237H277.255Z" fill="#F9AF9A"/>
</g>
<path d="M276.188 40.0995C277.05 39.3932 276.677 39.1594 275.217 39.3087C272.81 39.5524 267.323 38.2194 266.665 34.9466C266.107 32.1661 268.549 30.3457 272.082 31.43C275.152 32.3701 277.783 34.1308 279.836 34.4541C284.221 35.1455 286.678 41.0893 283.987 45.8245C280.354 52.2209 282.622 55.6579 281.57 60.6169C279.263 71.4699 271.698 72.788 264.099 72.7034C264.099 72.7034 268.11 69.4704 268.459 64.7402C268.639 62.2682 267.468 59.836 270.527 56.1254C274.235 51.629 269.61 45.4564 276.188 40.1045V40.0995Z" fill="#063956"/>
<g style="mix-blend-mode:multiply" opacity="0.39">
<path d="M231.339 89.5451C229.714 94.3798 226.156 99.473 223.221 102.303C223.221 102.303 246.438 115.066 255.891 104.641C256.749 103.691 261.383 98.4484 262.604 94.2853C254.626 103.005 233.576 94.2355 231.344 89.5402L231.339 89.5451Z" fill="#F23A30"/>
</g>
<g style="mix-blend-mode:multiply">
<path d="M228.767 62.3329C232.131 66.4712 236.616 70.9775 240.972 72.2409C242.427 72.6637 245.008 72.6687 247.739 72.4946L255.812 63.2531C255.812 63.2531 249.049 69.5898 241.181 68.5702C235.301 67.8042 228.802 62.3677 228.762 62.3329H228.767Z" fill="#D9F1FF"/>
</g>
<defs>
<linearGradient id="paint0_linear_1_5155" x1="46.4492" y1="151.56" x2="353.454" y2="151.56" gradientUnits="userSpaceOnUse">
<stop stop-color="#8DE1E8" stop-opacity="0.8"/>
<stop offset="0.08" stop-color="#97E1E8" stop-opacity="0.74"/>
<stop offset="0.29" stop-color="#AEE1E8" stop-opacity="0.61"/>
<stop offset="0.46" stop-color="#BCE1E8" stop-opacity="0.53"/>
<stop offset="0.58" stop-color="#C1E1E8" stop-opacity="0.5"/>
<stop offset="1" stop-color="white"/>
</linearGradient>
</defs>
</svg>
