<svg width="381" height="245" viewBox="0 0 381 245" fill="none" xmlns="http://www.w3.org/2000/svg">
<path d="M324.29 199.78H326.063V160.758H324.29V199.78Z" fill="#110809"/>
<path d="M340.651 207.973C340.651 202.209 330.458 199.797 325.358 199.78C319.291 199.772 310.065 202.007 310.065 207.973" stroke="#110809" stroke-width="1.68053" stroke-miterlimit="10"/>
<path d="M325.19 209.509V199.938" stroke="#110809" stroke-width="1.68053" stroke-miterlimit="10"/>
<path d="M307.561 209.358C307.561 210.736 308.678 211.862 310.065 211.862C311.451 211.862 312.569 210.744 312.569 209.358C312.569 207.971 311.451 206.854 310.065 206.854C308.678 206.854 307.561 207.971 307.561 209.358Z" fill="#110809"/>
<path d="M322.728 209.358C322.728 210.736 323.846 211.862 325.232 211.862C326.618 211.862 327.736 210.744 327.736 209.358C327.736 207.971 326.618 206.854 325.232 206.854C323.846 206.854 322.728 207.971 322.728 209.358Z" fill="#110809"/>
<path d="M337.894 209.358C337.894 210.736 339.011 211.862 340.398 211.862C341.784 211.862 342.902 210.744 342.902 209.358C342.902 207.971 341.784 206.854 340.398 206.854C339.011 206.854 337.894 207.971 337.894 209.358Z" fill="#110809"/>
<path d="M328.601 147.649V118.937C328.601 113.971 332.626 109.938 337.6 109.938H347.507C352.473 109.938 356.506 113.962 356.506 118.937V151.035C356.506 158.127 350.708 163.925 343.616 163.925H311.316C310.476 163.925 309.804 163.244 309.804 162.412C309.804 161.572 310.485 160.9 311.316 160.9H315.358C322.677 160.9 328.601 154.967 328.601 147.657V147.649Z" fill="#F7FAE6"/>
<path d="M98.0152 155.65H96.2422V194.672H98.0152V155.65Z" fill="#110809"/>
<path d="M81.6639 202.865C81.6639 197.101 91.8564 194.69 96.9568 194.673C103.024 194.664 112.25 196.9 112.25 202.865" stroke="#110809" stroke-width="1.68053" stroke-miterlimit="10"/>
<path d="M97.1252 204.404V194.834" stroke="#110809" stroke-width="1.68053" stroke-miterlimit="10"/>
<path d="M114.745 204.25C114.745 205.628 113.628 206.754 112.241 206.754C110.855 206.754 109.737 205.637 109.737 204.25C109.737 202.864 110.855 201.746 112.241 201.746C113.628 201.746 114.745 202.864 114.745 204.25Z" fill="#110809"/>
<path d="M99.5779 204.25C99.5779 205.628 98.4603 206.754 97.0739 206.754C95.6874 206.754 94.5699 205.637 94.5699 204.25C94.5699 202.864 95.6874 201.746 97.0739 201.746C98.4603 201.746 99.5779 202.864 99.5779 204.25Z" fill="#110809"/>
<path d="M81.9163 206.754C83.2992 206.754 84.4203 205.633 84.4203 204.25C84.4203 202.867 83.2992 201.746 81.9163 201.746C80.5334 201.746 79.4123 202.867 79.4123 204.25C79.4123 205.633 80.5334 206.754 81.9163 206.754Z" fill="#110809"/>
<path d="M97.1162 142.551V113.839C97.1162 108.873 93.0913 104.84 88.1169 104.84H78.2102C73.2442 104.84 69.2109 108.865 69.2109 113.839V145.937C69.2109 153.029 75.0088 158.827 82.1006 158.827H114.4C115.241 158.827 115.913 158.146 115.913 157.314C115.913 156.474 115.232 155.802 114.4 155.802H110.359C103.04 155.802 97.1162 149.87 97.1162 142.559V142.551Z" fill="#F7FAE6"/>
<path d="M172.438 81.1438C172.833 80.3455 173.153 79.5137 173.388 78.7154C174.178 76.0098 174.144 72.9764 175.724 70.6321C176.564 70.7245 176.875 71.7748 176.942 72.6151C177.203 75.7493 176.951 78.9003 176.707 82.0429C176.648 82.8327 176.581 83.631 176.295 84.3704C175.976 85.2023 175.396 85.9081 174.825 86.5887C173.716 87.9247 170.825 93.0168 168.884 92.3025C167.498 91.7984 166.96 88.7314 167.363 87.5214C167.96 85.7316 169.212 85.1519 170.447 83.9671C171.254 83.1856 171.926 82.1941 172.447 81.1354L172.438 81.1438Z" fill="#FF9575"/>
<path d="M141.734 210.905C141.81 211.031 141.903 211.149 142.012 211.25C143.474 212.695 146.474 212.392 148.473 212.401C151.305 212.409 154.154 212.426 156.977 211.956C157.868 211.813 158.825 211.569 159.43 210.872C160.792 209.292 158.615 207.964 157.389 207.653C156.128 207.334 154.801 207.25 153.515 207.023C152.229 206.805 150.935 206.427 149.952 205.612C149.162 204.956 148.608 204.023 148.398 202.99C148.179 201.906 148.28 200.612 147.49 199.873C146.793 199.217 145.356 199.183 144.474 199.662C143.381 200.251 142.625 201.36 142.213 202.486C141.558 204.259 141.709 206.275 141.508 208.116C141.407 209.057 141.256 210.124 141.734 210.905Z" fill="#110809"/>
<path d="M152.23 156.497C152.162 156.026 152.095 155.564 152.02 155.102C151.137 149.716 149.213 144.8 147.919 139.574C146.121 132.356 144.323 125.197 141.953 118.139C140.979 115.24 140.222 111.602 138.727 108.946C137.357 106.51 135.5 106.703 132.668 107.232C131.08 107.526 129.4 107.879 128.24 109.005C127.484 109.745 127.047 110.736 126.644 111.711C124.408 117.181 123.493 122.172 123.056 127.962C122.762 131.886 123.593 134.826 124.535 138.49C125.593 142.633 125.576 146.397 127.954 150.178C129.559 152.724 131.752 154.959 132.702 157.816C133.643 160.656 133.509 163.715 134.45 166.58C135.282 169.101 136.491 171.47 137.533 173.907C138.71 176.663 138.844 179.73 138.962 182.73C139.256 190.217 139.542 197.712 139.836 205.199C143.306 204.468 146.776 203.737 150.247 203.006C150.717 202.905 151.221 202.787 151.515 202.417C151.843 202.014 151.818 201.434 151.784 200.913C151.213 191.763 152.305 182.604 152.734 173.445C152.994 167.807 153.003 162.11 152.221 156.505L152.23 156.497Z" fill="#D8E6FF"/>
<path d="M107.687 214.318C107.763 214.444 107.855 214.562 107.965 214.663C109.427 216.108 112.426 215.806 114.426 215.814C117.258 215.822 120.106 215.839 122.93 215.369C123.82 215.226 124.778 214.982 125.383 214.285C126.745 212.705 124.568 211.377 123.341 211.066C122.081 210.747 120.753 210.663 119.468 210.436C118.182 210.218 116.888 209.84 115.905 209.025C115.115 208.369 114.561 207.436 114.351 206.403C114.132 205.319 114.233 204.025 113.443 203.286C112.746 202.622 111.309 202.597 110.427 203.075C109.334 203.664 108.578 204.773 108.166 205.899C107.511 207.672 107.662 209.688 107.46 211.529C107.36 212.47 107.208 213.537 107.687 214.318Z" fill="#110809"/>
<path d="M146.046 62.8519C146.205 62.8098 146.365 62.7594 146.516 62.709C147.911 62.2049 148.945 60.9613 149.474 59.5748C150.003 58.1884 150.079 56.6759 150.012 55.197C149.961 54.0879 149.835 52.9787 149.911 51.8696C149.987 50.7352 150.281 49.5841 149.987 48.4917C149.255 45.702 145.844 45.3575 143.458 45.4331C140.609 45.5256 137.307 47.1809 135.794 49.6597C134.996 50.9621 134.744 52.6594 135.391 54.0375C135.929 55.1718 137.004 55.9785 138.147 56.5163C136.475 58.4153 134.795 60.3143 133.122 62.2217C131.618 63.9274 129.753 65.4735 129.182 67.7674C128.854 69.1118 130.635 69.4816 131.291 68.4984C131.719 67.8682 132.299 67.3221 132.929 66.8095C133.097 67.8935 133.887 68.49 134.761 68.5069C134.879 69.4479 135.811 70.221 136.803 69.8681C140.248 68.6329 141.391 64.3307 144.92 63.1628C145.289 63.0451 145.668 62.9695 146.037 62.8687L146.046 62.8519Z" fill="#FF9575"/>
<path d="M134.114 74.4311C134.618 72.5826 137.139 68.8182 136.215 67.146C135.442 65.7596 133.643 65.1966 132.072 65.4487C130.501 65.7008 129.114 66.5915 127.837 67.5326C120.493 72.9019 114.771 80.3634 111.04 88.6568C110.25 90.413 109.536 92.2448 109.377 94.169C109.208 96.2108 109.671 98.2443 110.124 100.236C112.099 108.832 114.082 117.428 116.057 126.023C118.183 126.923 120.687 125.208 121.502 123.041C122.317 120.881 121.939 118.469 121.577 116.184C121.132 113.352 120.745 110.512 120.418 107.672C120.056 104.563 119.796 101.227 121.283 98.4627C121.939 97.2528 122.913 96.1856 123.266 94.8496C123.493 94.0009 123.443 93.0934 123.728 92.2616C124.409 90.2954 126.602 89.1526 127.82 87.5477C129.324 85.5647 130.82 83.0355 131.854 80.7499C132.778 78.7081 133.526 76.5822 134.114 74.4227V74.4311Z" fill="#F02B66"/>
<path d="M146.011 89.3947C146.037 86.2185 146.877 83.0927 147.91 80.1182C148.935 77.1772 150.608 74.3876 151.322 71.371C151.423 70.9341 151.515 70.4719 151.423 70.035C151.271 69.2871 150.65 68.741 150.028 68.304C145.994 65.5144 140.02 64.254 135.18 64.4724C128.105 64.7917 122.929 70.9845 122.139 77.7822C121.719 81.4122 122.333 85.0841 123.097 88.6637C123.862 92.2432 124.795 95.8059 125.021 99.4611C125.173 101.948 124.996 104.444 124.904 106.931C124.828 109.25 124.307 111.763 126.82 112.905C132.912 115.678 139.382 114.166 142.608 108.191C144.112 105.419 144.81 102.284 145.406 99.1838C146.045 95.8564 145.978 92.6381 146.003 89.4031L146.011 89.3947Z" fill="#F02B66"/>
<path d="M167.75 85.3112C165.154 87.8067 162.557 90.3023 159.961 92.7979C159.179 93.5458 158.398 94.302 157.457 94.8314C156.633 91.3779 156.028 87.8319 155.121 84.4121C154.297 81.3199 154.516 78.0849 153.928 74.9507C153.642 73.4382 153.205 72.2786 152.339 71.1611C151.524 70.1107 151.121 68.7831 149.835 68.1697C149.508 68.0185 149.163 67.926 148.844 67.7664C148.054 67.3631 147.416 66.5144 146.533 66.5396C146.365 66.5396 146.197 66.59 146.079 66.6993C145.995 66.7833 145.937 66.8841 145.895 66.9934C145.668 67.5731 145.685 68.2117 145.668 68.8335C145.634 70.0855 145.533 71.6232 144.928 72.7492C144.349 73.8331 143.828 74.7238 143.433 75.9338C142.534 78.7403 141.853 81.6728 141.971 84.6389C142.046 86.6136 143.181 87.6303 143.819 89.4873C144.5 91.4787 144.634 93.6214 145.046 95.6716C145.953 100.243 148.189 104.545 151.415 107.914C151.945 108.469 152.533 109.023 153.272 109.25C158.894 110.981 163.423 103.688 166.49 100.217C169.666 96.6211 172.59 91.8316 174.111 87.2606C172.808 85.8321 171.38 84.5129 169.842 83.3281C169.153 83.9919 168.464 84.6557 167.767 85.3196L167.75 85.3112Z" fill="#F02B66"/>
<path d="M130.996 102.166C130.071 101.779 129.097 101.519 128.055 101.418C127.425 101.359 126.021 100.906 125.467 101.292C124.862 101.712 124.694 103.342 124.341 104.04C123.291 106.124 121.576 107.804 120.013 109.502C117.602 112.132 115.426 114.972 113.527 117.988C112.46 119.686 111.451 121.475 111.081 123.45C110.258 127.777 112.653 131.474 112.728 135.693C112.804 139.944 110.384 143.826 109.561 148.002C108.351 154.153 110.678 160.438 110.544 166.698C110.476 169.925 109.745 173.093 109.199 176.277C107.384 186.739 107.418 197.427 107.452 208.048L114.585 207.342C115.426 207.258 116.308 207.157 117.014 206.687C117.535 206.334 117.913 205.804 118.257 205.275C122.87 198.217 121.392 189.596 123.148 181.58C124.543 175.219 125.929 168.858 127.299 162.497C127.811 160.111 128.668 157.792 129.223 155.38C130.29 150.717 130.895 146.204 132.214 141.616C133.685 136.499 135.567 131.029 136.289 125.786C136.466 124.5 140.382 109.283 141.953 110.249C138.088 107.863 135.054 103.855 130.996 102.166Z" fill="#D8E6FF"/>
<path d="M152.785 49.6166C153.995 48.5411 154.835 47.1126 154.247 45.4237C153.634 43.6591 151.583 42.5752 149.76 42.9365C148.441 43.197 147.315 44.0877 145.996 44.407C143.609 44.9784 141.072 43.5667 138.685 44.1549C137.652 44.407 136.719 45.0456 136.106 45.9195C135.459 46.8269 135.173 47.9529 134.534 48.8688C133.493 50.3309 131.762 50.9611 130.148 51.5744C128.829 52.0786 126.527 52.6248 125.779 53.9188C125.258 54.8347 125.048 55.927 125.199 56.969C125.258 57.3807 125.376 57.7924 125.35 58.2125C125.283 59.2041 124.46 59.9519 123.838 60.7333C122.552 62.3466 122.048 64.6994 123.006 66.5228C123.653 67.7496 124.838 68.5982 126.065 69.2452C126.938 69.7074 127.863 70.0939 128.837 70.1947C132.115 70.5392 135.4 69.5897 137.736 67.1866C139.627 65.2456 140.71 62.5315 140.66 59.8175C140.635 58.4814 140.425 56.9353 141.391 56.0026C142.164 55.2548 143.063 55.1372 143.298 53.9524C143.458 53.1205 143.004 52.1794 143.458 51.4064C143.811 50.8098 144.458 50.3981 145.122 50.23C146.063 49.9947 147.054 50.1628 148.004 50.3645C149.811 50.7426 151.231 50.9526 152.667 49.7259C152.709 49.6922 152.751 49.6502 152.793 49.6166H152.785Z" fill="#1C0029"/>
<path d="M143.945 55.1872C143.928 54.8931 143.895 54.6074 143.895 54.3133C143.895 54.0276 143.937 53.7335 143.861 53.4646C143.685 52.8513 142.928 52.5488 142.307 52.7C141.685 52.8512 141.206 53.347 140.87 53.8848C140.172 54.9687 140.206 56.7585 141.584 57.3299C142.626 57.7584 143.844 56.624 143.937 55.5989C143.954 55.4561 143.945 55.3216 143.937 55.1788L143.945 55.1872Z" fill="#FF9575"/>
<path opacity="0.6" d="M129.064 118.452C127.425 117.545 122.644 114.478 122.644 114.478C122.417 114.402 119.443 119.099 119.073 121.385C118.922 122.334 119.031 123.385 119.661 124.107C120.031 124.527 120.544 124.813 121.081 124.964C122.275 125.284 123.577 124.956 124.61 124.292C126.098 123.343 128.274 120.007 129.064 118.461" stroke="#051433" stroke-width="0.840266" stroke-miterlimit="10"/>
<path d="M146.961 57.4747C147.087 57.9368 147.365 58.3821 147.785 58.6258C148.205 58.8611 148.785 58.8527 149.137 58.5166C149.272 58.3905 149.364 58.2225 149.44 58.046C149.549 57.7772 149.616 57.4915 149.633 57.1974C149.633 57.1722 149.633 57.147 149.608 57.1385C149.583 57.1385 149.583 57.1806 149.608 57.1722" fill="white"/>
<path d="M106.888 8.52403C106.939 7.04517 106.686 5.45706 106.619 4.03701C106.586 3.31438 106.552 2.59175 106.409 1.88593C106.376 1.70107 106.325 1.51622 106.224 1.35657C106.065 1.11289 105.779 0.978446 105.51 0.860809C104.939 0.600327 104.241 0.348245 103.72 0.701157C103.535 0.827197 103.401 1.01206 103.275 1.19691C102.536 2.27245 102.174 3.52445 101.914 4.79325C101.746 5.59991 101.838 7.59134 101.073 8.02828C101.502 7.7846 100.847 4.41513 99.8214 4.72603C99.5778 4.80165 99.4349 5.05373 99.4013 5.30581C99.3677 5.55789 99.4265 5.80997 99.4685 6.06205C99.729 7.93585 98.5863 9.76763 98.6955 11.6582C98.7627 12.9102 99.3593 14.053 99.5358 15.2882C99.729 16.557 99.8467 17.977 99.7458 19.2626C99.6702 20.2121 99.7542 23.1951 98.7123 23.7412C100.057 23.0438 101.653 22.859 103.115 23.2287C103.393 21.4305 103.67 19.6407 103.956 17.8426C104.14 16.6578 104.325 15.473 104.762 14.3555C105.376 12.801 106.46 11.4398 106.77 9.77603C106.846 9.38111 106.88 8.96097 106.896 8.54084L106.888 8.52403Z" fill="#FF9575"/>
<path d="M81.6132 207.8C81.7897 207.952 81.9662 208.094 82.151 208.229C84.1508 209.674 86.596 210.212 88.8983 210.985C90.1083 211.397 93.4778 212.363 91.9569 214.153C90.4024 215.985 86.8145 215.59 84.7306 215.422C82.4619 215.228 80.2016 214.766 77.9245 214.901C76.4792 214.985 75.034 215.304 73.6055 215.077C68.6143 214.279 71.2023 207.431 71.2107 204.086C71.2192 200.818 71.1099 197.499 71.9586 194.314C72.3367 192.911 73.0341 191.407 74.4038 190.911C75.2776 190.592 76.6641 190.81 77.5296 191.155C78.5631 191.566 78.7563 192.39 79.0504 193.449C79.9579 196.709 80.2184 200.288 80.1176 203.649C80.0924 204.456 80.0756 205.28 80.3444 206.036C80.5881 206.725 81.0587 207.305 81.6216 207.792L81.6132 207.8Z" fill="#111314"/>
<path d="M65.7593 51.7047C65.8181 51.9063 65.8685 52.108 65.9357 52.3097C66.1626 53.0659 66.1374 53.9398 66.213 54.7296C66.3391 56.1329 66.4063 57.5781 66.6668 58.9646C67.0029 60.7543 71.6075 68.7873 73.3385 68.7453C75.2375 68.7032 76.7331 60.9392 76.4138 59.0906C75.9769 56.5782 74.6409 51.5954 74.6325 51.5618C74.0695 50.0325 73.1032 48.5453 71.6075 47.8058C70.0278 47.0244 67.8179 47.184 66.1206 47.3689C65.8433 47.3941 65.5576 47.4445 65.3475 47.621C64.9442 47.9571 65.0198 48.5957 65.1375 49.1082C65.3307 49.9821 65.5408 50.856 65.7761 51.7131L65.7593 51.7047Z" fill="#FF9575"/>
<path d="M75.0776 54.3852C75.0776 54.3852 75.1112 54.3096 75.1028 54.2676C74.8255 53.192 74.6238 52.4274 74.6238 52.4106C72.2207 45.8565 65.4397 47.7891 65.9271 52.5114C65.9691 52.9483 66.0615 53.9567 66.1623 55.091L66.9438 55.6456C69.599 57.637 73.0861 56.948 75.0776 54.3852Z" fill="url(#paint0_linear_2906_1684)"/>
<path d="M73.4978 38.0639C72.2038 37.5681 70.0107 39.4167 68.6663 39.7612C67.3555 40.2318 65.2969 40.8368 64.4734 41.9459C62.7256 44.2986 63.5659 47.9034 65.154 50.2981C65.4229 50.7015 65.9943 51.735 66.3052 52.1047C68.7419 55.0793 72.5399 54.886 74.3717 54.1886C76.5564 53.3567 77.5395 51.3233 77.5899 48.6428C77.5983 48.1639 77.4219 46.6178 77.3715 46.1388C77.0438 43.1979 74.8675 38.5764 73.5063 38.0555L73.4978 38.0639Z" fill="#FF9575"/>
<path d="M75.1285 32.7297C74.8512 32.8221 74.5739 32.9902 74.3302 33.133C72.885 33.9817 71.1204 33.9481 69.4819 34.301C67.0451 34.822 64.5916 36.0572 63.2975 38.2755C61.7094 40.9979 62.7346 44.4346 63.558 47.2579C63.6168 47.4512 63.6757 47.6444 63.7681 47.8209C64.768 49.6863 66.1208 48.115 66.3141 46.6949C66.4317 45.8042 66.3141 44.8968 66.4653 44.0145C66.8099 42.0146 68.7173 40.3173 70.7507 40.4602C72.6497 40.5946 74.9352 40.0568 75.9015 38.225C76.683 36.7462 76.8174 34.948 76.2712 33.3683C76.1956 33.1498 76.0948 32.923 75.9099 32.7885C75.6831 32.6205 75.4058 32.6373 75.1369 32.7213L75.1285 32.7297Z" fill="#151A36"/>
<path d="M77.3304 44.7212C77.3304 44.8304 77.3136 44.9312 77.2968 45.0321C77.2296 45.0237 77.0951 44.9901 77.0531 44.9313C76.0616 43.5616 75.9271 41.7635 74.986 40.377C74.5911 39.7888 73.9357 39.7804 73.5912 39.3183C73.0954 38.6461 73.44 37.31 74.0786 36.8647C74.6919 36.4362 75.633 36.5454 76.0868 37.1336C76.2296 37.3184 76.3305 37.5369 76.4145 37.7638C76.9271 39.125 77.0279 40.5955 77.1203 42.0407C77.1707 42.881 77.3724 43.8809 77.322 44.7296L77.3304 44.7212Z" fill="#151A36"/>
<path d="M66.0375 49.1572C65.8443 49.5185 65.5418 49.8378 65.1637 49.9975C64.7855 50.1571 64.3234 50.1571 63.9705 49.9471C63.4243 49.6194 62.937 48.4682 62.8613 47.8632C62.7857 47.2582 63.0546 46.6196 63.5335 46.2499C65.3485 44.855 66.819 47.6447 66.0291 49.1656L66.0375 49.1572Z" fill="#FF9575"/>
<path d="M77.9095 44.5614C77.9095 44.5614 77.9095 44.5867 77.9095 44.6035C77.9431 44.9312 77.9768 45.2757 77.9095 45.595C77.8423 45.9143 77.6659 46.242 77.3718 46.4016C76.7752 46.7209 75.9349 46.0403 75.666 45.5277C75.3299 44.8891 75.3467 43.9733 75.6912 43.3431C75.9349 42.8893 76.4307 42.5112 76.9348 42.6204C77.2709 42.6961 77.5314 42.9817 77.6743 43.2926C77.8087 43.6119 77.8507 43.9565 77.8843 44.301C77.8843 44.385 77.9011 44.4606 77.9095 44.5446V44.5614Z" fill="#FF9575"/>
<path d="M85.9579 61.5126C85.7731 61.1765 85.3445 61.0588 84.9748 60.9748C83.8573 60.7143 82.7565 60.4202 81.6642 60.0757C80.6391 59.7564 79.7484 59.2775 78.6644 59.0926C78.3955 59.0422 78.1183 59.0086 77.8578 58.933C77.6561 58.8741 77.4628 58.7817 77.2696 58.6977C76.9083 58.538 76.5554 58.37 76.194 58.2103C76.3537 59.3783 76.1604 60.6891 75.4126 61.6386C74.4295 62.8822 72.5977 63.3023 71.0852 63.0923C69.6232 62.8906 68.2451 62.1176 67.5897 60.7647C67.22 60.0085 66.8083 59.2186 66.531 58.4288C65.9764 58.3112 64.716 58.6977 64.3127 58.7817C63.1531 59.0338 62.002 59.3279 60.8592 59.622C59.1114 60.0757 57.3637 60.5463 55.6327 61.0588C53.7589 62.5713 55.6916 65.2097 55.4311 66.3693C54.6496 69.8228 55.095 111.609 55.095 111.609L83.2271 111.155C83.3951 108.626 83.5548 106.089 83.7144 103.551C84.0505 98.0641 84.3782 92.5856 84.6639 87.0987C84.9412 81.8386 85.2185 76.5701 85.3361 71.2933C85.3613 70.2934 85.3613 69.285 85.3697 68.2851C85.3697 67.4869 85.2689 66.697 85.3697 65.8988C85.3697 65.8483 85.3866 65.7895 85.395 65.7391C85.5882 64.5207 86.0504 63.3528 86.0672 62.1092C86.0672 61.8991 86.0588 61.689 85.9579 61.5042V61.5126Z" fill="#FAD100"/>
<path d="M87.545 120.103C87.4189 117.742 87.2761 115.38 87.1248 113.028C87.0072 111.221 86.8475 109.33 85.9148 107.784C84.6544 105.692 80.9237 103.65 78.7558 102.499C75.672 100.861 71.7816 101.718 69.0591 103.751C66.2022 105.885 64.4124 109.179 63.2949 112.565C61.4631 118.128 61.2446 124.212 62.6815 129.892C63.4461 132.925 65.1939 136.286 65.2779 139.429C65.3787 143.252 63.8663 146.495 65.4544 150.31C66.261 152.243 67.6475 153.873 68.4877 155.78C69.7901 158.738 69.6809 162.091 69.5549 165.317C69.0423 178.089 68.5213 190.861 68.0088 203.634H82.0664V203.617C83.1588 196.231 84.1587 188.836 85.0662 181.425C85.898 174.628 86.6543 167.813 87.3349 160.998C88.6877 147.336 88.276 133.841 87.5366 120.111L87.545 120.103Z" fill="#D4004A"/>
<path d="M35.3318 206.281C35.2646 206.559 35.2478 206.819 35.315 207.055C35.5167 207.769 36.6174 208.34 37.0964 208.954C37.9954 210.088 39.5331 210.491 40.97 210.659C42.2724 210.811 45.0285 210.634 45.7763 212.054C45.9108 212.315 45.9444 212.617 45.9192 212.911C45.6083 216.558 39.3315 215.676 36.9535 215.516C34.71 215.365 32.4665 215.214 30.223 215.071C26.988 214.852 24.0638 213.499 25.2318 209.701C25.4671 208.928 25.8116 208.189 26.1477 207.458C27.0048 205.609 27.8618 203.769 28.7189 201.921C29.4331 200.383 30.181 198.803 31.4582 197.694C32.9959 196.358 36.8191 195.787 37.6425 198.291C37.9282 199.156 37.6257 200.089 37.3232 200.946C36.9283 202.072 36.5418 203.198 36.1469 204.315C35.962 204.845 35.4999 205.592 35.3318 206.273V206.281Z" fill="#111314"/>
<path d="M73.1774 104.492C73.1102 103.82 73.0178 103.106 72.564 102.61C72.1943 102.207 71.6481 102.022 71.2196 101.686C69.9256 100.669 70.5054 100.106 68.3963 99.7951C66.8166 99.5599 65.1865 99.5515 63.5984 99.7531C60.8171 100.106 57.8762 101.106 55.9268 103.215C52.4733 106.946 50.8768 112.189 50.3558 117.147C49.65 123.802 50.5323 130.557 49.7256 137.204C49.2467 141.128 48.1879 144.959 47.5325 148.867C47.1628 151.06 46.9023 153.328 45.9024 155.312C45.205 156.69 44.1799 157.874 43.2892 159.135C39.3063 164.756 39.2979 171.587 37.0628 177.889C34.4664 185.225 29.7945 194.972 26.8536 202.173C27.3241 202.358 27.7275 202.501 27.9291 202.593C29.0131 203.064 30.1054 203.484 31.1977 203.929C33.3572 204.803 35.4411 205.828 37.525 206.862C42.3649 198.451 49.5492 187.712 54.5571 179.452C59.5315 171.26 64.5479 164.117 67.3292 154.757C72.1271 138.615 74.8244 121.34 73.169 104.501L73.1774 104.492Z" fill="#F02B66"/>
<path d="M73.4703 89.1988C73.5207 88.9467 73.5711 88.6946 73.6215 88.4425C74.3694 84.1488 74.8231 79.813 75.1676 75.4688C75.3357 73.2926 75.4953 71.1247 75.6214 68.9484C75.7306 67.1082 76.0583 65.3016 76.1843 63.453C76.2936 61.8565 76.428 60.1592 77.512 58.9324C77.5876 58.9492 77.6716 58.9492 77.764 58.9324C80.8058 58.2602 83.419 55.4537 85.4525 52.5212C85.7718 52.3783 86.1079 52.3363 86.444 52.4624C87.0658 52.6892 87.3683 53.4035 87.5027 54.0505C87.9397 56.0923 87.5111 58.1678 87.654 60.2264C87.78 62.0666 88.0069 63.6043 87.9649 65.4697C87.9228 67.5115 88.2422 69.4273 87.3935 71.3683C86.4188 73.5866 86.5196 75.8134 86.5952 78.2249C86.9986 91.728 88.0069 105.231 89.3093 118.633C89.3681 118.902 88.9984 119.037 88.7295 119.045C85.4021 119.221 82.0662 118.936 78.7387 118.659C78.1338 118.608 77.512 118.549 76.991 118.255C76.512 117.986 76.1591 117.549 75.865 117.087C74.0669 114.298 74.0753 111.147 73.8988 107.97C73.6887 104.223 73.4787 100.475 73.2602 96.7276C73.1762 95.2823 72.9493 93.795 72.9829 92.3498C73.0081 91.3078 73.2686 90.2491 73.4787 89.2072L73.4703 89.1988Z" fill="#D8E6FF"/>
<path d="M52.027 88.0144C50.8926 97.1229 49.2121 106.147 48.0945 115.264C47.9937 116.071 47.5063 117.356 48.2626 117.978C48.6491 118.306 49.1785 118.398 49.6826 118.482C53.2538 119.062 56.8669 119.365 60.4884 119.398C63.2193 119.424 67.219 119.894 69.6641 118.39C71.9749 116.962 72.5883 113.928 72.9832 111.231C73.5294 107.492 74.0587 103.736 74.2016 99.9546C74.2688 98.1816 74.2856 96.3919 74.0587 94.6357C73.8235 92.8543 73.9999 91.0478 73.7058 89.2748C73.5126 88.0732 73.084 86.9221 72.6723 85.7793C71.0842 81.3259 69.7398 76.7801 68.6474 72.1754C67.5887 67.7136 66.9669 63.1846 66.1014 58.6891C66.1014 58.6555 66.0846 58.6135 66.0594 58.5883C66.0258 58.5547 65.9754 58.5547 65.9334 58.5547C64.4629 58.5127 63.1101 58.916 61.6648 59.0084C60.3204 59.1009 58.9592 58.9748 57.6231 59.1261C56.2871 59.2857 54.9007 59.7815 54.0772 60.8486C52.758 62.5628 52.7916 65.1592 52.884 67.2094C52.9681 69.1084 53.3294 71.0242 53.279 72.9316C53.1361 77.9732 52.6572 83.0064 52.0354 88.0144H52.027Z" fill="#D8E6FF"/>
<path d="M39.8764 131.825C39.9016 130.203 39.0194 128.683 38.2043 127.313C38.1035 127.136 37.9942 126.96 37.8262 126.842C37.6665 126.716 37.4397 126.666 37.2548 126.75C37.1372 126.809 37.0447 126.918 36.9775 127.036C35.9944 128.598 36.9187 129.388 37.9354 130.489C38.3051 130.901 38.7085 131.43 38.5236 131.951C38.4228 132.237 38.1623 132.438 37.9522 132.657C37.6245 132.993 37.3893 134.321 38.2547 133.909C39.1706 133.472 39.8596 132.859 39.8764 131.825Z" fill="#FF9575"/>
<path d="M40.044 136.666C40.0272 135.439 40.1952 133.792 39.3046 132.809C38.5231 131.935 37.0779 131.675 35.9687 131.591C32.9017 131.347 31.7002 133.221 31.2548 136.002C31.1372 136.733 32.2799 136.876 32.3976 136.145C32.5488 135.204 32.6749 134.145 33.3639 133.431C34.1369 132.624 35.3133 132.641 36.3468 132.792C37.4056 132.944 38.4223 133.213 38.7668 134.364C38.9853 135.095 38.8928 136.078 38.9012 136.834C38.9012 137.574 40.0524 137.405 40.044 136.666Z" fill="#111314"/>
<path d="M38.7578 125.817C38.5729 126.591 38.3712 127.355 38.2872 128.145C38.1612 129.33 38.4637 130.372 38.5981 131.523C38.6905 132.388 38.8586 133.531 38.1192 134.178C37.7494 134.497 37.2453 134.64 36.7579 134.64C35.3715 134.64 34.0187 133.8 33.4221 132.556C33.0187 131.708 32.8927 130.758 32.8339 129.826C32.6742 127.229 34.1363 125.002 35.195 122.708C35.4807 122.087 35.8756 121.146 36.5311 120.818C37.4301 120.364 38.3292 120.994 38.7157 121.801C39.1527 122.717 39.1443 123.776 38.9846 124.759C38.9258 125.112 38.8502 125.465 38.7662 125.817H38.7578Z" fill="#FF9575"/>
<path d="M53.9467 138.256L17.9085 133.703C17.4481 133.645 17.0277 133.971 16.9695 134.432L14.1229 156.965C14.0647 157.425 14.3908 157.846 14.8512 157.904L50.8895 162.457C51.3499 162.515 51.7703 162.189 51.8284 161.728L54.6751 139.195C54.7332 138.735 54.4071 138.314 53.9467 138.256Z" fill="#0E398A"/>
<path d="M54.363 139.169L34.9193 146.404C34.7176 146.479 34.4907 146.446 34.3143 146.328L17.2821 134.489C16.7695 134.136 17.0888 133.397 17.719 133.472L54.195 138.077C54.8252 138.152 54.9512 138.951 54.363 139.169Z" fill="#D8E6FF"/>
<path d="M35.2722 146.026C35.3142 145.328 34.2387 145.194 34.1966 145.891C34.1546 146.572 34.079 147.244 33.9782 147.917C33.8689 148.606 34.9445 148.74 35.0537 148.051C35.163 147.379 35.2302 146.707 35.2722 146.026Z" fill="#D8E6FF"/>
<path d="M52.2458 61.7056C48.2797 64.7221 45.6497 69.5032 44.8598 74.4776C44.6413 75.8304 44.5489 77.2253 44.0364 78.5025C43.5658 79.6872 42.7591 80.704 42.0449 81.7627C40.0199 84.754 38.6418 88.1739 38.02 91.7198C37.3058 95.7699 37.5747 99.9544 36.7681 103.996C35.3816 110.903 33.4994 117.382 32.9028 124.448C33.5414 124.591 40.4988 125.86 40.356 126.288C41.4063 123.272 42.5575 120.272 43.5406 117.23C44.3136 114.827 45.3556 112.735 46.3471 110.399C47.8344 106.87 47.2546 102.593 49.3384 99.3747C50.1451 98.1227 51.3046 97.1312 52.1785 95.9296C54.8758 92.1988 54.4809 87.006 56.6824 82.9643C57.9091 80.7208 59.8754 78.9394 61.0265 76.6539C63.0684 72.5786 61.9676 67.9739 61.2114 63.739C60.6148 60.4199 58.8839 58.2521 55.3547 59.857C54.254 60.3611 53.2205 60.9829 52.271 61.7056H52.2458Z" fill="#D8E6FF"/>
<path d="M75.6899 92.4756C75.6899 93.1311 75.1605 93.6688 74.4967 93.6688C73.8329 93.6688 73.3035 93.1395 73.3035 92.4756C73.3035 91.8118 73.8329 91.2825 74.4967 91.2825C75.1605 91.2825 75.6899 91.8118 75.6899 92.4756Z" fill="#111314"/>
<path d="M75.6899 99.8707C75.6899 100.526 75.1605 101.064 74.4967 101.064C73.8329 101.064 73.3035 100.534 73.3035 99.8707C73.3035 99.2069 73.8329 98.6775 74.4967 98.6775C75.1605 98.6775 75.6899 99.2069 75.6899 99.8707Z" fill="#111314"/>
<path d="M70.4374 49.2597C70.7063 50.5117 71.8491 51.3603 73.0675 51.1755C74.2859 50.9822 75.1177 49.831 74.9917 48.5538L70.4458 49.2597H70.4374Z" fill="white"/>
<path d="M97.8296 16.9257C96.5777 20.4884 96.4684 25.1098 95.813 28.765C95.6029 29.9498 95.3845 31.143 94.8971 32.2437C94.2333 33.731 93.1158 34.9662 92.3679 36.4198C90.9395 39.2095 91.0403 42.537 89.9564 45.4695C88.2086 50.1582 83.688 53.2672 81.3688 57.7038C78.9993 62.2496 78.8985 68.0222 79.495 73.3915C79.7135 75.3241 80.016 77.2063 80.3437 78.9541C81.1756 83.4663 89.1833 74.7864 90.4689 73.4251C94.645 68.9801 98.4851 63.9133 99.8799 57.8634C100.266 56.1661 100.46 54.4351 100.804 52.7294C101.174 50.9144 101.703 49.1331 102.182 47.3349C104.148 39.8565 105.997 31.6555 105.829 23.9083C105.787 21.774 105.669 19.6481 105.627 17.5222C103.022 17.5895 100.409 17.3626 97.8465 16.9341L97.8296 16.9257Z" fill="#D8E6FF"/>
<path d="M64.6732 58.5613C64.606 59.0319 64.5136 60.5107 64.4968 60.662C64.3959 61.6451 64.2951 62.6282 64.1943 63.6197C64.001 65.5271 63.7993 67.4261 63.6061 69.3335C63.5725 69.6696 63.5389 70.0057 63.5052 70.3418L67.2276 71.3165L64.3539 74.728L73.6389 88.8781C72.891 85.2313 72.16 81.5762 71.3617 77.9378C70.6139 74.56 69.6812 71.2493 68.8409 67.9051C68.0259 64.6784 67.2108 61.4434 66.3874 58.2168C65.8244 58.2336 65.2614 58.3008 64.7152 58.4185C64.7068 58.4185 64.6984 58.4689 64.6816 58.5613H64.6732Z" fill="#0E398A"/>
<path d="M78.8568 63.3753C78.6467 61.8712 78.4619 60.3671 78.3022 58.863C77.5544 58.8462 76.8738 58.5689 76.1847 58.2496C76.2183 58.7874 76.0587 60.2999 76.0503 60.4931C75.9915 61.3418 75.899 62.1821 75.7814 63.0223C75.5545 64.6104 75.168 66.1649 74.8823 67.7362C74.2941 70.9629 74.3025 74.2819 74.1513 77.5673C74.0673 79.4579 73.9916 81.3485 73.916 83.2307C73.8824 84.1718 73.8404 85.1213 73.7984 86.0624C73.7732 86.5498 73.7564 87.0455 73.7312 87.5329C73.7144 87.8186 73.8152 88.5496 73.6639 88.7765L79.4702 74.7188L76.2688 71.3074C76.378 71.425 78.0333 70.8284 78.2098 70.7864C78.6383 70.6688 79.0668 70.5679 79.487 70.4419C79.7138 70.3747 79.9491 70.3579 80.0163 70.1478C80.1004 69.8873 79.8231 69.1815 79.7727 68.8958C79.4282 67.0556 79.1257 65.2154 78.8652 63.3668L78.8568 63.3753Z" fill="#0E398A"/>
<path d="M282.875 211.196C282.673 211.642 282.421 212.07 282.11 212.474C280.094 215.003 276.413 215.246 273.481 216.608C272.153 217.221 270.212 219.011 271.515 220.532C272.414 221.582 274.699 221.49 275.926 221.406C280.287 221.095 284.631 220.549 288.933 219.784C289.328 219.717 289.748 219.633 290.051 219.364C290.521 218.96 290.58 218.263 290.606 217.65C290.757 213.675 290.782 209.701 290.69 205.735C290.69 205.735 285.219 205.592 284.698 205.827C283.556 206.34 283.724 207.281 283.589 208.39C283.472 209.356 283.27 210.322 282.883 211.205L282.875 211.196Z" fill="#110809"/>
<path d="M316.242 216.247C315.931 216.592 315.536 216.894 315.074 217.18C313.158 218.331 311.141 219.306 309.041 220.079C307.444 220.667 305.671 221.239 304.73 222.659C302.587 225.877 306.999 226.658 309.133 226.507C313.494 226.196 317.838 225.65 322.14 224.885C322.535 224.818 322.955 224.734 323.258 224.465C323.728 224.062 323.787 223.364 323.812 222.751C323.964 218.777 323.989 214.802 323.896 210.836C323.896 210.886 318.309 210.618 317.838 210.928C316.939 211.525 317.376 212.794 317.292 213.71C317.199 214.777 316.863 215.584 316.25 216.256L316.242 216.247Z" fill="#110809"/>
<path d="M317.049 130.556C316.561 126.035 315.133 121.019 313.385 116.835C313.15 116.272 312.696 114.768 311.973 114.641C311.562 114.566 310.184 115.65 309.747 115.851C308.848 116.255 307.906 116.566 306.965 116.843C304.873 117.465 302.714 117.868 300.655 118.633C299.075 119.221 296.395 120.212 295.681 121.809C294.689 124.036 293.765 126.288 292.916 128.573C292.151 130.623 291.009 132.783 290.631 134.934C290.303 136.808 290.303 138.547 289.664 140.438C287.101 148.034 282.572 154.941 280.9 162.78C280.186 166.108 280.01 169.519 279.9 172.922C279.489 185.82 280.026 199.592 280.984 212.465H292.067C292.412 210.037 292.748 206.76 293.093 204.331C293.471 201.626 293.857 198.903 294.731 196.315C295.235 194.82 295.907 193.383 296.311 191.862C297.529 187.316 296.42 182.174 298.63 178.014C299.176 176.989 299.899 176.073 300.478 175.057C301.42 173.384 301.924 171.511 302.361 169.637C303.646 164.142 304.512 158.436 307.159 153.445C308.663 150.622 310.688 149.613 312.839 147.555C314.528 145.925 315.855 142.606 316.376 140.37C317.116 137.169 317.401 133.85 317.049 130.573V130.556Z" fill="#D4004A"/>
<path d="M268.338 58.1249C267.784 56.6461 267.918 55.0159 268.069 53.4699C268.279 51.2852 268.237 49.0753 267.926 46.9074C267.842 46.3024 267.733 45.689 267.431 45.1512C266.994 44.3614 265.666 43.5715 264.809 44.2101C264.498 44.4454 264.297 44.7983 264.12 45.1512C263.717 45.9747 263.238 46.9326 263.28 47.8653C263.322 48.7896 263.616 49.7979 263.28 50.7138C262.977 51.5204 262.515 50.5373 262.414 50.092C262.322 49.6887 261.818 48.6299 261.263 48.882C260.633 49.1593 261.204 51.0247 261.339 51.5204C261.893 53.5035 262.986 55.31 263.288 57.3687C263.448 58.4442 263.372 59.545 263.481 60.6289C263.666 62.4859 264.347 64.2253 264.658 66.0654C264.876 67.3427 265.028 68.6367 265.095 69.9307C265.128 70.6113 265.145 71.2835 265.212 71.9641C265.347 73.2749 265.675 74.5605 266.011 75.8377C266.372 77.2242 266.725 78.6022 267.086 79.9887C267.414 81.2407 267.817 82.375 268.246 83.5766C269.178 86.173 270.304 88.1392 271.993 90.2651C273.565 92.2481 274.674 95.2143 277.64 95.1807C279.119 95.1639 280.976 94.6093 282.404 94.1891C284.177 93.6682 285.866 92.8531 287.353 91.7608C289.807 89.9542 291.706 87.383 292.605 84.4673C292.908 83.4758 293.101 82.4086 292.815 81.4087C292.059 78.7199 288.958 78.4006 286.648 78.7535C285.337 78.9551 284.026 79.1568 282.724 79.3585C281.463 79.5517 279.757 80.7953 279.001 79.182C277.304 75.552 274.859 72.2162 272.951 68.6871C271.447 65.8974 270.456 62.8556 269.128 59.9819C268.859 59.3937 268.573 58.7635 268.338 58.1333V58.1249Z" fill="#FF9575"/>
<path d="M330.635 135.691C331.316 129.615 329.56 123.297 325.829 118.457C323.518 115.449 320.267 112.919 316.502 112.508C302.789 110.995 304.226 135.968 304.957 144.135C305.545 150.656 306.604 157.134 307.091 163.663C307.427 168.192 307.049 172.721 307.083 177.233C307.116 181.821 308.948 186.51 309.864 191.005C310.251 192.887 312.62 209.096 313.444 217.137H325.115C326.997 202.744 328.325 188.274 329.081 173.78C329.341 168.814 329.551 163.781 329.652 158.831C329.762 153.697 328.526 148.681 329.249 143.48C329.61 140.867 330.341 138.312 330.635 135.691Z" fill="#F02B66"/>
<path d="M298.638 75.3246C296.638 74.8373 294.1 75.3415 292.294 75.6692C289.412 76.1985 286.698 77.2741 283.891 78.0723C283.74 78.1227 283.589 78.1731 283.446 78.2236C283.269 78.2908 283.084 78.358 282.908 78.4336C282.891 78.7613 282.866 79.089 282.849 79.4167C283.395 84.6432 284.252 89.8276 285.051 95.0205C290.605 92.7854 295.445 88.7857 298.613 83.7021C299.041 83.0131 299.503 81.9543 299.848 80.7864C299.865 80.4755 299.873 80.173 299.848 79.8621C299.747 78.2992 299.083 76.8371 298.638 75.3246Z" fill="#D8E6FF"/>
<path d="M294.101 123.832C297.067 123.093 290.69 98.7923 290.219 96.4984C289.572 93.3474 288.925 90.1712 288.757 86.9614C288.648 84.8943 288.774 82.676 289.992 81.0039C290.791 79.9115 291.959 79.1637 293.11 78.4495C299.101 74.7019 304.269 69.8199 311.696 69.4754C312.125 69.4586 312.562 69.4502 312.965 69.6099C313.764 69.9208 314.184 70.7694 314.537 71.5425C316.276 75.3741 316.948 79.5586 318.729 83.3062C320.544 87.1378 321.78 90.9526 322.822 95.0783C324.947 103.523 326.888 112.085 327.804 120.757C326.704 118.471 314.696 121.11 312.075 121.421C306.075 122.126 300.084 122.933 294.11 123.841L294.101 123.832Z" fill="#D8E6FF"/>
<path d="M315.326 72.4674C316.679 73.9967 317.368 76.3578 317.805 78.4585C318.964 84.0546 320.141 89.7012 320.032 95.4151C319.973 98.8097 319.452 102.179 318.939 105.532C318.015 111.582 317.091 117.623 316.166 123.673C315.704 126.698 315.234 129.723 314.78 132.748C314.553 134.261 314.629 136.933 313.545 138.185C312.948 138.874 311.965 139.025 311.057 139.126C306.688 139.613 302.294 139.89 297.899 139.949C297.277 137.664 299.092 135.294 301.294 134.445C303.495 133.597 305.957 133.866 308.301 134.143C307.671 126.614 307.033 119.094 306.402 111.565C305.646 106.254 306.789 100.684 305.613 95.4655C304.436 90.2306 304.117 84.8865 303.646 79.5004C303.495 77.7527 303.377 75.8537 304.352 74.3916C305.201 73.1144 306.705 72.4506 308.125 71.8708C309.621 71.2574 311.234 70.644 312.814 70.9801C313.839 71.1986 314.654 71.7364 315.309 72.4842L315.326 72.4674Z" fill="#FF9575"/>
<path d="M303.167 93.4668C309.175 92.3493 315.317 91.9375 321.426 92.2484C321.115 87.6438 320.476 83.0643 319.518 78.5605C318.939 75.8296 318.132 72.9559 316.057 71.0905C312.452 67.8639 304.738 68.7126 302.99 73.5861C300.957 79.2663 302.083 87.7446 303.167 93.4752V93.4668Z" fill="#D8E6FF"/>
<path d="M302.268 68.0906C302.461 69.1913 303.419 74.0649 303.512 75.0648C303.68 76.8126 301.52 85.4757 299.907 85.9042C298.134 86.3664 294.697 79.5602 294.504 77.7536C294.243 75.3001 294.168 70.3341 294.168 70.3005C294.663 63.5868 301.47 63.5868 302.259 68.0906H302.268Z" fill="#FF9575"/>
<path d="M301.175 65.4863C300.797 65.0998 300.2 65.083 299.36 65.0325C298.318 64.9737 297.234 65.1082 296.368 65.7384C294.965 66.7467 294.016 68.5533 294.175 70.301C294.234 70.9816 294.243 71.6034 294.343 72.2C294.444 72.8134 294.637 73.3932 295.074 74.0066C295.646 74.7964 296.402 75.435 297.141 76.0652C297.52 76.3845 297.914 76.7122 298.393 76.8467C299.209 77.0735 300.049 76.6786 300.797 76.2837C304.603 74.225 302.208 69.6792 301.612 66.4946C301.519 66.024 301.376 65.7131 301.175 65.5031V65.4863Z" fill="url(#paint1_linear_2906_1684)"/>
<path d="M291.654 57.4875C292.721 56.6892 295.242 57.8236 296.587 57.79C297.923 57.8824 299.998 57.8992 301.048 58.7143C303.283 60.4368 303.468 63.9995 302.62 66.6464C302.477 67.0917 302.216 68.2009 302.032 68.6294C300.553 72.0325 296.982 72.8559 295.099 72.6963C292.856 72.503 291.402 70.8729 290.646 68.4025C290.511 67.9572 290.268 66.4783 290.192 66.0162C289.722 63.2013 290.52 58.3361 291.646 57.4959L291.654 57.4875Z" fill="#FF9575"/>
<path d="M289.277 52.2014C290.319 51.5544 291.697 51.3611 292.663 52.0838C293.722 52.8652 294.15 53.7895 295.579 53.7139C296.948 53.6383 297.847 53.0753 299.251 53.6215C301.503 54.5037 302.906 56.9741 303.166 59.2848C303.36 60.957 303.259 63.1837 303.099 64.881C303.049 64.9818 302.78 65.1079 302.696 64.7214C302.536 63.9063 302.503 62.9064 302.208 62.1417C302.049 61.7216 301.679 61.3519 301.234 61.3351C300.856 61.3183 300.41 61.5199 300.125 61.2679C299.982 61.1418 299.94 60.9402 299.881 60.7637C299.612 59.9066 298.831 59.226 297.948 59.0832C295.873 58.7471 293.999 59.5033 291.949 59.4865C288.571 59.4613 285.798 55.0247 288.857 52.5123C288.991 52.4031 289.125 52.3022 289.277 52.2182V52.2014Z" fill="#110809"/>
<path d="M289.865 64.6633C289.907 65.0582 289.958 64.9826 290.159 64.7893C290.89 62.7811 290.218 59.3612 291.747 58.9747C291.865 58.9495 292.151 57.6555 291.865 57.7059C291.386 57.7899 290.411 58.0924 290.184 58.4537C289.453 59.6553 289.697 63.0584 289.865 64.6633Z" fill="#110809"/>
<path d="M301.377 64.7216C301.36 65.5703 301.873 66.2677 302.52 66.2845C303.167 66.3013 303.705 65.6207 303.722 64.7721C303.738 63.9234 303.226 63.226 302.579 63.2092C301.932 63.1924 301.394 63.873 301.377 64.7216Z" fill="#FF9575"/>
<path d="M288.806 64.4427C288.789 65.2914 289.302 65.9888 289.949 66.0056C290.596 66.0224 291.134 65.3418 291.15 64.4931C291.167 63.6445 290.655 62.947 290.008 62.9302C289.361 62.9134 288.823 63.594 288.806 64.4427Z" fill="#FF9575"/>
<path d="M297.445 67.0576C297.529 68.2928 296.697 69.3768 295.513 69.528C294.328 69.6708 293.252 68.8222 293.042 67.6038L297.445 67.0576Z" fill="white"/>
<path d="M198.577 192.584C199.787 194.39 200.653 196.096 200.333 198.508C199.863 202.045 196.972 204.389 196.216 207.818C196.149 208.129 196.099 208.456 196.183 208.784C196.342 209.431 196.981 209.935 197.603 210.095C200.938 210.977 203.863 206.07 205.745 204.171C208.123 201.785 210.492 199.39 212.87 197.003C213.5 196.373 213.416 195.222 212.677 194.457L204.728 186.248L203.56 185.03C201.627 183.005 198.72 182.778 197.132 184.534C195.754 186.046 195.863 188.643 197.258 190.676C197.72 191.349 198.174 191.979 198.586 192.592L198.577 192.584Z" fill="#110809"/>
<path d="M225.122 198.499H226.895V159.477H225.122V198.499Z" fill="#110809"/>
<path d="M241.475 206.691C241.475 200.927 231.282 198.516 226.182 198.499C220.115 198.49 210.889 200.726 210.889 206.691" stroke="#110809" stroke-width="1.68053" stroke-miterlimit="10"/>
<path d="M226.014 208.23V198.66" stroke="#110809" stroke-width="1.68053" stroke-miterlimit="10"/>
<path d="M208.393 208.076C208.393 209.454 209.511 210.58 210.897 210.58C212.283 210.58 213.401 209.462 213.401 208.076C213.401 206.69 212.283 205.572 210.897 205.572C209.511 205.572 208.393 206.69 208.393 208.076Z" fill="#110809"/>
<path d="M223.56 208.076C223.56 209.454 224.678 210.58 226.064 210.58C227.451 210.58 228.568 209.462 228.568 208.076C228.568 206.69 227.451 205.572 226.064 205.572C224.678 205.572 223.56 206.69 223.56 208.076Z" fill="#110809"/>
<path d="M238.718 208.076C238.718 209.454 239.836 210.58 241.222 210.58C242.608 210.58 243.726 209.462 243.726 208.076C243.726 206.69 242.608 205.572 241.222 205.572C239.836 205.572 238.718 206.69 238.718 208.076Z" fill="#110809"/>
<path d="M227.728 146.377V117.665C227.728 112.699 231.753 108.666 236.727 108.666H246.634C251.6 108.666 255.633 112.691 255.633 117.665V149.763C255.633 156.855 249.835 162.653 242.744 162.653H210.444C209.603 162.653 208.931 161.972 208.931 161.14C208.931 160.3 209.612 159.628 210.444 159.628H214.485C221.804 159.628 227.728 153.696 227.728 146.385V146.377Z" fill="white"/>
<path d="M193.503 206.576C193.116 208.71 192.553 210.542 190.646 212.046C187.848 214.256 184.142 213.937 181.209 215.878C180.949 216.054 180.68 216.256 180.512 216.55C180.176 217.13 180.285 217.928 180.621 218.483C182.411 221.432 187.923 219.945 190.595 219.886C193.965 219.819 197.334 219.751 200.695 219.684C201.594 219.667 202.334 218.785 202.334 217.718V206.29L202.342 204.601C202.359 201.803 200.426 199.619 198.065 199.77C196.023 199.904 194.301 201.837 193.889 204.274C193.755 205.072 193.645 205.845 193.511 206.576H193.503Z" fill="#110809"/>
<path d="M211.005 118.571C209.073 120.453 206.796 121.797 203.939 121.571C201.804 121.402 199.88 120.285 198.032 119.201C194.158 116.907 191.688 112.966 189.285 109.311C185.957 104.261 181.647 99.7068 179.453 93.993C178.369 91.1697 177.605 88.775 177.832 85.6912C178.05 82.6998 178.806 79.6665 178.143 76.6751C177.916 75.6668 176.765 72.583 178.235 72.0285C179.579 71.5159 180.848 73.709 181.134 74.6753C181.478 75.8181 181.47 77.0281 181.571 78.2128C181.999 83.3553 184.142 90.4135 188.36 93.7157C189.73 94.7913 191.436 95.3206 192.889 96.2701C195.746 98.1355 197.326 101.396 199.67 103.875C200.242 104.48 200.922 105.068 201.746 105.152C204.157 105.404 204.502 102.53 205.451 101.076C207.275 98.2616 212.022 94.8837 215.501 95.6567C217.879 96.1861 219.811 98.3036 220.122 100.715C220.257 101.757 220.114 102.816 219.971 103.858C219.828 104.883 219.685 105.908 219.366 106.891C218.744 108.807 217.484 110.437 216.249 112.017C214.677 114.025 213.03 116.596 211.005 118.562V118.571Z" fill="#FF9575"/>
<path d="M214.601 129.763C214.601 129.763 214.618 129.678 214.626 129.645L214.601 129.763Z" fill="#7A483A"/>
<path d="M221.366 97.6063L221.231 98.2281L221.366 97.6063Z" fill="#7A483A"/>
<path d="M214.703 129.293C214.678 129.41 214.653 129.528 214.619 129.646L214.712 129.192C214.712 129.192 214.712 129.259 214.695 129.293H214.703Z" fill="#7A483A"/>
<path d="M221.953 96.1098C221.928 98.1516 221.726 100.126 221.726 101.235C221.726 102.613 221.701 104 221.382 105.344C221.105 106.521 220.601 107.63 220.071 108.722C218.449 112.041 216.576 115.629 214.13 118.41C213.08 117.016 211.786 115.512 210.853 113.965C209.425 111.596 208.055 109.201 206.677 106.798C205.921 105.47 203.577 103.017 204.005 101.538C204.316 100.471 207.98 97.8323 208.87 96.7064C210.946 94.1184 215.265 89.4633 218.861 89.186C221.567 88.9759 222.004 92.6395 221.953 96.1182V96.1098Z" fill="#FAD100"/>
<path d="M177.664 152.731C177.656 150.9 178.362 149.043 179.597 147.673C182.176 144.833 186.327 144.203 190.134 143.749C195.301 143.136 200.469 142.514 205.637 141.9C214.476 140.842 223.946 139.901 231.811 144.068C237.206 146.925 239.062 153.555 233.878 157.756C230.996 160.092 227.164 160.815 223.509 161.453C218.291 162.369 213.065 163.285 207.847 164.201C203.242 165.008 197.873 166.722 193.638 163.857C192.512 163.1 191.545 162.075 190.293 161.571C186.714 160.134 180.151 159.353 178.278 155.454C177.866 154.605 177.673 153.673 177.664 152.731Z" fill="#0E398A"/>
<path d="M184.646 144.782C186.176 144.412 187.839 144.261 189.629 144.269C194.486 144.311 197.981 149.227 195.469 153.764C194.923 154.747 194.116 155.63 193.931 156.73C193.763 157.747 194.167 158.764 194.553 159.713C198.805 170.082 205.325 181.258 206.502 192.433C203.418 193.979 194.318 194.912 192.528 191.786C190.94 189.013 189.36 186.249 187.772 183.476C186.772 181.728 185.764 179.964 184.529 178.376C183.008 176.418 181.151 174.729 179.622 172.771C175.336 167.259 173.983 159.596 176.135 152.957C177.681 148.185 180.672 145.74 184.646 144.773V144.782Z" fill="#D8E6FF"/>
<path d="M197.334 156.252C203.258 148.025 215.812 149.193 220.618 139.581C220.769 139.27 220.921 138.951 221.147 138.69C221.887 137.825 223.181 137.791 224.324 137.799C230.768 137.825 237.163 136.858 243.498 135.766C247.263 135.111 247.212 135.699 248.565 139.194C249.574 141.808 250.464 144.488 250.716 147.294C251.061 151.134 250.044 155.302 247.162 157.873C245.599 159.268 243.625 160.1 241.675 160.882C232.264 164.646 222.626 167.847 212.837 170.461C211.005 170.948 209.132 171.427 207.233 171.41C203.594 171.385 200.023 169.427 198.04 166.369C195.242 162.058 195.486 158.84 197.343 156.26L197.334 156.252Z" fill="#D8E6FF"/>
<path d="M214.904 92.2915C215.459 91.4429 216.19 90.6446 217.156 89.9136C220.324 87.5188 224.878 87.7373 228.634 87.6197C232.566 87.4936 236.827 87.7877 240.515 89.2834C244.288 90.8127 245.07 92.4176 245.187 96.1484C245.339 101.114 246.826 106.122 247.38 111.08C247.969 116.34 248.246 121.625 248.204 126.919C248.179 129.734 248.078 132.549 247.868 135.347C247.632 138.489 247.355 138.515 244.271 138.943C237.054 139.943 227.432 142.035 220.282 140.002C219.904 127.205 215.585 114.869 213.795 102.198C213.266 98.4759 213.098 95.0728 214.904 92.2831V92.2915Z" fill="#FAD100"/>
<path d="M229.046 96.0556C230.121 95.6187 231.096 94.9045 231.802 93.9802C234.743 90.157 231.936 87.5522 231.768 83.6701C231.642 80.8468 233.6 78.0319 232.692 75.3515C232.516 74.8221 231.995 74.2508 231.499 74.5028C231.331 74.5869 231.213 74.7549 231.104 74.9146C228.634 78.6369 225.357 78.326 221.113 79.0991C221.66 78.9983 221.794 88.2832 221.668 88.9134C221.525 89.6276 221.332 90.3418 221.29 91.0729C221.181 93.4844 223.038 95.77 225.382 96.3497C226.592 96.6522 227.878 96.5178 229.029 96.0472L229.046 96.0556Z" fill="#FF9575"/>
<path d="M231.827 81.2751L222.492 81.7289L223.257 88.6191C226.374 90.2576 233.525 89.787 231.819 86.384V81.2751H231.827Z" fill="url(#paint2_linear_2906_1684)"/>
<path d="M224.617 85.1815C225.878 85.2739 227.088 84.7277 228.214 83.753C229.188 82.9128 230.003 81.896 230.936 81.0054C231.499 80.476 232.112 79.9802 232.541 79.3332C233.112 78.4762 233.297 77.4258 233.474 76.4091C233.692 75.1487 234.087 73.9975 233.793 72.6951C233.633 71.9641 233.272 71.2919 232.894 70.6449C232.348 69.7122 231.751 68.7963 231.121 67.914C229.844 66.1411 227.735 64.6202 225.432 65.4773C224.348 65.8806 223.483 66.7545 222.962 67.788C222.273 69.1576 222.172 70.7541 221.567 72.1658C221.365 72.6279 221.113 73.0649 220.886 73.5186C219.945 75.4008 219.181 77.7787 219.668 79.8878C220.088 81.6944 221.021 83.4253 222.601 84.4589C223.273 84.8958 223.945 85.1311 224.609 85.1815H224.617Z" fill="#FF9575"/>
<path d="M235.651 71.023C234.273 70.4768 234.239 69.7374 233.861 68.3929C233.474 67.0149 232.458 65.8553 231.214 65.1411C229.971 64.4269 228.508 64.1496 227.072 64.1916C225.929 64.2252 224.778 64.4605 223.778 65.0151C222.778 65.5697 221.946 66.4687 221.593 67.5611C221.45 68.0148 221.391 68.5022 221.543 68.9559C221.904 70.0651 223.526 70.5188 224.492 70.8969C225.601 71.3339 226.735 71.7288 227.786 72.2918C229.844 73.3841 230.844 75.0563 229.811 77.325C229.433 78.1652 229.307 79.6189 227.937 79.266C227.534 79.1652 227.248 78.8038 226.979 78.4845C226.433 77.8459 225.778 77.2746 225.013 76.9132C224.181 76.5183 223.416 76.5603 222.526 76.5771C221.803 76.5939 220.971 76.8124 220.265 76.6612C219.971 76.5939 220.081 76.1234 219.694 76.1318C219.45 76.1318 219.333 76.4175 219.282 76.6528C219.072 77.5266 218.854 78.4005 218.644 79.266C218.282 80.7365 217.93 82.7027 218.593 84.1395C219.106 85.2487 220.072 86.0469 221.156 86.5679C223.248 87.5762 226.24 87.8115 228.231 86.4251C229.71 85.3915 230.097 83.753 231.332 82.5934C232.424 81.5767 234.584 81.4171 235.197 79.9466C235.575 79.0391 235.105 77.9552 235.466 77.0393C236.298 74.9722 239.743 72.6615 235.651 71.0314V71.023ZM220.434 81.2154C220.358 81.1314 220.291 81.0305 220.249 80.9045C219.997 80.1903 220.408 79.3752 221.005 78.8963C222.055 78.0644 223.677 78.0728 224.719 78.9047C225.374 79.434 226.164 80.1483 226.24 81.0389C226.273 81.4339 226.147 81.8624 225.845 82.1145C225.458 82.4506 224.853 82.4422 224.391 82.2153C223.652 81.854 223.467 81.0053 222.526 81.3414C221.971 81.5431 221.912 81.7616 221.316 81.6271C220.988 81.5515 220.652 81.4423 220.434 81.1986V81.2154Z" fill="#110809"/>
<path d="M231.214 76.9465C231.105 77.0557 231.004 77.1818 230.911 77.3078C230.483 77.9128 229.995 78.9547 229.92 79.6858C230.315 79.8454 230.819 80.0471 231.239 79.963C231.558 79.8958 231.844 79.7194 232.096 79.5093C232.718 78.9799 233.138 78.2153 233.247 77.4002C233.281 77.1397 233.281 76.8541 233.13 76.644C232.92 76.3415 232.483 76.2911 232.13 76.3835C231.777 76.4759 231.466 76.6776 231.214 76.9381V76.9465Z" fill="#FF9575"/>
<path d="M225.484 80.9537C225.484 80.9537 224.207 81.7604 222.753 81.1638C221.098 80.4916 220.997 79.1219 220.997 79.1219" fill="white"/>
<path d="M249.137 131.835C249.708 131.776 250.288 131.734 250.876 131.717C249.07 129.423 246.725 127.6 244.952 125.289C242.961 122.684 243.171 120.096 242.23 117.18C241.457 114.769 239.928 112.651 239.171 110.198C237.331 104.24 239.566 93.5437 248.196 96.1569C250.649 96.8963 252.574 98.8626 253.834 101.098C255.086 103.333 255.75 105.837 256.397 108.316C257.783 113.584 259.161 118.861 260.548 124.129C261.17 126.491 261.632 128.919 262.203 131.263C263.01 134.549 265.01 138.237 260.346 139.557C257.54 140.346 254.607 140.548 251.7 140.741C246.255 141.103 240.768 141.674 235.315 141.825C231.996 141.918 228.819 140.876 225.551 140.506C222.711 140.187 219.971 141.187 217.19 140.716C216.022 140.515 214.779 139.657 214.846 138.473C214.888 137.8 215.342 137.229 215.862 136.809C217.938 135.086 220.971 135.086 223.585 135.75C224.181 135.901 224.778 136.086 225.391 136.044C226.03 135.994 226.618 135.708 227.206 135.456C230.979 133.868 234.365 135.12 238.104 134.54C241.852 133.96 245.331 132.28 249.129 131.86L249.137 131.835Z" fill="#FF9575"/>
<path d="M235.591 107.28C235.532 107.087 235.474 106.886 235.415 106.692C234.549 103.777 233.852 100.718 234.348 97.7182C234.852 94.7185 236.81 91.7944 239.742 90.9709C241.633 90.4415 243.666 90.8365 245.481 91.5843C249.96 93.4329 253.212 97.2813 255.304 101.55C256.295 103.575 257.631 105.961 256.556 107.583C255.228 109.574 239.322 117.137 239.969 118.49C238.23 114.876 236.768 111.129 235.591 107.289V107.28Z" fill="#FAD100"/>
<path d="M197.679 156.612C193.973 163.561 195.696 172.09 194.973 179.585C194.057 189.105 192.873 198.6 191.402 208.053C196.192 207.675 201.04 208.062 205.712 209.204C208.392 200.062 211.081 190.861 212.056 181.383C212.358 178.493 212.501 175.552 213.384 172.779C214.451 169.418 216.568 166.418 217.266 162.956C218.148 158.562 214.383 151.377 209.628 150.84C205.603 150.386 199.637 152.94 197.679 156.612Z" fill="#D8E6FF"/>
<path d="M197.35 138.984H152.345V137.413H196.073C196.778 137.413 197.35 137.984 197.35 138.69V138.984Z" fill="white"/>
<path d="M144.607 137.413H189.586L181.562 113.659C181.285 112.844 180.469 112.289 179.545 112.289H139.002C137.574 112.289 136.557 113.566 136.986 114.827L144.615 137.421L144.607 137.413Z" fill="#FFF5F5"/>
<path d="M144.616 138.984H189.805V137.413H144.616V138.984Z" fill="#C9CDD1"/>
<path d="M160.707 124.557C160.85 125.515 161.799 126.087 162.807 126.003C163.824 125.919 164.698 125.188 164.639 124.204C164.572 123.205 163.639 122.347 162.547 122.356C162.48 122.356 162.421 122.373 162.379 122.398C162.328 122.381 162.27 122.381 162.202 122.398C161.194 122.65 160.572 123.616 160.715 124.557H160.707ZM162.37 122.969C162.37 122.969 162.429 122.952 162.455 122.936C162.48 122.936 162.497 122.944 162.522 122.944C163.051 122.969 163.547 123.196 163.791 123.625C164.379 124.658 163.547 125.364 162.673 125.406C161.034 125.473 160.908 123.331 162.362 122.969H162.37Z" fill="#C9CDD1"/>
<path d="M268.092 99.3315C268.092 99.3315 268.092 99.2979 268.092 99.2811C267.983 97.693 269.084 96.1637 268.773 94.6092C268.739 94.4412 268.68 94.2647 268.529 94.1807C268.277 94.0379 267.983 94.2563 267.807 94.4832C266.714 95.8528 266.823 97.651 267.025 99.2895C267.244 101.046 266.387 102.466 266.101 104.188C265.908 105.39 266.126 106.465 265.882 107.633C265.588 109.003 265.42 110.247 265.857 111.616C266.042 112.196 266.311 112.776 266.26 113.389C266.193 114.129 265.664 114.734 265.378 115.423C264.622 117.254 265.664 119.557 264.622 121.246C264.513 121.422 264.353 121.599 264.143 121.59C263.891 121.573 263.757 121.304 263.672 121.069C262.496 117.859 261.32 114.238 261.799 110.776C261.9 110.02 262.093 109.272 262.152 108.507C262.202 107.81 262.126 107.104 262.051 106.407C261.874 104.76 261.706 103.113 261.53 101.466C261.496 101.163 261.463 100.844 261.286 100.6C261.11 100.357 260.74 100.214 260.496 100.382C260.32 100.5 260.253 100.735 260.219 100.945C259.933 102.617 260.564 104.323 260.421 106.012C260.337 106.961 260.009 107.869 259.824 108.801C259.421 110.86 260.076 113.54 260.463 115.591C260.74 117.044 260.874 118.54 261.076 120.002C261.185 120.792 261.521 121.557 261.605 122.338C261.673 122.935 261.168 124.909 260.589 123.514C260.353 122.943 260.244 122.313 260.286 121.699C260.311 121.372 260.37 121.044 260.328 120.716C260.286 120.389 260.118 120.052 259.816 119.926C259.505 119.8 259.127 119.918 258.833 119.767C258.488 119.59 258.396 119.145 258.354 118.758C258.211 117.599 258.068 116.381 258.48 115.28C258.606 114.935 258.791 114.599 258.858 114.238C259.017 113.347 258.303 112.961 258.144 112.196C257.992 111.482 258.547 110.86 258.631 110.179C258.698 109.658 258.396 109.112 257.917 108.894C257.774 108.827 257.614 108.785 257.513 108.658C257.379 108.482 257.429 108.23 257.497 108.02C257.631 107.6 257.791 107.18 257.975 106.776C258.488 105.634 257.051 104.676 256.203 105.592C255.824 105.995 255.824 106.617 255.85 107.163C255.992 110.524 256.135 113.91 256.808 117.204C257.27 119.464 257.992 121.699 259.085 123.733C259.597 124.682 260.345 125.539 260.799 126.489C261.454 127.867 261.883 129.8 263.899 129.388C265.025 129.161 265.891 128.262 266.613 127.363C267.689 126.027 268.672 124.22 267.924 122.666C267.723 122.246 267.403 121.884 267.252 121.439C267.126 121.069 267.134 120.674 267.151 120.288C267.202 118.927 267.37 117.574 267.655 116.246C267.983 114.717 268.63 112.91 268.176 111.339C267.79 110.011 267.336 108.961 267.689 107.491C268.05 105.986 269.21 104.684 269.168 103.138C269.134 101.81 268.202 100.642 268.084 99.3231L268.092 99.3315Z" fill="#006149"/>
<path d="M268.227 130.395C270.193 128.798 271.327 125.958 271.016 123.58C270.857 122.362 270.453 120.942 271.285 120.043C271.562 119.74 271.949 119.547 272.209 119.228C272.84 118.446 272.47 117.295 272.025 116.396C271.235 114.808 270.798 113.253 271.89 111.741C272.73 110.581 274.159 109.766 274.47 108.262C274.873 106.254 272.831 104.078 273.856 102.296C274.134 101.809 274.613 101.456 274.966 101.011C275.604 100.195 275.781 99.0527 275.428 98.078C275.201 97.4646 274.613 96.6328 273.949 96.4311C272.991 96.1454 272.999 96.5908 272.68 97.515C272.092 99.1956 271.84 100.985 271.941 102.767C272.1 105.447 271.042 108.422 270.613 111.069C270.378 112.505 270.109 113.942 269.815 115.371C269.638 116.253 269.512 117.177 269.243 118.034C269.109 118.463 268.462 119.312 268.496 119.706C268.201 116.245 269.949 112.959 270.395 109.514C270.437 109.212 270.462 108.884 270.31 108.615C270.193 108.405 269.991 108.254 269.848 108.06C269.151 107.086 270.075 104.825 270.218 103.683C270.47 101.716 270.554 99.7165 270.697 97.7335C270.873 95.3388 271.21 93.0364 270.924 90.6081C270.915 90.5156 270.899 90.4148 270.831 90.356C270.731 90.2635 270.554 90.3056 270.462 90.4064C270.369 90.5072 270.336 90.6585 270.319 90.7929C269.756 94.2968 269.605 97.8764 269.058 101.397C268.462 105.237 268.033 109.077 267.596 112.934C267.176 116.656 266.269 120.353 265.832 124.093C265.739 124.908 265.454 125.933 264.639 126.034C263.916 126.126 263.361 125.345 263.269 124.614C263.025 122.673 264.698 121.076 265.429 119.261C265.958 117.933 265.975 116.438 265.689 115.035C265.395 113.606 264.84 111.976 265.706 110.791C266.05 110.321 266.597 109.993 266.865 109.472C267.067 109.086 267.101 108.632 267.117 108.195C267.176 106.817 267.134 105.439 266.991 104.078C266.865 102.884 266.42 101.599 266.529 100.414C266.731 98.0864 267.378 95.8093 267.252 93.4398C267.143 91.3895 265.521 94.5741 265.471 95.3976C265.412 96.4815 265.597 97.5739 265.445 98.6494C265.277 99.8594 264.681 101.044 264.866 102.254C264.891 102.414 264.933 102.573 264.882 102.725C264.832 102.876 264.647 102.994 264.513 102.918C264.445 102.876 264.403 102.8 264.37 102.725C263.563 100.674 265.487 97.0277 263.782 95.322C262.437 96.9941 262.756 100.809 262.849 102.842C263.084 108.052 263.966 113.346 262.975 118.53C262.908 118.9 262.807 119.295 262.521 119.538C262.042 119.95 261.261 119.715 260.857 119.236C260.454 118.757 260.32 118.11 260.16 117.505C260 116.9 259.774 116.261 259.261 115.9C258.74 116.446 258.614 117.261 258.715 118.009C258.816 118.757 259.11 119.454 259.337 120.169C259.723 121.395 259.916 122.689 259.9 123.983C259.883 125.336 259.639 126.748 260.135 128.008C260.958 130.126 264.613 132.117 266.756 131.26C267.294 131.042 267.79 130.739 268.252 130.369L268.227 130.395Z" fill="#40A876"/>
<path d="M255.74 123.951L273.394 124.246L268.748 139.311L258.664 139.446L255.74 123.951Z" fill="#0E398A"/>
<path d="M350.154 139.043H0.376953V142.631H350.154V139.043Z" fill="white"/>
<path d="M317.805 140.868H314.402V234.507H317.805V140.868Z" fill="white"/>
<path d="M283.05 233.751H279.647L301.629 140.868H305.04L283.05 233.751Z" fill="white"/>
<path d="M64.1287 233.751H67.5318L45.5504 140.868H42.1473L64.1287 233.751Z" fill="white"/>
<path d="M33.4831 140.868H30.08V234.507H33.4831V140.868Z" fill="white"/>
<path d="M28.2554 215.298C28.1882 215.844 28.1294 216.39 28.079 216.945C27.9025 218.886 27.558 221.121 25.8775 222.104C24.3734 222.986 22.3316 222.406 21.1132 221.163C19.8948 219.919 19.3402 218.163 19.0041 216.457C18.147 212.046 18.5252 207.399 20.0712 203.189C21.0292 200.568 23.7768 196.593 23.4575 193.762C23.1298 190.779 19.6175 189.048 19.4747 185.846C19.3234 182.292 22.5248 179.292 24.3566 176.57C25.0204 175.587 25.5918 174.486 25.6338 173.301C25.7851 169.125 19.7435 167.016 19.3318 162.857C18.8277 157.723 25.9195 155.664 25.9951 150.774C26.0287 148.135 23.6928 145.379 23.9281 142.237C24.1549 139.136 25.3733 136.086 27.5076 133.809C28.3479 132.91 29.5663 132.069 30.7342 132.456C31.9022 132.842 32.3811 134.271 32.3643 135.498C32.3475 136.733 32.0114 137.976 32.2635 139.178C33.0113 142.8 35.5069 144.102 35.1876 148.219C35.0112 150.538 34.1961 152.967 33.1542 155.025C29.4318 162.361 30.541 161.504 34.9944 167.848C37.3387 171.192 37.3387 176.007 34.9944 179.351C33.6331 181.292 31.5157 182.922 31.272 185.283C31.1628 186.384 31.4905 187.418 31.9106 188.451C32.4064 189.644 33.0366 190.838 33.2634 192.098C33.5911 193.888 33.1038 195.719 32.6164 197.476C30.9611 203.475 29.0117 209.206 28.2386 215.306L28.2554 215.298Z" fill="#138F70"/>
<path d="M13.4421 209.575C13.106 207.289 12.7783 204.995 12.4422 202.71C12.1481 200.693 11.8456 198.635 10.9381 196.811C10.1315 195.181 8.87948 193.803 8.14005 192.148C6.54355 188.551 7.61909 184.384 8.80386 180.636C9.62732 178.031 10.5012 175.233 9.69454 172.628C9.27441 171.259 8.41734 170.082 7.70311 168.839C6.25785 166.343 3.569 160.386 5.25794 157.428C8.13165 152.403 10.9045 157.184 11.1062 160.629C11.2826 163.705 12.5262 166.705 14.5765 169.007C15.7529 170.326 17.2149 171.477 17.8619 173.124C19.5761 177.477 14.7193 181.897 15.1059 186.56C15.4084 190.266 18.887 192.879 20.2735 196.324C22.8447 202.701 24.6345 211.978 22.8615 218.725C22.5506 219.893 22.0801 221.112 21.0717 221.784C19.4668 222.859 17.1561 222.002 15.9965 220.465C14.8286 218.927 14.5177 216.927 14.2404 215.02C13.9799 213.205 13.711 211.39 13.4505 209.575H13.4421Z" fill="#47BA9B"/>
<path d="M23.8534 240.295C17.5514 240.295 12.2326 235.589 11.4679 229.338L9.5437 213.658H37.8859L36.2642 229.119C35.6003 235.472 30.2395 240.295 23.8534 240.295Z" fill="#D8E6FF"/>
<path d="M28.6677 207.391C28.9113 205.022 28.6929 202.468 29.9281 200.426C31.5666 197.728 35.4402 196.552 36.1292 193.468C36.793 190.452 33.9109 187.217 35.2553 184.435C36.3813 182.108 39.8516 181.663 40.9187 179.301C41.8598 177.218 40.4398 174.898 40.0701 172.646C39.6163 169.924 40.8851 166.991 43.179 165.454C43.6412 165.143 44.1622 164.882 44.7083 164.916C46.1872 164.992 46.7418 167.017 46.2208 168.403C45.6998 169.79 44.5739 170.89 44.1201 172.294C42.8934 176.083 46.7502 180.948 43.9857 183.805C43.1622 184.654 41.9439 185.015 41.0784 185.822C38.2047 188.511 41.0616 193.619 39.3558 197.165C38.2131 199.543 35.2973 200.627 34.0538 202.946C33.2471 204.451 33.2723 206.24 33.0034 207.921C32.7093 209.744 32.0119 211.576 30.6255 212.803C29.1718 214.097 27.1216 214.685 26.7603 212.425C26.5754 211.24 28.508 208.828 28.6593 207.383L28.6677 207.391Z" fill="#47BA9B"/>
<path d="M13.468 223.735C16.661 222.996 19.8624 222.298 22.9798 221.433C27.7777 220.105 32.5672 218.727 37.3315 217.273C37.3903 217.248 37.4492 217.231 37.508 217.206L37.8777 213.652H9.53552L10.8463 224.365C11.7202 224.147 12.5857 223.945 13.4596 223.743" fill="url(#paint3_linear_2906_1684)"/>
<path d="M39.5823 215.357H8.40846L6.71112 208.551H40.7167L39.5823 215.357Z" fill="#D8E6FF"/>
<path d="M352.036 205.603C351.095 201.948 349.826 198.116 350.859 194.486C351.548 192.066 353.195 189.999 353.868 187.579C354.96 183.63 353.321 179.386 354.036 175.353C354.716 171.522 357.43 168.387 358.892 164.774C360.817 160.018 360.497 154.632 362.127 149.767C362.648 148.204 363.438 146.633 364.833 145.751C366.228 144.868 368.337 144.969 369.261 146.33C369.791 147.112 369.833 148.112 369.799 149.053C369.387 159.161 361.195 168.236 362.69 178.244C363.119 181.092 364.329 183.957 363.615 186.747C362.909 189.512 360.464 191.486 359.287 194.083C358.002 196.923 358.346 200.208 358.758 203.3C359.178 206.393 359.623 209.636 358.523 212.552C357.951 214.064 353.212 219.291 351.557 216.577C351.364 216.257 352.817 212.442 352.859 211.72C352.985 209.678 352.565 207.577 352.053 205.611L352.036 205.603Z" fill="#138F70"/>
<path d="M348.278 210.008C348.278 209.932 348.278 209.848 348.278 209.773C348.161 207.361 346.472 205.328 344.665 203.731C341.666 201.093 338.817 194.219 338.288 190.228C337.926 187.48 338.397 184.691 338.187 181.926C337.868 177.658 335.96 173.7 334.683 169.608C333.507 165.843 332.86 161.911 332.767 157.962C332.733 156.399 332.927 154.567 334.271 153.769C335.372 153.113 336.859 153.5 337.809 154.365C338.75 155.231 339.254 156.475 339.624 157.701C341.464 163.802 340.766 170.574 343.405 176.38C344.606 179.027 346.489 181.422 347.026 184.279C347.615 187.388 346.531 190.665 347.304 193.732C348.598 198.866 353.622 201.782 354.034 207.344C354.076 207.966 354.076 208.605 354.253 209.21C354.522 210.134 355.185 210.882 355.715 211.688C357.093 213.781 359.294 218.385 357.051 220.217C352.967 223.561 348.161 216.478 348.085 212.991C348.06 211.991 348.287 211.008 348.278 210.008Z" fill="#47BA9B"/>
<path d="M361.075 203.009C361.478 201.631 361.898 200.219 362.73 199.043C364.268 196.866 367.125 195.623 367.931 193.077C368.268 192.027 368.192 190.892 368.326 189.8C368.57 187.85 369.545 185.943 371.167 184.834C372.788 183.716 375.057 183.506 376.737 184.523C378.914 185.842 379.578 188.649 379.989 191.161C381.267 198.967 381.922 207.429 378.124 214.369C377.947 214.688 377.754 215.016 377.443 215.209C376.561 215.756 375.46 214.865 374.973 213.949C372.637 209.538 375.553 203.698 373.25 199.27C373.066 198.917 372.797 198.547 372.402 198.53C372.091 198.513 371.814 198.74 371.603 198.967C370.435 200.278 370.293 202.278 369.133 203.597C368.083 204.79 366.394 205.236 365.301 206.395C364.394 207.361 364.024 208.697 363.68 209.975C363.066 212.285 362.394 221.553 358.983 217.529C356 214.016 359.999 206.656 361.075 203.009Z" fill="#47BA9B"/>
<path d="M355.69 244.047H355.211C348.556 244.047 342.951 239.081 342.136 232.476L340.036 215.36H370.546L368.773 232.249C368.067 238.955 362.42 244.047 355.673 244.047H355.69Z" fill="#D8E6FF"/>
<path d="M354.513 223.739C359.681 222.311 364.831 220.823 369.965 219.261C370.033 219.235 370.091 219.21 370.159 219.185L370.562 215.353H340.052L341.464 226.882C345.825 225.806 350.244 224.915 354.521 223.731L354.513 223.739Z" fill="url(#paint4_linear_2906_1684)"/>
<path d="M372.385 217.192H338.825L336.993 209.865H373.612L372.385 217.192Z" fill="#D8E6FF"/>
<path d="M238.551 35.2208C243.204 30.5677 243.204 23.0236 238.551 18.3705C233.898 13.7174 226.354 13.7174 221.701 18.3705C217.047 23.0236 217.047 30.5677 221.701 35.2208C226.354 39.8739 233.898 39.8739 238.551 35.2208Z" fill="#80B2BA"/>
<path d="M229.559 19.417C229.559 19.9884 230.13 28.5003 230.13 28.5003L236.936 23.9628" stroke="white" stroke-width="0.840266" stroke-miterlimit="10"/>
<path d="M192.135 128.946L198.496 125.056H229.451C232.619 125.056 235.182 122.476 235.182 119.292V114.284C235.182 111.099 232.619 108.52 229.451 108.52H197.865C194.698 108.52 192.135 111.099 192.135 114.284V128.946Z" stroke="white" stroke-width="0.840266" stroke-miterlimit="10"/>
<path d="M208.822 116.789C208.822 117.461 208.285 118.008 207.612 118.008C206.94 118.008 206.402 117.461 206.402 116.789C206.402 116.117 206.94 115.571 207.612 115.571C208.285 115.571 208.822 116.117 208.822 116.789Z" fill="white"/>
<path d="M216.083 116.789C216.083 117.461 215.545 118.008 214.873 118.008C214.201 118.008 213.663 117.461 213.663 116.789C213.663 116.117 214.201 115.571 214.873 115.571C215.545 115.571 216.083 116.117 216.083 116.789Z" fill="white"/>
<path d="M223.333 116.789C223.333 117.461 222.796 118.008 222.123 118.008C221.451 118.008 220.913 117.461 220.913 116.789C220.913 116.117 221.451 115.571 222.123 115.571C222.796 115.571 223.333 116.117 223.333 116.789Z" fill="white"/>
<path d="M271.303 48.0753L277.664 44.1849H308.619C311.787 44.1849 314.35 41.6053 314.35 38.4206V33.4127C314.35 30.2281 311.787 27.6484 308.619 27.6484H277.033C273.866 27.6484 271.303 30.2281 271.303 33.4127V48.0753Z" stroke="white" stroke-width="0.840266" stroke-miterlimit="10"/>
<path d="M287.991 35.9156C287.991 36.5879 287.453 37.134 286.781 37.134C286.109 37.134 285.571 36.5879 285.571 35.9156C285.571 35.2434 286.109 34.6973 286.781 34.6973C287.453 34.6973 287.991 35.2434 287.991 35.9156Z" fill="white"/>
<path d="M295.252 35.9156C295.252 36.5879 294.714 37.134 294.042 37.134C293.369 37.134 292.832 36.5879 292.832 35.9156C292.832 35.2434 293.369 34.6973 294.042 34.6973C294.714 34.6973 295.252 35.2434 295.252 35.9156Z" fill="white"/>
<path d="M302.502 35.9156C302.502 36.5879 301.964 37.134 301.292 37.134C300.62 37.134 300.082 36.5879 300.082 35.9156C300.082 35.2434 300.62 34.6973 301.292 34.6973C301.964 34.6973 302.502 35.2434 302.502 35.9156Z" fill="white"/>
<path d="M200.283 71.9112L193.922 68.0208H162.967C159.799 68.0208 157.236 65.4412 157.236 62.2566V57.2486C157.236 54.064 159.799 51.4844 162.967 51.4844H194.553C197.72 51.4844 200.283 54.064 200.283 57.2486V71.9112Z" stroke="white" stroke-width="0.840266" stroke-miterlimit="10"/>
<path d="M183.595 59.7437C183.595 60.4159 184.132 60.962 184.805 60.962C185.477 60.962 186.015 60.4159 186.015 59.7437C186.015 59.0714 185.477 58.5253 184.805 58.5253C184.132 58.5253 183.595 59.0714 183.595 59.7437Z" fill="white"/>
<path d="M176.344 59.7437C176.344 60.4159 176.882 60.962 177.554 60.962C178.226 60.962 178.764 60.4159 178.764 59.7437C178.764 59.0714 178.226 58.5253 177.554 58.5253C176.882 58.5253 176.344 59.0714 176.344 59.7437Z" fill="white"/>
<path d="M169.084 59.7437C169.084 60.4159 169.621 60.962 170.294 60.962C170.966 60.962 171.504 60.4159 171.504 59.7437C171.504 59.0714 170.966 58.5253 170.294 58.5253C169.621 58.5253 169.084 59.0714 169.084 59.7437Z" fill="white"/>
<path d="M65.707 15.3422C66.7658 18.4595 67.5052 21.6778 67.9253 24.938" stroke="white" stroke-width="0.840266" stroke-miterlimit="10"/>
<path d="M74.5221 12.375C73.9087 15.9461 73.2953 19.5173 72.6819 23.08" stroke="white" stroke-width="0.840266" stroke-miterlimit="10"/>
<path d="M83.8068 17.561C82.4036 18.9223 81.2608 20.5608 80.4626 22.3505" stroke="white" stroke-width="0.840266" stroke-miterlimit="10"/>
<defs>
<linearGradient id="paint0_linear_2906_1684" x1="67.1623" y1="44.8314" x2="72.9769" y2="60.8973" gradientUnits="userSpaceOnUse">
<stop offset="0.27" stop-color="#371B85" stop-opacity="0.91"/>
<stop offset="0.56" stop-color="#F26D5A" stop-opacity="0"/>
</linearGradient>
<linearGradient id="paint1_linear_2906_1684" x1="299.805" y1="62.1672" x2="297.158" y2="81.1236" gradientUnits="userSpaceOnUse">
<stop offset="0.27" stop-color="#371B85" stop-opacity="0.91"/>
<stop offset="0.56" stop-color="#F26D5A" stop-opacity="0"/>
</linearGradient>
<linearGradient id="paint2_linear_2906_1684" x1="229.466" y1="75.6958" x2="224.92" y2="94.3665" gradientUnits="userSpaceOnUse">
<stop offset="0.27" stop-color="#371B85" stop-opacity="0.91"/>
<stop offset="0.56" stop-color="#F26D5A" stop-opacity="0"/>
</linearGradient>
<linearGradient id="paint3_linear_2906_1684" x1="23.2823" y1="210.14" x2="26.2316" y2="234.23" gradientUnits="userSpaceOnUse">
<stop stop-color="#201B59" stop-opacity="0.91"/>
<stop offset="0.56" stop-color="#2D3A8D" stop-opacity="0"/>
</linearGradient>
<linearGradient id="paint4_linear_2906_1684" x1="354.841" y1="211.58" x2="358.017" y2="237.519" gradientUnits="userSpaceOnUse">
<stop stop-color="#201B59" stop-opacity="0.91"/>
<stop offset="0.56" stop-color="#2D3A8D" stop-opacity="0"/>
</linearGradient>
</defs>
</svg>
