<svg width="51" height="51" viewBox="0 0 51 51" fill="none" xmlns="http://www.w3.org/2000/svg">
<path d="M25.8784 50.7793C39.6855 50.7793 50.8784 39.5864 50.8784 25.7793C50.8784 11.9722 39.6855 0.779297 25.8784 0.779297C12.0712 0.779297 0.878357 11.9722 0.878357 25.7793C0.878357 39.5864 12.0712 50.7793 25.8784 50.7793Z" fill="url(#paint0_linear_1_5041)"/>
<path d="M17.6657 17.8446C17.6657 20.6444 15.7439 22.9142 13.3733 22.9142C11.0029 22.9142 9.08148 20.6444 9.08148 17.8446C9.08148 15.045 11.0029 12.7754 13.3733 12.7754C15.7439 12.7754 17.6657 15.045 17.6657 17.8446Z" fill="white"/>
<path d="M18.2656 26.7839C18.5756 26.5949 18.9185 26.4717 19.2737 26.4129C18.5525 25.3953 18.0416 24.3037 17.7464 22.9973C17.6656 22.5199 17.012 22.4639 16.526 22.8599C15.6168 23.6011 14.5562 24.0971 13.373 24.0971C12.167 24.0971 11.0576 23.6173 10.1682 22.8143C9.88435 22.5579 9.46615 22.5191 9.13955 22.7185C7.45095 23.7501 6.17275 25.3873 5.61515 27.3319C5.46535 27.8529 5.57055 28.4159 5.89735 28.8495C6.22455 29.2827 6.73575 29.5381 7.27855 29.5381H15.0121C15.9379 28.4701 17.0306 27.5377 18.2656 26.7839Z" fill="white"/>
<path d="M33.4291 17.8446C33.4291 20.6444 35.3507 22.9142 37.7213 22.9142C40.0921 22.9142 42.0133 20.6444 42.0133 17.8446C42.0133 15.045 40.0921 12.7754 37.7213 12.7754C35.3507 12.7754 33.4291 15.045 33.4291 17.8446Z" fill="white"/>
<path d="M32.8299 26.7839C32.5199 26.5949 32.1767 26.4717 31.8217 26.4129C32.5429 25.3953 33.0539 24.3037 33.3491 22.9973C33.4301 22.5199 34.0837 22.4639 34.5697 22.8599C35.4789 23.6011 36.5393 24.0971 37.7225 24.0971C38.9283 24.0971 40.0379 23.6173 40.9275 22.8143C41.2113 22.5579 41.6293 22.5191 41.9559 22.7185C43.6447 23.7501 44.9231 25.3873 45.4803 27.3319C45.6299 27.8529 45.5249 28.4159 45.1983 28.8495C44.8709 29.2827 44.3599 29.5381 43.8173 29.5381H36.0833C35.1575 28.4701 34.0651 27.5377 32.8299 26.7839Z" fill="white"/>
<path d="M37.2427 35.1453C36.4031 32.2145 34.4987 29.7363 31.9775 28.1469C31.4801 27.8337 30.8345 27.8843 30.3933 28.2731C29.0401 29.4649 27.3657 30.1743 25.5477 30.1743C23.6939 30.1743 21.9895 29.4371 20.6225 28.2033C20.1861 27.8091 19.5439 27.7497 19.0421 28.0565C16.4467 29.6413 14.4823 32.1573 13.6257 35.1455C13.3955 35.9471 13.5569 36.8111 14.0589 37.4779C14.5621 38.1439 15.3475 38.5361 16.1819 38.5361H34.6865C35.5211 38.5361 36.3071 38.1451 36.8101 37.4779C37.3123 36.8109 37.4729 35.9477 37.2427 35.1453Z" fill="white"/>
<path d="M32.1426 20.5656C32.1426 24.8682 29.1894 28.3566 25.5464 28.3566C21.9036 28.3566 18.9506 24.8682 18.9506 20.5656C18.9506 16.2626 21.9036 12.7754 25.5464 12.7754C29.1896 12.7754 32.1426 16.2628 32.1426 20.5656Z" fill="white"/>
<defs>
<linearGradient id="paint0_linear_1_5041" x1="-32.6633" y1="-38.9554" x2="63.9284" y2="-14.573" gradientUnits="userSpaceOnUse">
<stop offset="0.0124488" stop-color="#252525"/>
<stop offset="1" stop-color="#FF222B"/>
</linearGradient>
</defs>
</svg>
