<svg width="51" height="51" viewBox="0 0 51 51" fill="none" xmlns="http://www.w3.org/2000/svg">
<path d="M25.8784 50.7793C39.6855 50.7793 50.8784 39.5864 50.8784 25.7793C50.8784 11.9722 39.6855 0.779297 25.8784 0.779297C12.0712 0.779297 0.878357 11.9722 0.878357 25.7793C0.878357 39.5864 12.0712 50.7793 25.8784 50.7793Z" fill="url(#paint0_linear_1_5019)"/>
<path d="M25.2123 9.25977C21.6761 9.25977 18.2847 10.6645 15.7843 13.165C13.2838 15.6655 11.879 19.0569 11.879 22.5931V25.7598C11.3762 26.1978 10.9688 26.7346 10.6821 27.3367C10.3954 27.9387 10.2355 28.5933 10.2123 29.2598C10.2503 30.2262 10.5793 31.1586 11.1563 31.9348C11.7332 32.711 12.5312 33.2948 13.4457 33.6098C15.6123 38.7931 19.9623 42.5931 25.2123 42.5931H30.2123V39.2598H25.2123C21.4457 39.2598 18.029 36.4264 16.3123 31.9431L15.9623 31.0264L14.979 30.9264C14.5785 30.8698 14.2123 30.6695 13.9486 30.3629C13.6849 30.0563 13.5417 29.6642 13.5457 29.2598C13.5474 28.9689 13.6253 28.6836 13.7715 28.4321C13.9177 28.1807 14.1271 27.9719 14.379 27.8264L15.2123 27.3431V24.2598C15.2123 23.8177 15.3879 23.3938 15.7005 23.0813C16.0131 22.7687 16.437 22.5931 16.879 22.5931H33.5457C33.9877 22.5931 34.4116 22.7687 34.7242 23.0813C35.0367 23.3938 35.2123 23.8177 35.2123 24.2598V32.5931H28.3957C28.2444 32.1688 27.9812 31.7933 27.6341 31.5062C27.287 31.2192 26.8687 31.0312 26.4236 30.9623C25.9784 30.8933 25.5229 30.9459 25.1052 31.1145C24.6875 31.2831 24.3231 31.5615 24.0505 31.9201C23.778 32.2787 23.6073 32.7044 23.5567 33.152C23.5061 33.5996 23.5774 34.0525 23.763 34.463C23.9486 34.8734 24.2417 35.2261 24.6112 35.4837C24.9808 35.7413 25.413 35.8943 25.8623 35.9264H38.5457C39.4297 35.9264 40.2776 35.5752 40.9027 34.9501C41.5278 34.325 41.879 33.4772 41.879 32.5931V29.2598C41.879 28.3757 41.5278 27.5279 40.9027 26.9027C40.2776 26.2776 39.4297 25.9264 38.5457 25.9264V22.5931C38.5457 19.0569 37.1409 15.6655 34.6404 13.165C32.1399 10.6645 28.7486 9.25977 25.2123 9.25977Z" fill="white"/>
<defs>
<linearGradient id="paint0_linear_1_5019" x1="-32.6633" y1="-38.9554" x2="63.9284" y2="-14.573" gradientUnits="userSpaceOnUse">
<stop offset="0.0124488" stop-color="#252525"/>
<stop offset="1" stop-color="#FF222B"/>
</linearGradient>
</defs>
</svg>
