<svg width="51" height="51" viewBox="0 0 51 51" fill="none" xmlns="http://www.w3.org/2000/svg">
<path d="M25.8784 50.7793C39.6855 50.7793 50.8784 39.5864 50.8784 25.7793C50.8784 11.9722 39.6855 0.779297 25.8784 0.779297C12.0712 0.779297 0.878357 11.9722 0.878357 25.7793C0.878357 39.5864 12.0712 50.7793 25.8784 50.7793Z" fill="url(#paint0_linear_1_4998)"/>
<path d="M17.6637 17.8602C17.6637 20.66 15.7419 22.9298 13.3713 22.9298C11.0009 22.9298 9.07953 20.66 9.07953 17.8602C9.07953 15.0606 11.0009 12.791 13.3713 12.791C15.7419 12.791 17.6637 15.0606 17.6637 17.8602Z" fill="white"/>
<path d="M18.2656 26.7996C18.5756 26.6106 18.9185 26.4874 19.2737 26.4286C18.5525 25.411 18.0416 24.3194 17.7464 23.013C17.6656 22.5356 17.012 22.4796 16.526 22.8756C15.6168 23.6168 14.5562 24.1128 13.373 24.1128C12.167 24.1128 11.0576 23.633 10.1682 22.83C9.88435 22.5736 9.46615 22.5348 9.13955 22.7342C7.45095 23.7658 6.17275 25.403 5.61515 27.3476C5.46535 27.8686 5.57055 28.4316 5.89735 28.8652C6.22455 29.2984 6.73575 29.5538 7.27855 29.5538H15.0121C15.9379 28.4858 17.0306 27.5534 18.2656 26.7996Z" fill="white"/>
<path d="M33.433 17.8602C33.433 20.66 35.3546 22.9298 37.7252 22.9298C40.096 22.9298 42.0172 20.66 42.0172 17.8602C42.0172 15.0606 40.096 12.791 37.7252 12.791C35.3546 12.791 33.433 15.0606 33.433 17.8602Z" fill="white"/>
<path d="M32.8319 26.7996C32.5219 26.6106 32.1787 26.4874 31.8237 26.4286C32.5449 25.411 33.0559 24.3194 33.3511 23.013C33.4321 22.5356 34.0857 22.4796 34.5717 22.8756C35.4809 23.6168 36.5413 24.1128 37.7245 24.1128C38.9303 24.1128 40.0399 23.633 40.9295 22.83C41.2133 22.5736 41.6313 22.5348 41.9579 22.7342C43.6467 23.7658 44.9251 25.403 45.4823 27.3476C45.6319 27.8686 45.5269 28.4316 45.2003 28.8652C44.8729 29.2984 44.3619 29.5538 43.8193 29.5538H36.0853C35.1595 28.4858 34.0671 27.5534 32.8319 26.7996Z" fill="white"/>
<path d="M37.2447 35.1609C36.4051 32.2301 34.5007 29.7519 31.9795 28.1625C31.4821 27.8493 30.8365 27.8999 30.3953 28.2887C29.0421 29.4805 27.3677 30.1899 25.5497 30.1899C23.6959 30.1899 21.9915 29.4527 20.6245 28.2189C20.1881 27.8247 19.5459 27.7653 19.0441 28.0721C16.4487 29.6569 14.4843 32.1729 13.6277 35.1611C13.3975 35.9627 13.5589 36.8267 14.0609 37.4935C14.5641 38.1595 15.3495 38.5517 16.1839 38.5517H34.6885C35.5231 38.5517 36.3091 38.1607 36.8121 37.4935C37.3143 36.8265 37.4749 35.9633 37.2447 35.1609Z" fill="white"/>
<path d="M32.1465 20.5812C32.1465 24.8838 29.1933 28.3722 25.5503 28.3722C21.9075 28.3722 18.9545 24.8838 18.9545 20.5812C18.9545 16.2782 21.9075 12.791 25.5503 12.791C29.1935 12.791 32.1465 16.2784 32.1465 20.5812Z" fill="white"/>
<defs>
<linearGradient id="paint0_linear_1_4998" x1="-32.6633" y1="-38.9554" x2="63.9284" y2="-14.573" gradientUnits="userSpaceOnUse">
<stop offset="0.0124488" stop-color="#252525"/>
<stop offset="1" stop-color="#FF222B"/>
</linearGradient>
</defs>
</svg>
