<svg width="508" height="280" viewBox="0 0 508 280" fill="none" xmlns="http://www.w3.org/2000/svg">
<rect width="507.891" height="279.059" fill="url(#paint0_linear_1_1612)" fill-opacity="0.3"/>
<path d="M175.573 120.52V161H169.011V120.52H175.573ZM186.419 161V130.333H192.245L192.552 135.485C193.615 133.523 195.026 132.071 196.784 131.131C198.583 130.19 200.485 129.72 202.488 129.72C204.696 129.72 206.72 130.231 208.56 131.253C210.441 132.235 211.852 133.727 212.792 135.731C213.446 134.381 214.346 133.257 215.491 132.357C216.636 131.458 217.903 130.804 219.293 130.395C220.684 129.945 222.053 129.72 223.403 129.72C225.365 129.72 227.205 130.129 228.923 130.947C230.64 131.764 232.03 133.012 233.093 134.688C234.157 136.364 234.688 138.511 234.688 141.128V161H228.125V142.171C228.125 139.676 227.533 137.877 226.347 136.773C225.161 135.669 223.648 135.117 221.808 135.117C220.377 135.117 219.048 135.465 217.821 136.16C216.636 136.855 215.675 137.898 214.939 139.288C214.203 140.637 213.835 142.314 213.835 144.317V161H207.272V142.171C207.272 139.676 206.679 137.877 205.493 136.773C204.308 135.669 202.795 135.117 200.955 135.117C199.728 135.117 198.501 135.444 197.275 136.099C196.048 136.753 195.026 137.775 194.208 139.165C193.39 140.556 192.981 142.396 192.981 144.685V161H186.419ZM262.363 141.312C262.363 139.268 261.79 137.693 260.646 136.589C259.542 135.444 258.008 134.872 256.046 134.872C254.206 134.872 252.631 135.301 251.323 136.16C250.014 137.019 249.054 138.409 248.44 140.331L242.92 138C243.697 135.506 245.21 133.502 247.459 131.989C249.749 130.476 252.693 129.72 256.291 129.72C258.744 129.72 260.911 130.129 262.792 130.947C264.673 131.724 266.145 132.909 267.208 134.504C268.312 136.099 268.864 138.143 268.864 140.637V154.315C268.864 155.828 269.621 156.584 271.134 156.584C271.87 156.584 272.585 156.482 273.28 156.277L272.912 160.816C271.972 161.266 270.786 161.491 269.355 161.491C268.046 161.491 266.861 161.266 265.798 160.816C264.775 160.325 263.958 159.61 263.344 158.669C262.772 157.688 262.486 156.482 262.486 155.051V154.621L263.835 154.56C263.467 156.155 262.71 157.484 261.566 158.547C260.421 159.569 259.092 160.346 257.579 160.877C256.066 161.368 254.533 161.613 252.979 161.613C251.057 161.613 249.319 161.307 247.766 160.693C246.253 160.08 245.046 159.16 244.147 157.933C243.288 156.666 242.859 155.112 242.859 153.272C242.859 150.982 243.595 149.101 245.067 147.629C246.58 146.157 248.706 145.156 251.446 144.624L263.344 142.293L263.283 146.893L254.635 148.672C252.918 148.999 251.63 149.469 250.771 150.083C249.912 150.696 249.483 151.596 249.483 152.781C249.483 153.926 249.912 154.846 250.771 155.541C251.67 156.196 252.856 156.523 254.328 156.523C255.35 156.523 256.332 156.4 257.272 156.155C258.254 155.909 259.133 155.521 259.91 154.989C260.686 154.417 261.279 153.701 261.688 152.843C262.138 151.943 262.363 150.88 262.363 149.653V141.312ZM306.723 123.893L307.766 129.045C307.643 129.045 307.52 129.045 307.398 129.045C307.275 129.004 307.152 128.984 307.03 128.984C305.067 128.984 303.575 129.413 302.552 130.272C301.53 131.09 301.019 132.296 301.019 133.891L297.83 132.419C297.83 130.783 298.177 129.332 298.872 128.064C299.568 126.756 300.549 125.733 301.816 124.997C303.125 124.261 304.597 123.893 306.232 123.893C306.314 123.893 306.396 123.893 306.478 123.893C306.56 123.893 306.641 123.893 306.723 123.893ZM297.032 156.216C300.14 156.216 302.552 156.911 304.27 158.301C305.987 159.651 306.846 161.532 306.846 163.944C306.846 166.07 306.171 167.89 304.822 169.403C303.472 170.956 301.632 172.142 299.302 172.96C297.012 173.778 294.375 174.187 291.39 174.187C286.36 174.187 282.64 173.41 280.227 171.856C277.815 170.302 276.608 168.36 276.608 166.029C276.608 164.394 277.181 162.963 278.326 161.736C279.512 160.509 281.495 159.814 284.275 159.651L283.907 160.632C282.19 160.264 280.8 159.61 279.736 158.669C278.714 157.688 278.203 156.318 278.203 154.56C278.203 152.802 278.878 151.309 280.227 150.083C281.576 148.856 283.478 148.14 285.931 147.936L289.366 149.592H288.63C286.749 149.756 285.42 150.185 284.643 150.88C283.866 151.575 283.478 152.352 283.478 153.211C283.478 154.233 283.846 154.989 284.582 155.48C285.359 155.971 286.442 156.216 287.832 156.216H297.032ZM291.39 169.28C293.639 169.28 295.479 169.055 296.91 168.605C298.382 168.196 299.465 167.644 300.16 166.949C300.896 166.295 301.264 165.559 301.264 164.741C301.264 163.801 300.876 163.044 300.099 162.472C299.363 161.9 298.014 161.613 296.051 161.613H286.176C285.032 161.613 284.071 161.9 283.294 162.472C282.517 163.085 282.128 163.903 282.128 164.925C282.128 166.275 282.946 167.338 284.582 168.115C286.217 168.892 288.487 169.28 291.39 169.28ZM291.144 129.72C293.843 129.72 296.174 130.149 298.136 131.008C300.14 131.867 301.673 133.073 302.736 134.627C303.84 136.18 304.392 138 304.392 140.085C304.392 142.171 303.84 143.99 302.736 145.544C301.673 147.098 300.14 148.304 298.136 149.163C296.174 150.021 293.843 150.451 291.144 150.451C286.892 150.451 283.621 149.51 281.331 147.629C279.082 145.708 277.958 143.193 277.958 140.085C277.958 138 278.51 136.18 279.614 134.627C280.718 133.073 282.251 131.867 284.214 131.008C286.217 130.149 288.528 129.72 291.144 129.72ZM291.144 134.32C289.264 134.32 287.689 134.852 286.422 135.915C285.195 136.937 284.582 138.327 284.582 140.085C284.582 141.844 285.195 143.254 286.422 144.317C287.689 145.38 289.264 145.912 291.144 145.912C293.066 145.912 294.64 145.38 295.867 144.317C297.135 143.254 297.768 141.844 297.768 140.085C297.768 138.327 297.135 136.937 295.867 135.915C294.64 134.852 293.066 134.32 291.144 134.32ZM326.352 161.613C323.286 161.613 320.587 160.98 318.256 159.712C315.926 158.444 314.106 156.625 312.798 154.253C311.53 151.841 310.896 148.979 310.896 145.667C310.896 142.355 311.53 139.513 312.798 137.141C314.106 134.729 315.905 132.889 318.195 131.621C320.485 130.354 323.081 129.72 325.984 129.72C328.969 129.72 331.504 130.333 333.59 131.56C335.675 132.787 337.27 134.463 338.374 136.589C339.478 138.716 340.03 141.128 340.03 143.827C340.03 144.563 340.009 145.258 339.968 145.912C339.927 146.566 339.866 147.139 339.784 147.629H315.128V142.6H336.902L333.651 143.581C333.651 140.801 332.956 138.675 331.566 137.203C330.175 135.69 328.274 134.933 325.862 134.933C324.103 134.933 322.57 135.342 321.262 136.16C319.953 136.978 318.951 138.204 318.256 139.84C317.561 141.435 317.214 143.397 317.214 145.728C317.214 148.018 317.582 149.96 318.318 151.555C319.054 153.149 320.096 154.356 321.446 155.173C322.795 155.991 324.39 156.4 326.23 156.4C328.274 156.4 329.93 156.012 331.198 155.235C332.465 154.458 333.467 153.374 334.203 151.984L339.416 154.437C338.68 155.909 337.678 157.197 336.411 158.301C335.184 159.364 333.712 160.182 331.995 160.755C330.278 161.327 328.397 161.613 326.352 161.613Z" fill="black"/>
<defs>
<linearGradient id="paint0_linear_1_1612" x1="253.945" y1="336.551" x2="94.7434" y2="13.121" gradientUnits="userSpaceOnUse">
<stop stop-color="#030303"/>
<stop offset="1" stop-color="#FF222B"/>
</linearGradient>
</defs>
</svg>
