<svg width="128" height="129" viewBox="0 0 128 129" fill="none" xmlns="http://www.w3.org/2000/svg">
<g filter="url(#filter0_d_3193_172906)">
<circle cx="64.0682" cy="60.658" r="54.8651" fill="white"/>
</g>
<path d="M65.3529 88.5019C65.3529 90.5162 65.3529 92.5635 65.3529 94.5778C65.3529 95.3043 65.2453 95.8327 64.2404 95.8327C50.5307 95.5685 37.467 93.29 26.9873 84.3742C17.2973 76.1519 17.5485 63.6037 27.2027 55.3484C34.2729 49.3055 42.9939 46.5647 52.2534 45.0127C56.0217 44.3853 59.8619 44.1871 63.702 44.1211C65.0299 44.1211 65.3888 44.5174 65.3888 45.7061C65.317 49.5696 65.317 53.4001 65.3888 57.2636C65.3888 58.4854 64.9581 58.7496 63.6661 58.8156C56.5242 59.0468 49.5258 59.9053 43.0657 63.0094C41.0918 63.967 39.2615 65.0237 37.7182 66.5096C35.0983 69.0193 35.0983 70.9675 37.7182 73.4441C41.0559 76.5812 45.3267 78.1662 49.7411 79.421C54.1914 80.6428 58.7852 81.1711 63.4149 81.1711C65.1017 81.1711 65.4606 81.6665 65.3888 83.0864C65.2811 84.9026 65.3888 86.7518 65.3888 88.5679L65.3529 88.5019Z" fill="#030303"/>
<path d="M64.4334 70.6075C64.4334 69.0555 64.5411 67.4705 64.4334 65.9185C64.3257 64.4325 64.7564 63.9042 66.515 63.8712C73.1186 63.8051 79.471 62.6163 85.4645 60.0407C87.7973 59.05 89.9865 57.8282 91.781 56.1111C94.7239 53.3043 94.7239 50.7286 91.781 47.9218C89.9148 46.1717 87.7255 44.8838 85.285 43.8932C79.2915 41.4496 73.0468 40.1948 66.515 40.1618C64.9717 40.1618 64.3975 39.7985 64.4334 38.3126C64.5411 34.9774 64.5052 31.6422 64.4334 28.3401C64.4334 27.2174 64.8641 26.8872 66.0484 26.9202C75.4514 27.1844 84.5314 28.6373 92.9653 32.6329C97.6309 34.8453 101.758 37.6521 104.737 41.7138C110.372 49.3748 109.403 58.5217 102.332 65.159C96.3389 70.7726 88.9099 73.7446 80.763 75.5277C75.918 76.5844 71.0011 77.0467 66.0125 77.1788C64.7923 77.1788 64.3616 76.8816 64.4334 75.7589C64.5052 74.0748 64.4334 72.3577 64.4334 70.6736V70.6075Z" fill="#ED2129"/>
<defs>
<filter id="filter0_d_3193_172906" x="0.40931" y="0.907516" width="127.318" height="127.318" filterUnits="userSpaceOnUse" color-interpolation-filters="sRGB">
<feFlood flood-opacity="0" result="BackgroundImageFix"/>
<feColorMatrix in="SourceAlpha" type="matrix" values="0 0 0 0 0 0 0 0 0 0 0 0 0 0 0 0 0 0 127 0" result="hardAlpha"/>
<feMorphology radius="4.88545" operator="dilate" in="SourceAlpha" result="effect1_dropShadow_3193_172906"/>
<feOffset dy="3.90836"/>
<feGaussianBlur stdDeviation="1.95418"/>
<feComposite in2="hardAlpha" operator="out"/>
<feColorMatrix type="matrix" values="0 0 0 0 0.8475 0 0 0 0 0.8475 0 0 0 0 0.8475 0 0 0 0.25 0"/>
<feBlend mode="normal" in2="BackgroundImageFix" result="effect1_dropShadow_3193_172906"/>
<feBlend mode="normal" in="SourceGraphic" in2="effect1_dropShadow_3193_172906" result="shape"/>
</filter>
</defs>
</svg>
