<svg width="165" height="165" viewBox="0 0 165 165" fill="none" xmlns="http://www.w3.org/2000/svg">
<path d="M121.626 43.221C143.553 65.0328 143.646 100.49 121.834 122.417C100.022 144.343 64.5652 144.436 42.6385 122.625C20.7118 100.813 20.6188 65.3556 42.4306 43.4289L81.9245 3.72706L121.626 43.221Z" fill="#FCE4FD"/>
<g clip-path="url(#clip0_3193_172917)">
<path d="M83.1225 46.9292C79.6564 46.9409 76.2716 47.9801 73.3962 49.9155C70.5207 51.8509 68.2837 54.5954 66.9681 57.8021C65.6525 61.0089 65.3173 64.5337 66.005 67.9309C66.6927 71.3281 68.3723 74.4451 70.8314 76.8877C73.2906 79.3303 76.4188 80.9889 79.8206 81.6536C83.2224 82.3184 86.7448 81.9594 89.9426 80.6222C93.1404 79.285 95.8698 77.0296 97.7857 74.1412C99.7017 71.2527 100.718 67.861 100.706 64.3949C100.685 59.7487 98.8224 55.3005 95.526 52.0261C92.2295 48.7518 87.7688 46.9188 83.1225 46.9292ZM89.4095 76.1584C89.3369 76.1964 89.2567 76.2177 89.1748 76.2208C89.0928 76.2239 89.0112 76.2088 88.9359 76.1764C88.8608 76.1428 88.794 76.0932 88.7403 76.0309C88.6866 75.9686 88.6473 75.8952 88.6252 75.816L87.4856 71.6083C87.4559 71.4979 87.4614 71.381 87.5013 71.2739C87.5411 71.1668 87.6135 71.0747 87.7081 71.0106C89.3094 69.9267 90.4767 68.3124 91.0045 66.4522C91.5322 64.592 91.3864 62.6052 90.5929 60.8419L85.4632 68.6989C85.4134 68.7746 85.3457 68.8369 85.2661 68.8802C85.1865 68.9235 85.0974 68.9464 85.0067 68.9469L81.384 68.9591C81.2926 68.9596 81.2026 68.9372 81.122 68.894C81.0415 68.8507 80.9731 68.788 80.9231 68.7115L75.7732 60.8289C74.9343 62.6863 74.8161 64.7894 75.4416 66.7291C76.0671 68.6689 77.3916 70.3068 79.1575 71.3243C79.2615 71.3835 79.343 71.4753 79.3894 71.5856C79.4358 71.6958 79.4446 71.8183 79.4143 71.934L78.3412 76.1081C78.3219 76.1861 78.2855 76.2589 78.2346 76.3211C78.1836 76.3834 78.1194 76.4334 78.0467 76.4678C77.974 76.5023 77.8946 76.5203 77.8141 76.5206C77.7337 76.5208 77.6541 76.5033 77.5812 76.4693C75.3588 75.4363 73.4591 73.8184 72.0854 71.7887C70.7118 69.7591 69.916 67.3941 69.7831 64.9469C69.6503 62.4997 70.1854 60.0624 71.3312 57.896C72.4769 55.7295 74.1903 53.9154 76.2878 52.6479C76.3045 52.635 76.3218 52.6231 76.3397 52.6121L76.5228 52.5047C76.6453 52.431 76.7917 52.4084 76.9307 52.4417C77.0696 52.4751 77.1899 52.5617 77.2655 52.6829L83.182 62.1402L89.2101 52.744C89.2869 52.6251 89.4066 52.5405 89.5443 52.5079C89.682 52.4753 89.827 52.4971 89.9489 52.569C91.2903 53.3601 92.4843 54.378 93.4777 55.5774C93.5208 55.6145 93.5571 55.6589 93.5849 55.7085C94.8409 57.2589 95.738 59.0683 96.2118 61.0066C96.6856 62.9449 96.7243 64.9641 96.3251 66.9191C95.9259 68.8742 95.0988 70.7166 93.9031 72.314C92.7074 73.9115 91.1728 75.2244 89.4095 76.1584Z" fill="#3CA8EB"/>
</g>
<path d="M65.6323 88.9293L67.6377 94.2887L69.5971 88.9159L70.7446 88.912L68.0976 96.0304L67.1846 96.0334L64.4848 88.9331L65.6323 88.9293ZM65.0463 88.9312L65.2582 93.828L65.2656 96.0399L63.9668 96.0443L63.9428 88.935L65.0463 88.9312ZM71.2963 88.9102L71.3203 96.0195L70.0166 96.0239L70.0091 93.812L70.1879 88.9139L71.2963 88.9102ZM75.7507 90.7213L77.0056 90.7171L77.0234 96.0003L75.8417 96.0043L75.7643 94.7545L75.7507 90.7213ZM76.3367 93.6393C76.3383 94.1113 76.2697 94.5331 76.131 94.9046C75.9923 95.2762 75.7752 95.5699 75.4797 95.7858C75.1842 95.9983 74.8037 96.1054 74.3382 96.107C73.8173 96.1087 73.3953 95.9572 73.072 95.6523C72.7487 95.3474 72.5859 94.845 72.5835 94.1451L72.572 90.7321L73.822 90.7278L73.8335 94.1507C73.8343 94.3883 73.8708 94.5754 73.9428 94.7118C74.0182 94.845 74.1178 94.9407 74.2417 94.9989C74.3688 95.0538 74.5072 95.081 74.657 95.0805C74.9792 95.0794 75.2329 95.0167 75.4181 94.8924C75.6032 94.7648 75.7344 94.5935 75.8118 94.3784C75.8925 94.16 75.9324 93.9174 75.9315 93.6504L76.3367 93.6393ZM79.5234 95.9918L78.2685 95.9961L78.2432 88.4961L79.4981 88.4919L79.5234 95.9918ZM83.1418 96.0773C82.6112 96.0791 82.1535 95.9683 81.7686 95.745C81.387 95.5184 81.0914 95.2118 80.8817 94.8252C80.6754 94.4385 80.5714 94.0075 80.5698 93.5323L80.5691 93.3321C80.5672 92.7852 80.6698 92.308 80.8768 91.9003C81.0837 91.4895 81.3691 91.1711 81.7329 90.9453C82.0967 90.7162 82.5114 90.6009 82.9769 90.5993C83.4847 90.5976 83.9066 90.7069 84.2426 90.9271C84.5819 91.144 84.8368 91.4475 85.0074 91.8376C85.178 92.2244 85.2642 92.6733 85.2659 93.1844L85.2677 93.7215L81.1613 93.7353L81.1583 92.8467L84.0293 92.837L84.029 92.7393C84.0218 92.5375 83.9821 92.3505 83.9099 92.1782C83.8377 92.0059 83.725 91.868 83.5716 91.7643C83.4215 91.6574 83.2228 91.6044 82.9754 91.6052C82.7182 91.6061 82.5036 91.6784 82.3316 91.8222C82.1628 91.966 82.0349 92.1666 81.9479 92.4241C81.8641 92.6815 81.8228 92.9828 81.824 93.3278L81.8246 93.528C81.8256 93.821 81.8802 94.0845 81.9884 94.3185C82.0999 94.5525 82.2584 94.7375 82.4639 94.8735C82.6727 95.0063 82.922 95.0722 83.2117 95.0712C83.4884 95.0703 83.7356 95.0157 83.9533 94.9076C84.1743 94.7962 84.3642 94.6376 84.523 94.432L85.1746 95.089C85.0095 95.337 84.7579 95.564 84.4201 95.7703C84.0855 95.9732 83.6594 96.0756 83.1418 96.0773ZM88.1516 96.0604C87.6665 96.0621 87.2561 95.9772 86.9202 95.8058C86.5876 95.6311 86.3346 95.409 86.1611 95.1394C85.991 94.8698 85.9054 94.5917 85.9044 94.3053L87.1056 94.3012C87.1193 94.503 87.1768 94.6672 87.2781 94.7938C87.3827 94.9172 87.5132 95.0062 87.6697 95.0611C87.8294 95.1159 87.9955 95.143 88.168 95.1424C88.3698 95.1417 88.539 95.1151 88.6755 95.0626C88.8121 95.0068 88.9144 94.9332 88.9824 94.8418C89.0537 94.7471 89.0892 94.638 89.0887 94.5143C89.0884 94.4036 89.0587 94.3044 88.9998 94.2167C88.9442 94.129 88.8349 94.048 88.6719 93.9737C88.5121 93.8994 88.2759 93.8302 87.9632 93.7661C87.5918 93.6892 87.2643 93.5862 86.9807 93.4569C86.697 93.3277 86.4735 93.1608 86.31 92.9563C86.1498 92.7485 86.0692 92.4965 86.0682 92.2002C86.0672 91.9105 86.1494 91.6433 86.3145 91.3986C86.4797 91.1539 86.7167 90.9578 87.0255 90.8103C87.3342 90.6595 87.7002 90.5834 88.1233 90.582C88.5693 90.5805 88.952 90.654 89.2715 90.8027C89.5943 90.9481 89.8424 91.1475 90.0157 91.4008C90.1891 91.6509 90.2763 91.937 90.2774 92.2593L89.0274 92.2635C89.0267 92.0552 88.9513 91.8764 88.801 91.7271C88.6508 91.5747 88.4243 91.4989 88.1215 91.4999C87.9393 91.5006 87.7847 91.5304 87.658 91.5894C87.5312 91.6484 87.4371 91.7269 87.3756 91.8247C87.314 91.9193 87.2835 92.0236 87.2838 92.1375C87.2842 92.2482 87.3155 92.3458 87.3776 92.4302C87.443 92.5114 87.5523 92.5842 87.7055 92.6488C87.8587 92.7101 88.0721 92.7697 88.3457 92.8273C88.7432 92.9074 89.0886 93.012 89.382 93.1412C89.6786 93.2672 89.907 93.4357 90.0673 93.6467C90.2307 93.8545 90.313 94.1228 90.3141 94.4516C90.3152 94.7608 90.2266 95.0378 90.0484 95.2825C89.8734 95.524 89.6234 95.7137 89.2983 95.8515C88.9733 95.9893 88.591 96.0589 88.1516 96.0604ZM91.0865 93.2624C91.0847 92.7481 91.1809 92.2888 91.3748 91.8845C91.5688 91.4802 91.8476 91.1602 92.2114 90.9246C92.5785 90.6858 93.0208 90.5655 93.5383 90.5637C94.0624 90.5619 94.5104 90.6793 94.8823 90.9156C95.2542 91.1488 95.5368 91.4668 95.7303 91.8698C95.9269 92.2728 96.0261 92.7314 96.0279 93.2458L96.0282 93.3483C96.0299 93.8594 95.9338 94.3187 95.7399 94.7262C95.5492 95.1305 95.2687 95.4505 94.8984 95.6861C94.5313 95.9217 94.0874 96.0404 93.5666 96.0422C93.0457 96.0439 92.601 95.9282 92.2324 95.6951C91.8638 95.462 91.5811 95.1439 91.3844 94.7409C91.1878 94.3347 91.0886 93.876 91.0868 93.365L91.0865 93.2624ZM92.3368 93.3607C92.3379 93.6667 92.3811 93.9482 92.4666 94.205C92.5521 94.4587 92.6846 94.6617 92.8642 94.8141C93.0437 94.9632 93.2767 95.0373 93.5632 95.0363C93.8496 95.0353 94.0821 94.9597 94.2607 94.8093C94.4392 94.6558 94.5687 94.4519 94.6492 94.1977C94.733 93.9402 94.7744 93.6585 94.7733 93.3525L94.773 93.25C94.772 92.9473 94.7287 92.6691 94.6432 92.4155C94.561 92.1586 94.4284 91.9539 94.2456 91.8016C94.0661 91.6459 93.8314 91.5686 93.5417 91.5696C93.2585 91.5705 93.0277 91.6494 92.8492 91.8063C92.6706 91.9599 92.5395 92.1654 92.4557 92.4228C92.3752 92.677 92.3355 92.9555 92.3365 93.2582L92.3368 93.3607ZM97.3943 95.9316L97.3749 90.1553C97.3729 89.5661 97.539 89.1147 97.8732 88.801C98.2107 88.4841 98.6692 88.3247 99.2486 88.3228C99.369 88.3224 99.4862 88.3301 99.6002 88.346C99.7142 88.3619 99.8266 88.3827 99.9374 88.4083L99.9114 89.385C99.8495 89.3722 99.7794 89.3627 99.7013 89.3564C99.6264 89.3501 99.5466 89.3472 99.462 89.3474C99.1983 89.3483 98.9935 89.419 98.8475 89.5595C98.7015 89.6967 98.6289 89.8939 98.6297 90.151L98.6492 95.9274L97.3943 95.9316ZM99.7087 91.5634L96.5838 91.574L96.5806 90.6511L99.7056 90.6406L99.7087 91.5634ZM103.005 91.5523L99.9919 91.5625L99.9888 90.6396L103.002 90.6295L103.005 91.5523ZM102.069 89.3387L102.086 94.4021C102.087 94.5616 102.11 94.6836 102.156 94.7681C102.202 94.8493 102.266 94.9044 102.347 94.9335C102.432 94.9625 102.531 94.9768 102.645 94.9764C102.726 94.9761 102.805 94.971 102.879 94.961C102.954 94.9509 103.013 94.941 103.055 94.9311L103.058 95.893C102.958 95.9259 102.842 95.9539 102.712 95.9772C102.582 96.0004 102.43 96.0123 102.258 96.0129C101.981 96.0138 101.735 95.9658 101.52 95.8689C101.305 95.7687 101.137 95.6081 101.016 95.3872C100.898 95.1662 100.838 94.8718 100.837 94.504L100.819 89.3429L102.069 89.3387ZM59.3363 105.726C59.3021 106.195 59.1733 106.614 58.9499 106.982C58.7266 107.351 58.4134 107.64 58.0105 107.85C57.6075 108.059 57.1163 108.165 56.5369 108.167C55.9477 108.169 55.4362 108.034 55.0023 107.762C54.5685 107.487 54.2335 107.096 53.9974 106.589C53.7613 106.082 53.6421 105.485 53.6398 104.798L53.638 104.256C53.6357 103.566 53.7525 102.968 53.9884 102.463C54.2276 101.954 54.5664 101.561 55.0049 101.283C55.4434 101.004 55.9589 100.864 56.5514 100.862C57.1275 100.86 57.6129 100.965 58.0075 101.175C58.4053 101.382 58.7139 101.672 58.9333 102.046C59.1526 102.416 59.2859 102.84 59.3331 103.319L58.0343 103.323C57.9872 102.877 57.8542 102.533 57.6353 102.289C57.4196 102.043 57.0595 101.92 56.5549 101.922C56.2001 101.923 55.9026 102.012 55.6623 102.189C55.4252 102.365 55.2471 102.626 55.1278 102.972C55.0085 103.314 54.9497 103.737 54.9514 104.242L54.9533 104.793C54.9549 105.275 55.01 105.69 55.1186 106.038C55.2272 106.383 55.3974 106.647 55.6291 106.832C55.8608 107.017 56.1623 107.109 56.5334 107.108C56.8719 107.106 57.1452 107.053 57.3531 106.948C57.5611 106.844 57.7185 106.69 57.8252 106.488C57.9352 106.282 58.006 106.03 58.0375 105.73L59.3363 105.726ZM60.0675 105.367C60.0658 104.853 60.1619 104.393 60.3559 103.989C60.5498 103.585 60.8287 103.265 61.1925 103.029C61.5595 102.79 62.0018 102.67 62.5194 102.668C63.0435 102.667 63.4915 102.784 63.8634 103.02C64.2352 103.253 64.5179 103.571 64.7113 103.974C64.908 104.377 65.0072 104.836 65.0089 105.35L65.0093 105.453C65.011 105.964 64.9149 106.423 64.7209 106.831C64.5302 107.235 64.2497 107.555 63.8794 107.791C63.5124 108.026 63.0685 108.145 62.5476 108.147C62.0268 108.149 61.5821 108.033 61.2134 107.8C60.8448 107.567 60.5622 107.249 60.3655 106.846C60.1688 106.439 60.0696 105.981 60.0679 105.47L60.0675 105.367ZM61.3179 105.465C61.3189 105.771 61.3622 106.053 61.4477 106.31C61.5332 106.563 61.6657 106.766 61.8452 106.919C62.0248 107.068 62.2578 107.142 62.5442 107.141C62.8307 107.14 63.0632 107.064 63.2417 106.914C63.4202 106.76 63.5498 106.557 63.6303 106.302C63.7141 106.045 63.7554 105.763 63.7544 105.457L63.754 105.355C63.753 105.052 63.7098 104.774 63.6243 104.52C63.542 104.263 63.4095 104.059 63.2267 103.906C63.0471 103.751 62.8125 103.673 62.5228 103.674C62.2396 103.675 62.0087 103.754 61.8302 103.911C61.6517 104.065 61.5206 104.27 61.4368 104.527C61.3563 104.782 61.3165 105.06 61.3175 105.363L61.3179 105.465ZM67.225 108.033L65.9701 108.038L65.9523 102.754L67.134 102.75L67.2108 103.829L67.225 108.033ZM66.6051 105.213C66.6035 104.718 66.6801 104.279 66.8351 103.894C66.9933 103.509 67.2283 103.206 67.54 102.983C67.8518 102.761 68.2388 102.649 68.701 102.648C69.1795 102.646 69.5723 102.789 69.8792 103.078C70.1862 103.367 70.3408 103.842 70.343 104.502L70.3549 108.023L69.1049 108.027L69.0934 104.629C69.0926 104.384 69.0545 104.193 68.9792 104.053C68.9071 103.913 68.8026 103.814 68.6657 103.756C68.5288 103.698 68.3675 103.669 68.182 103.67C67.9737 103.67 67.7947 103.71 67.6453 103.789C67.4991 103.867 67.379 103.977 67.2851 104.117C67.1911 104.257 67.1217 104.42 67.0767 104.606C67.035 104.792 67.0146 104.992 67.0153 105.207L66.6051 105.213ZM69.7003 105.047C69.6988 104.607 69.7756 104.205 69.9306 103.84C70.0856 103.475 70.3158 103.184 70.621 102.968C70.9263 102.749 71.3035 102.639 71.7527 102.637C72.1076 102.636 72.4138 102.702 72.6714 102.834C72.929 102.964 73.1266 103.173 73.2643 103.462C73.4053 103.751 73.4765 104.134 73.4782 104.609L73.4896 108.012L72.2347 108.016L72.2233 104.608C72.2224 104.354 72.1843 104.159 72.109 104.023C72.0369 103.886 71.9324 103.792 71.7955 103.741C71.6619 103.686 71.5039 103.659 71.3216 103.659C71.1426 103.66 70.9864 103.693 70.8532 103.758C70.7232 103.824 70.6128 103.915 70.5221 104.033C70.4346 104.147 70.3683 104.283 70.3233 104.439C70.2782 104.592 70.256 104.758 70.2566 104.937L69.7003 105.047ZM77.279 108.097C76.947 108.098 76.6587 108.037 76.4141 107.915C76.1695 107.788 75.9622 107.612 75.7922 107.384C75.6254 107.157 75.4911 106.891 75.3891 106.585C75.2872 106.276 75.2128 105.939 75.166 105.575L75.1648 105.233C75.2217 104.719 75.3308 104.266 75.4923 103.875C75.6537 103.483 75.8773 103.177 76.163 102.954C76.452 102.732 76.8146 102.62 77.2508 102.619C77.6967 102.617 78.0731 102.728 78.3798 102.952C78.6866 103.175 78.9187 103.489 79.0764 103.892C79.2372 104.292 79.3185 104.76 79.3203 105.297L79.3207 105.4C79.3224 105.914 79.2442 106.375 79.0861 106.782C78.9312 107.187 78.7012 107.506 78.396 107.742C78.094 107.977 77.7217 108.096 77.279 108.097ZM74.6732 110.04L74.6486 102.725L75.8009 102.721L75.902 103.737L75.9232 110.035L74.6732 110.04ZM76.9338 107.092C77.2072 107.092 77.4267 107.014 77.5922 106.861C77.761 106.707 77.8823 106.503 77.9564 106.249C78.0336 105.992 78.0717 105.71 78.0707 105.404L78.0704 105.301C78.0693 104.989 78.0293 104.708 77.9503 104.457C77.8714 104.207 77.747 104.009 77.5772 103.863C77.4074 103.714 77.1858 103.639 76.9124 103.64C76.7106 103.641 76.5382 103.674 76.3952 103.74C76.2521 103.805 76.132 103.899 76.0348 104.019C75.9408 104.137 75.8664 104.279 75.8116 104.445C75.7601 104.608 75.7249 104.789 75.706 104.987L75.7088 105.817C75.7454 106.055 75.808 106.271 75.8965 106.466C75.9851 106.658 76.1125 106.81 76.2789 106.924C76.4486 107.037 76.6669 107.093 76.9338 107.092ZM81.5413 107.985L80.2913 107.989L80.2735 102.706L81.46 102.702L81.5271 103.766L81.5413 107.985ZM83.1143 103.854C83.0394 103.841 82.958 103.832 82.8701 103.825C82.7854 103.819 82.7024 103.816 82.621 103.816C82.3574 103.817 82.1378 103.865 81.9623 103.96C81.7869 104.052 81.6539 104.186 81.5633 104.362C81.476 104.535 81.4246 104.742 81.4091 104.983L81.1308 104.964C81.1293 104.518 81.1865 104.117 81.3025 103.762C81.4185 103.404 81.5917 103.122 81.8221 102.916C82.0558 102.707 82.3468 102.602 82.6951 102.6C82.7634 102.6 82.8399 102.606 82.9246 102.619C83.0093 102.629 83.0744 102.643 83.1201 102.662L83.1143 103.854ZM86.2145 108.067C85.6839 108.069 85.2262 107.958 84.8413 107.735C84.4597 107.508 84.164 107.202 83.9544 106.815C83.748 106.428 83.644 105.997 83.6424 105.522L83.6417 105.322C83.6399 104.775 83.7425 104.298 83.9494 103.89C84.1564 103.479 84.4418 103.161 84.8056 102.935C85.1694 102.706 85.584 102.591 86.0495 102.589C86.5573 102.587 86.9793 102.697 87.3153 102.917C87.6546 103.134 87.9095 103.437 88.0801 103.827C88.2507 104.214 88.3368 104.663 88.3385 105.174L88.3403 105.711L84.2339 105.725L84.2309 104.836L87.102 104.827L87.1017 104.729C87.0945 104.527 87.0548 104.34 86.9826 104.168C86.9104 103.996 86.7976 103.858 86.6443 103.754C86.4942 103.647 86.2954 103.594 86.048 103.595C85.7909 103.596 85.5763 103.668 85.4042 103.812C85.2355 103.956 85.1076 104.156 85.0205 104.414C84.9368 104.671 84.8955 104.972 84.8966 105.318L84.8973 105.518C84.8983 105.811 84.9529 106.074 85.0611 106.308C85.1726 106.542 85.3311 106.727 85.5366 106.863C85.7454 106.996 85.9946 107.062 86.2843 107.061C86.561 107.06 86.8082 107.005 87.026 106.897C87.247 106.786 87.4369 106.627 87.5957 106.422L88.2473 107.079C88.0821 107.327 87.8306 107.554 87.4928 107.76C87.1582 107.963 86.7321 108.065 86.2145 108.067ZM91.2242 108.05C90.7392 108.052 90.3288 107.967 89.9929 107.795C89.6603 107.621 89.4072 107.399 89.2338 107.129C89.0636 106.859 88.9781 106.581 88.9771 106.295L90.1783 106.291C90.192 106.493 90.2495 106.657 90.3508 106.784C90.4554 106.907 90.5859 106.996 90.7423 107.051C90.902 107.106 91.0681 107.133 91.2407 107.132C91.4425 107.131 91.6117 107.105 91.7482 107.052C91.8847 106.996 91.987 106.923 92.0551 106.832C92.1264 106.737 92.1618 106.628 92.1614 106.504C92.161 106.393 92.1314 106.294 92.0725 106.206C92.0169 106.119 91.9076 106.038 91.7445 105.963C91.5848 105.889 91.3485 105.82 91.0358 105.756C90.6645 105.679 90.337 105.576 90.0533 105.447C89.7697 105.317 89.5461 105.15 89.3827 104.946C89.2225 104.738 89.1419 104.486 89.1409 104.19C89.1399 103.9 89.222 103.633 89.3872 103.388C89.5524 103.144 89.7894 102.948 90.0981 102.8C90.4069 102.649 90.7728 102.573 91.196 102.572C91.642 102.57 92.0247 102.644 92.3442 102.792C92.667 102.938 92.915 103.137 93.0884 103.39C93.2618 103.641 93.349 103.927 93.3501 104.249L92.1001 104.253C92.0994 104.045 92.0239 103.866 91.8737 103.717C91.7234 103.564 91.4969 103.489 91.1942 103.49C91.0119 103.49 90.8574 103.52 90.7306 103.579C90.6039 103.638 90.5097 103.717 90.4482 103.814C90.3867 103.909 90.3561 104.013 90.3565 104.127C90.3569 104.238 90.3881 104.335 90.4503 104.42C90.5156 104.501 90.6249 104.574 90.7782 104.639C90.9314 104.7 91.1448 104.759 91.4184 104.817C91.8158 104.897 92.1612 105.002 92.4546 105.131C92.7513 105.257 92.9797 105.425 93.1399 105.636C93.3034 105.844 93.3857 106.112 93.3868 106.441C93.3878 106.751 93.2992 107.028 93.121 107.272C92.9461 107.514 92.696 107.703 92.371 107.841C92.0459 107.979 91.6637 108.049 91.2242 108.05ZM96.3804 108.033C95.8954 108.034 95.485 107.95 95.1491 107.778C94.8165 107.603 94.5635 107.381 94.39 107.112C94.2198 106.842 94.1343 106.564 94.1333 106.278L95.3345 106.274C95.3482 106.475 95.4057 106.64 95.507 106.766C95.6116 106.889 95.7421 106.979 95.8986 107.033C96.0583 107.088 96.2244 107.115 96.3969 107.115C96.5987 107.114 96.7679 107.087 96.9044 107.035C97.041 106.979 97.1433 106.905 97.2113 106.814C97.2826 106.719 97.318 106.61 97.3176 106.487C97.3173 106.376 97.2876 106.277 97.2287 106.189C97.1731 106.101 97.0638 106.02 96.9008 105.946C96.741 105.872 96.5048 105.802 96.192 105.738C95.8207 105.662 95.4932 105.559 95.2096 105.429C94.9259 105.3 94.7024 105.133 94.5389 104.929C94.3787 104.721 94.2981 104.469 94.2971 104.173C94.2961 103.883 94.3782 103.616 94.5434 103.371C94.7086 103.126 94.9456 102.93 95.2543 102.783C95.5631 102.632 95.929 102.556 96.3522 102.554C96.7982 102.553 97.1809 102.626 97.5004 102.775C97.8232 102.92 98.0713 103.12 98.2446 103.373C98.418 103.623 98.5052 103.909 98.5063 104.232L97.2563 104.236C97.2556 104.027 97.1801 103.849 97.0299 103.699C96.8797 103.547 96.6532 103.471 96.3504 103.472C96.1681 103.473 96.0136 103.503 95.8869 103.562C95.7601 103.621 95.666 103.699 95.6044 103.797C95.5429 103.892 95.5123 103.996 95.5127 104.11C95.5131 104.221 95.5444 104.318 95.6065 104.403C95.6719 104.484 95.7812 104.557 95.9344 104.621C96.0876 104.682 96.301 104.742 96.5746 104.8C96.972 104.88 97.3174 104.984 97.6108 105.114C97.9075 105.239 98.1359 105.408 98.2962 105.619C98.4596 105.827 98.5419 106.095 98.543 106.424C98.544 106.733 98.4555 107.01 98.2773 107.255C98.1023 107.496 97.8523 107.686 97.5272 107.824C97.2022 107.962 96.8199 108.031 96.3804 108.033ZM102.681 102.631L103.936 102.626L103.953 107.91L102.772 107.914L102.694 106.664L102.681 102.631ZM103.267 105.549C103.268 106.021 103.2 106.442 103.061 106.814C102.922 107.185 102.705 107.479 102.41 107.695C102.114 107.908 101.734 108.015 101.268 108.016C100.747 108.018 100.325 107.866 100.002 107.562C99.6786 107.257 99.5158 106.754 99.5134 106.054L99.5019 102.641L100.752 102.637L100.763 106.06C100.764 106.298 100.801 106.485 100.873 106.621C100.948 106.754 101.048 106.85 101.172 106.908C101.299 106.963 101.437 106.99 101.587 106.99C101.909 106.989 102.163 106.926 102.348 106.802C102.533 106.674 102.664 106.503 102.742 106.288C102.822 106.069 102.862 105.827 102.861 105.56L103.267 105.549ZM106.375 107.901L105.125 107.906L105.107 102.622L106.294 102.618L106.361 103.683L106.375 107.901ZM107.948 103.77C107.873 103.757 107.792 103.748 107.704 103.742C107.619 103.735 107.536 103.732 107.455 103.733C107.191 103.734 106.972 103.782 106.796 103.877C106.621 103.968 106.488 104.102 106.397 104.278C106.31 104.451 106.258 104.658 106.243 104.899L105.965 104.88C105.963 104.434 106.02 104.034 106.136 103.679C106.252 103.32 106.426 103.038 106.656 102.832C106.89 102.623 107.181 102.518 107.529 102.517C107.597 102.516 107.674 102.523 107.758 102.535C107.843 102.545 107.908 102.559 107.954 102.579L107.948 103.77ZM111.048 107.983C110.518 107.985 110.06 107.874 109.675 107.651C109.294 107.424 108.998 107.118 108.788 106.731C108.582 106.344 108.478 105.914 108.476 105.438L108.476 105.238C108.474 104.691 108.576 104.214 108.783 103.806C108.99 103.395 109.276 103.077 109.639 102.851C110.003 102.622 110.418 102.507 110.883 102.505C111.391 102.504 111.813 102.613 112.149 102.833C112.488 103.05 112.743 103.354 112.914 103.744C113.085 104.13 113.171 104.579 113.172 105.09L113.174 105.627L109.068 105.641L109.065 104.753L111.936 104.743L111.936 104.645C111.928 104.444 111.889 104.256 111.816 104.084C111.744 103.912 111.631 103.774 111.478 103.67C111.328 103.563 111.129 103.51 110.882 103.511C110.625 103.512 110.41 103.584 110.238 103.728C110.069 103.872 109.941 104.073 109.854 104.33C109.771 104.588 109.729 104.889 109.73 105.234L109.731 105.434C109.732 105.727 109.787 105.99 109.895 106.224C110.006 106.458 110.165 106.643 110.37 106.78C110.579 106.912 110.828 106.978 111.118 106.977C111.395 106.976 111.642 106.922 111.86 106.814C112.081 106.702 112.271 106.544 112.43 106.338L113.081 106.995C112.916 107.243 112.664 107.47 112.327 107.676C111.992 107.879 111.566 107.982 111.048 107.983Z" fill="#030303"/>
<defs>
<clipPath id="clip0_3193_172917">
<rect width="35.0498" height="35.0498" fill="white" transform="translate(65.5977 46.9883) rotate(-0.193157)"/>
</clipPath>
</defs>
</svg>
