<svg width="26" height="33" viewBox="0 0 26 33" fill="none" xmlns="http://www.w3.org/2000/svg">
<path d="M2.36501 32.3638H23.8428C24.2276 32.3636 24.5965 32.2106 24.8686 31.9386C25.1407 31.6666 25.2937 31.2977 25.2941 30.9129V2.34938C25.2937 1.96468 25.1407 1.59585 24.8687 1.32382C24.5967 1.0518 24.2278 0.898812 23.8432 0.898438H2.36501C1.98031 0.898812 1.61147 1.0518 1.33945 1.32382C1.06742 1.59585 0.914437 1.96468 0.914062 2.34938V30.9129C0.914437 31.2976 1.06742 31.6664 1.33945 31.9385C1.61147 32.2105 1.98031 32.3635 2.36501 32.3638ZM19.2785 1.95907V2.98894C19.2784 3.08853 19.2387 3.18397 19.1682 3.25435C19.0978 3.32474 19.0023 3.36431 18.9027 3.36441H7.30508C7.20549 3.36431 7.11001 3.32474 7.03956 3.25435C6.96911 3.18397 6.92945 3.08853 6.92926 2.98894V1.95907H19.2785ZM1.97434 2.34938C1.97443 2.24583 2.01563 2.14656 2.08889 2.07337C2.16214 2.00018 2.26146 1.95907 2.36501 1.95907H5.86863V2.98894C5.86909 3.36974 6.0206 3.73479 6.28989 4.00402C6.55919 4.27325 6.92428 4.42466 7.30508 4.42504H18.9027C19.2835 4.42466 19.6486 4.27325 19.9179 4.00402C20.1872 3.73479 20.3387 3.36974 20.3392 2.98894V1.95907H23.8428C23.9463 1.95916 24.0455 2.00031 24.1187 2.07349C24.1919 2.14667 24.233 2.24589 24.2331 2.34938V30.9129C24.233 31.0164 24.1919 31.1156 24.1187 31.1888C24.0455 31.262 23.9463 31.3031 23.8428 31.3032H2.36501C2.26146 31.3032 2.16214 31.2621 2.08889 31.1889C2.01563 31.1157 1.97443 31.0165 1.97434 30.9129V2.34938Z" fill="black"/>
<path d="M15.9159 21.1546L12.6099 25.1913L10.2277 23.0835C10.1223 22.9903 9.98421 22.9428 9.84378 22.9514C9.70335 22.96 9.5721 23.0241 9.4789 23.1295C9.3857 23.2349 9.33818 23.373 9.3468 23.5134C9.35542 23.6538 9.41947 23.7851 9.52486 23.8783L12.3196 26.3506C12.4166 26.4364 12.5416 26.4839 12.671 26.4839C12.6852 26.4839 12.6993 26.4832 12.7135 26.4821C12.7846 26.4763 12.8538 26.4563 12.9169 26.4232C12.9801 26.3901 13.036 26.3446 13.0812 26.2894L16.7368 21.827C16.826 21.7181 16.8682 21.5783 16.8543 21.4383C16.8404 21.2983 16.7714 21.1695 16.6626 21.0803C16.5537 20.9912 16.4139 20.9489 16.2738 20.9628C16.1338 20.9767 16.005 21.0457 15.9159 21.1546ZM6.61625 8.95907H15.8696C16.0102 8.95907 16.1451 8.9032 16.2445 8.80374C16.344 8.70429 16.3999 8.5694 16.3999 8.42875C16.3999 8.2881 16.344 8.15322 16.2445 8.05376C16.1451 7.95431 16.0102 7.89844 15.8696 7.89844H6.61625C6.4756 7.89844 6.34072 7.95431 6.24126 8.05376C6.14181 8.15322 6.08594 8.2881 6.08594 8.42875C6.08594 8.5694 6.14181 8.70429 6.24126 8.80374C6.34072 8.9032 6.4756 8.95907 6.61625 8.95907ZM6.61625 11.6867H19.5864C19.727 11.6867 19.8619 11.6308 19.9614 11.5313C20.0608 11.4319 20.1167 11.297 20.1167 11.1563C20.1167 11.0157 20.0608 10.8808 19.9614 10.7814C19.8619 10.6819 19.727 10.626 19.5864 10.626H6.61625C6.4756 10.626 6.34072 10.6819 6.24126 10.7814C6.14181 10.8808 6.08594 11.0157 6.08594 11.1563C6.08594 11.297 6.14181 11.4319 6.24126 11.5313C6.34072 11.6308 6.4756 11.6867 6.61625 11.6867ZM6.61625 14.4139H19.5864C19.727 14.4139 19.8619 14.358 19.9614 14.2586C20.0608 14.1591 20.1167 14.0242 20.1167 13.8836C20.1167 13.7429 20.0608 13.608 19.9614 13.5086C19.8619 13.4091 19.727 13.3533 19.5864 13.3533H6.61625C6.4756 13.3533 6.34072 13.4091 6.24126 13.5086C6.14181 13.608 6.08594 13.7429 6.08594 13.8836C6.08594 14.0242 6.14181 14.1591 6.24126 14.2586C6.34072 14.358 6.4756 14.4139 6.61625 14.4139Z" fill="black"/>
</svg>
