<svg width="163" height="163" viewBox="0 0 163 163" fill="none" xmlns="http://www.w3.org/2000/svg">
<path d="M120.741 122.025C143.003 100.556 143.647 65.1048 122.178 42.8421C100.709 20.5794 65.2579 19.9358 42.9952 41.4046C20.7325 62.8734 20.0889 98.3248 41.5576 120.587L80.4303 160.898L120.741 122.025Z" fill="#FFEDE0"/>
<g clip-path="url(#clip0_3193_172912)">
<path d="M82.5235 41.7887C79.0577 41.7439 75.6564 42.7279 72.7498 44.6162C69.8433 46.5046 67.5619 49.2124 66.1943 52.3972C64.8267 55.5821 64.4342 59.101 65.0664 62.509C65.6987 65.9169 67.3274 69.0608 69.7464 71.5432C72.1655 74.0255 75.2664 75.7347 78.6568 76.4547C82.0473 77.1748 85.5752 76.8732 88.7943 75.5882C92.0134 74.3032 94.7792 72.0925 96.7419 69.2357C98.7046 66.3788 99.776 63.0041 99.8208 59.5383C99.8755 54.8923 98.0851 50.4143 94.8423 47.0868C91.5996 43.7592 87.1693 41.8538 82.5235 41.7887ZM88.334 71.1163C88.2607 71.1531 88.1802 71.1731 88.0982 71.1749C88.0162 71.1767 87.9349 71.1602 87.8601 71.1266C87.7855 71.0918 87.7196 71.0411 87.6669 70.9779C87.6142 70.9147 87.5761 70.8407 87.5553 70.7612L86.4844 66.5355C86.4564 66.4247 86.4638 66.3079 86.5054 66.2014C86.5471 66.0949 86.6209 66.0041 86.7166 65.9415C88.3353 64.8838 89.5287 63.2888 90.0866 61.4374C90.6446 59.586 90.5312 57.5971 89.7664 55.8211L84.5095 63.5936C84.4586 63.6685 84.3898 63.7297 84.3095 63.7716C84.2292 63.8136 84.1397 63.835 84.0491 63.8341L80.4267 63.7873C80.3353 63.7864 80.2456 63.7625 80.1658 63.7179C80.086 63.6734 80.0186 63.6095 79.9699 63.5322L74.949 55.5669C74.0799 57.4104 73.9275 59.5113 74.5214 61.461C75.1152 63.4106 76.4128 65.0698 78.162 66.1159C78.265 66.1768 78.345 66.27 78.3896 66.381C78.4342 66.492 78.441 66.6146 78.4088 66.7298L77.2679 70.8858C77.2474 70.9636 77.2098 71.0358 77.1578 71.0971C77.1059 71.1585 77.0409 71.2076 76.9676 71.2407C76.8944 71.274 76.8147 71.2908 76.7342 71.2897C76.6537 71.2887 76.5745 71.2699 76.5021 71.2347C74.2968 70.1656 72.4237 68.517 71.0833 66.4652C69.7429 64.4135 68.9856 62.0359 68.8926 59.5868C68.7996 57.1378 69.3743 54.7096 70.5552 52.5621C71.7361 50.4146 73.4788 48.6286 75.5967 47.3953C75.6135 47.3828 75.631 47.3711 75.6491 47.3604L75.834 47.256C75.9576 47.1843 76.1044 47.1641 76.2428 47.1997C76.3812 47.2353 76.5 47.3238 76.5736 47.4463L82.3354 56.9986L88.5157 47.7017C88.5943 47.5841 88.7154 47.5015 88.8536 47.4711C88.9918 47.4407 89.1364 47.465 89.2572 47.5388C90.5855 48.3517 91.7628 49.3889 92.7366 50.6042C92.779 50.6421 92.8146 50.687 92.8417 50.737C94.0723 52.3078 94.9398 54.1315 95.3819 56.0773C95.8241 58.023 95.8299 60.0426 95.399 61.9908C94.968 63.9391 94.111 65.7678 92.8895 67.3456C91.668 68.9234 90.1122 70.2111 88.334 71.1163Z" fill="#3CA8EB"/>
</g>
<path d="M37.5094 92.8751L36.2107 92.8583L36.3025 85.7495L37.6012 85.7663L37.5094 92.8751ZM40.1118 92.9087L38.8619 92.8925L38.93 87.6098L40.1067 87.625L40.1654 88.7537L40.1118 92.9087ZM39.5476 90.0789C39.5575 89.5646 39.6512 89.1182 39.8286 88.7396C40.0093 88.3578 40.2589 88.0632 40.5774 87.8557C40.8959 87.6449 41.2651 87.5422 41.685 87.5477C42.0235 87.552 42.3172 87.6209 42.5662 87.7544C42.8152 87.8845 43.0062 88.0954 43.1391 88.3868C43.2753 88.6783 43.3403 89.0682 43.334 89.5564L43.2902 92.9497L42.0354 92.9335L42.0793 89.5304C42.0825 89.2896 42.0507 89.0987 41.9842 88.9579C41.9176 88.817 41.8164 88.7164 41.6804 88.6561C41.5477 88.5958 41.3838 88.5644 41.1885 88.5618C40.9899 88.5593 40.8136 88.5961 40.6596 88.6722C40.5089 88.7484 40.3789 88.8558 40.2697 88.9944C40.1637 89.133 40.0819 89.2947 40.0242 89.4795C39.9697 89.6644 39.9411 89.8642 39.9383 90.079L39.5476 90.0789ZM46.9839 88.6366L43.9714 88.5978L43.9833 87.675L46.9958 87.7139L46.9839 88.6366ZM46.0848 86.4081L46.0195 91.4711C46.0174 91.6306 46.0386 91.753 46.0831 91.8382C46.1276 91.9201 46.1904 91.9763 46.2714 92.0066C46.3556 92.037 46.4547 92.0529 46.5686 92.0544C46.65 92.0555 46.7282 92.0516 46.8032 92.0428C46.8782 92.034 46.9369 92.025 46.9793 92.0158L46.9669 92.9776C46.8656 93.0088 46.7497 93.035 46.6192 93.0561C46.4887 93.0772 46.3372 93.0867 46.1647 93.0844C45.888 93.0809 45.6429 93.0289 45.4293 92.9285C45.2158 92.8248 45.0503 92.6615 44.9327 92.4386C44.8184 92.2158 44.7636 91.9204 44.7683 91.5526L44.8349 86.3919L46.0848 86.4081ZM50.1634 93.1361C49.6328 93.1292 49.177 93.011 48.7958 92.7815C48.4179 92.5487 48.1273 92.2373 47.924 91.8473C47.7239 91.4573 47.6269 91.0247 47.6331 90.5495L47.6357 90.3493C47.6427 89.8025 47.753 89.327 47.9666 88.9228C48.1802 88.5153 48.4707 88.2017 48.8382 87.9818C49.2057 87.7587 49.6221 87.6501 50.0876 87.6561C50.5954 87.6627 51.0155 87.7788 51.3479 88.0044C51.6836 88.2269 51.9335 88.5345 52.0977 88.9273C52.262 89.3168 52.3408 89.7671 52.3342 90.2781L52.3273 90.8151L48.2212 90.7622L48.2327 89.8736L51.1035 89.9106L51.1048 89.813C51.1009 89.6111 51.0642 89.4234 50.9948 89.25C50.9255 89.0765 50.815 88.9368 50.6633 88.8306C50.515 88.7213 50.3171 88.665 50.0697 88.6618C49.8126 88.6585 49.5969 88.7273 49.4225 88.8683C49.2514 89.0094 49.1202 89.2079 49.029 89.4639C48.9411 89.7199 48.8949 90.0205 48.8904 90.3655L48.8878 90.5657C48.8841 90.8586 48.9344 91.123 49.0388 91.3587C49.1464 91.5945 49.3019 91.782 49.5052 91.9214C49.7118 92.0575 49.9599 92.1275 50.2496 92.1312C50.5263 92.1348 50.7743 92.0843 50.9938 91.9797C51.2166 91.8719 51.409 91.7165 51.5712 91.5135L52.212 92.181C52.0428 92.4262 51.7876 92.6492 51.4465 92.8499C51.1086 93.0473 50.6809 93.1427 50.1634 93.1361ZM54.5149 93.0945L53.2601 93.0784L53.3569 85.579L54.6116 85.5952L54.5149 93.0945ZM57.1025 93.1279L55.8478 93.1117L55.9445 85.6124L57.1993 85.6286L57.1025 93.1279ZM59.1695 85.8347C59.3908 85.8375 59.5641 85.9032 59.6894 86.0318C59.8148 86.1572 59.8762 86.3142 59.8738 86.503C59.8714 86.6918 59.8059 86.8488 59.6773 86.9741C59.5487 87.0962 59.3738 87.1558 59.1525 87.1529C58.9311 87.1501 58.7578 87.086 58.6324 86.9606C58.5104 86.8321 58.4506 86.6734 58.453 86.4847C58.4555 86.2959 58.5193 86.1404 58.6446 86.0183C58.7732 85.893 58.9481 85.8318 59.1695 85.8347ZM59.7049 93.1615L58.4501 93.1453L58.5183 87.8626L59.773 87.8788L59.7049 93.1615ZM63.0127 95.2845C62.8076 95.2818 62.5818 95.2496 62.3352 95.1878C62.0918 95.1293 61.8553 95.0351 61.6259 94.9052C61.3997 94.7753 61.2097 94.6085 61.0561 94.4047L61.642 93.6553C61.8216 93.8692 62.0229 94.0297 62.2462 94.1368C62.4727 94.2439 62.7113 94.2991 62.9619 94.3023C63.3525 94.3073 63.6598 94.2039 63.8839 93.9919C64.108 93.7832 64.2226 93.4786 64.2278 93.0783L64.2786 89.1431L64.4162 87.9387L65.5489 87.9533L65.4828 93.075C65.4766 93.5534 65.3689 93.959 65.1595 94.2916C64.9501 94.6242 64.6604 94.8744 64.2903 95.0421C63.9203 95.2099 63.4944 95.2907 63.0127 95.2845ZM62.882 93.3002C62.4491 93.2946 62.0763 93.1742 61.7636 92.9391C61.4509 92.7006 61.2109 92.3785 61.0436 91.9727C60.8762 91.5668 60.7959 91.1068 60.8026 90.5925L60.8039 90.4899C60.8108 89.9561 60.9014 89.4885 61.0759 89.0871C61.2537 88.6824 61.5035 88.3699 61.8254 88.1494C62.1473 87.9257 62.5263 87.8166 62.9625 87.8223C63.3108 87.8268 63.6045 87.894 63.8438 88.0241C64.0862 88.1542 64.2857 88.3374 64.4422 88.5738C64.5987 88.807 64.7204 89.0853 64.8074 89.4087C64.8944 89.7289 64.9583 90.0813 64.9989 90.466L64.9952 90.754C64.9302 91.248 64.8154 91.6876 64.651 92.0729C64.4865 92.4582 64.2596 92.7613 63.9702 92.9822C63.6842 93.1999 63.3215 93.3059 62.882 93.3002ZM63.2126 92.279C63.4828 92.2825 63.7032 92.2283 63.874 92.1166C64.0447 92.0049 64.1785 91.852 64.2754 91.6579C64.3723 91.4638 64.4387 91.2433 64.4744 90.9963L64.4845 90.2152C64.4675 90.0196 64.4324 89.8385 64.3792 89.6718C64.326 89.505 64.2497 89.3608 64.1504 89.2391C64.0543 89.1174 63.9318 89.023 63.7829 88.956C63.6373 88.8857 63.4652 88.8493 63.2667 88.8468C62.9933 88.8433 62.7677 88.9152 62.59 89.0627C62.4123 89.2101 62.2795 89.4103 62.1916 89.6631C62.1037 89.9158 62.0578 90.1969 62.0538 90.5061L62.0525 90.6086C62.0485 90.9146 62.0856 91.1934 62.1637 91.4451C62.2451 91.6968 62.3711 91.8986 62.5417 92.0506C62.7156 92.1993 62.9392 92.2755 63.2126 92.279ZM69.0192 93.3794C68.4887 93.3726 68.0328 93.2544 67.6516 93.0248C67.2737 92.7921 66.9831 92.4807 66.7798 92.0906C66.5797 91.7006 66.4828 91.268 66.4889 90.7928L66.4915 90.5926C66.4986 90.0458 66.6089 89.5703 66.8224 89.1661C67.036 88.7587 67.3266 88.445 67.694 88.2252C68.0615 88.002 68.478 87.8934 68.9435 87.8995C69.4512 87.906 69.8713 88.0221 70.2037 88.2478C70.5394 88.4702 70.7894 88.7778 70.9536 89.1706C71.1178 89.5601 71.1967 90.0104 71.1901 90.5214L71.1831 91.0585L67.077 91.0055L67.0885 90.1169L69.9594 90.154L69.9606 90.0563C69.9567 89.8544 69.9201 89.6668 69.8507 89.4933C69.7813 89.3199 69.6708 89.1801 69.5192 89.074C69.3708 88.9646 69.173 88.9084 68.9256 88.9052C68.6685 88.9018 68.4527 88.9707 68.2783 89.1117C68.1072 89.2527 67.9761 89.4512 67.8849 89.7072C67.7969 89.9633 67.7507 90.2638 67.7463 90.6088L67.7437 90.809C67.7399 91.102 67.7902 91.3663 67.8946 91.602C68.0023 91.8378 68.1577 92.0254 68.361 92.1648C68.5676 92.3009 68.8158 92.3708 69.1054 92.3746C69.3821 92.3781 69.6302 92.3276 69.8496 92.223C70.0724 92.1152 70.2649 91.9598 70.427 91.7568L71.0679 92.4243C70.8987 92.6695 70.6435 92.8925 70.3023 93.0932C69.9645 93.2907 69.5368 93.3861 69.0192 93.3794ZM73.2731 93.3366L72.0232 93.3205L72.0913 88.0377L73.268 88.0529L73.3267 89.1817L73.2731 93.3366ZM72.7089 90.5069C72.7188 89.9926 72.8125 89.5462 72.9899 89.1676C73.1706 88.7858 73.4202 88.4911 73.7387 88.2836C74.0572 88.0729 74.4264 87.9702 74.8463 87.9756C75.1848 87.98 75.4785 88.0489 75.7275 88.1823C75.9765 88.3125 76.1674 88.5233 76.3004 88.8148C76.4366 89.1063 76.5016 89.4961 76.4953 89.9844L76.4515 93.3777L75.1967 93.3615L75.2406 89.9584C75.2438 89.7176 75.212 89.5267 75.1455 89.3859C75.0789 89.245 74.9777 89.1444 74.8417 89.0841C74.709 89.0238 74.5451 88.9923 74.3498 88.9898C74.1512 88.9873 73.9749 89.024 73.8209 89.1002C73.6702 89.1764 73.5402 89.2838 73.431 89.4223C73.325 89.561 73.2432 89.7227 73.1855 89.9075C73.131 90.0923 73.1024 90.2922 73.0996 90.507L72.7089 90.5069ZM80.1452 89.0646L77.1327 89.0257L77.1446 88.103L80.1571 88.1418L80.1452 89.0646ZM79.2461 86.836L79.1808 91.8991C79.1787 92.0586 79.1999 92.1809 79.2444 92.2661C79.2889 92.3481 79.3517 92.4043 79.4327 92.4346C79.5169 92.465 79.616 92.4809 79.7299 92.4824C79.8113 92.4834 79.8895 92.4796 79.9645 92.4708C80.0395 92.462 80.0982 92.453 80.1406 92.4437L80.1282 93.4056C80.0269 93.4368 79.911 93.463 79.7805 93.4841C79.65 93.5052 79.4985 93.5146 79.326 93.5124C79.0493 93.5089 78.8042 93.4569 78.5906 93.3564C78.3771 93.2528 78.2116 93.0895 78.094 92.8666C77.9797 92.6437 77.9249 92.3484 77.9296 91.9806L77.9962 86.8199L79.2461 86.836ZM84.1364 93.4768L84.1499 92.432L85.6683 92.4516C86.0947 92.4571 86.4523 92.3689 86.7412 92.1871C87.0332 92.0053 87.2548 91.7412 87.4057 91.3948C87.5567 91.0484 87.6353 90.6311 87.6416 90.1429L87.6463 89.7816C87.6528 89.2803 87.585 88.8579 87.4429 88.5142C87.3009 88.1673 87.0895 87.9025 86.8086 87.7198C86.5277 87.5372 86.1822 87.4432 85.7721 87.4379L84.1853 87.4174L84.1989 86.3677L85.7856 86.3882C86.4204 86.3964 86.9768 86.5435 87.4549 86.8297C87.933 87.1158 88.3039 87.5145 88.5675 88.0258C88.8344 88.5338 88.9634 89.128 88.9547 89.8082L88.9501 90.1598C88.9413 90.8401 88.797 91.4323 88.517 91.9366C88.2403 92.4376 87.8561 92.8249 87.3642 93.0985C86.8756 93.3722 86.3058 93.5048 85.6548 93.4964L84.1364 93.4768ZM84.8639 93.4862L83.5652 93.4695L83.6569 86.3607L84.9556 86.3774L84.8639 93.4862ZM89.7908 90.8592C89.7974 90.3449 89.901 89.8872 90.1015 89.4861C90.302 89.085 90.586 88.7696 90.9536 88.54C91.3245 88.3071 91.7687 88.194 92.2862 88.2007C92.8103 88.2075 93.2563 88.3321 93.6243 88.5745C93.9923 88.8136 94.2698 89.1362 94.4566 89.5423C94.6467 89.9484 94.7384 90.4087 94.7318 90.9229L94.7305 91.0255C94.7239 91.5365 94.6203 91.9942 94.4197 92.3985C94.2225 92.7997 93.9368 93.115 93.5627 93.3446C93.1919 93.5742 92.7461 93.6856 92.2253 93.6789C91.7045 93.6722 91.2617 93.5493 90.8969 93.3102C90.5322 93.0711 90.2547 92.7484 90.0646 92.3423C89.8746 91.9329 89.7829 91.4727 89.7895 90.9617L89.7908 90.8592ZM91.0394 90.9778C91.0354 91.2838 91.0741 91.5659 91.1554 91.8241C91.2367 92.0791 91.3659 92.2842 91.543 92.4395C91.7201 92.5916 91.9518 92.6694 92.2383 92.6731C92.5247 92.6768 92.7584 92.605 92.9394 92.4575C93.1204 92.3069 93.2532 92.1051 93.3378 91.8523C93.4258 91.5962 93.4717 91.3152 93.4757 91.0093L93.477 90.9067C93.4809 90.604 93.4422 90.3252 93.3608 90.0702C93.2828 89.812 93.1536 89.6053 92.9733 89.4499C92.7963 89.2914 92.5629 89.2102 92.2733 89.2065C91.9901 89.2028 91.758 89.278 91.5769 89.4319C91.3959 89.5826 91.2615 89.7859 91.1735 90.042C91.0889 90.2948 91.0446 90.5726 91.0407 90.8753L91.0394 90.9778ZM97.8401 93.7514C97.2997 93.7444 96.8521 93.6198 96.4971 93.3776C96.1422 93.1321 95.8794 92.808 95.7088 92.4054C95.5383 91.9995 95.4561 91.5524 95.4624 91.0642L95.4645 90.9031C95.4709 90.4116 95.5645 89.9668 95.7454 89.5687C95.9297 89.1674 96.2007 88.8502 96.5586 88.6172C96.9197 88.381 97.3688 88.2663 97.9059 88.2732C98.3323 88.2787 98.7055 88.3682 99.0256 88.5416C99.3489 88.7118 99.5998 88.9495 99.7781 89.2545C99.9566 89.5563 100.046 89.9107 100.048 90.3177L98.871 90.3025C98.8669 90.1169 98.8251 89.947 98.7457 89.793C98.6663 89.639 98.5523 89.5154 98.4038 89.4223C98.2585 89.3293 98.0817 89.2815 97.8734 89.2788C97.5707 89.2749 97.3353 89.3516 97.1672 89.5089C97.0024 89.6663 96.8858 89.8715 96.8174 90.1246C96.7524 90.3744 96.718 90.6393 96.7144 90.9192L96.7123 91.0803C96.7087 91.3603 96.7362 91.6276 96.7948 91.8823C96.8534 92.1337 96.9646 92.3402 97.1286 92.5018C97.2926 92.6602 97.5292 92.7414 97.8384 92.7454C98.0239 92.7478 98.1904 92.7141 98.3378 92.6444C98.4885 92.5715 98.6086 92.4705 98.6982 92.3414C98.791 92.2124 98.8418 92.0617 98.8505 91.8893L100.027 91.9044C100.016 92.2559 99.9111 92.5719 99.7122 92.8526C99.5132 93.1333 99.2499 93.3545 98.9223 93.5163C98.5979 93.6781 98.2372 93.7565 97.8401 93.7514ZM104.105 88.4509L105.36 88.4671L105.292 93.7499L104.11 93.7346L104.053 92.4838L104.105 88.4509ZM104.644 91.378C104.638 91.85 104.562 92.2706 104.417 92.6399C104.273 93.0091 104.051 93.2993 103.752 93.5103C103.453 93.718 103.071 93.8189 102.605 93.8129C102.085 93.8061 101.665 93.6477 101.347 93.3376C101.028 93.0275 100.874 92.5225 100.883 91.8227L100.927 88.4099L102.177 88.426L102.133 91.8486C102.129 92.0862 102.163 92.2738 102.233 92.4115C102.306 92.5459 102.404 92.6432 102.527 92.7034C102.653 92.7603 102.791 92.7898 102.941 92.7917C103.263 92.7959 103.518 92.7373 103.705 92.616C103.892 92.4915 104.026 92.3223 104.107 92.1085C104.191 91.8914 104.235 91.6495 104.238 91.3826L104.644 91.378ZM107.714 93.7811L106.459 93.7649L106.527 88.4822L107.708 88.4974L107.768 89.5774L107.714 93.7811ZM107.14 90.9512C107.146 90.4565 107.23 90.0181 107.391 89.636C107.555 89.254 107.795 88.9543 108.111 88.737C108.426 88.5197 108.815 88.414 109.277 88.42C109.755 88.4262 110.146 88.5761 110.448 88.8697C110.75 89.1634 110.897 89.6406 110.889 90.3013L110.843 93.8215L109.593 93.8054L109.637 90.4072C109.64 90.1631 109.605 89.9706 109.532 89.8297C109.462 89.6888 109.36 89.5882 109.224 89.5278C109.088 89.4674 108.927 89.4361 108.741 89.4337C108.533 89.431 108.354 89.4677 108.203 89.5439C108.055 89.6202 107.934 89.7276 107.837 89.8664C107.741 90.0051 107.669 90.167 107.621 90.3519C107.576 90.5369 107.553 90.7368 107.55 90.9516L107.14 90.9512ZM110.237 90.8349C110.243 90.3955 110.326 89.9945 110.487 89.632C110.648 89.2695 110.883 88.9828 111.192 88.7719C111.5 88.5578 111.879 88.4536 112.329 88.4594C112.683 88.464 112.988 88.5346 113.244 88.6714C113.499 88.8049 113.693 89.0174 113.826 89.3089C113.963 89.6004 114.028 89.9837 114.022 90.4589L113.978 93.862L112.723 93.8458L112.767 90.4379C112.77 90.184 112.735 89.9882 112.662 89.8505C112.592 89.7129 112.489 89.6172 112.353 89.5633C112.221 89.5063 112.063 89.4765 111.881 89.4742C111.702 89.4719 111.545 89.5024 111.411 89.5658C111.28 89.6292 111.168 89.7189 111.075 89.8349C110.986 89.9477 110.917 90.0819 110.87 90.2376C110.822 90.39 110.797 90.5557 110.795 90.7347L110.237 90.8349ZM117.511 94.0052C116.981 93.9984 116.525 93.8802 116.144 93.6506C115.766 93.4179 115.475 93.1065 115.272 92.7165C115.072 92.3265 114.975 91.8939 114.981 91.4187L114.984 91.2185C114.991 90.6717 115.101 90.1962 115.314 89.792C115.528 89.3845 115.819 89.0709 116.186 88.851C116.554 88.6279 116.97 88.5193 117.436 88.5253C117.943 88.5318 118.363 88.648 118.696 88.8736C119.031 89.0961 119.281 89.4037 119.446 89.7965C119.61 90.186 119.689 90.6363 119.682 91.1473L119.675 91.6843L115.569 91.6313L115.581 90.7428L118.451 90.7798L118.453 90.6822C118.449 90.4803 118.412 90.2926 118.343 90.1192C118.273 89.9457 118.163 89.8059 118.011 89.6998C117.863 89.5905 117.665 89.5342 117.418 89.531C117.161 89.5277 116.945 89.5965 116.77 89.7375C116.599 89.8785 116.468 90.0771 116.377 90.3331C116.289 90.5891 116.243 90.8897 116.238 91.2347L116.236 91.4349C116.232 91.7278 116.282 91.9921 116.387 92.2279C116.494 92.4637 116.65 92.6512 116.853 92.7906C117.06 92.9267 117.308 92.9967 117.597 93.0004C117.874 93.004 118.122 92.9535 118.342 92.8489C118.564 92.7411 118.757 92.5857 118.919 92.3826L119.56 93.0502C119.391 93.2954 119.136 93.5183 118.794 93.719C118.457 93.9165 118.029 94.0119 117.511 94.0052ZM121.765 93.9625L120.515 93.9463L120.583 88.6636L121.76 88.6788L121.819 89.8076L121.765 93.9625ZM121.201 91.1327C121.211 90.6185 121.305 90.172 121.482 89.7934C121.663 89.4116 121.912 89.117 122.231 88.9095C122.549 88.6987 122.918 88.5961 123.338 88.6015C123.677 88.6058 123.971 88.6747 124.22 88.8082C124.469 88.9384 124.66 89.1492 124.792 89.4406C124.929 89.7321 124.994 90.122 124.987 90.6102L124.944 94.0035L123.689 93.9873L123.733 90.5843C123.736 90.3434 123.704 90.1525 123.638 90.0117C123.571 89.8709 123.47 89.7703 123.334 89.7099C123.201 89.6496 123.037 89.6182 122.842 89.6157C122.643 89.6131 122.467 89.6499 122.313 89.726C122.162 89.8022 122.032 89.9096 121.923 90.0482C121.817 90.1868 121.735 90.3485 121.678 90.5333C121.623 90.7182 121.594 90.918 121.592 91.1329L121.201 91.1327ZM128.637 89.6905L125.625 89.6516L125.637 88.7288L128.649 88.7677L128.637 89.6905ZM127.738 87.4619L127.673 92.5249C127.671 92.6844 127.692 92.8068 127.736 92.892C127.781 92.9739 127.844 93.0301 127.925 93.0604C128.009 93.0908 128.108 93.1068 128.222 93.1082C128.303 93.1093 128.382 93.1054 128.457 93.0966C128.532 93.0878 128.59 93.0788 128.633 93.0696L128.62 94.0314C128.519 94.0627 128.403 94.0888 128.273 94.1099C128.142 94.131 127.991 94.1405 127.818 94.1383C127.541 94.1347 127.296 94.0827 127.083 93.9823C126.869 93.8786 126.704 93.7153 126.586 93.4924C126.472 93.2696 126.417 92.9742 126.422 92.6064L126.488 87.4457L127.738 87.4619ZM44.5506 102.369L44.5641 101.319L46.395 101.343C46.7043 101.347 46.9539 101.301 47.1439 101.206C47.3373 101.108 47.479 100.971 47.5692 100.797C47.6626 100.622 47.7107 100.422 47.7136 100.198C47.7165 99.9797 47.6735 99.7757 47.5848 99.5857C47.4994 99.3926 47.3614 99.2361 47.1709 99.1165C46.9836 98.9969 46.7354 98.9351 46.4262 98.9311L44.9956 98.9126L44.9174 104.972L43.6187 104.955L43.7105 97.8461L46.4397 97.8814C46.9931 97.8885 47.4621 97.9938 47.8469 98.1974C48.235 98.3977 48.5293 98.6717 48.7299 99.0194C48.9338 99.3639 49.0329 99.7591 49.0271 100.205C49.0212 100.664 48.9119 101.058 48.6993 101.387C48.49 101.717 48.1889 101.968 47.796 102.142C47.4063 102.316 46.9348 102.4 46.3815 102.393L44.5506 102.369ZM51.1767 105.052L49.9268 105.036L49.995 99.7536L51.1814 99.7689L51.2311 100.834L51.1767 105.052ZM52.8167 100.947C52.742 100.933 52.6608 100.923 52.573 100.915C52.4884 100.907 52.4055 100.903 52.3241 100.902C52.0604 100.898 51.8401 100.943 51.6631 101.035C51.4862 101.124 51.351 101.256 51.2576 101.43C51.1675 101.602 51.1127 101.808 51.0934 102.048L50.8153 102.025C50.8211 101.579 50.8848 101.18 51.0066 100.826C51.1284 100.47 51.3062 100.19 51.5399 99.9884C51.7769 99.7831 52.0696 99.6827 52.4179 99.6872C52.4862 99.6881 52.5626 99.6956 52.6471 99.7097C52.7316 99.7205 52.7965 99.736 52.8418 99.7561L52.8167 100.947ZM53.2132 102.388C53.2198 101.874 53.3234 101.416 53.5239 101.015C53.7244 100.614 54.0084 100.299 54.376 100.069C54.7469 99.8361 55.1911 99.723 55.7086 99.7296C56.2327 99.7364 56.6787 99.861 57.0467 100.103C57.4147 100.343 57.6922 100.665 57.879 101.071C58.0691 101.477 58.1608 101.938 58.1542 102.452L58.1528 102.554C58.1463 103.065 58.0427 103.523 57.8421 103.927C57.6449 104.329 57.3592 104.644 56.9851 104.873C56.6143 105.103 56.1685 105.215 55.6477 105.208C55.1269 105.201 54.6841 105.078 54.3193 104.839C53.9546 104.6 53.6771 104.277 53.487 103.871C53.297 103.462 53.2053 103.002 53.2119 102.491L53.2132 102.388ZM54.4618 102.507C54.4578 102.813 54.4965 103.095 54.5778 103.353C54.6591 103.608 54.7883 103.813 54.9654 103.968C55.1425 104.12 55.3742 104.198 55.6607 104.202C55.9471 104.206 56.1808 104.134 56.3618 103.986C56.5428 103.836 56.6756 103.634 56.7602 103.381C56.8482 103.125 56.8941 102.844 56.8981 102.538L56.8994 102.436C56.9033 102.133 56.8646 101.854 56.7832 101.599C56.7052 101.341 56.576 101.134 56.3957 100.979C56.2187 100.82 55.9853 100.739 55.6956 100.735C55.4125 100.732 55.1804 100.807 54.9993 100.961C54.8183 101.111 54.6839 101.315 54.5959 101.571C54.5113 101.824 54.467 102.102 54.4631 102.404L54.4618 102.507ZM61.2625 105.28C60.7221 105.273 60.2745 105.149 59.9195 104.906C59.5646 104.661 59.3018 104.337 59.1312 103.934C58.9607 103.528 58.8785 103.081 58.8848 102.593L58.8869 102.432C58.8933 101.941 58.9869 101.496 59.1678 101.098C59.3521 100.696 59.6231 100.379 59.981 100.146C60.3421 99.9099 60.7912 99.7952 61.3283 99.8022C61.7547 99.8077 62.1279 99.8971 62.448 100.071C62.7713 100.241 63.0222 100.478 63.2005 100.783C63.3789 101.085 63.4688 101.44 63.47 101.847L62.2934 101.831C62.2893 101.646 62.2475 101.476 62.1681 101.322C62.0887 101.168 61.9747 101.044 61.8262 100.951C61.6809 100.858 61.5041 100.81 61.2958 100.808C60.9931 100.804 60.7577 100.881 60.5896 101.038C60.4248 101.195 60.3082 101.4 60.2398 101.654C60.1748 101.903 60.1404 102.168 60.1368 102.448L60.1347 102.609C60.1311 102.889 60.1586 103.156 60.2172 103.411C60.2758 103.663 60.387 103.869 60.551 104.031C60.715 104.189 60.9516 104.27 61.2608 104.274C61.4463 104.277 61.6128 104.243 61.7602 104.173C61.9109 104.1 62.031 103.999 62.1206 103.87C62.2134 103.741 62.2642 103.591 62.2729 103.418L63.4496 103.433C63.4385 103.785 63.3335 104.101 63.1346 104.382C62.9356 104.662 62.6723 104.883 62.3447 105.045C62.0203 105.207 61.6596 105.285 61.2625 105.28ZM66.6673 105.35C66.1367 105.343 65.6809 105.225 65.2997 104.995C64.9218 104.763 64.6312 104.451 64.4279 104.061C64.2278 103.671 64.1308 103.239 64.137 102.763L64.1396 102.563C64.1466 102.016 64.2569 101.541 64.4705 101.137C64.6841 100.729 64.9746 100.416 65.3421 100.196C65.7096 99.9727 66.1261 99.8641 66.5915 99.8701C67.0993 99.8767 67.5194 99.9928 67.8518 100.218C68.1875 100.441 68.4374 100.748 68.6016 101.141C68.7659 101.531 68.8447 101.981 68.8381 102.492L68.8312 103.029L64.7251 102.976L64.7366 102.088L67.6074 102.125L67.6087 102.027C67.6048 101.825 67.5681 101.637 67.4988 101.464C67.4294 101.291 67.3189 101.151 67.1672 101.045C67.0189 100.935 66.821 100.879 66.5736 100.876C66.3165 100.872 66.1008 100.941 65.9264 101.082C65.7553 101.223 65.6241 101.422 65.5329 101.678C65.445 101.934 65.3988 102.234 65.3943 102.579L65.3918 102.78C65.388 103.073 65.4383 103.337 65.5427 103.573C65.6503 103.808 65.8058 103.996 66.0091 104.135C66.2157 104.272 66.4638 104.341 66.7535 104.345C67.0302 104.349 67.2782 104.298 67.4977 104.194C67.7205 104.086 67.9129 103.93 68.0751 103.727L68.7159 104.395C68.5467 104.64 68.2915 104.863 67.9504 105.064C67.6125 105.261 67.1848 105.357 66.6673 105.35ZM71.6766 105.415C71.1916 105.408 70.7826 105.317 70.4496 105.14C70.1199 104.96 69.8705 104.734 69.7015 104.461C69.5357 104.189 69.4547 103.91 69.4584 103.623L70.6594 103.639C70.6698 103.841 70.7247 104.006 70.8239 104.134C70.9265 104.259 71.0556 104.35 71.2111 104.408C71.3699 104.465 71.5355 104.495 71.708 104.497C71.9098 104.5 72.0794 104.476 72.2168 104.425C72.3542 104.372 72.4577 104.3 72.5272 104.21C72.6 104.116 72.6373 104.008 72.6388 103.884C72.6403 103.773 72.6123 103.674 72.5548 103.585C72.5006 103.496 72.3926 103.414 72.2308 103.337C72.0723 103.26 71.8372 103.187 71.5256 103.118C71.1555 103.035 70.8298 102.926 70.5483 102.792C70.2668 102.659 70.046 102.488 69.8859 102.281C69.7291 102.071 69.6526 101.817 69.6564 101.521C69.6601 101.231 69.7466 100.966 69.9157 100.724C70.0849 100.482 70.325 100.289 70.6361 100.147C70.9473 100.001 71.3144 99.9311 71.7376 99.9365C72.1835 99.9423 72.565 100.022 72.882 100.176C73.2024 100.327 73.4472 100.53 73.6164 100.786C73.7857 101.039 73.8682 101.326 73.8641 101.649L72.6142 101.633C72.6169 101.424 72.5443 101.244 72.3965 101.093C72.2488 100.938 72.0235 100.858 71.7208 100.854C71.5386 100.852 71.3836 100.879 71.2559 100.936C71.1282 100.993 71.0328 101.07 70.9697 101.167C70.9066 101.261 70.8743 101.364 70.8729 101.478C70.8714 101.589 70.9011 101.687 70.9619 101.772C71.0259 101.855 71.134 101.929 71.2861 101.996C71.4383 102.06 71.6507 102.123 71.9234 102.185C72.3195 102.272 72.6631 102.382 72.9544 102.516C73.2489 102.647 73.4746 102.819 73.6314 103.032C73.7914 103.243 73.8693 103.512 73.8651 103.841C73.8611 104.15 73.768 104.426 73.5858 104.668C73.407 104.906 73.1539 105.092 72.8266 105.224C72.4994 105.357 72.116 105.42 71.6766 105.415ZM76.8325 105.481C76.3475 105.475 75.9385 105.383 75.6054 105.207C75.2757 105.027 75.0263 104.8 74.8573 104.528C74.6915 104.256 74.6105 103.976 74.6142 103.69L75.8152 103.705C75.8257 103.907 75.8805 104.072 75.9798 104.201C76.0823 104.326 76.2114 104.417 76.3669 104.474C76.5257 104.532 76.6913 104.561 76.8638 104.564C77.0656 104.566 77.2352 104.542 77.3726 104.492C77.51 104.438 77.6135 104.367 77.683 104.276C77.7559 104.183 77.7931 104.074 77.7947 103.951C77.7961 103.84 77.7681 103.74 77.7106 103.652C77.6564 103.563 77.5484 103.48 77.3867 103.403C77.2281 103.326 76.9931 103.253 76.6814 103.184C76.3114 103.101 75.9856 102.993 75.7041 102.859C75.4226 102.725 75.2018 102.555 75.0417 102.348C74.8849 102.137 74.8084 101.884 74.8122 101.588C74.816 101.298 74.9024 101.032 75.0716 100.79C75.2407 100.548 75.4808 100.356 75.7919 100.213C76.1031 100.068 76.4702 99.9976 76.8934 100.003C77.3393 100.009 77.7208 100.089 78.0379 100.242C78.3582 100.393 78.603 100.596 78.7722 100.853C78.9415 101.105 79.0241 101.393 79.0199 101.715L77.77 101.699C77.7727 101.491 77.7001 101.311 77.5524 101.159C77.4046 101.004 77.1794 100.925 76.8767 100.921C76.6944 100.919 76.5394 100.946 76.4117 101.003C76.284 101.06 76.1886 101.137 76.1255 101.233C76.0624 101.327 76.0302 101.431 76.0287 101.545C76.0273 101.655 76.0569 101.753 76.1177 101.839C76.1817 101.921 76.2898 101.996 76.442 102.063C76.5941 102.127 76.8066 102.19 77.0792 102.252C77.4753 102.338 77.8189 102.448 78.1102 102.582C78.4048 102.713 78.6304 102.885 78.7872 103.099C78.9472 103.309 79.0252 103.579 79.0209 103.908C79.0169 104.217 78.9238 104.493 78.7417 104.734C78.5628 104.973 78.3097 105.158 77.9825 105.291C77.6552 105.423 77.2719 105.487 76.8325 105.481ZM80.8097 98.115C81.031 98.1178 81.2043 98.1835 81.3296 98.3121C81.455 98.4374 81.5164 98.5945 81.514 98.7833C81.5116 98.9721 81.4461 99.1291 81.3175 99.2544C81.1889 99.3765 81.014 99.4361 80.7927 99.4332C80.5713 99.4304 80.398 99.3663 80.2726 99.2409C80.1506 99.1124 80.0908 98.9537 80.0932 98.7649C80.0957 98.5762 80.1595 98.4207 80.2848 98.2986C80.4134 98.1733 80.5883 98.1121 80.8097 98.115ZM81.3451 105.442L80.0903 105.426L80.1585 100.143L81.4132 100.159L81.3451 105.442ZM83.8497 105.474L82.5998 105.458L82.668 100.175L83.8447 100.19L83.9034 101.319L83.8497 105.474ZM83.2856 102.644C83.2955 102.13 83.3892 101.684 83.5666 101.305C83.7473 100.923 83.9969 100.629 84.3154 100.421C84.6339 100.21 85.0031 100.108 85.423 100.113C85.7615 100.118 86.0552 100.186 86.3041 100.32C86.5531 100.45 86.7441 100.661 86.8771 100.952C87.0133 101.244 87.0783 101.634 87.072 102.122L87.0282 105.515L85.7734 105.499L85.8173 102.096C85.8204 101.855 85.7887 101.664 85.7222 101.523C85.6556 101.383 85.5544 101.282 85.4184 101.222C85.2857 101.161 85.1217 101.13 84.9264 101.127C84.7279 101.125 84.5516 101.162 84.3976 101.238C84.2469 101.314 84.1169 101.421 84.0077 101.56C83.9017 101.698 83.8199 101.86 83.7621 102.045C83.7077 102.23 83.679 102.43 83.6763 102.645L83.2856 102.644ZM90.2286 107.637C90.0235 107.634 89.7977 107.602 89.5511 107.54C89.3077 107.482 89.0712 107.387 88.8418 107.257C88.6156 107.128 88.4257 106.961 88.272 106.757L88.8579 106.008C89.0375 106.221 89.2389 106.382 89.4621 106.489C89.6886 106.596 89.9272 106.651 90.1778 106.655C90.5684 106.66 90.8757 106.556 91.0998 106.344C91.3239 106.135 91.4385 105.831 91.4437 105.431L91.4945 101.495L91.6321 100.291L92.7648 100.306L92.6987 105.427C92.6926 105.906 92.5848 106.311 92.3754 106.644C92.166 106.976 91.8763 107.227 91.5063 107.394C91.1362 107.562 90.7103 107.643 90.2286 107.637ZM90.0979 105.652C89.665 105.647 89.2922 105.526 88.9795 105.291C88.6668 105.053 88.4268 104.731 88.2595 104.325C88.0922 103.919 88.0118 103.459 88.0185 102.945L88.0198 102.842C88.0267 102.308 88.1174 101.841 88.2918 101.439C88.4696 101.035 88.7194 100.722 89.0413 100.502C89.3632 100.278 89.7423 100.169 90.1784 100.175C90.5267 100.179 90.8204 100.246 91.0597 100.376C91.3022 100.506 91.5016 100.69 91.6581 100.926C91.8146 101.159 91.9363 101.438 92.0233 101.761C92.1104 102.081 92.1742 102.434 92.2148 102.818L92.2111 103.106C92.1461 103.6 92.0314 104.04 91.8669 104.425C91.7024 104.81 91.4755 105.114 91.1861 105.334C90.9001 105.552 90.5374 105.658 90.0979 105.652ZM90.4285 104.631C90.6987 104.635 90.9191 104.581 91.0899 104.469C91.2606 104.357 91.3944 104.204 91.4913 104.01C91.5882 103.816 91.6546 103.596 91.6903 103.349L91.7004 102.567C91.6834 102.372 91.6483 102.191 91.5951 102.024C91.5419 101.857 91.4656 101.713 91.3663 101.591C91.2702 101.47 91.1477 101.375 90.9988 101.308C90.8532 101.238 90.6812 101.202 90.4826 101.199C90.2092 101.196 89.9836 101.267 89.8059 101.415C89.6282 101.562 89.4954 101.763 89.4075 102.015C89.3196 102.268 89.2737 102.549 89.2697 102.858L89.2684 102.961C89.2644 103.267 89.3015 103.546 89.3796 103.797C89.461 104.049 89.587 104.251 89.7576 104.403C89.9315 104.552 90.1551 104.628 90.4285 104.631ZM96.4348 102.751C96.4437 102.054 96.5284 101.424 96.6887 100.859C96.849 100.295 97.0539 99.801 97.3035 99.3777C97.5532 98.9545 97.8198 98.6047 98.1033 98.3284C98.3901 98.0489 98.6645 97.8506 98.9265 97.7335L99.1614 98.4446C98.9741 98.5822 98.7861 98.7718 98.5974 99.0135C98.412 99.252 98.2406 99.5477 98.083 99.9005C97.9255 100.25 97.7981 100.662 97.7008 101.136C97.6035 101.61 97.551 102.148 97.5432 102.75L97.5418 102.863C97.534 103.465 97.5726 104.004 97.6576 104.48C97.7427 104.957 97.8594 105.373 98.0078 105.73C98.1562 106.087 98.3199 106.39 98.499 106.64C98.6813 106.89 98.8643 107.089 99.048 107.238L98.7951 107.913C98.5363 107.786 98.2671 107.581 97.9875 107.297C97.7112 107.014 97.4538 106.657 97.2151 106.228C96.9765 105.798 96.7844 105.301 96.6386 104.736C96.493 104.167 96.4246 103.535 96.4336 102.838L96.4348 102.751ZM101.343 105.7L100.045 105.683L100.136 98.5744L101.435 98.5911L101.343 105.7ZM103.394 105.726L103.407 104.682L104.926 104.701C105.352 104.707 105.71 104.618 105.999 104.437C106.291 104.255 106.512 103.991 106.663 103.644C106.814 103.298 106.893 102.881 106.899 102.392L106.904 102.031C106.91 101.53 106.843 101.107 106.701 100.764C106.558 100.417 106.347 100.152 106.066 99.9694C105.785 99.7867 105.44 99.6927 105.03 99.6874L103.443 99.6669L103.456 98.6172L105.043 98.6377C105.678 98.6459 106.234 98.7931 106.712 99.0792C107.191 99.3653 107.561 99.764 107.825 100.275C108.092 100.783 108.221 101.378 108.212 102.058L108.208 102.409C108.199 103.09 108.055 103.682 107.775 104.186C107.498 104.687 107.114 105.074 106.622 105.348C106.133 105.622 105.563 105.754 104.912 105.746L103.394 105.726ZM104.121 105.736L102.823 105.719L102.915 98.6102L104.213 98.627L104.121 105.736ZM110.278 103.217L110.291 102.168L112.122 102.191C112.431 102.195 112.681 102.15 112.871 102.054C113.064 101.956 113.206 101.819 113.296 101.645C113.39 101.47 113.438 101.271 113.441 101.046C113.443 100.828 113.4 100.624 113.312 100.434C113.226 100.241 113.088 100.084 112.898 99.9648C112.711 99.8451 112.462 99.7833 112.153 99.7793L110.723 99.7609L110.644 105.82L109.346 105.803L109.437 98.6944L112.167 98.7296C112.72 98.7368 113.189 98.8421 113.574 99.0457C113.962 99.246 114.256 99.52 114.457 99.8677C114.661 100.212 114.76 100.607 114.754 101.053C114.748 101.512 114.639 101.906 114.426 102.236C114.217 102.565 113.916 102.817 113.523 102.991C113.133 103.165 112.662 103.248 112.108 103.241L110.278 103.217ZM118.009 103.117C118 103.797 117.914 104.418 117.751 104.979C117.59 105.54 117.384 106.034 117.131 106.46C116.878 106.89 116.605 107.245 116.311 107.524C116.021 107.807 115.742 108.008 115.473 108.129L115.238 107.447C115.425 107.309 115.612 107.118 115.797 106.873C115.986 106.631 116.159 106.332 116.317 105.976C116.474 105.62 116.602 105.205 116.699 104.731C116.796 104.254 116.849 103.714 116.857 103.112L116.858 103C116.866 102.397 116.826 101.856 116.737 101.377C116.649 100.897 116.529 100.479 116.378 100.122C116.226 99.7619 116.061 99.4587 115.881 99.2122C115.702 98.9625 115.526 98.7681 115.352 98.6291L115.605 97.9487C115.87 98.0726 116.144 98.2796 116.427 98.5698C116.713 98.8599 116.977 99.2231 117.219 99.6592C117.46 100.095 117.654 100.596 117.8 101.161C117.949 101.726 118.019 102.349 118.01 103.029L118.009 103.117Z" fill="#030303"/>
<defs>
<clipPath id="clip0_3193_172912">
<rect width="35.0498" height="35.0498" fill="white" transform="translate(65 41.5625) rotate(0.739418)"/>
</clipPath>
</defs>
</svg>
