<svg width="167" height="168" viewBox="0 0 167 168" fill="none" xmlns="http://www.w3.org/2000/svg">
<path d="M122.279 123.924C100.161 145.542 64.7057 145.136 43.0878 123.018C21.4698 100.9 21.8752 65.4455 43.9931 43.8276C66.1111 22.2096 101.566 22.615 123.184 44.7329L162.327 84.781L122.279 123.924Z" fill="#FFFEDE"/>
<g clip-path="url(#clip0_3193_172930)">
<path d="M79.8402 50.1707C76.3743 50.1315 72.9747 51.121 70.0711 53.0139C67.1676 54.9069 64.8906 57.6184 63.5281 60.8055C62.1656 63.9925 61.7788 67.5121 62.4165 70.919C63.0543 74.3259 64.688 77.4672 67.111 79.9456C69.5341 82.4241 72.6377 84.1283 76.0293 84.8429C79.421 85.5575 82.9483 85.2503 86.1654 83.9601C89.3824 82.6699 92.1446 80.4548 94.1027 77.5948C96.0608 74.7348 97.1269 71.3583 97.166 67.8924C97.2133 63.2464 95.4157 58.7713 92.1676 55.449C88.9195 52.1266 84.4862 50.2284 79.8402 50.1707ZM85.6978 79.4889C85.6246 79.5258 85.5441 79.546 85.4622 79.5479C85.3802 79.5498 85.2988 79.5334 85.224 79.5C85.1494 79.4653 85.0833 79.4147 85.0306 79.3516C84.9778 79.2885 84.9396 79.2146 84.9186 79.135L83.8409 74.9111C83.8128 74.8003 83.82 74.6835 83.8614 74.577C83.9029 74.4704 83.9765 74.3795 84.0721 74.3168C85.6891 73.2565 86.88 71.6595 87.435 69.8072C87.9899 67.9549 87.8733 65.9662 87.1057 64.1914L81.8613 71.9723C81.8105 72.0474 81.7419 72.1086 81.6616 72.1507C81.5813 72.1928 81.4919 72.2144 81.4013 72.2136L77.7788 72.1727C77.6874 72.1718 77.5977 72.1481 77.5178 72.1037C77.4379 72.0593 77.3705 71.9955 77.3216 71.9183L72.2879 63.961C71.4218 65.806 71.2728 67.9071 71.8697 69.8558C72.4667 71.8045 73.767 73.4616 75.5179 74.5049C75.6209 74.5656 75.7011 74.6587 75.7459 74.7696C75.7907 74.8805 75.7976 75.0031 75.7656 75.1184L74.6315 79.2762C74.611 79.354 74.5735 79.4263 74.5217 79.4877C74.4698 79.5492 74.4049 79.5983 74.3317 79.6316C74.2585 79.665 74.1788 79.6819 74.0984 79.681C74.0179 79.6801 73.9386 79.6614 73.8662 79.6263C71.6592 78.5608 69.7834 76.9152 68.4397 74.8656C67.096 72.816 66.3349 70.4396 66.238 67.9907C66.141 65.5418 66.7118 63.1127 67.8893 60.9633C69.0667 58.8139 70.8065 57.0251 72.9224 55.7885C72.9393 55.7759 72.9568 55.7642 72.9748 55.7534L73.1595 55.6487C73.283 55.5768 73.4298 55.5564 73.5682 55.5917C73.7067 55.6271 73.8256 55.7155 73.8995 55.8378L79.6766 65.3809L85.8419 56.0741C85.9204 55.9563 86.0414 55.8735 86.1795 55.8429C86.3177 55.8123 86.4623 55.8363 86.5831 55.9099C87.9128 56.7207 89.0917 57.756 90.0675 58.9698C90.11 59.0076 90.1456 59.0525 90.1728 59.1024C91.4059 60.6712 92.2763 62.4935 92.7216 64.4386C93.1669 66.3836 93.176 68.4031 92.7482 70.3521C92.3204 72.3011 91.4663 74.1312 90.2473 75.7109C89.0283 77.2906 87.4746 78.5808 85.6978 79.4889Z" fill="#3CA8EB"/>
</g>
<path d="M61.7366 91.9109L63.6632 97.2992L65.7012 91.9557L66.8486 91.9686L64.0975 99.0474L63.1845 99.0371L60.5892 91.8979L61.7366 91.9109ZM61.1507 91.9043L61.2907 96.8036L61.2657 99.0154L59.9669 99.0007L60.0473 91.8918L61.1507 91.9043ZM67.4003 91.9749L67.32 99.0838L66.0164 99.0691L66.0413 96.8573L66.292 91.9624L67.4003 91.9749ZM71.8276 93.8512L73.0824 93.8654L73.0227 99.1482L71.8412 99.1349L71.7821 97.8841L71.8276 93.8512ZM72.3708 96.7774C72.3654 97.2494 72.2907 97.6701 72.1465 98.0396C72.0024 98.4091 71.781 98.6996 71.4824 98.9111C71.1838 99.1193 70.8017 99.2208 70.3363 99.2155C69.8155 99.2097 69.3957 99.0519 69.0769 98.7423C68.7581 98.4327 68.6027 97.928 68.6106 97.2281L68.6491 93.8153L69.899 93.8294L69.8604 97.252C69.8577 97.4896 69.8914 97.6772 69.9614 97.8147C70.0348 97.949 70.133 98.0462 70.256 98.1062C70.3823 98.1629 70.5204 98.1922 70.6701 98.1939C70.9923 98.1975 71.2469 98.1385 71.4339 98.0169C71.6208 97.8921 71.7546 97.7227 71.8351 97.5087C71.919 97.2916 71.9624 97.0495 71.9654 96.7826L72.3708 96.7774ZM75.5226 99.1765L74.2678 99.1623L74.3525 91.6628L75.6073 91.677L75.5226 99.1765ZM79.1394 99.315C78.6089 99.309 78.1528 99.1915 77.7712 98.9626C77.393 98.7305 77.1019 98.4195 76.8979 98.0298C76.6972 97.6402 76.5996 97.2077 76.605 96.7325L76.6072 96.5323C76.6134 95.9855 76.7229 95.5098 76.9359 95.1053C77.1488 94.6975 77.4388 94.3834 77.8059 94.1629C78.1731 93.9392 78.5894 93.8299 79.0548 93.8352C79.5626 93.8409 79.9829 93.9564 80.3157 94.1815C80.6517 94.4034 80.9022 94.7106 81.067 95.1031C81.2319 95.4924 81.3114 95.9425 81.3057 96.4536L81.2996 96.9906L77.1934 96.9442L77.2035 96.0556L80.0744 96.0881L80.0755 95.9904C80.0712 95.7885 80.0343 95.6009 79.9646 95.4276C79.895 95.2543 79.7842 95.1147 79.6324 95.0088C79.4839 94.8997 79.286 94.8437 79.0386 94.8409C78.7814 94.838 78.5658 94.9072 78.3917 95.0485C78.2208 95.1898 78.09 95.3885 77.9992 95.6447C77.9116 95.9009 77.8659 96.2015 77.862 96.5465L77.8598 96.7467C77.8564 97.0396 77.9072 97.3039 78.0119 97.5395C78.12 97.7751 78.2757 97.9624 78.4793 98.1014C78.6861 98.2372 78.9343 98.3068 79.224 98.31C79.5007 98.3132 79.7487 98.2623 79.968 98.1573C80.1906 98.0491 80.3828 97.8934 80.5446 97.6902L81.1865 98.3566C81.0177 98.6021 80.7629 98.8255 80.4221 99.0267C80.0845 99.2248 79.657 99.3209 79.1394 99.315ZM84.1489 99.3716C83.6639 99.3661 83.2547 99.2752 82.9214 99.0989C82.5914 98.9194 82.3416 98.6936 82.1722 98.4215C82.006 98.1494 81.9245 97.8701 81.9277 97.5837L83.1288 97.5973C83.1395 97.7992 83.1946 97.9643 83.2941 98.0923C83.3969 98.2172 83.5261 98.3082 83.6817 98.3653C83.8406 98.4224 84.0062 98.452 84.1788 98.4539C84.3806 98.4562 84.5501 98.4321 84.6874 98.3815C84.8248 98.3277 84.9281 98.2557 84.9975 98.1653C85.0702 98.0717 85.1072 97.9631 85.1086 97.8394C85.1099 97.7287 85.0817 97.6291 85.0241 97.5406C84.9698 97.452 84.8616 97.3694 84.6997 97.2927C84.5411 97.2161 84.3059 97.1434 83.9941 97.0748C83.6239 96.9925 83.298 96.8846 83.0163 96.7512C82.7346 96.6178 82.5135 96.4477 82.3531 96.2408C82.1959 96.0306 82.119 95.7775 82.1224 95.4813C82.1256 95.1916 82.2117 94.9256 82.3804 94.6834C82.5492 94.4411 82.789 94.2485 83.0999 94.1055C83.4108 93.9593 83.7778 93.8886 84.201 93.8933C84.6469 93.8984 85.0285 93.9776 85.3458 94.1309C85.6664 94.281 85.9116 94.484 86.0812 94.7398C86.2509 94.9924 86.3339 95.2798 86.3303 95.6021L85.0803 95.5879C85.0827 95.3796 85.0099 95.1998 84.8618 95.0483C84.7138 94.8937 84.4885 94.8146 84.1857 94.8112C84.0035 94.8091 83.8485 94.8367 83.7209 94.8938C83.5933 94.951 83.498 95.028 83.4351 95.125C83.3722 95.2187 83.3401 95.3225 83.3388 95.4364C83.3375 95.5471 83.3673 95.6451 83.4282 95.7304C83.4924 95.8125 83.6006 95.887 83.7529 95.9538C83.9052 96.0174 84.1177 96.08 84.3904 96.1417C84.7866 96.2276 85.1305 96.3373 85.422 96.4708C85.7167 96.6011 85.9427 96.7729 86.0998 96.9863C86.2602 97.1964 86.3385 97.4659 86.3348 97.7946C86.3313 98.1039 86.2387 98.3795 86.0569 98.6216C85.8784 98.8605 85.6256 99.0465 85.2986 99.1795C84.9715 99.3125 84.5883 99.3766 84.1489 99.3716ZM87.1245 96.617C87.1303 96.1027 87.2332 95.6448 87.433 95.2434C87.6329 94.842 87.9164 94.5262 88.2836 94.2959C88.6541 94.0625 89.0981 93.9487 89.6157 93.9545C90.1397 93.9604 90.586 94.0843 90.9543 94.3261C91.3228 94.5647 91.6007 94.8868 91.7882 95.2926C91.9789 95.6984 92.0714 96.1585 92.0656 96.6728L92.0644 96.7753C92.0587 97.2864 91.9558 97.7442 91.7559 98.1489C91.5593 98.5503 91.2742 98.8661 90.9004 99.0963C90.53 99.3265 90.0844 99.4387 89.5636 99.4328C89.0428 99.4269 88.5998 99.3047 88.2346 99.0662C87.8694 98.8277 87.5915 98.5055 87.4007 98.0997C87.21 97.6906 87.1176 97.2305 87.1234 96.7195L87.1245 96.617ZM88.3733 96.7336C88.3698 97.0396 88.4089 97.3216 88.4907 97.5797C88.5724 97.8346 88.702 98.0395 88.8793 98.1945C89.0566 98.3463 89.2885 98.4238 89.5749 98.427C89.8614 98.4302 90.0949 98.358 90.2757 98.2103C90.4564 98.0593 90.5889 97.8574 90.6731 97.6044C90.7607 97.3482 90.8062 97.0671 90.8096 96.7611L90.8108 96.6586C90.8142 96.3559 90.775 96.0771 90.6933 95.8223C90.6148 95.5642 90.4853 95.3577 90.3048 95.2026C90.1275 95.0443 89.894 94.9636 89.6043 94.9603C89.3211 94.9571 89.0891 95.0326 88.9084 95.1868C88.7276 95.3378 88.5935 95.5414 88.5059 95.7976C88.4217 96.0505 88.3778 96.3284 88.3744 96.6311L88.3733 96.7336ZM93.3925 99.3784L93.4578 93.6024C93.4645 93.0132 93.6372 92.5643 93.976 92.2556C94.3181 91.9437 94.7788 91.791 95.3582 91.7976C95.4786 91.7989 95.5957 91.8084 95.7095 91.826C95.8232 91.8435 95.9353 91.8659 96.0456 91.8932L96.0053 92.8694C95.9436 92.8557 95.8737 92.8451 95.7957 92.8377C95.7209 92.8304 95.6412 92.8262 95.5566 92.8253C95.2929 92.8223 95.087 92.89 94.939 93.0283C94.791 93.1633 94.7155 93.3594 94.7126 93.6166L94.6473 99.3926L93.3925 99.3784ZM95.7708 95.0446L92.646 95.0093L92.6564 94.0865L95.7812 94.1218L95.7708 95.0446ZM99.0664 95.0819L96.0539 95.0478L96.0644 94.125L99.0769 94.1591L99.0664 95.0819ZM98.1638 92.8547L98.1066 97.9179C98.1048 98.0774 98.1262 98.1997 98.1708 98.2848C98.2155 98.3667 98.2783 98.4228 98.3594 98.453C98.4437 98.4832 98.5428 98.499 98.6567 98.5003C98.7381 98.5012 98.8163 98.4972 98.8912 98.4883C98.9662 98.4794 99.0249 98.4703 99.0673 98.461L99.0565 99.4228C98.9552 99.4543 98.8393 99.4806 98.7089 99.5019C98.5784 99.5232 98.4269 99.5329 98.2544 99.531C97.9777 99.5279 97.7325 99.4763 97.5188 99.3762C97.3051 99.2728 97.1393 99.1098 97.0214 98.8871C96.9067 98.6645 96.8514 98.3692 96.8556 98.0014L96.9139 92.8406L98.1638 92.8547ZM55.1949 108.613C55.1538 109.082 55.0189 109.499 54.7902 109.864C54.5614 110.229 54.2441 110.514 53.8381 110.717C53.4321 110.921 52.9394 111.02 52.36 111.013C51.7709 111.007 51.2614 110.864 50.8316 110.586C50.4018 110.304 50.0726 109.908 49.8439 109.398C49.6153 108.887 49.5049 108.289 49.5127 107.602L49.5188 107.06C49.5266 106.37 49.6521 105.774 49.8954 105.272C50.1421 104.767 50.4866 104.379 50.9292 104.107C51.3717 103.835 51.8892 103.703 52.4816 103.709C53.0578 103.716 53.5416 103.827 53.933 104.043C54.3278 104.256 54.6321 104.551 54.8459 104.928C55.0598 105.301 55.1869 105.727 55.227 106.206L53.9283 106.192C53.8877 105.745 53.7598 105.399 53.5445 105.152C53.3325 104.902 52.9742 104.775 52.4697 104.769C52.1149 104.765 51.816 104.849 51.5732 105.022C51.3336 105.196 51.1516 105.454 51.0273 105.798C50.903 106.138 50.838 106.56 50.8323 107.065L50.826 107.617C50.8206 108.098 50.8696 108.514 50.9731 108.864C51.0766 109.21 51.2429 109.477 51.4719 109.665C51.7009 109.853 52.0009 109.95 52.372 109.954C52.7105 109.958 52.9845 109.909 53.194 109.807C53.4035 109.705 53.5631 109.554 53.6728 109.353C53.7858 109.149 53.8603 108.898 53.8962 108.599L55.1949 108.613ZM55.9313 108.265C55.9372 107.751 56.04 107.293 56.2399 106.892C56.4397 106.49 56.7232 106.174 57.0905 105.944C57.461 105.711 57.905 105.597 58.4225 105.603C58.9466 105.609 59.3928 105.733 59.7612 105.974C60.1296 106.213 60.4076 106.535 60.595 106.941C60.7858 107.347 60.8782 107.807 60.8724 108.321L60.8713 108.424C60.8655 108.935 60.7627 109.393 60.5628 109.797C60.3662 110.199 60.081 110.514 59.7073 110.745C59.3368 110.975 58.8912 111.087 58.3704 111.081C57.8496 111.075 57.4066 110.953 57.0414 110.715C56.6763 110.476 56.3983 110.154 56.2076 109.748C56.0169 109.339 55.9244 108.879 55.9302 108.368L55.9313 108.265ZM57.1801 108.382C57.1767 108.688 57.2158 108.97 57.2975 109.228C57.3793 109.483 57.5088 109.688 57.6861 109.843C57.8634 109.995 58.0953 110.072 58.3818 110.075C58.6682 110.079 58.9018 110.006 59.0825 109.859C59.2632 109.708 59.3957 109.506 59.48 109.253C59.5675 108.997 59.613 108.715 59.6165 108.409L59.6176 108.307C59.6211 108.004 59.5819 107.725 59.5001 107.471C59.4217 107.213 59.2921 107.006 59.1116 106.851C58.9343 106.693 58.7009 106.612 58.4112 106.609C58.128 106.605 57.896 106.681 57.7152 106.835C57.5344 106.986 57.4003 107.19 57.3128 107.446C57.2285 107.699 57.1847 107.977 57.1813 108.279L57.1801 108.382ZM63.0489 111.036L61.7941 111.022L61.8538 105.739L63.0354 105.753L63.0964 106.832L63.0489 111.036ZM62.4705 108.207C62.4761 107.713 62.5592 107.274 62.7198 106.892C62.8836 106.509 63.123 106.209 63.438 105.992C63.753 105.774 64.1416 105.667 64.6038 105.673C65.0823 105.678 65.4728 105.827 65.7755 106.121C66.0782 106.414 66.2259 106.891 66.2184 107.551L66.1786 111.072L64.9287 111.058L64.9671 107.659C64.9698 107.415 64.9346 107.223 64.8613 107.082C64.7913 106.941 64.6882 106.841 64.5522 106.781C64.4161 106.72 64.2553 106.689 64.0698 106.687C63.8615 106.685 63.682 106.722 63.5314 106.798C63.3841 106.875 63.2624 106.982 63.1664 107.121C63.0704 107.26 62.9986 107.422 62.9509 107.607C62.9065 107.792 62.8831 107.992 62.8807 108.207L62.4705 108.207ZM65.5678 108.086C65.5727 107.647 65.6554 107.246 65.8158 106.883C65.9761 106.52 66.2105 106.233 66.5189 106.021C66.8273 105.807 67.2061 105.702 67.6553 105.707C68.0101 105.711 68.3153 105.781 68.571 105.918C68.8267 106.051 69.0212 106.263 69.1546 106.554C69.2913 106.846 69.357 107.229 69.3516 107.704L69.3132 111.107L68.0584 111.093L68.0969 107.685C68.0998 107.431 68.0645 107.235 67.9912 107.098C67.9211 106.96 67.818 106.865 67.6819 106.811C67.5491 106.754 67.3915 106.725 67.2093 106.723C67.0302 106.721 66.8736 106.751 66.7394 106.815C66.6085 106.879 66.4968 106.969 66.4043 107.085C66.3152 107.198 66.2469 107.332 66.1996 107.488C66.1523 107.64 66.1276 107.806 66.1256 107.985L65.5678 108.086ZM73.1009 111.248C72.7689 111.244 72.4815 111.179 72.2388 111.052C71.9961 110.923 71.7914 110.743 71.6247 110.513C71.4613 110.283 71.3309 110.015 71.2334 109.708C71.136 109.397 71.0666 109.06 71.0251 108.695L71.029 108.353C71.0934 107.839 71.2092 107.388 71.3763 106.999C71.5435 106.611 71.7715 106.307 72.0605 106.089C72.3527 105.871 72.7169 105.764 73.153 105.769C73.599 105.774 73.9736 105.891 74.2771 106.119C74.5805 106.347 74.8081 106.664 74.9597 107.069C75.1147 107.471 75.1892 107.941 75.1831 108.478L75.1819 108.58C75.1761 109.095 75.0912 109.554 74.9271 109.96C74.7663 110.361 74.5316 110.678 74.223 110.909C73.9176 111.14 73.5436 111.253 73.1009 111.248ZM70.4669 113.152L70.5496 105.838L71.7018 105.851L71.788 106.867L71.7168 113.166L70.4669 113.152ZM72.7705 110.238C73.0439 110.241 73.2645 110.167 73.4322 110.016C73.6032 109.865 73.7276 109.663 73.8053 109.41C73.8863 109.153 73.9286 108.872 73.932 108.566L73.9332 108.464C73.9367 108.151 73.9008 107.869 73.8255 107.618C73.7503 107.366 73.6288 107.166 73.4612 107.018C73.2936 106.866 73.0731 106.789 72.7997 106.786C72.5979 106.784 72.425 106.814 72.2811 106.878C72.1371 106.941 72.0156 107.033 71.9166 107.152C71.8209 107.268 71.7444 107.409 71.6872 107.574C71.6333 107.736 71.5955 107.917 71.5737 108.115L71.5643 108.945C71.5974 109.183 71.6568 109.4 71.7425 109.596C71.8282 109.789 71.9534 109.944 72.1182 110.06C72.2861 110.175 72.5036 110.235 72.7705 110.238ZM77.3644 111.198L76.1145 111.184L76.1742 105.901L77.3606 105.914L77.4121 106.98L77.3644 111.198ZM78.9979 107.09C78.9231 107.076 78.8419 107.066 78.7541 107.058C78.6695 107.051 78.5865 107.047 78.5052 107.046C78.2415 107.043 78.0213 107.087 77.8444 107.18C77.6676 107.269 77.5327 107.401 77.4395 107.576C77.3497 107.747 77.2953 107.953 77.2763 108.194L76.9982 108.171C77.0032 107.725 77.0664 107.326 77.1875 106.972C77.3088 106.615 77.4861 106.336 77.7195 106.133C77.9562 105.928 78.2487 105.827 78.597 105.831C78.6654 105.832 78.7418 105.839 78.8263 105.853C78.9108 105.864 78.9757 105.879 79.0211 105.899L78.9979 107.09ZM82.0359 111.348C81.5053 111.343 81.0492 111.225 80.6677 110.996C80.2894 110.764 79.9983 110.453 79.7944 110.063C79.5937 109.674 79.496 109.241 79.5014 108.766L79.5037 108.566C79.5099 108.019 79.6194 107.543 79.8323 107.139C80.0453 106.731 80.3353 106.417 80.7024 106.196C81.0695 105.973 81.4858 105.863 81.9513 105.869C82.4591 105.874 82.8793 105.99 83.2121 106.215C83.5482 106.437 83.7986 106.744 83.9635 107.137C84.1283 107.526 84.2079 107.976 84.2021 108.487L84.1961 109.024L80.0899 108.978L80.0999 108.089L82.9708 108.122L82.9719 108.024C82.9677 107.822 82.9308 107.634 82.8611 107.461C82.7914 107.288 82.6807 107.148 82.5289 107.042C82.3804 106.933 82.1824 106.877 81.935 106.874C81.6779 106.872 81.4623 106.941 81.2881 107.082C81.1173 107.223 80.9864 107.422 80.8956 107.678C80.8081 107.934 80.7624 108.235 80.7585 108.58L80.7562 108.78C80.7529 109.073 80.8036 109.337 80.9084 109.573C81.0164 109.809 81.1722 109.996 81.3757 110.135C81.5825 110.271 81.8308 110.34 82.1205 110.344C82.3972 110.347 82.6451 110.296 82.8644 110.191C83.087 110.083 83.2792 109.927 83.441 109.724L84.083 110.39C83.9142 110.636 83.6593 110.859 83.3185 111.06C82.981 111.258 82.5534 111.354 82.0359 111.348ZM87.0453 111.405C86.5603 111.4 86.1512 111.309 85.8179 111.132C85.4878 110.953 85.2381 110.727 85.0686 110.455C84.9024 110.183 84.8209 109.904 84.8242 109.617L86.0253 109.631C86.036 109.833 86.0911 109.998 86.1906 110.126C86.2933 110.251 86.4225 110.342 86.5781 110.399C86.737 110.456 86.9027 110.485 87.0752 110.487C87.277 110.49 87.4466 110.466 87.5839 110.415C87.7212 110.361 87.8246 110.289 87.894 110.199C87.9666 110.105 88.0037 109.997 88.0051 109.873C88.0063 109.762 87.9782 109.663 87.9206 109.574C87.8662 109.486 87.7581 109.403 87.5962 109.326C87.4375 109.25 87.2023 109.177 86.8906 109.108C86.5204 109.026 86.1945 108.918 85.9127 108.785C85.631 108.651 85.41 108.481 85.2495 108.274C85.0924 108.064 85.0155 107.811 85.0188 107.515C85.0221 107.225 85.1081 106.959 85.2769 106.717C85.4456 106.475 85.6855 106.282 85.9963 106.139C86.3073 105.993 86.6743 105.922 87.0975 105.927C87.5434 105.932 87.925 106.011 88.2423 106.164C88.5629 106.314 88.808 106.517 88.9777 106.773C89.1473 107.026 89.2304 107.313 89.2267 107.636L87.9768 107.621C87.9792 107.413 87.9063 107.233 87.7583 107.082C87.6103 106.927 87.3849 106.848 87.0822 106.845C86.8999 106.843 86.745 106.87 86.6174 106.927C86.4898 106.984 86.3945 107.062 86.3315 107.158C86.2686 107.252 86.2365 107.356 86.2352 107.47C86.234 107.581 86.2638 107.679 86.3247 107.764C86.3889 107.846 86.4971 107.92 86.6493 107.987C86.8016 108.051 87.0141 108.114 87.2869 108.175C87.6831 108.261 88.0269 108.371 88.3184 108.504C88.6132 108.635 88.8391 108.806 88.9962 109.02C89.1566 109.23 89.235 109.499 89.2312 109.828C89.2277 110.137 89.1351 110.413 88.9533 110.655C88.7748 110.894 88.5221 111.08 88.195 111.213C87.868 111.346 87.4847 111.41 87.0453 111.405ZM92.2012 111.463C91.7162 111.458 91.3071 111.367 90.9738 111.191C90.6437 111.011 90.394 110.785 90.2245 110.513C90.0583 110.241 89.9769 109.962 89.9801 109.675L91.1812 109.689C91.1919 109.891 91.247 110.056 91.3465 110.184C91.4493 110.309 91.5784 110.4 91.7341 110.457C91.8929 110.514 92.0586 110.544 92.2311 110.546C92.433 110.548 92.6025 110.524 92.7398 110.473C92.8771 110.419 92.9805 110.347 93.0499 110.257C93.1226 110.163 93.1596 110.055 93.161 109.931C93.1622 109.82 93.1341 109.721 93.0765 109.632C93.0221 109.544 92.914 109.461 92.7521 109.384C92.5935 109.308 92.3583 109.235 92.0465 109.167C91.6763 109.084 91.3504 108.976 91.0687 108.843C90.7869 108.71 90.5659 108.539 90.4054 108.333C90.2483 108.122 90.1714 107.869 90.1748 107.573C90.178 107.283 90.264 107.017 90.4328 106.775C90.6016 106.533 90.8414 106.34 91.1523 106.197C91.4632 106.051 91.8302 105.98 92.2534 105.985C92.6993 105.99 93.0809 106.069 93.3982 106.223C93.7188 106.373 93.9639 106.576 94.1336 106.832C94.3033 107.084 94.3863 107.372 94.3826 107.694L93.1327 107.68C93.1351 107.471 93.0622 107.292 92.9142 107.14C92.7662 106.985 92.5408 106.906 92.2381 106.903C92.0558 106.901 91.9009 106.928 91.7733 106.986C91.6457 107.043 91.5504 107.12 91.4875 107.217C91.4245 107.31 91.3924 107.414 91.3912 107.528C91.3899 107.639 91.4197 107.737 91.4806 107.822C91.5448 107.904 91.653 107.979 91.8053 108.046C91.9575 108.109 92.1701 108.172 92.4428 108.233C92.839 108.319 93.1828 108.429 93.4743 108.563C93.7691 108.693 93.995 108.865 94.1521 109.078C94.3125 109.288 94.3909 109.558 94.3872 109.886C94.3837 110.196 94.291 110.471 94.1092 110.713C93.9308 110.952 93.678 111.138 93.3509 111.271C93.0239 111.404 92.6407 111.468 92.2012 111.463ZM98.58 106.154L99.8348 106.168L99.7751 111.451L98.5935 111.438L98.5344 110.187L98.58 106.154ZM99.1231 109.08C99.1178 109.552 99.0431 109.973 98.8989 110.343C98.7547 110.712 98.5333 111.003 98.2347 111.214C97.9361 111.422 97.5541 111.524 97.0886 111.519C96.5678 111.513 96.148 111.355 95.8292 111.045C95.5105 110.736 95.355 110.231 95.3629 109.531L95.4015 106.118L96.6514 106.132L96.6127 109.555C96.61 109.793 96.6437 109.98 96.7138 110.118C96.7872 110.252 96.8853 110.349 97.0084 110.409C97.1347 110.466 97.2727 110.495 97.4225 110.497C97.7447 110.501 97.9993 110.442 98.1862 110.32C98.3732 110.195 98.5069 110.026 98.5875 109.812C98.6713 109.595 98.7148 109.353 98.7178 109.086L99.1231 109.08ZM102.197 111.479L100.947 111.465L101.007 106.182L102.193 106.195L102.244 107.26L102.197 111.479ZM103.83 107.371C103.756 107.357 103.674 107.346 103.586 107.339C103.502 107.331 103.419 107.327 103.338 107.326C103.074 107.323 102.854 107.368 102.677 107.46C102.5 107.55 102.365 107.681 102.272 107.856C102.182 108.028 102.128 108.234 102.109 108.475L101.831 108.452C101.836 108.006 101.899 107.606 102.02 107.253C102.141 106.896 102.318 106.616 102.552 106.414C102.789 106.208 103.081 106.107 103.429 106.111C103.498 106.112 103.574 106.119 103.659 106.133C103.743 106.144 103.808 106.16 103.853 106.18L103.83 107.371ZM106.868 111.629C106.338 111.623 105.882 111.506 105.5 111.277C105.122 111.045 104.831 110.734 104.627 110.344C104.426 109.954 104.328 109.522 104.334 109.047L104.336 108.846C104.342 108.3 104.452 107.824 104.665 107.419C104.878 107.012 105.168 106.697 105.535 106.477C105.902 106.253 106.318 106.144 106.784 106.149C107.291 106.155 107.712 106.27 108.045 106.496C108.381 106.717 108.631 107.025 108.796 107.417C108.961 107.806 109.04 108.257 109.035 108.768L109.028 109.305L104.922 109.258L104.932 108.37L107.803 108.402L107.804 108.304C107.8 108.103 107.763 107.915 107.693 107.742C107.624 107.568 107.513 107.429 107.361 107.323C107.213 107.214 107.015 107.158 106.767 107.155C106.51 107.152 106.295 107.221 106.121 107.363C105.95 107.504 105.819 107.703 105.728 107.959C105.64 108.215 105.595 108.516 105.591 108.861L105.589 109.061C105.585 109.354 105.636 109.618 105.741 109.854C105.849 110.089 106.005 110.276 106.208 110.415C106.415 110.551 106.663 110.621 106.953 110.624C107.23 110.627 107.478 110.576 107.697 110.471C107.919 110.363 108.112 110.207 108.273 110.004L108.915 110.671C108.747 110.916 108.492 111.14 108.151 111.341C107.813 111.539 107.386 111.635 106.868 111.629Z" fill="#030303"/>
<defs>
<clipPath id="clip0_3193_172930">
<rect width="35.0498" height="35.0498" fill="white" transform="translate(62.3164 49.9727) rotate(0.647339)"/>
</clipPath>
</defs>
</svg>
