<svg width="291" height="285" viewBox="0 0 291 285" fill="none" xmlns="http://www.w3.org/2000/svg">
<g filter="url(#filter0_d_3193_172923)">
<path d="M74.7126 210.877C112.487 251.167 175.771 253.206 216.061 215.431C256.35 177.657 258.389 114.373 220.615 74.0833C182.84 33.7935 119.557 31.7544 79.267 69.5289L6.31577 137.926L74.7126 210.877Z" fill="white"/>
</g>
<g clip-path="url(#clip0_3193_172923)">
<path d="M146.828 85.6994C140.788 85.687 134.88 87.4659 129.851 90.8112C124.822 94.1565 120.898 98.9179 118.575 104.493C116.252 110.069 115.635 116.208 116.801 122.134C117.967 128.06 120.865 133.508 125.127 137.787C129.389 142.067 134.824 144.987 140.746 146.177C146.667 147.368 152.809 146.776 158.394 144.476C163.978 142.176 168.756 138.271 172.122 133.256C175.488 128.241 177.291 122.34 177.303 116.3C177.311 108.204 174.106 100.435 168.393 94.6982C162.68 88.9613 154.924 85.7251 146.828 85.6994ZM157.507 136.692C157.38 136.758 157.24 136.794 157.097 136.799C156.954 136.803 156.812 136.776 156.681 136.719C156.551 136.66 156.435 136.573 156.342 136.464C156.249 136.354 156.181 136.226 156.143 136.088L154.197 128.745C154.147 128.553 154.157 128.349 154.228 128.163C154.298 127.976 154.425 127.817 154.591 127.706C157.391 125.832 159.441 123.03 160.378 119.794C161.315 116.557 161.08 113.094 159.714 110.013L150.701 123.656C150.613 123.788 150.495 123.896 150.355 123.97C150.216 124.045 150.061 124.084 149.903 124.084L143.59 124.071C143.431 124.071 143.274 124.031 143.134 123.955C142.994 123.879 142.876 123.769 142.789 123.635L133.89 109.851C132.41 113.08 132.185 116.743 133.256 120.129C134.328 123.515 136.62 126.382 139.688 128.171C139.868 128.276 140.01 128.436 140.089 128.629C140.169 128.822 140.183 129.035 140.129 129.236L138.22 136.5C138.186 136.636 138.122 136.762 138.032 136.87C137.943 136.978 137.831 137.065 137.704 137.124C137.577 137.183 137.438 137.214 137.298 137.214C137.158 137.213 137.019 137.182 136.892 137.122C133.029 135.301 129.734 132.464 127.36 128.914C124.986 125.364 123.621 121.236 123.413 116.97C123.204 112.704 124.16 108.462 126.177 104.698C128.194 100.934 131.197 97.7888 134.864 95.5998C134.893 95.5776 134.923 95.557 134.955 95.538L135.275 95.3526C135.489 95.2253 135.744 95.1873 135.986 95.2467C136.228 95.3061 136.436 95.4582 136.567 95.6701L146.787 112.206L157.381 95.8894C157.515 95.683 157.725 95.5367 157.965 95.4812C158.205 95.4256 158.458 95.4651 158.67 95.5914C161 96.9828 163.07 98.7678 164.79 100.867C164.865 100.932 164.928 101.01 164.976 101.097C167.15 103.81 168.696 106.972 169.503 110.354C170.311 113.736 170.359 117.255 169.645 120.658C168.931 124.061 167.472 127.263 165.373 130.036C163.275 132.808 160.588 135.081 157.507 136.692Z" fill="#3CA8EB"/>
</g>
<path d="M109.809 157.544L113.942 168.773L118.1 157.561L120.5 157.566L114.884 172.421L112.975 172.417L107.41 157.539L109.809 157.544ZM108.584 157.541L108.972 167.783L108.962 172.408L106.246 172.403L106.277 157.536L108.584 157.541ZM121.653 157.568L121.623 172.434L118.897 172.429L118.906 167.803L119.336 157.563L121.653 157.568ZM130.947 161.406L133.571 161.411L133.549 172.459L131.078 172.454L130.93 169.84L130.947 161.406ZM132.14 167.514C132.138 168.501 131.989 169.382 131.695 170.158C131.401 170.933 130.943 171.545 130.323 171.993C129.703 172.434 128.906 172.653 127.933 172.651C126.843 172.649 125.963 172.328 125.29 171.686C124.617 171.045 124.283 169.993 124.286 168.529L124.3 161.392L126.914 161.398L126.899 168.555C126.898 169.052 126.973 169.443 127.122 169.73C127.278 170.009 127.485 170.21 127.743 170.333C128.009 170.45 128.298 170.508 128.611 170.509C129.285 170.51 129.816 170.382 130.204 170.124C130.593 169.859 130.869 169.503 131.034 169.054C131.205 168.598 131.291 168.091 131.292 167.533L132.14 167.514ZM138.776 172.47L136.152 172.464L136.184 156.781L138.809 156.786L138.776 172.47ZM146.342 172.689C145.232 172.687 144.276 172.45 143.474 171.979C142.679 171.501 142.064 170.856 141.63 170.045C141.203 169.234 140.99 168.332 140.992 167.338L140.993 166.92C140.996 165.776 141.215 164.779 141.653 163.929C142.09 163.073 142.691 162.41 143.454 161.942C144.217 161.467 145.086 161.231 146.059 161.233C147.121 161.235 148.002 161.468 148.702 161.932C149.409 162.39 149.939 163.027 150.291 163.845C150.643 164.656 150.818 165.595 150.816 166.664L150.814 167.787L142.227 167.77L142.231 165.911L148.234 165.924L148.235 165.719C148.222 165.297 148.141 164.906 147.992 164.545C147.843 164.184 147.609 163.894 147.289 163.675C146.977 163.45 146.562 163.337 146.045 163.336C145.507 163.335 145.057 163.484 144.696 163.782C144.341 164.081 144.072 164.499 143.887 165.037C143.709 165.574 143.619 166.203 143.617 166.925L143.616 167.344C143.615 167.956 143.726 168.508 143.95 168.998C144.18 169.489 144.51 169.878 144.938 170.164C145.373 170.444 145.894 170.585 146.499 170.586C147.078 170.587 147.595 170.476 148.052 170.252C148.515 170.022 148.914 169.693 149.249 169.265L150.604 170.646C150.256 171.162 149.727 171.634 149.018 172.062C148.316 172.482 147.424 172.691 146.342 172.689ZM156.818 172.711C155.803 172.709 154.946 172.527 154.246 172.164C153.552 171.795 153.026 171.328 152.666 170.762C152.313 170.197 152.137 169.614 152.139 169.015L154.65 169.02C154.677 169.442 154.795 169.786 155.006 170.052C155.223 170.311 155.495 170.499 155.821 170.616C156.155 170.732 156.502 170.791 156.862 170.791C157.285 170.792 157.639 170.738 157.925 170.63C158.211 170.515 158.426 170.362 158.569 170.172C158.719 169.975 158.794 169.747 158.795 169.488C158.795 169.257 158.735 169.049 158.612 168.865C158.497 168.681 158.269 168.51 157.929 168.353C157.596 168.196 157.103 168.049 156.45 167.911C155.674 167.746 154.99 167.527 154.399 167.253C153.807 166.98 153.342 166.628 153.002 166.199C152.67 165.763 152.504 165.235 152.505 164.615C152.506 164.009 152.681 163.452 153.029 162.942C153.377 162.432 153.875 162.025 154.522 161.72C155.17 161.408 155.936 161.253 156.821 161.255C157.753 161.257 158.553 161.415 159.219 161.729C159.893 162.037 160.409 162.457 160.769 162.988C161.128 163.513 161.308 164.113 161.306 164.786L158.692 164.781C158.693 164.345 158.537 163.971 158.225 163.657C157.912 163.336 157.44 163.175 156.807 163.174C156.425 163.173 156.102 163.234 155.836 163.356C155.571 163.478 155.373 163.641 155.243 163.845C155.113 164.042 155.048 164.26 155.048 164.498C155.047 164.729 155.111 164.934 155.24 165.111C155.376 165.281 155.604 165.435 155.924 165.572C156.243 165.702 156.689 165.829 157.26 165.952C158.091 166.124 158.812 166.347 159.424 166.62C160.043 166.887 160.518 167.242 160.851 167.685C161.19 168.122 161.359 168.684 161.358 169.371C161.357 170.018 161.168 170.596 160.793 171.106C160.424 171.609 159.899 172.002 159.218 172.287C158.537 172.571 157.737 172.713 156.818 172.711ZM162.987 166.893C162.989 165.818 163.195 164.858 163.605 164.015C164.015 163.172 164.602 162.506 165.365 162.018C166.136 161.522 167.062 161.276 168.144 161.278C169.24 161.28 170.175 161.531 170.95 162.029C171.725 162.521 172.313 163.189 172.713 164.034C173.119 164.879 173.322 165.839 173.319 166.914L173.319 167.129C173.317 168.198 173.111 169.157 172.7 170.007C172.297 170.85 171.707 171.516 170.93 172.005C170.16 172.493 169.23 172.736 168.141 172.734C167.052 172.732 166.123 172.485 165.355 171.993C164.587 171.501 163.999 170.833 163.593 169.988C163.186 169.137 162.984 168.176 162.986 167.108L162.987 166.893ZM165.6 167.113C165.599 167.753 165.686 168.342 165.862 168.88C166.038 169.411 166.312 169.837 166.686 170.158C167.06 170.472 167.546 170.629 168.145 170.631C168.744 170.632 169.231 170.476 169.606 170.164C169.981 169.845 170.255 169.42 170.426 168.889C170.604 168.352 170.694 167.763 170.695 167.123L170.695 166.909C170.697 166.276 170.609 165.694 170.433 165.163C170.264 164.624 169.99 164.195 169.609 163.874C169.235 163.547 168.746 163.382 168.14 163.381C167.548 163.38 167.064 163.542 166.689 163.868C166.314 164.188 166.037 164.616 165.859 165.153C165.688 165.684 165.602 166.266 165.6 166.899L165.6 167.113ZM176.146 172.546L176.171 160.467C176.174 159.235 176.526 158.293 177.229 157.641C177.938 156.982 178.898 156.654 180.11 156.657C180.362 156.657 180.607 156.675 180.845 156.709C181.083 156.744 181.318 156.788 181.549 156.843L181.484 158.885C181.355 158.858 181.208 158.837 181.045 158.823C180.888 158.809 180.722 158.802 180.545 158.802C179.993 158.801 179.564 158.946 179.257 159.238C178.95 159.523 178.796 159.935 178.795 160.473L178.77 172.552L176.146 172.546ZM181.035 163.438L174.501 163.425L174.505 161.495L181.039 161.509L181.035 163.438ZM187.927 163.452L181.628 163.44L181.632 161.51L187.931 161.523L187.927 163.452ZM185.997 158.813L185.975 169.401C185.975 169.735 186.022 169.99 186.117 170.167C186.212 170.338 186.344 170.454 186.514 170.515C186.691 170.577 186.899 170.608 187.137 170.608C187.307 170.609 187.47 170.599 187.627 170.579C187.784 170.559 187.906 170.538 187.995 170.518L187.99 172.53C187.779 172.597 187.538 172.655 187.265 172.702C186.993 172.749 186.676 172.772 186.315 172.771C185.737 172.77 185.223 172.667 184.774 172.462C184.326 172.25 183.976 171.912 183.725 171.449C183.481 170.985 183.359 170.369 183.361 169.6L183.383 158.808L185.997 158.813ZM96.4621 188.502C96.3853 189.482 96.1112 190.356 95.6399 191.125C95.1687 191.893 94.5106 192.494 93.6656 192.928C92.8207 193.362 91.7924 193.577 90.5807 193.575C89.3487 193.572 88.2806 193.284 87.3764 192.711C86.4723 192.13 85.7763 191.309 85.2884 190.246C84.8004 189.183 84.558 187.933 84.5609 186.497L84.5632 185.364C84.5662 183.921 84.8172 182.672 85.3163 181.618C85.8222 180.557 86.5352 179.738 87.4553 179.162C88.3754 178.585 89.4549 178.298 90.6938 178.3C91.8986 178.303 92.9124 178.526 93.7351 178.97C94.5646 179.408 95.2066 180.018 95.6611 180.802C96.1156 181.579 96.3894 182.468 96.4827 183.469L93.7667 183.463C93.6733 182.53 93.3991 181.808 92.9441 181.297C92.4959 180.778 91.7443 180.518 90.6892 180.516C89.9473 180.514 89.324 180.697 88.8196 181.064C88.3219 181.43 87.9464 181.974 87.6931 182.695C87.4398 183.409 87.312 184.294 87.3099 185.349L87.3075 186.503C87.3054 187.51 87.416 188.378 87.6391 189.107C87.8622 189.829 88.2151 190.384 88.6976 190.773C89.1801 191.162 89.8093 191.358 90.5853 191.359C91.2932 191.361 91.8652 191.253 92.3013 191.036C92.7374 190.819 93.0682 190.5 93.2937 190.078C93.526 189.65 93.6768 189.123 93.7462 188.497L96.4621 188.502ZM97.9952 187.76C97.9974 186.684 98.2036 185.725 98.6138 184.882C99.0239 184.039 99.6107 183.373 100.374 182.884C101.144 182.389 102.07 182.142 103.153 182.145C104.249 182.147 105.184 182.397 105.959 182.896C106.734 183.387 107.322 184.056 107.721 184.901C108.128 185.745 108.33 186.706 108.328 187.781L108.328 187.996C108.325 189.064 108.119 190.024 107.709 190.874C107.306 191.717 106.716 192.383 105.939 192.871C105.168 193.36 104.239 193.603 103.15 193.601C102.061 193.598 101.132 193.352 100.364 192.86C99.5956 192.368 99.0082 191.7 98.6015 190.855C98.1948 190.003 97.9926 189.043 97.9948 187.974L97.9952 187.76ZM100.609 187.98C100.607 188.62 100.695 189.209 100.87 189.747C101.046 190.278 101.321 190.704 101.695 191.025C102.069 191.339 102.555 191.496 103.154 191.497C103.753 191.499 104.24 191.343 104.615 191.031C104.99 190.712 105.263 190.287 105.435 189.756C105.613 189.219 105.702 188.63 105.704 187.99L105.704 187.776C105.705 187.143 105.618 186.561 105.442 186.029C105.273 185.491 104.998 185.062 104.618 184.741C104.244 184.414 103.754 184.249 103.148 184.248C102.556 184.247 102.073 184.409 101.698 184.735C101.323 185.054 101.046 185.483 100.868 186.02C100.697 186.55 100.61 187.132 100.609 187.765L100.609 187.98ZM112.932 193.417L110.308 193.411L110.33 182.364L112.801 182.369L112.95 184.625L112.932 193.417ZM111.667 187.512C111.67 186.478 111.835 185.559 112.163 184.757C112.498 183.954 112.993 183.322 113.648 182.86C114.302 182.399 115.113 182.169 116.079 182.171C117.08 182.173 117.899 182.478 118.538 183.085C119.177 183.692 119.494 184.686 119.492 186.068L119.477 193.43L116.863 193.425L116.877 186.318C116.878 185.808 116.801 185.406 116.645 185.113C116.496 184.82 116.278 184.612 115.993 184.489C115.707 184.366 115.37 184.304 114.982 184.303C114.547 184.302 114.172 184.383 113.859 184.546C113.552 184.708 113.3 184.936 113.102 185.228C112.904 185.52 112.757 185.86 112.66 186.248C112.571 186.636 112.526 187.055 112.525 187.504L111.667 187.512ZM118.142 187.199C118.143 186.28 118.309 185.44 118.637 184.678C118.965 183.916 119.45 183.311 120.09 182.863C120.731 182.409 121.521 182.182 122.461 182.184C123.203 182.186 123.842 182.327 124.379 182.607C124.917 182.88 125.327 183.32 125.612 183.926C125.904 184.533 126.048 185.333 126.046 186.327L126.032 193.443L123.408 193.438L123.422 186.311C123.423 185.78 123.346 185.372 123.19 185.085C123.041 184.799 122.823 184.601 122.538 184.492C122.259 184.376 121.929 184.317 121.548 184.316C121.173 184.316 120.846 184.383 120.567 184.519C120.294 184.654 120.063 184.844 119.871 185.089C119.687 185.327 119.547 185.609 119.451 185.935C119.355 186.255 119.307 186.602 119.306 186.977L118.142 187.199ZM133.954 193.664C133.26 193.662 132.658 193.532 132.148 193.272C131.638 193.006 131.207 192.634 130.854 192.157C130.507 191.679 130.229 191.121 130.02 190.48C129.81 189.833 129.658 189.128 129.565 188.366L129.566 187.651C129.691 186.576 129.924 185.63 130.266 184.814C130.608 183.998 131.079 183.359 131.679 182.897C132.286 182.436 133.045 182.206 133.958 182.208C134.89 182.21 135.676 182.446 136.315 182.917C136.954 183.388 137.435 184.046 137.76 184.891C138.092 185.729 138.257 186.709 138.255 187.832L138.254 188.047C138.252 189.122 138.083 190.085 137.748 190.935C137.42 191.779 136.935 192.445 136.294 192.934C135.66 193.422 134.88 193.666 133.954 193.664ZM128.484 197.696L128.515 182.401L130.925 182.406L131.124 184.53L131.097 197.701L128.484 197.696ZM133.244 191.559C133.816 191.56 134.276 191.401 134.623 191.082C134.978 190.763 135.234 190.338 135.392 189.807C135.556 189.27 135.639 188.681 135.64 188.041L135.641 187.827C135.642 187.174 135.562 186.585 135.399 186.06C135.237 185.536 134.979 185.12 134.626 184.813C134.273 184.499 133.81 184.341 133.238 184.34C132.816 184.339 132.455 184.407 132.156 184.542C131.856 184.678 131.604 184.871 131.399 185.123C131.201 185.367 131.044 185.663 130.927 186.01C130.818 186.35 130.742 186.728 130.7 187.143L130.697 188.879C130.771 189.376 130.899 189.829 131.082 190.238C131.265 190.639 131.53 190.96 131.877 191.199C132.23 191.438 132.686 191.558 133.244 191.559ZM142.869 193.478L140.255 193.473L140.277 182.425L142.758 182.43L142.887 184.656L142.869 193.478ZM146.205 184.857C146.048 184.829 145.878 184.809 145.694 184.795C145.517 184.781 145.344 184.774 145.174 184.773C144.622 184.772 144.162 184.87 143.794 185.066C143.427 185.256 143.147 185.535 142.956 185.902C142.771 186.262 142.661 186.694 142.626 187.198L142.044 187.156C142.046 186.223 142.17 185.386 142.417 184.645C142.664 183.897 143.029 183.309 143.513 182.881C144.004 182.446 144.614 182.23 145.342 182.231C145.485 182.231 145.645 182.245 145.822 182.273C145.999 182.294 146.135 182.325 146.23 182.366L146.205 184.857ZM152.639 193.702C151.53 193.7 150.574 193.463 149.772 192.992C148.976 192.514 148.362 191.869 147.928 191.058C147.5 190.247 147.288 189.345 147.29 188.351L147.291 187.933C147.293 186.789 147.513 185.792 147.95 184.942C148.388 184.085 148.988 183.423 149.752 182.955C150.515 182.48 151.383 182.244 152.357 182.246C153.418 182.248 154.3 182.481 155 182.945C155.707 183.403 156.236 184.04 156.589 184.858C156.941 185.669 157.116 186.608 157.114 187.677L157.111 188.8L148.525 188.783L148.528 186.924L154.532 186.937L154.532 186.732C154.52 186.31 154.439 185.919 154.29 185.558C154.141 185.197 153.907 184.907 153.587 184.688C153.274 184.463 152.859 184.35 152.342 184.349C151.804 184.348 151.355 184.497 150.993 184.795C150.639 185.094 150.369 185.512 150.184 186.05C150.006 186.587 149.916 187.216 149.915 187.938L149.914 188.357C149.913 188.969 150.024 189.521 150.248 190.011C150.478 190.502 150.807 190.891 151.236 191.177C151.671 191.457 152.191 191.598 152.797 191.599C153.375 191.6 153.893 191.489 154.35 191.265C154.813 191.035 155.212 190.706 155.546 190.277L156.901 191.659C156.553 192.175 156.025 192.647 155.316 193.075C154.614 193.495 153.722 193.704 152.639 193.702ZM163.115 193.724C162.101 193.722 161.244 193.539 160.543 193.177C159.85 192.808 159.323 192.341 158.964 191.775C158.611 191.21 158.435 190.627 158.436 190.028L160.948 190.033C160.974 190.455 161.093 190.799 161.303 191.065C161.521 191.324 161.792 191.512 162.119 191.629C162.452 191.745 162.799 191.803 163.16 191.804C163.582 191.805 163.936 191.751 164.222 191.643C164.508 191.528 164.723 191.375 164.866 191.185C165.017 190.988 165.092 190.76 165.092 190.501C165.093 190.27 165.032 190.062 164.91 189.878C164.795 189.694 164.567 189.523 164.227 189.366C163.894 189.209 163.401 189.062 162.747 188.924C161.972 188.759 161.288 188.54 160.696 188.266C160.105 187.993 159.639 187.641 159.3 187.212C158.967 186.776 158.801 186.248 158.803 185.628C158.804 185.022 158.979 184.465 159.327 183.955C159.675 183.445 160.173 183.038 160.82 182.733C161.467 182.421 162.233 182.266 163.118 182.268C164.051 182.27 164.85 182.428 165.517 182.742C166.19 183.05 166.707 183.47 167.066 184.001C167.426 184.526 167.605 185.126 167.604 185.799L164.99 185.794C164.991 185.358 164.835 184.984 164.522 184.67C164.21 184.349 163.737 184.188 163.104 184.187C162.723 184.186 162.4 184.247 162.134 184.369C161.868 184.491 161.67 184.654 161.541 184.858C161.411 185.055 161.346 185.273 161.345 185.511C161.345 185.742 161.409 185.947 161.538 186.124C161.674 186.294 161.902 186.448 162.221 186.585C162.541 186.715 162.986 186.842 163.558 186.965C164.388 187.137 165.109 187.36 165.721 187.633C166.34 187.9 166.816 188.255 167.148 188.698C167.488 189.135 167.657 189.696 167.656 190.384C167.654 191.031 167.466 191.609 167.09 192.119C166.722 192.622 166.197 193.015 165.516 193.3C164.834 193.584 164.034 193.726 163.115 193.724ZM173.897 193.746C172.883 193.744 172.026 193.562 171.326 193.199C170.632 192.83 170.105 192.363 169.746 191.797C169.393 191.232 169.217 190.649 169.218 190.05L171.73 190.055C171.757 190.477 171.875 190.821 172.085 191.087C172.303 191.347 172.575 191.534 172.901 191.651C173.234 191.767 173.581 191.826 173.942 191.826C174.364 191.827 174.718 191.773 175.004 191.665C175.291 191.55 175.505 191.397 175.649 191.207C175.799 191.01 175.874 190.782 175.875 190.523C175.875 190.292 175.814 190.084 175.692 189.9C175.577 189.716 175.349 189.546 175.009 189.388C174.676 189.231 174.183 189.084 173.529 188.946C172.754 188.781 172.07 188.562 171.479 188.288C170.887 188.015 170.421 187.663 170.082 187.234C169.749 186.798 169.584 186.27 169.585 185.65C169.586 185.045 169.761 184.487 170.109 183.977C170.457 183.467 170.955 183.06 171.602 182.755C172.25 182.443 173.016 182.288 173.901 182.29C174.833 182.292 175.633 182.45 176.299 182.764C176.972 183.072 177.489 183.492 177.848 184.023C178.208 184.548 178.387 185.148 178.386 185.822L175.772 185.816C175.773 185.381 175.617 185.006 175.305 184.692C174.992 184.371 174.519 184.211 173.886 184.209C173.505 184.208 173.182 184.269 172.916 184.391C172.65 184.513 172.453 184.676 172.323 184.88C172.193 185.077 172.128 185.295 172.127 185.533C172.127 185.764 172.191 185.969 172.32 186.146C172.456 186.316 172.684 186.47 173.003 186.607C173.323 186.737 173.769 186.864 174.34 186.987C175.17 187.159 175.891 187.382 176.503 187.656C177.122 187.922 177.598 188.277 177.931 188.72C178.27 189.157 178.439 189.719 178.438 190.406C178.436 191.053 178.248 191.631 177.873 192.141C177.504 192.644 176.979 193.037 176.298 193.322C175.616 193.606 174.816 193.748 173.897 193.746ZM187.133 182.521L189.757 182.526L189.734 193.574L187.263 193.569L187.115 190.955L187.133 182.521ZM188.325 188.629C188.323 189.616 188.175 190.498 187.881 191.273C187.586 192.048 187.129 192.66 186.509 193.108C185.888 193.549 185.091 193.769 184.118 193.767C183.029 193.765 182.148 193.443 181.476 192.802C180.803 192.16 180.468 191.108 180.471 189.645L180.486 182.507L183.1 182.513L183.085 189.67C183.084 190.167 183.158 190.559 183.307 190.845C183.463 191.124 183.67 191.326 183.929 191.449C184.194 191.565 184.483 191.623 184.796 191.624C185.47 191.625 186.001 191.497 186.39 191.239C186.778 190.975 187.055 190.618 187.219 190.169C187.39 189.713 187.476 189.206 187.478 188.648L188.325 188.629ZM194.799 193.584L192.185 193.579L192.207 182.531L194.688 182.537L194.817 184.763L194.799 193.584ZM198.135 184.964C197.978 184.936 197.808 184.915 197.624 184.901C197.447 184.887 197.274 184.88 197.104 184.88C196.552 184.879 196.092 184.976 195.724 185.173C195.357 185.363 195.077 185.641 194.886 186.009C194.701 186.369 194.591 186.801 194.556 187.305L193.974 187.263C193.976 186.33 194.1 185.493 194.347 184.752C194.594 184.003 194.959 183.415 195.443 182.987C195.934 182.553 196.544 182.336 197.272 182.338C197.415 182.338 197.575 182.352 197.752 182.379C197.929 182.4 198.065 182.431 198.16 182.472L198.135 184.964ZM204.569 193.809C203.46 193.806 202.504 193.57 201.702 193.098C200.906 192.62 200.292 191.976 199.858 191.165C199.43 190.354 199.218 189.452 199.22 188.458L199.221 188.039C199.223 186.896 199.443 185.899 199.88 185.049C200.318 184.192 200.918 183.53 201.681 183.061C202.445 182.587 203.313 182.35 204.287 182.352C205.348 182.354 206.23 182.587 206.93 183.052C207.637 183.509 208.166 184.147 208.519 184.964C208.871 185.775 209.046 186.715 209.044 187.784L209.041 188.907L200.454 188.889L200.458 187.031L206.462 187.043L206.462 186.839C206.45 186.417 206.369 186.025 206.22 185.664C206.071 185.303 205.837 185.013 205.517 184.795C205.204 184.57 204.789 184.456 204.272 184.455C203.734 184.454 203.285 184.603 202.923 184.902C202.569 185.201 202.299 185.619 202.114 186.156C201.936 186.693 201.846 187.323 201.845 188.044L201.844 188.463C201.843 189.076 201.954 189.627 202.178 190.118C202.408 190.608 202.737 190.997 203.166 191.284C203.601 191.564 204.121 191.704 204.727 191.706C205.305 191.707 205.823 191.596 206.28 191.372C206.743 191.141 207.142 190.812 207.476 190.384L208.831 191.765C208.483 192.282 207.955 192.754 207.246 193.181C206.544 193.602 205.652 193.811 204.569 193.809Z" fill="#030303"/>
<defs>
<filter id="filter0_d_3193_172923" x="0.668882" y="42.4805" width="252.643" height="211.295" filterUnits="userSpaceOnUse" color-interpolation-filters="sRGB">
<feFlood flood-opacity="0" result="BackgroundImageFix"/>
<feColorMatrix in="SourceAlpha" type="matrix" values="0 0 0 0 0 0 0 0 0 0 0 0 0 0 0 0 0 0 127 0" result="hardAlpha"/>
<feOffset dy="5.64752"/>
<feGaussianBlur stdDeviation="2.82376"/>
<feComposite in2="hardAlpha" operator="out"/>
<feColorMatrix type="matrix" values="0 0 0 0 0 0 0 0 0 0 0 0 0 0 0 0 0 0 0.25 0"/>
<feBlend mode="normal" in2="BackgroundImageFix" result="effect1_dropShadow_3193_172923"/>
<feBlend mode="normal" in="SourceGraphic" in2="effect1_dropShadow_3193_172923" result="shape"/>
</filter>
<clipPath id="clip0_3193_172923">
<rect width="61.077" height="61.077" fill="white" transform="translate(116.289 85.6367) rotate(0.11752)"/>
</clipPath>
</defs>
</svg>
