<svg width="37" height="37" viewBox="0 0 37 37" fill="none" xmlns="http://www.w3.org/2000/svg">
<g clip-path="url(#clip0_3193_172914)">
<path d="M18.5235 0.788658C15.0577 0.743928 11.6564 1.72794 8.74984 3.61625C5.84327 5.50456 3.56193 8.21236 2.19429 11.3972C0.826657 14.5821 0.434161 18.101 1.06644 21.509C1.69871 24.9169 3.32736 28.0608 5.74644 30.5432C8.16551 33.0255 11.2664 34.7347 14.6568 35.4547C18.0473 36.1748 21.5752 35.8732 24.7943 34.5882C28.0134 33.3032 30.7792 31.0925 32.7419 28.2357C34.7046 25.3788 35.776 22.0041 35.8208 18.5383C35.8755 13.8923 34.0851 9.41433 30.8423 6.08678C27.5996 2.75922 23.1693 0.853844 18.5235 0.788658ZM24.334 30.1163C24.2607 30.1531 24.1802 30.1731 24.0982 30.1749C24.0162 30.1767 23.9349 30.1602 23.8601 30.1266C23.7855 30.0918 23.7196 30.0411 23.6669 29.9779C23.6142 29.9147 23.5761 29.8407 23.5553 29.7612L22.4844 25.5355C22.4564 25.4247 22.4638 25.3079 22.5054 25.2014C22.5471 25.0949 22.6209 25.0041 22.7166 24.9415C24.3353 23.8838 25.5287 22.2888 26.0866 20.4374C26.6446 18.586 26.5312 16.5971 25.7664 14.8211L20.5095 22.5936C20.4586 22.6685 20.3898 22.7297 20.3095 22.7716C20.2292 22.8136 20.1397 22.835 20.0491 22.8341L16.4267 22.7873C16.3353 22.7864 16.2456 22.7625 16.1658 22.7179C16.086 22.6734 16.0186 22.6095 15.9699 22.5322L10.949 14.5669C10.0799 16.4104 9.92753 18.5113 10.5214 20.461C11.1152 22.4106 12.4128 24.0698 14.162 25.1159C14.265 25.1768 14.345 25.27 14.3896 25.381C14.4342 25.492 14.441 25.6146 14.4088 25.7298L13.2679 29.8858C13.2474 29.9636 13.2098 30.0358 13.1578 30.0971C13.1059 30.1585 13.0409 30.2076 12.9676 30.2407C12.8944 30.274 12.8147 30.2908 12.7342 30.2897C12.6537 30.2887 12.5745 30.2699 12.5021 30.2347C10.2968 29.1656 8.42369 27.517 7.08328 25.4652C5.74288 23.4135 4.98564 21.0359 4.89262 18.5868C4.7996 16.1378 5.3743 13.7096 6.5552 11.5621C7.73611 9.41456 9.47877 7.62859 11.5967 6.39533C11.6135 6.38276 11.631 6.37111 11.6491 6.36041L11.834 6.25599C11.9576 6.18429 12.1044 6.16406 12.2428 6.19966C12.3812 6.23526 12.5 6.32384 12.5736 6.44628L18.3354 15.9986L24.5157 6.70173C24.5943 6.58412 24.7154 6.50148 24.8536 6.47111C24.9918 6.44074 25.1364 6.46499 25.2572 6.53877C26.5855 7.35168 27.7628 8.38888 28.7366 9.60424C28.779 9.64208 28.8146 9.68701 28.8417 9.73705C30.0723 11.3078 30.9398 13.1315 31.3819 15.0773C31.8241 17.023 31.8299 19.0426 31.399 20.9908C30.968 22.9391 30.111 24.7678 28.8895 26.3456C27.668 27.9234 26.1122 29.2111 24.334 30.1163Z" fill="#3CA8EB"/>
</g>
<defs>
<clipPath id="clip0_3193_172914">
<rect width="35.0498" height="35.0498" fill="white" transform="translate(1 0.5625) rotate(0.739418)"/>
</clipPath>
</defs>
</svg>
