<svg width="190" height="218" viewBox="0 0 190 218" fill="none" xmlns="http://www.w3.org/2000/svg">
<path d="M160.046 138.949C176.631 127.936 181.058 123.367 178.85 119.845C178.357 119.058 177.335 118.122 175.289 118.122C171.102 118.122 162.882 122.15 147.896 131.565C136.352 124.653 122.783 116.763 109.368 109.001C122.292 101.524 136.141 93.4671 147.893 86.4337C162.879 95.8489 171.098 99.8772 175.286 99.8772C177.335 99.8772 178.357 98.9375 178.853 98.1507C181.058 94.6355 176.631 90.0668 160.047 79.0498C189.606 60.7979 190.803 57.2205 189.229 54.5023C188.84 53.8228 187.998 53.0189 186.192 53.0189C182.102 53.0189 171.937 57.5015 153.377 67.4954C152.14 47.7771 150.42 41.6621 146.233 41.6621C145.272 41.6966 144.392 42.1198 143.681 42.8858C141.709 45.0177 140.013 50.325 140.905 74.3279C129.024 80.9386 115.453 88.718 102.099 96.4105C102.085 78.977 102.019 64.403 101.822 51.7641C123.051 40.5389 126.802 36.4135 127.662 33.6404C127.974 32.642 127.901 31.6678 127.45 30.8115C127.003 29.9693 126.005 28.9675 123.789 28.9675C120.288 28.9675 113.75 31.4736 101.502 37.5474C100.473 2.82164 97.9762 0 94.8322 0C91.6913 0 89.1953 2.82164 88.1624 37.5474C75.9183 31.4736 69.3804 28.9675 65.8788 28.9675C63.6635 28.9675 62.665 29.9693 62.218 30.8154C61.7671 31.6678 61.6977 32.642 62.0034 33.6408C62.8664 36.4139 66.6137 40.5393 87.8435 51.7646C87.6285 65.2499 87.5765 80.933 87.5659 96.4148C72.0875 87.4985 59.7774 80.4647 48.7608 74.339C49.6515 50.3327 47.956 45.0185 45.9838 42.8866C45.2732 42.1207 44.3923 41.6974 43.3142 41.6557C39.2408 41.6557 37.5283 47.7776 36.291 67.4963C17.7308 57.5019 7.56277 53.0227 3.47231 53.0227C1.66956 53.0227 0.82737 53.827 0.439059 54.4998C-1.13505 57.2209 0.0609667 60.7949 29.6211 79.0502C13.0366 90.0668 8.60977 94.6359 10.8145 98.1545C11.3105 98.938 12.3332 99.8806 14.3816 99.8777C18.5696 99.8777 26.7888 95.8493 41.7716 86.4341C53.3017 93.3428 66.8768 101.237 80.3 109.002C67.3695 116.483 53.5133 124.543 41.7788 131.566C26.7888 122.151 18.5662 118.122 14.3787 118.122C12.3298 118.122 11.3109 119.058 10.8149 119.848C8.61019 123.364 13.0336 127.933 29.6182 138.95C0.0584102 157.202 -1.13803 160.779 0.439484 163.5C0.827795 164.173 1.66999 164.977 3.47274 164.977C7.5632 164.977 17.7312 160.498 36.2876 150.5C37.5287 170.219 39.2412 176.34 43.3108 176.34C43.3108 176.34 43.4113 176.337 43.4321 176.337C44.3923 176.303 45.2732 175.876 45.9838 175.113C47.956 172.978 49.6515 167.671 48.7608 143.668C60.4987 137.14 73.7587 129.541 87.5659 121.585C87.5833 139.023 87.6493 153.593 87.8469 166.235C66.6141 177.464 62.8664 181.586 62.0034 184.359C61.6981 185.357 61.7675 186.332 62.218 187.188C62.665 188.03 63.6635 189.032 65.8788 189.032C69.38 189.032 75.9183 186.525 88.1624 180.452C89.1953 215.177 91.6913 218 94.8322 218C97.9762 218 100.473 215.177 101.502 180.452C113.75 186.525 120.288 189.032 123.789 189.032C126.004 189.032 127.003 188.03 127.45 187.184C127.9 186.332 127.973 185.357 127.661 184.359C126.802 181.585 123.051 177.464 101.824 166.235C102.036 152.75 102.091 137.066 102.102 121.589C115.067 129.055 128.986 137.036 140.908 143.667C140.016 167.667 141.712 172.978 143.684 175.113C144.395 175.875 145.276 176.302 146.236 176.337C146.26 176.337 146.333 176.34 146.357 176.34C150.427 176.34 152.139 170.218 153.377 150.5C171.937 160.498 182.105 164.976 186.199 164.976C187.998 164.976 188.84 164.172 189.229 163.5C190.802 160.775 189.606 157.201 160.046 138.949Z" fill="white"/>
</svg>
