<svg width="267" height="267" viewBox="0 0 267 267" fill="none" xmlns="http://www.w3.org/2000/svg">
<circle cx="133.133" cy="133.134" r="116.427" transform="rotate(89.1537 133.133 133.134)" fill="white"/>
<circle cx="133.133" cy="133.134" r="124.669" transform="rotate(89.1537 133.133 133.134)" stroke="#EBFBFF" stroke-opacity="0.6" stroke-width="16.4841"/>
<path d="M135.461 177.979C135.461 181.282 135.461 184.639 135.461 187.942C135.461 189.133 135.284 190 133.636 190C111.155 189.567 89.7332 185.83 72.5486 171.21C56.6588 157.727 57.0707 137.151 72.9017 123.614C84.4954 113.704 98.7962 109.21 113.98 106.665C120.159 105.636 126.456 105.311 132.753 105.203C134.931 105.203 135.519 105.853 135.519 107.802C135.402 114.138 135.402 120.419 135.519 126.754C135.519 128.758 134.813 129.191 132.695 129.299C120.983 129.678 109.507 131.086 98.914 136.176C95.6771 137.746 92.6757 139.479 90.1451 141.916C85.849 146.031 85.849 149.226 90.1451 153.287C95.6183 158.431 102.622 161.03 109.86 163.088C117.158 165.091 124.691 165.958 132.283 165.958C135.049 165.958 135.637 166.77 135.519 169.098C135.343 172.077 135.519 175.109 135.519 178.087L135.461 177.979Z" fill="#030303"/>
<path d="M133.947 148.642C133.947 146.097 134.124 143.498 133.947 140.953C133.771 138.516 134.477 137.65 137.361 137.596C148.189 137.488 158.606 135.538 168.434 131.315C172.259 129.69 175.849 127.687 178.792 124.871C183.618 120.268 183.618 116.045 178.792 111.442C175.732 108.572 172.142 106.46 168.14 104.836C158.312 100.829 148.071 98.7714 137.361 98.7172C134.83 98.7172 133.888 98.1216 133.947 95.6849C134.124 90.2159 134.065 84.7469 133.947 79.332C133.947 77.491 134.653 76.9495 136.595 77.0036C152.015 77.4368 166.904 79.8194 180.734 86.3713C188.385 89.9993 195.152 94.6019 200.037 101.262C209.277 113.825 207.688 128.824 196.094 139.708C186.266 148.913 174.084 153.786 160.724 156.71C152.78 158.443 144.717 159.201 136.537 159.418C134.536 159.418 133.829 158.93 133.947 157.089C134.065 154.328 133.947 151.512 133.947 148.751V148.642Z" fill="#ED2129"/>
</svg>
