<svg width="48" height="46" viewBox="0 0 48 46" fill="none" xmlns="http://www.w3.org/2000/svg">
<path d="M46.9511 20.8782C46.8303 20.8782 46.7285 20.7864 46.7185 20.6645C46.648 19.8614 46.5317 19.0538 46.374 18.2664C46.3482 18.14 46.431 18.0169 46.5574 17.9912C46.6838 17.9655 46.8068 18.0483 46.8326 18.1747C46.9936 18.9789 47.1111 19.8032 47.1838 20.6242C47.195 20.7529 47.0999 20.8658 46.9713 20.877C46.9646 20.8782 46.9578 20.8782 46.9511 20.8782ZM45.9556 15.9779C45.8572 15.9779 45.7655 15.9152 45.7342 15.8168C45.4747 15.0159 45.1648 14.2229 44.8147 13.4567C44.761 13.3392 44.8125 13.2005 44.9299 13.1468C45.0474 13.0932 45.1861 13.1446 45.2398 13.262C45.5977 14.0439 45.9131 14.8548 46.1782 15.6725C46.2185 15.7955 46.1514 15.9275 46.0283 15.9667C46.0037 15.9745 45.9802 15.9779 45.9556 15.9779ZM43.8293 11.3315C43.751 11.3315 43.6738 11.2912 43.6291 11.2185C43.194 10.4993 42.7108 9.79683 42.1951 9.1313C42.1157 9.02951 42.1347 8.88187 42.2365 8.80357C42.3383 8.72415 42.4859 8.74317 42.5642 8.84496C43.0911 9.52502 43.5843 10.242 44.0295 10.9769C44.0966 11.0865 44.0608 11.2308 43.9501 11.2979C43.9132 11.3203 43.8707 11.3315 43.8293 11.3315ZM40.6985 7.29131C40.6381 7.29131 40.5777 7.26782 40.5319 7.22084C39.9435 6.61795 39.3138 6.04414 38.6606 5.51284C38.5599 5.43119 38.5453 5.28354 38.627 5.18399C38.7075 5.08332 38.8552 5.06878 38.9547 5.15044C39.6225 5.69181 40.2645 6.27904 40.8652 6.89423C40.9558 6.98595 40.9536 7.13472 40.8618 7.2242C40.816 7.26894 40.7578 7.29131 40.6985 7.29131Z" fill="black"/>
<path d="M2.4994 22.854C2.36965 22.854 2.26562 22.7489 2.26562 22.6203C2.26562 21.7579 2.31484 20.8888 2.41215 20.0376C2.42669 19.9089 2.54302 19.8172 2.67053 19.8318C2.79917 19.8463 2.89089 19.9615 2.87635 20.0901C2.78127 20.9246 2.73317 21.7758 2.73317 22.6203C2.73317 22.7489 2.62803 22.854 2.4994 22.854ZM3.08104 17.7737C3.06426 17.7737 3.04636 17.7725 3.02847 17.7681C2.90207 17.739 2.82377 17.6126 2.85397 17.4873C3.0486 16.6495 3.2958 15.8151 3.58661 15.0053C3.63024 14.8845 3.76446 14.8207 3.88526 14.8655C4.00718 14.9091 4.06982 15.0422 4.0262 15.1641C3.74097 15.956 3.50049 16.7737 3.3081 17.5936C3.28349 17.7009 3.1873 17.7737 3.08104 17.7737ZM4.81029 12.9628C4.77562 12.9628 4.73982 12.955 4.70627 12.9382C4.59106 12.8812 4.54408 12.7414 4.60113 12.625C4.98366 11.8566 5.4143 11.1005 5.88297 10.3779C5.95343 10.2705 6.09884 10.2392 6.20622 10.3097C6.31472 10.3801 6.34604 10.5244 6.27557 10.6329C5.81586 11.3398 5.39417 12.0803 5.01946 12.8331C4.97919 12.9159 4.89642 12.9628 4.81029 12.9628ZM7.59433 8.67549C7.54175 8.67549 7.48918 8.65871 7.44556 8.6218C7.34601 8.54015 7.33259 8.3925 7.41424 8.29295C7.95561 7.63861 8.54061 7.00664 9.15245 6.41717C9.24528 6.32769 9.39405 6.32992 9.48353 6.42276C9.57301 6.5156 9.56966 6.66325 9.47682 6.75273C8.87729 7.33101 8.3046 7.94956 7.77441 8.59048C7.72855 8.64641 7.66144 8.67549 7.59433 8.67549Z" fill="black"/>
<path d="M22.5525 45.015C22.5458 45.015 22.5379 45.0139 22.5301 45.0139C21.6722 44.9289 20.8131 44.7936 19.9742 44.6124C19.8478 44.5844 19.7684 44.4603 19.7953 44.3339C19.8221 44.2075 19.9474 44.1281 20.0727 44.1549C20.8948 44.3339 21.7359 44.4658 22.576 44.5486C22.7035 44.5609 22.7974 44.6761 22.7851 44.8036C22.7728 44.9244 22.6721 45.015 22.5525 45.015ZM17.5571 43.9301C17.5325 43.9301 17.5068 43.9267 17.4821 43.9178C16.669 43.6404 15.8625 43.3115 15.0862 42.9402C14.9699 42.8854 14.9207 42.7455 14.9755 42.6292C15.0314 42.5129 15.1713 42.4637 15.2876 42.5185C16.0482 42.882 16.8368 43.2041 17.6331 43.4759C17.7551 43.5173 17.8199 43.6504 17.7786 43.7724C17.745 43.8697 17.6544 43.9301 17.5571 43.9301Z" fill="black"/>
<path d="M41.1195 22.6203C41.1195 23.1561 41.0937 23.6896 41.0412 24.2231C40.9886 24.7556 40.9103 25.2846 40.8051 25.8103C40.7011 26.3349 40.5714 26.8539 40.4159 27.3662C40.2604 27.8796 40.0803 28.383 39.8745 28.8774C39.6698 29.3718 39.4417 29.8561 39.1889 30.3281C38.9361 30.8001 38.662 31.2587 38.3645 31.7039C38.067 32.1502 37.7482 32.5797 37.4082 32.9936C37.0681 33.4074 36.7091 33.8034 36.331 34.1826C35.9518 34.5606 35.5559 34.9197 35.142 35.2597C34.7281 35.5998 34.2975 35.9185 33.8523 36.2161C33.4072 36.5136 32.9486 36.7876 32.4765 37.0404C32.0045 37.2932 31.5202 37.5214 31.0258 37.7272C30.5314 37.9319 30.0269 38.112 29.5147 38.2675C29.0024 38.4229 28.4834 38.5527 27.9588 38.6567C27.4331 38.7619 26.904 38.8401 26.3716 38.8927C25.838 38.9453 25.3045 38.971 24.7687 38.971C24.2329 38.971 23.6983 38.9453 23.1659 38.8927C22.6334 38.8401 22.1044 38.7619 21.5787 38.6567C21.0529 38.5527 20.5351 38.4229 20.0217 38.2675C19.5094 38.112 19.006 37.9319 18.5116 37.7272C18.0161 37.5214 17.5329 37.2932 17.0609 37.0404C16.5889 36.7876 16.1291 36.5136 15.684 36.2161C15.2388 35.9185 14.8093 35.5998 14.3954 35.2597C13.9816 34.9197 13.5856 34.5606 13.2064 34.1826C12.8284 33.8034 12.4682 33.4074 12.1293 32.9936C11.7892 32.5797 11.4705 32.1502 11.1729 31.7039C10.8754 31.2587 10.6002 30.8001 10.3486 30.3281C10.0958 29.8561 9.86759 29.3718 9.66178 28.8774C9.45709 28.383 9.277 27.8796 9.12153 27.3662C8.96605 26.8539 8.8363 26.3349 8.73116 25.8103C8.62713 25.2846 8.54884 24.7556 8.49627 24.2231C8.44369 23.6896 8.41797 23.1561 8.41797 22.6203C8.41797 22.0845 8.44369 21.551 8.49627 21.0174C8.54884 20.485 8.62713 19.9559 8.73116 19.4302C8.8363 18.9056 8.96605 18.3866 9.12153 17.8732C9.277 17.3609 9.45709 16.8576 9.66178 16.3632C9.86759 15.8677 10.0958 15.3845 10.3486 14.9125C10.6002 14.4404 10.8754 13.9818 11.1729 13.5355C11.4705 13.0904 11.7892 12.6608 12.1293 12.247C12.4682 11.8331 12.8284 11.4372 13.2064 11.058C13.5856 10.6799 13.9816 10.3209 14.3954 9.98083C14.8093 9.6408 15.2388 9.32201 15.684 9.02448C16.1291 8.72695 16.5889 8.45179 17.0609 8.20012C17.5329 7.94733 18.0161 7.71915 18.5116 7.51334C19.006 7.30865 19.5094 7.12857 20.0217 6.97309C20.5351 6.81761 21.0529 6.68786 21.5787 6.58384C22.1044 6.4787 22.6334 6.4004 23.1659 6.34783C23.6983 6.29526 24.2329 6.26953 24.7687 6.26953C25.3045 6.26953 25.838 6.29526 26.3716 6.34783C26.904 6.4004 27.4331 6.4787 27.9588 6.58384C28.4834 6.68786 29.0024 6.81761 29.5147 6.97309C30.0269 7.12857 30.5314 7.30865 31.0258 7.51334C31.5202 7.71915 32.0045 7.94733 32.4765 8.20012C32.9486 8.45179 33.4072 8.72695 33.8523 9.02448C34.2975 9.32201 34.7281 9.6408 35.142 9.98083C35.5559 10.3209 35.9518 10.6799 36.331 11.058C36.7091 11.4372 37.0681 11.8331 37.4082 12.247C37.7482 12.6608 38.067 13.0904 38.3645 13.5355C38.662 13.9818 38.9361 14.4404 39.1889 14.9125C39.4417 15.3845 39.6698 15.8677 39.8745 16.3632C40.0803 16.8576 40.2604 17.3609 40.4159 17.8732C40.5714 18.3866 40.7011 18.9056 40.8051 19.4302C40.9103 19.9559 40.9886 20.485 41.0412 21.0174C41.0937 21.551 41.1195 22.0845 41.1195 22.6203Z" fill="black"/>
<path d="M19.3716 35.6633C19.3906 35.3971 19.3817 35.1353 19.3526 34.8781L20.4856 34.0884C20.3939 33.7036 20.2642 33.3244 20.0841 32.9542C19.9051 32.5839 19.687 32.2461 19.4421 31.9374L18.1199 32.3379C17.7497 31.9721 17.3124 31.6746 16.8258 31.4621L16.7072 30.084C16.3292 29.9722 15.9343 29.895 15.5249 29.8648C15.1144 29.8357 14.7129 29.8558 14.3225 29.9129L14.0082 31.2596C13.497 31.3994 13.0205 31.631 12.6022 31.9408L11.3506 31.3547C11.0642 31.6254 10.8003 31.9296 10.5698 32.2696C10.3394 32.6097 10.156 32.9676 10.0106 33.3345L11.0184 34.2785C10.9524 34.528 10.9065 34.7863 10.8875 35.0526C10.8685 35.3199 10.8774 35.5816 10.9054 35.8389L9.77344 36.6286C9.86404 37.0122 9.99491 37.3925 10.1739 37.7628C10.354 38.1319 10.5721 38.4697 10.817 38.7795L12.1391 38.3791C12.5094 38.7448 12.9467 39.0424 13.4333 39.2549L13.5518 40.6329C13.9299 40.7448 14.3236 40.822 14.7341 40.8522C15.1435 40.8812 15.5451 40.8611 15.9354 40.8041L16.2498 39.4573C16.762 39.3175 17.2385 39.0849 17.6558 38.7762L18.9074 39.3623C19.1949 39.0905 19.4588 38.7873 19.6892 38.4473C19.9197 38.1073 20.1031 37.7493 20.2485 37.3825L19.2407 36.4384C19.3056 36.189 19.3526 35.9306 19.3716 35.6633Z" fill="#D9D9D9"/>
<path d="M15.1119 41.0972C14.9788 41.0972 14.848 41.0927 14.7171 41.0837C14.3088 41.0547 13.8939 40.9775 13.4845 40.8556C13.3928 40.8276 13.3268 40.7471 13.3189 40.6509L13.2116 39.4093C12.7932 39.2124 12.4129 38.954 12.0762 38.6409L10.8839 39.0021C10.7922 39.0301 10.6926 38.9988 10.6333 38.9238C10.3682 38.5883 10.1423 38.2315 9.96444 37.8635C9.78548 37.4955 9.64454 37.0973 9.54499 36.6823C9.52374 36.5883 9.56065 36.491 9.63895 36.4362L10.6602 35.7237C10.64 35.4877 10.6378 35.2573 10.6535 35.0347C10.6702 34.8132 10.7049 34.585 10.7586 34.3546L9.85035 33.5034C9.77989 33.4374 9.75751 33.3356 9.79331 33.2473C9.9499 32.8491 10.1468 32.4766 10.3761 32.1377C10.6054 31.7988 10.8794 31.4778 11.1904 31.1836C11.2597 31.1176 11.3626 31.1019 11.4499 31.1422L12.5773 31.6701C12.9554 31.4084 13.3693 31.2071 13.8122 31.0717L14.0952 29.8581C14.1176 29.7653 14.1936 29.6948 14.2887 29.6803C14.7115 29.6188 15.1332 29.602 15.5415 29.6311C15.9497 29.6601 16.3647 29.7373 16.7741 29.8592C16.8658 29.8872 16.9318 29.9677 16.9396 30.0628L17.047 31.3044C17.4653 31.5024 17.8456 31.7607 18.1823 32.0739L19.3747 31.7126C19.4664 31.6847 19.5659 31.716 19.6252 31.7909C19.8903 32.1265 20.1163 32.4822 20.2941 32.8513C20.4731 33.2193 20.614 33.6164 20.7124 34.0325C20.7348 34.1264 20.6979 34.2238 20.6196 34.2786L19.5984 34.9911C19.6185 35.2271 19.6208 35.4575 19.604 35.679C19.5883 35.9016 19.5536 36.1297 19.5 36.3602L20.4082 37.2114C20.4787 37.2774 20.501 37.378 20.4652 37.4675C20.3087 37.8657 20.1118 38.2382 19.8825 38.5771C19.6532 38.916 19.3792 39.237 19.0682 39.5301C18.9988 39.5961 18.8959 39.6129 18.8087 39.5726L17.6812 39.0446C17.3032 39.3064 16.8882 39.5066 16.4464 39.6431L16.1634 40.8556C16.141 40.9495 16.0649 41.02 15.9699 41.0345C15.6813 41.0759 15.3949 41.0972 15.1119 41.0972ZM13.7697 40.4506C14.0974 40.5379 14.4263 40.5938 14.7507 40.6173C15.075 40.6408 15.4084 40.633 15.745 40.5927L16.0224 39.4037C16.0414 39.3198 16.1052 39.2538 16.188 39.2314C16.6712 39.0995 17.1175 38.8825 17.5168 38.5872C17.5861 38.5357 17.6779 38.5268 17.755 38.5637L18.8602 39.0804C19.0995 38.8411 19.3132 38.5849 19.4955 38.3154C19.6778 38.0458 19.8378 37.7527 19.9709 37.4418L19.0805 36.6074C19.0179 36.5492 18.9933 36.4608 19.0145 36.3781C19.0805 36.1253 19.1208 35.8859 19.1387 35.6454C19.1554 35.4061 19.1499 35.1633 19.1208 34.9038C19.1107 34.8188 19.1487 34.7349 19.2192 34.6857L20.2192 33.9877C20.1319 33.66 20.0156 33.3479 19.8735 33.0549C19.7326 32.763 19.5581 32.4777 19.3557 32.207L18.1868 32.5605C18.1051 32.5851 18.0157 32.5639 17.9553 32.5035C17.6018 32.1534 17.1913 31.8748 16.7327 31.6757C16.6533 31.6411 16.5996 31.5661 16.5929 31.4811L16.4877 30.2641C16.1611 30.1769 15.8323 30.1199 15.5079 30.0975C15.1835 30.074 14.8502 30.0818 14.5135 30.1221L14.2361 31.3111C14.216 31.395 14.1534 31.461 14.0706 31.4833C13.5874 31.6153 13.14 31.8323 12.7418 32.1276C12.6724 32.1791 12.5807 32.188 12.5035 32.1511L11.3984 31.6332C11.1579 31.8737 10.9454 32.1299 10.7631 32.3994C10.5808 32.6679 10.4208 32.9609 10.2877 33.273L11.1781 34.1074C11.2407 34.1656 11.2653 34.254 11.244 34.3367C11.1781 34.5895 11.1378 34.8289 11.1199 35.0683C11.1031 35.3087 11.1087 35.5515 11.1378 35.811C11.1479 35.896 11.1098 35.9799 11.0394 36.0291L10.0394 36.727C10.1266 37.0537 10.243 37.3668 10.3839 37.6599C10.5259 37.9518 10.7004 38.2371 10.9029 38.5077L12.0718 38.1543C12.1534 38.1297 12.2429 38.1509 12.3033 38.2113C12.6556 38.5614 13.0673 38.84 13.5259 39.0391C13.6053 39.0737 13.659 39.1487 13.6657 39.2337L13.7697 40.4506Z" fill="black"/>
<path d="M17.3401 35.3575C17.3401 35.503 17.3267 35.6461 17.2976 35.7882C17.2696 35.9314 17.2282 36.0689 17.1723 36.2032C17.1164 36.3374 17.0493 36.4649 16.9687 36.5846C16.8871 36.7054 16.7965 36.8172 16.6936 36.9201C16.5907 37.0219 16.4788 37.1136 16.3591 37.1942C16.2383 37.2747 16.1108 37.3429 15.9766 37.3989C15.8424 37.4537 15.7048 37.4962 15.5627 37.5241C15.4196 37.5532 15.2764 37.5667 15.131 37.5667C14.9867 37.5667 14.8424 37.5532 14.7003 37.5241C14.5583 37.4962 14.4196 37.4537 14.2865 37.3989C14.1523 37.3429 14.0248 37.2747 13.9039 37.1942C13.7831 37.1136 13.6724 37.0219 13.5695 36.9201C13.4666 36.8172 13.3749 36.7054 13.2943 36.5846C13.2138 36.4649 13.1456 36.3374 13.0908 36.2032C13.0348 36.0689 12.9935 35.9314 12.9644 35.7882C12.9364 35.6461 12.9219 35.503 12.9219 35.3575C12.9219 35.2121 12.9364 35.069 12.9644 34.9269C12.9935 34.7849 13.0348 34.6462 13.0908 34.5119C13.1456 34.3788 13.2138 34.2513 13.2943 34.1305C13.3749 34.0097 13.4666 33.8979 13.5695 33.7961C13.6724 33.6932 13.7831 33.6014 13.9039 33.5209C14.0248 33.4404 14.1523 33.3721 14.2865 33.3162C14.4196 33.2614 14.5583 33.2189 14.7003 33.1909C14.8424 33.163 14.9867 33.1484 15.131 33.1484C15.2764 33.1484 15.4196 33.163 15.5627 33.1909C15.7048 33.2189 15.8424 33.2614 15.9766 33.3162C16.1108 33.3721 16.2383 33.4404 16.3591 33.5209C16.4788 33.6014 16.5907 33.6932 16.6936 33.7961C16.7965 33.8979 16.8871 34.0097 16.9687 34.1305C17.0493 34.2513 17.1164 34.3788 17.1723 34.5119C17.2282 34.6462 17.2696 34.7849 17.2976 34.9269C17.3267 35.069 17.3401 35.2121 17.3401 35.3575Z" fill="#D9D9D9"/>
<path d="M15.1307 37.8007C15.0714 37.8007 15.011 37.7985 14.9518 37.794C14.3008 37.747 13.7068 37.4495 13.2796 36.9562C12.8523 36.463 12.6431 35.8321 12.6901 35.1822C12.7371 34.5312 13.0346 33.9373 13.5279 33.51C14.0211 33.0827 14.6509 32.8736 15.3019 32.9206C15.9529 32.9675 16.5468 33.2651 16.9741 33.7583C17.4002 34.2516 17.6105 34.8813 17.5635 35.5323C17.5166 36.1833 17.219 36.7773 16.7258 37.2045C16.2772 37.5916 15.7168 37.8007 15.1307 37.8007ZM15.124 33.3814C14.6498 33.3814 14.1956 33.5503 13.8332 33.8635C13.435 34.2091 13.1945 34.689 13.1565 35.2158C13.1185 35.7415 13.2874 36.2516 13.633 36.6497C13.9786 37.0491 14.4585 37.2896 14.9853 37.3276C15.511 37.3656 16.0211 37.1967 16.4193 36.8511C16.8186 36.5055 17.0591 36.0256 17.0971 35.4988C17.1351 34.9731 16.9662 34.463 16.6206 34.0637C16.275 33.6655 15.7951 33.425 15.2683 33.387C15.2202 33.3836 15.1721 33.3814 15.124 33.3814Z" fill="black"/>
<path d="M23.7609 25.7038C23.6692 25.5226 23.5618 25.3559 23.4432 25.2005L23.8716 24.2441C23.6625 24.0305 23.4298 23.8336 23.1692 23.6636C22.9075 23.4925 22.6345 23.3582 22.3549 23.252L21.6502 24.0282C21.2677 23.9343 20.8672 23.9108 20.4679 23.9634L19.8538 23.1133C19.5641 23.1871 19.2767 23.2911 18.9993 23.4309C18.7208 23.5719 18.4669 23.7408 18.2353 23.9309L18.5563 24.9287C18.2778 25.2195 18.0586 25.5562 17.9076 25.9208L16.8651 26.0271C16.7835 26.3145 16.7309 26.6154 16.713 26.9264C16.6962 27.2373 16.7152 27.5416 16.7645 27.8369L17.7879 28.0583C17.8427 28.2462 17.9132 28.4319 18.0049 28.6131C18.0955 28.7943 18.204 28.961 18.3226 29.1165L17.8942 30.0728C18.1033 30.2864 18.336 30.4833 18.5966 30.6533C18.8572 30.8245 19.1313 30.9587 19.4109 31.0649L20.1156 30.2887C20.4981 30.3826 20.8986 30.4061 21.2979 30.3536L21.912 31.2036C22.2017 31.1298 22.488 31.0258 22.7665 30.886C23.045 30.745 23.2978 30.5761 23.5294 30.386L23.2095 29.3883C23.488 29.0974 23.7072 28.7608 23.8582 28.3961L24.9007 28.2899C24.9812 28.0013 25.0349 27.7015 25.0528 27.3906C25.0696 27.0796 25.0506 26.7754 25.0013 26.4801L23.9779 26.2586C23.9231 26.0707 23.8526 25.885 23.7609 25.7038Z" fill="#D9D9D9"/>
<path d="M21.9154 31.4372C21.8416 31.4372 21.7711 31.4026 21.7263 31.3399L21.1917 30.6006C20.8584 30.6308 20.5262 30.6118 20.2007 30.5458L19.5877 31.2214C19.5228 31.2929 19.421 31.3164 19.3316 31.2829C19.0251 31.1665 18.7354 31.0211 18.4725 30.8489C18.2097 30.6766 17.9591 30.4697 17.7298 30.2359C17.6627 30.1666 17.6448 30.0637 17.684 29.9764L18.0575 29.1454C17.9591 29.0055 17.8719 28.8624 17.7992 28.7181C17.7265 28.5749 17.6627 28.4205 17.609 28.2572L16.7175 28.0648C16.6247 28.0447 16.552 27.9687 16.5363 27.8747C16.4838 27.5503 16.4659 27.2271 16.4827 26.9128C16.5005 26.5996 16.5542 26.2797 16.6437 25.9631C16.6694 25.8714 16.7489 25.8043 16.8439 25.7942L17.7522 25.7014C17.892 25.3994 18.0743 25.1209 18.2958 24.8703L18.0173 24.0023C17.9871 23.9106 18.0173 23.8099 18.0911 23.7495C18.345 23.5415 18.6168 23.3648 18.8964 23.2227C19.1772 23.0807 19.4814 22.9677 19.7991 22.886C19.8919 22.8625 19.9904 22.8983 20.0463 22.9755L20.581 23.716C20.9143 23.6858 21.2465 23.7048 21.572 23.7708L22.1849 23.0952C22.2498 23.0236 22.3505 23.0001 22.4411 23.0337C22.7476 23.15 23.0373 23.2954 23.3001 23.4677C23.563 23.6399 23.8124 23.8457 24.0417 24.0806C24.1088 24.15 24.1278 24.2529 24.0887 24.3401L23.7151 25.1712C23.8135 25.311 23.9008 25.4542 23.9735 25.5985C24.0462 25.7417 24.1099 25.896 24.1636 26.0582L25.054 26.2517C25.1479 26.2718 25.2195 26.3468 25.2352 26.4419C25.2889 26.7662 25.3068 27.0895 25.2889 27.4038C25.2721 27.717 25.2184 28.0369 25.1289 28.3523C25.1032 28.4452 25.0238 28.5123 24.9276 28.5223L24.0205 28.6152C23.8806 28.9161 23.6983 29.1957 23.4769 29.4462L23.7554 30.3142C23.7844 30.4059 23.7554 30.5055 23.6815 30.567C23.4276 30.7751 23.1558 30.9518 22.8751 31.0938C22.5943 31.2359 22.2912 31.3489 21.9735 31.4305C21.9545 31.435 21.9344 31.4372 21.9154 31.4372ZM21.3013 30.1196C21.3762 30.1196 21.4467 30.1554 21.4915 30.2169L22.0093 30.935C22.2398 30.8679 22.459 30.7807 22.6648 30.6766C22.8706 30.5726 23.0697 30.4473 23.261 30.303L22.9903 29.4585C22.9646 29.3769 22.9847 29.2874 23.044 29.2259C23.3012 28.9574 23.5037 28.6476 23.6457 28.3065C23.6793 28.227 23.752 28.1722 23.8381 28.1633L24.7195 28.0738C24.7755 27.8411 24.8101 27.6074 24.8224 27.377C24.8359 27.1477 24.8269 26.9116 24.7967 26.6734L23.9321 26.4866C23.8482 26.4687 23.7811 26.4061 23.7565 26.3233C23.7028 26.1365 23.6368 25.9687 23.5563 25.8088C23.4757 25.6488 23.3784 25.4967 23.261 25.3412C23.2084 25.2741 23.1983 25.1824 23.233 25.1041L23.5954 24.2965C23.422 24.1321 23.2364 23.9844 23.044 23.8592C22.8516 23.7328 22.6424 23.622 22.4221 23.5292L21.827 24.1858C21.77 24.2484 21.6816 24.2753 21.5988 24.2551C21.2398 24.1668 20.8707 24.1466 20.5015 24.1947C20.4165 24.2059 20.3315 24.169 20.2812 24.0996L19.7622 23.3815C19.5329 23.4487 19.3137 23.5359 19.1079 23.6399C18.902 23.7439 18.7029 23.8692 18.5117 24.0135L18.7824 24.858C18.8081 24.9397 18.788 25.0291 18.7287 25.0907C18.4703 25.3591 18.2678 25.6689 18.1269 26.0101C18.0933 26.0895 18.0195 26.1443 17.9345 26.1522L17.0531 26.2428C16.9972 26.4754 16.9625 26.7092 16.9502 26.9396C16.9368 27.1689 16.9457 27.4049 16.9759 27.6432L17.8406 27.83C17.9244 27.8479 17.9916 27.9105 18.015 27.9933C18.0699 28.1789 18.1358 28.3478 18.2164 28.5078C18.2969 28.6677 18.3942 28.8199 18.5117 28.9753C18.5642 29.0424 18.5743 29.1342 18.5396 29.2125L18.1772 30.02C18.3506 30.1845 18.5352 30.3321 18.7287 30.4574C18.9211 30.5838 19.1291 30.6945 19.3506 30.7874L19.9456 30.1308C20.0027 30.0681 20.091 30.0413 20.1738 30.0614C20.5329 30.1498 20.902 30.1699 21.2711 30.1218C21.2812 30.1207 21.2912 30.1196 21.3013 30.1196Z" fill="black"/>
<path d="M22.6041 27.0442C22.6041 27.165 22.5918 27.2836 22.5683 27.4021C22.5448 27.5196 22.5101 27.6348 22.4642 27.7455C22.4184 27.8563 22.3613 27.9625 22.2942 28.0621C22.2282 28.1628 22.1522 28.2556 22.0672 28.3406C21.9822 28.4256 21.8893 28.5017 21.7886 28.5688C21.6891 28.6348 21.5828 28.6918 21.4721 28.7377C21.3614 28.7835 21.2462 28.8182 21.1276 28.8417C21.0101 28.8652 20.8905 28.8775 20.7708 28.8775C20.65 28.8775 20.5314 28.8652 20.4128 28.8417C20.2954 28.8182 20.1802 28.7835 20.0695 28.7377C19.9576 28.6918 19.8525 28.6348 19.7518 28.5688C19.6522 28.5017 19.5594 28.4256 19.4744 28.3406C19.3894 28.2556 19.3133 28.1628 19.2462 28.0621C19.1791 27.9625 19.1232 27.8563 19.0773 27.7455C19.0315 27.6348 18.9957 27.5196 18.9722 27.4021C18.9487 27.2836 18.9375 27.165 18.9375 27.0442C18.9375 26.9234 18.9487 26.8049 18.9722 26.6863C18.9957 26.5688 19.0315 26.4536 19.0773 26.3429C19.1232 26.231 19.1791 26.1259 19.2462 26.0252C19.3133 25.9257 19.3894 25.8328 19.4744 25.7478C19.5594 25.6628 19.6522 25.5868 19.7518 25.5197C19.8525 25.4525 19.9576 25.3966 20.0695 25.3508C20.1802 25.3049 20.2954 25.2702 20.4128 25.2467C20.5314 25.2232 20.65 25.2109 20.7708 25.2109C20.8905 25.2109 21.0101 25.2232 21.1276 25.2467C21.2462 25.2702 21.3614 25.3049 21.4721 25.3508C21.5828 25.3966 21.6891 25.4525 21.7886 25.5197C21.8893 25.5868 21.9822 25.6628 22.0672 25.7478C22.1522 25.8328 22.2282 25.9257 22.2942 26.0252C22.3613 26.1259 22.4184 26.231 22.4642 26.3429C22.5101 26.4536 22.5448 26.5688 22.5683 26.6863C22.5918 26.8049 22.6041 26.9234 22.6041 27.0442Z" fill="#D9D9D9"/>
<path d="M20.7765 29.1154C20.5595 29.1154 20.3414 29.0807 20.13 29.0102C19.6054 28.838 19.1792 28.4722 18.9298 27.979C18.6815 27.4868 18.639 26.9264 18.8112 26.4018C18.9835 25.8772 19.3493 25.4522 19.8425 25.2027C20.8593 24.6882 22.1053 25.0976 22.6187 26.1144C23.1333 27.1322 22.7239 28.3772 21.7071 28.8917C21.4129 29.0404 21.0964 29.1154 20.7765 29.1154ZM20.7731 25.4466C20.526 25.4466 20.2799 25.5048 20.0528 25.62C19.6714 25.8124 19.3884 26.1423 19.2553 26.5483C19.1222 26.9544 19.1546 27.3872 19.347 27.7687C19.5394 28.1501 19.8694 28.4331 20.2754 28.5662C20.6814 28.7004 21.1143 28.6669 21.4957 28.4745C21.8771 28.2821 22.1612 27.9521 22.2944 27.5461C22.4275 27.1401 22.395 26.7072 22.2026 26.3258C22.0091 25.9443 21.6803 25.6613 21.2743 25.5271C21.1098 25.4734 20.9409 25.4466 20.7731 25.4466Z" fill="black"/>
<path d="M5.10105 29.918L1.45128 33.2613C0.551973 34.0845 0.490454 35.4816 1.3137 36.3797C2.13806 37.279 3.53399 37.3406 4.43329 36.5173L8.08307 33.174L5.10105 29.918Z" fill="#ED1C24"/>
<path d="M2.94295 37.3286C2.2819 37.3286 1.62196 37.0624 1.14099 36.5367C0.701406 36.0568 0.474343 35.4327 0.502307 34.7817C0.531389 34.1296 0.812141 33.5289 1.29311 33.0882L4.94289 29.7449C5.03797 29.6577 5.18561 29.6644 5.27286 29.7595C5.3601 29.8545 5.35339 30.0022 5.25832 30.0894L1.60854 33.4327C1.21929 33.7884 0.992225 34.275 0.969854 34.8018C0.946365 35.3287 1.1298 35.8331 1.48662 36.2212C1.87475 36.6463 2.40829 36.861 2.94295 36.861C3.41945 36.861 3.89706 36.6899 4.27513 36.3443L7.9249 33.001C8.01998 32.9137 8.16763 32.9204 8.25487 33.0155C8.34212 33.1106 8.33541 33.2582 8.24033 33.3455L4.59055 36.6888C4.123 37.1172 3.53242 37.3286 2.94295 37.3286Z" fill="black"/>
<path d="M16.7345 21.8577C16.9146 22.0378 17.0846 22.2257 17.2457 22.4214C17.4079 22.6183 17.5589 22.8219 17.6998 23.0333C17.8408 23.2447 17.9716 23.4628 18.0913 23.6865C18.211 23.9102 18.3195 24.1395 18.4168 24.3744C18.5141 24.6093 18.5991 24.8486 18.6729 25.0914C18.7468 25.3341 18.8083 25.5802 18.8586 25.8296C18.9078 26.079 18.9447 26.3296 18.9694 26.5824C18.9951 26.8363 19.0074 27.0891 19.0074 27.343C19.0074 27.5969 18.9951 27.8508 18.9694 28.1036C18.9447 28.3564 18.9078 28.608 18.8586 28.8564C18.8083 29.1058 18.7468 29.3519 18.6729 29.5957C18.5991 29.8384 18.5141 30.0778 18.4168 30.3116C18.3195 30.5465 18.211 30.7758 18.0913 31.0006C17.9716 31.2243 17.8408 31.4424 17.6998 31.6538C17.5589 31.8641 17.4079 32.0688 17.2468 32.2645C17.0846 32.4614 16.9146 32.6493 16.7356 32.8294C16.5556 33.0084 16.3676 33.1795 16.1708 33.3406C15.975 33.5016 15.7703 33.6526 15.5601 33.7936C15.3487 33.9345 15.1305 34.0654 14.9068 34.1851C14.682 34.3047 14.4527 34.4132 14.2178 34.5105C13.984 34.6079 13.7447 34.6929 13.502 34.7667C13.2581 34.8405 13.012 34.902 12.7626 34.9524C12.5143 35.0016 12.2626 35.0385 12.0098 35.0642C11.757 35.0888 11.5031 35.1011 11.2492 35.1011C10.9953 35.1011 10.7425 35.0888 10.4897 35.0642C10.2358 35.0385 9.98528 35.0016 9.73585 34.9524C9.48642 34.902 9.24034 34.8405 8.99762 34.7667C8.75489 34.6929 8.51553 34.6079 8.28064 34.5105C8.04574 34.4132 7.81644 34.3047 7.59274 34.1851C7.36903 34.0654 7.15092 33.9345 6.93951 33.7936C6.72811 33.6526 6.52454 33.5016 6.32767 33.3406C6.13193 33.1795 5.94402 33.0084 5.76393 32.8294C5.58385 32.6493 5.41383 32.4614 5.25276 32.2645C5.09169 32.0688 4.94069 31.8652 4.79975 31.6538C4.6577 31.4424 4.52795 31.2243 4.40827 31.0006C4.28858 30.7769 4.17897 30.5476 4.08277 30.3127C3.98546 30.0778 3.89933 29.8384 3.82551 29.5957C3.75169 29.3519 3.69017 29.1058 3.64095 28.8575C3.59174 28.608 3.55371 28.3564 3.5291 28.1036C3.50449 27.8508 3.49219 27.598 3.49219 27.3441C3.49219 27.0891 3.50449 26.8363 3.5291 26.5835C3.55371 26.3307 3.59174 26.079 3.64095 25.8296C3.69017 25.5813 3.75169 25.3352 3.82551 25.0914C3.89933 24.8486 3.98546 24.6093 4.08166 24.3744C4.17897 24.1395 4.28747 23.9102 4.40715 23.6865C4.52795 23.4628 4.6577 23.2447 4.79864 23.0333C4.94069 22.8219 5.09169 22.6183 5.25276 22.4225C5.41383 22.2257 5.58385 22.0378 5.76393 21.8577C5.9429 21.6787 6.13193 21.5076 6.32767 21.3465C6.52454 21.1854 6.72811 21.0344 6.93951 20.8935C7.15092 20.7526 7.36791 20.6217 7.59274 20.502C7.81644 20.3823 8.04574 20.2738 8.28064 20.1765C8.51553 20.0792 8.75378 19.9931 8.99762 19.9193C9.24034 19.8466 9.48642 19.7839 9.73585 19.7347C9.98528 19.6855 10.2358 19.6475 10.4886 19.6228C10.7414 19.5982 10.9953 19.5859 11.2492 19.5859C11.5031 19.5859 11.757 19.5982 12.0098 19.6228C12.2626 19.6475 12.5132 19.6855 12.7626 19.7347C13.012 19.7839 13.2581 19.8454 13.5008 19.9193C13.7447 19.9931 13.9829 20.0792 14.2178 20.1765C14.4527 20.2738 14.682 20.3823 14.9068 20.502C15.1305 20.6217 15.3475 20.7515 15.5589 20.8935C15.7703 21.0344 15.9739 21.1854 16.1708 21.3465C16.3676 21.5076 16.5556 21.6776 16.7345 21.8577Z" fill="#D9D9D9"/>
<path d="M11.2618 35.3393C11.1432 35.3393 11.0235 35.336 10.9027 35.3315C9.82558 35.2834 8.7887 35.0273 7.8234 34.5675C6.88943 34.1235 6.06171 33.5105 5.36039 32.7455C4.65907 31.9793 4.12105 31.1001 3.76088 30.1326C3.38729 29.1292 3.22175 28.0745 3.26985 26.9973C3.31683 25.919 3.57409 24.8833 4.03381 23.9169C4.47675 22.984 5.0897 22.1552 5.8559 21.4538C6.62098 20.7525 7.50015 20.2145 8.4688 19.8543C9.47101 19.4807 10.5258 19.3163 11.6041 19.3633C12.6812 19.4103 13.7181 19.6675 14.6834 20.1273C15.6174 20.5713 16.4451 21.1843 17.1464 21.9494C17.8477 22.7144 18.3857 23.5936 18.7459 24.5623C19.1195 25.5645 19.2839 26.6192 19.2369 27.6975C19.19 28.7747 18.9327 29.8115 18.473 30.7779C18.0289 31.7108 17.416 32.5396 16.6509 33.2398C15.8858 33.9412 15.0066 34.4792 14.038 34.8393C13.1476 35.1716 12.2148 35.3393 11.2618 35.3393ZM3.73628 27.0174C3.55507 31.1627 6.77869 34.6828 10.924 34.864C11.0358 34.8696 11.1488 34.8718 11.2618 34.8718C13.1465 34.8718 14.9362 34.1772 16.3355 32.8953C17.8175 31.5386 18.6821 29.6851 18.7705 27.6774C18.8589 25.6685 18.1598 23.7468 16.8019 22.2648C15.444 20.7827 13.5906 19.9181 11.5828 19.8297C7.43863 19.6485 3.9186 22.8721 3.73628 27.0174Z" fill="black"/>
<path d="M13.6523 25.8867H15.848V31.3921H13.6523V25.8867Z" fill="#ED1C24"/>
<path d="M15.8474 31.6292H13.6517C13.522 31.6292 13.418 31.5252 13.418 31.3955V25.89C13.418 25.7614 13.522 25.6562 13.6517 25.6562H15.8474C15.9761 25.6562 16.0812 25.7614 16.0812 25.89V31.3955C16.0812 31.5252 15.9761 31.6292 15.8474 31.6292ZM13.8855 31.1617H15.6137V26.1238H13.8855V31.1617Z" fill="black"/>
<path d="M14.7522 32.7843C14.6236 32.7843 14.5195 32.6802 14.5195 32.5505V31.3939C14.5195 31.2653 14.6236 31.1602 14.7522 31.1602C14.8819 31.1602 14.986 31.2653 14.986 31.3939V32.5505C14.986 32.6802 14.8819 32.7843 14.7522 32.7843Z" fill="black"/>
<path d="M14.7522 26.1241C14.6236 26.1241 14.5195 26.019 14.5195 25.8903V24.7338C14.5195 24.6051 14.6236 24.5 14.7522 24.5C14.8819 24.5 14.986 24.6051 14.986 24.7338V25.8903C14.986 26.019 14.8819 26.1241 14.7522 26.1241Z" fill="black"/>
<path d="M10.2305 22.8086H12.4262V31.8866H10.2305V22.8086Z" fill="#D9D9D9"/>
<path d="M12.4295 32.1198H10.2338C10.1051 32.1198 10 32.0147 10 31.886V22.808C10 22.6782 10.1051 22.5742 10.2338 22.5742H12.4295C12.5592 22.5742 12.6632 22.6794 12.6632 22.808V31.886C12.6632 32.0147 12.5592 32.1198 12.4295 32.1198ZM10.4675 31.6522H12.1957V23.0418H10.4675V31.6522Z" fill="black"/>
<path d="M11.3275 33.2753C11.1978 33.2753 11.0938 33.1713 11.0938 33.0416V31.8861C11.0938 31.7564 11.1978 31.6523 11.3275 31.6523C11.4562 31.6523 11.5602 31.7564 11.5602 31.8861V33.0416C11.5602 33.1713 11.4562 33.2753 11.3275 33.2753Z" fill="black"/>
<path d="M11.3275 23.0382C11.1978 23.0382 11.0938 22.933 11.0938 22.8044V21.6478C11.0938 21.5192 11.1978 21.4141 11.3275 21.4141C11.4562 21.4141 11.5602 21.5192 11.5602 21.6478V22.8044C11.5602 22.933 11.4562 23.0382 11.3275 23.0382Z" fill="black"/>
<path d="M6.64844 24.957H8.84412V29.5833H6.64844V24.957Z" fill="#ED1C24"/>
<path d="M8.84352 29.8165H6.64784C6.5192 29.8165 6.41406 29.7124 6.41406 29.5827V24.9564C6.41406 24.8267 6.5192 24.7227 6.64784 24.7227H8.84352C8.97215 24.7227 9.07729 24.8267 9.07729 24.9564V29.5827C9.07729 29.7124 8.97215 29.8165 8.84352 29.8165ZM6.88161 29.3489H8.60975V25.1891H6.88161V29.3489Z" fill="black"/>
<path d="M7.74437 30.9718C7.61574 30.9718 7.51172 30.8666 7.51172 30.738V29.5814C7.51172 29.4528 7.61574 29.3477 7.74437 29.3477C7.87412 29.3477 7.97815 29.4528 7.97815 29.5814V30.738C7.97815 30.8666 7.87412 30.9718 7.74437 30.9718Z" fill="black"/>
<path d="M7.74437 25.1894C7.61574 25.1894 7.51172 25.0854 7.51172 24.9567V23.8002C7.51172 23.6704 7.61574 23.5664 7.74437 23.5664C7.87412 23.5664 7.97815 23.6704 7.97815 23.8002V24.9567C7.97815 25.0854 7.87412 25.1894 7.74437 25.1894Z" fill="black"/>
<mask id="mask0_3476_27339" style="mask-type:luminance" maskUnits="userSpaceOnUse" x="11" y="0" width="25" height="18">
<path d="M11.7344 0.472656H35.7873V17.6355H11.7344V0.472656Z" fill="white"/>
</mask>
<g mask="url(#mask0_3476_27339)">
<path d="M35.7697 17.5242V1.56495C35.7697 1.09069 35.3849 0.707031 34.9095 0.707031H12.7391C12.2637 0.707031 11.8789 1.09069 11.8789 1.56495V16.6674C11.8789 17.1405 12.2637 17.5242 12.7391 17.5242H35.7697Z" fill="#D9D9D9"/>
</g>
<mask id="mask1_3476_27339" style="mask-type:luminance" maskUnits="userSpaceOnUse" x="11" y="0" width="26" height="18">
<path d="M11.4453 0.472656H36.071V17.9218H11.4453V0.472656Z" fill="white"/>
</mask>
<g mask="url(#mask1_3476_27339)">
<path d="M35.7652 17.7574C35.6354 17.7574 35.5314 17.6534 35.5314 17.5236V1.56435C35.5314 1.21984 35.2507 0.940204 34.905 0.940204H12.7346C12.3889 0.940204 12.1082 1.21984 12.1082 1.56435V16.6668C12.1082 17.0102 12.3889 17.2909 12.7346 17.2909H30.0159C30.1457 17.2909 30.2497 17.395 30.2497 17.5236C30.2497 17.6534 30.1457 17.7574 30.0159 17.7574H12.7346C12.1317 17.7574 11.6406 17.2686 11.6406 16.6668V1.56435C11.6406 0.962575 12.1317 0.472656 12.7346 0.472656H34.905C35.5079 0.472656 35.999 0.962575 35.999 1.56435V17.5236C35.999 17.6534 35.8938 17.7574 35.7652 17.7574Z" fill="black"/>
</g>
<path d="M30.2761 15.5109H14.2039C14.0137 15.5109 13.8594 15.3576 13.8594 15.1686V3.06605C13.8594 2.87701 14.0137 2.72266 14.2039 2.72266H33.4371C33.6272 2.72266 33.7816 2.87701 33.7816 3.06605V15.4012L30.2761 15.5109Z" fill="#D9D9D9"/>
<path d="M30.2794 15.744H14.2072C13.8884 15.744 13.6289 15.4857 13.6289 15.168V3.06545C13.6289 2.74778 13.8884 2.48828 14.2072 2.48828H33.4404C33.7592 2.48828 34.0187 2.74778 34.0187 3.06545V15.4006C34.0187 15.5304 33.9135 15.6344 33.7849 15.6344C33.6552 15.6344 33.5511 15.5304 33.5511 15.4006V3.06545C33.5511 3.00504 33.5019 2.95583 33.4404 2.95583H14.2072C14.1457 2.95583 14.0965 3.00504 14.0965 3.06545V15.168C14.0965 15.2284 14.1457 15.2765 14.2072 15.2765H30.2794C30.408 15.2765 30.5132 15.3816 30.5132 15.5103C30.5132 15.64 30.408 15.744 30.2794 15.744Z" fill="black"/>
<path d="M20.8672 17.5234H26.8402V20.9037H20.8672V17.5234Z" fill="#ED1C24"/>
<path d="M26.8396 21.1385H20.8666C20.738 21.1385 20.6328 21.0345 20.6328 20.9058V17.5256C20.6328 17.397 20.738 17.293 20.8666 17.293H26.8396C26.9682 17.293 27.0733 17.397 27.0733 17.5256V20.9058C27.0733 21.0345 26.9682 21.1385 26.8396 21.1385ZM21.1004 20.6721H26.6058V17.7594H21.1004V20.6721Z" fill="black"/>
<path d="M28.4947 21.1383H18.2299C18.1012 21.1383 17.9961 21.0343 17.9961 20.9056C17.9961 20.7759 18.1012 20.6719 18.2299 20.6719H28.4947C28.6233 20.6719 28.7273 20.7759 28.7273 20.9056C28.7273 21.0343 28.6233 21.1383 28.4947 21.1383Z" fill="black"/>
<path d="M31.1192 13.768H15.7416C15.6118 13.768 15.5078 13.6639 15.5078 13.5342V5.59706C15.5078 5.4673 15.6118 5.36328 15.7416 5.36328C15.8702 5.36328 15.9754 5.4673 15.9754 5.59706V13.3004H31.1192C31.2478 13.3004 31.353 13.4055 31.353 13.5342C31.353 13.6639 31.2478 13.768 31.1192 13.768Z" fill="black"/>
<path d="M17.4453 12.1064L20.0772 10.131L21.9821 11.1187L23.8523 5.86719L25.1688 9.61092L27.9047 8.29441L31.0568 9.30892L31.6451 7.32352L17.4453 12.1064Z" fill="#D9D9D9"/>
<path d="M17.4451 12.3395C17.3735 12.3395 17.3041 12.3082 17.2583 12.2467C17.18 12.1438 17.2012 11.9973 17.3041 11.919L19.936 9.94365C20.0088 9.88996 20.1049 9.88213 20.1844 9.92351L21.851 10.7881L23.6317 5.78829C23.6652 5.69545 23.7536 5.63281 23.852 5.63281C23.9516 5.63393 24.04 5.69657 24.0724 5.78941L25.3017 9.28707L27.8027 8.0824C27.8564 8.05668 27.919 8.0522 27.9761 8.07122L30.8999 9.01302L31.4212 7.25581C31.457 7.13277 31.5878 7.0623 31.7109 7.09921C31.835 7.135 31.9055 7.26587 31.8686 7.38891L31.2802 9.37543C31.2623 9.43583 31.2209 9.48616 31.165 9.51525C31.1091 9.54433 31.0442 9.54992 30.9838 9.53091L27.9213 8.54436L25.2692 9.82061C25.2099 9.84969 25.1406 9.85193 25.0791 9.8262C25.0176 9.80159 24.9695 9.75126 24.9482 9.6875L23.8509 6.56679L22.2022 11.1964C22.1787 11.2602 22.1306 11.3116 22.0669 11.3362C22.0042 11.3608 21.9338 11.3564 21.8745 11.3262L20.0994 10.4056L17.5849 12.2937C17.5424 12.325 17.4932 12.3395 17.4451 12.3395Z" fill="black"/>
<path d="M19.1083 12.3393C19.096 12.3393 19.0837 12.3393 19.0714 12.3371C18.9439 12.3169 18.8578 12.1972 18.8779 12.0697L19.8589 5.83054C19.8723 5.74105 19.9361 5.66835 20.0222 5.64262C20.1083 5.6169 20.2023 5.64262 20.2627 5.70974L25.1451 11.0877L31.5364 11.874C31.6639 11.8896 31.7556 12.006 31.7388 12.1346C31.7232 12.2621 31.6068 12.3538 31.4793 12.3382L25.0019 11.5407C24.9471 11.5339 24.8956 11.5071 24.8576 11.4657L20.2448 6.38533L19.3388 12.1424C19.3209 12.2576 19.2213 12.3393 19.1083 12.3393Z" fill="black"/>
<path d="M39.5608 15.0301C39.5608 15.2203 39.5518 15.4104 39.5328 15.6006C39.5138 15.7896 39.4858 15.9775 39.4489 16.1643C39.412 16.3511 39.365 16.5357 39.3102 16.718C39.2554 16.9003 39.1905 17.0793 39.1178 17.2549C39.0451 17.4316 38.9635 17.6027 38.874 17.7716C38.7845 17.9394 38.6861 18.1027 38.5809 18.2604C38.4747 18.4193 38.3617 18.5714 38.2409 18.719C38.1201 18.8667 37.9926 19.0076 37.8584 19.1418C37.723 19.2761 37.5821 19.4047 37.4355 19.5255C37.2879 19.6463 37.1347 19.7593 36.9769 19.8644C36.8181 19.9707 36.6559 20.068 36.487 20.1586C36.3193 20.2481 36.1481 20.3297 35.9714 20.4024C35.7958 20.4751 35.6168 20.5389 35.4345 20.5948C35.2522 20.6496 35.0676 20.6955 34.8808 20.7335C34.694 20.7704 34.5061 20.7984 34.3171 20.8174C34.1269 20.8353 33.9379 20.8454 33.7466 20.8454C33.5565 20.8454 33.3663 20.8353 33.1773 20.8174C32.9871 20.7984 32.7992 20.7704 32.6124 20.7335C32.4256 20.6955 32.2411 20.6496 32.0599 20.5948C31.8775 20.5389 31.6986 20.4751 31.5219 20.4024C31.3462 20.3297 31.174 20.2481 31.0062 20.1586C30.8384 20.068 30.6751 19.9707 30.5174 19.8644C30.3586 19.7593 30.2065 19.6463 30.0588 19.5255C29.9112 19.4047 29.7702 19.2761 29.636 19.1418C29.5018 19.0076 29.3743 18.8667 29.2535 18.719C29.1327 18.5714 29.0186 18.4193 28.9134 18.2604C28.8072 18.1027 28.7099 17.9394 28.6193 17.7716C28.5298 17.6027 28.4492 17.4316 28.3754 17.2549C28.3027 17.0793 28.239 16.9003 28.1841 16.718C28.1282 16.5357 28.0824 16.3511 28.0454 16.1643C28.0074 15.9775 27.9795 15.7896 27.9616 15.6006C27.9425 15.4104 27.9336 15.2203 27.9336 15.0301C27.9336 14.84 27.9425 14.6498 27.9616 14.4597C27.9795 14.2706 28.0074 14.0827 28.0454 13.8959C28.0824 13.7091 28.1282 13.5246 28.1841 13.3422C28.239 13.1599 28.3027 12.981 28.3754 12.8053C28.4492 12.6286 28.5298 12.4575 28.6193 12.2886C28.7099 12.1208 28.8072 11.9575 28.9134 11.7998C29.0186 11.6409 29.1327 11.4888 29.2535 11.3412C29.3743 11.1935 29.5018 11.0526 29.636 10.9184C29.7702 10.7841 29.9112 10.6555 30.0588 10.5347C30.2065 10.4139 30.3586 10.3009 30.5174 10.1947C30.6751 10.0895 30.8384 9.99111 31.0062 9.90162C31.174 9.81214 31.3462 9.73049 31.5219 9.65778C31.6986 9.58508 31.8775 9.52132 32.0599 9.4654C32.2411 9.41059 32.4256 9.36361 32.6124 9.3267C32.7992 9.28979 32.9871 9.26182 33.1773 9.24281C33.3663 9.22491 33.5565 9.21484 33.7466 9.21484C33.9379 9.21484 34.1269 9.22491 34.3171 9.24281C34.5061 9.26182 34.694 9.28979 34.8808 9.3267C35.0676 9.36361 35.2522 9.41059 35.4345 9.4654C35.6168 9.52132 35.7958 9.58508 35.9714 9.65778C36.1481 9.73049 36.3193 9.81214 36.487 9.90162C36.6559 9.99111 36.8181 10.0895 36.9769 10.1947C37.1347 10.3009 37.2879 10.4139 37.4355 10.5347C37.5821 10.6555 37.723 10.7841 37.8584 10.9184C37.9926 11.0526 38.1201 11.1935 38.2409 11.3412C38.3617 11.4888 38.4747 11.6409 38.5809 11.7998C38.6861 11.9575 38.7845 12.1208 38.874 12.2886C38.9635 12.4575 39.0451 12.6286 39.1178 12.8053C39.1905 12.981 39.2554 13.1599 39.3102 13.3422C39.365 13.5246 39.412 13.7091 39.4489 13.8959C39.4858 14.0827 39.5138 14.2706 39.5328 14.4597C39.5518 14.6498 39.5608 14.84 39.5608 15.0301Z" fill="#D9D9D9"/>
<path d="M33.7421 21.0802C32.1269 21.0802 30.608 20.4516 29.466 19.3096C28.3239 18.1664 27.6953 16.6475 27.6953 15.0323C27.6953 13.4171 28.3239 11.8982 29.466 10.755C30.608 9.61299 32.1269 8.98438 33.7421 8.98438C35.3573 8.98438 36.8762 9.61299 38.0183 10.755C39.1603 11.8982 39.79 13.4171 39.79 15.0323C39.79 16.6475 39.1603 18.1664 38.0183 19.3096C36.8762 20.4516 35.3573 21.0802 33.7421 21.0802ZM33.7421 9.4508C30.6661 9.4508 28.1629 11.9552 28.1629 15.0323C28.1629 18.1094 30.6661 20.6138 33.7421 20.6138C36.8192 20.6138 39.3225 18.1094 39.3225 15.0323C39.3225 11.9552 36.8192 9.4508 33.7421 9.4508Z" fill="black"/>
<path d="M33.7441 18.1651H32.3471C32.2184 18.1651 32.1133 18.06 32.1133 17.9313C32.1133 17.8027 32.2184 17.6976 32.3471 17.6976H33.7441C34.3861 17.6976 34.9074 17.1763 34.9074 16.5343C34.9074 15.8923 34.3861 15.371 33.7441 15.371C32.8448 15.371 32.1133 14.6395 32.1133 13.7402C32.1133 12.8409 32.8448 12.1094 33.7441 12.1094H35.1412C35.2709 12.1094 35.3749 12.2145 35.3749 12.3431C35.3749 12.4718 35.2709 12.5769 35.1412 12.5769H33.7441C33.1032 12.5769 32.5808 13.0982 32.5808 13.7402C32.5808 14.3822 33.1032 14.9035 33.7441 14.9035C34.6434 14.9035 35.3749 15.635 35.3749 16.5343C35.3749 17.4336 34.6434 18.1651 33.7441 18.1651Z" fill="black"/>
<path d="M33.7444 19.443C33.6157 19.443 33.5117 19.3379 33.5117 19.2092V17.933C33.5117 17.8032 33.6157 17.6992 33.7444 17.6992C33.8741 17.6992 33.9781 17.8032 33.9781 17.933V19.2092C33.9781 19.3379 33.8741 19.443 33.7444 19.443Z" fill="black"/>
<path d="M33.7444 12.5819C33.6157 12.5819 33.5117 12.4767 33.5117 12.3481V10.8549C33.5117 10.7262 33.6157 10.6211 33.7444 10.6211C33.8741 10.6211 33.9781 10.7262 33.9781 10.8549V12.3481C33.9781 12.4767 33.8741 12.5819 33.7444 12.5819Z" fill="black"/>
<mask id="mask2_3476_27339" style="mask-type:luminance" maskUnits="userSpaceOnUse" x="28" y="22" width="20" height="15">
<path d="M28.918 22.2148H47.5002V36.2457H28.918V22.2148Z" fill="white"/>
</mask>
<g mask="url(#mask2_3476_27339)">
<path d="M29.0977 28.5295V25.0475C29.0977 23.4961 30.4164 22.2266 32.0271 22.2266H44.3355C45.9461 22.2266 47.2638 23.4961 47.2638 25.0475V33.2665C47.2638 34.8168 45.9461 36.0863 44.3355 36.0863H32.5707L29.0977 28.5295Z" fill="#D9D9D9"/>
</g>
<mask id="mask3_3476_27339" style="mask-type:luminance" maskUnits="userSpaceOnUse" x="28" y="21" width="20" height="16">
<path d="M28.6289 21.9297H47.4975V36.5333H28.6289V21.9297Z" fill="white"/>
</mask>
<g mask="url(#mask3_3476_27339)">
<path d="M44.3337 36.3223H32.569C32.4392 36.3223 32.3352 36.2171 32.3352 36.0885C32.3352 35.9599 32.4392 35.8547 32.569 35.8547H44.3337C45.8192 35.8547 47.0283 34.6948 47.0283 33.2687V25.0497C47.0283 23.6236 45.8192 22.4625 44.3337 22.4625H32.0254C30.5388 22.4625 29.3297 23.6236 29.3297 25.0497V28.5317C29.3297 28.6603 29.2257 28.7655 29.0959 28.7655C28.9673 28.7655 28.8633 28.6603 28.8633 28.5317V25.0497C28.8633 23.3652 30.2816 21.9961 32.0254 21.9961H44.3337C46.0775 21.9961 47.4958 23.3652 47.4958 25.0497V33.2687C47.4958 34.9521 46.0775 36.3223 44.3337 36.3223Z" fill="black"/>
</g>
<path d="M40.6953 27.8104C40.6438 27.8104 40.5924 27.7937 40.5499 27.759L37.918 25.6528L34.8823 27.5711C34.8017 27.6214 34.6977 27.618 34.6205 27.5621L31.53 25.325C31.426 25.2501 31.4025 25.1036 31.4774 24.9996C31.5535 24.8944 31.7 24.8709 31.804 24.947L34.767 27.0912L37.8095 25.1696C37.8933 25.1159 38.0018 25.1215 38.0801 25.1841L40.8418 27.3943C40.9425 27.4749 40.9581 27.6225 40.8776 27.7232C40.8317 27.7802 40.7635 27.8104 40.6953 27.8104Z" fill="black"/>
<path d="M44.9647 34.1713H35.3655C35.2368 34.1713 35.1328 34.0662 35.1328 33.9376C35.1328 33.8078 35.2368 33.7038 35.3655 33.7038H44.7321V25.2767C44.7321 25.1481 44.8361 25.043 44.9647 25.043C45.0945 25.043 45.1985 25.1481 45.1985 25.2767V33.9376C45.1985 34.0662 45.0945 34.1713 44.9647 34.1713Z" fill="black"/>
<path d="M44.2183 26.0204C44.1524 26.0204 44.0875 25.9924 44.0416 25.9399C43.9566 25.8425 43.9678 25.6949 44.0651 25.6099L44.8134 24.9589C44.9051 24.8806 45.0405 24.884 45.1277 24.9667L45.8145 25.6166C45.9085 25.7061 45.9129 25.8537 45.8234 25.9477C45.7351 26.0405 45.5874 26.045 45.4935 25.9566L44.9599 25.4511L44.3716 25.9633C44.3268 26.0014 44.272 26.0204 44.2183 26.0204Z" fill="black"/>
<path d="M35.9947 34.9278C35.9276 34.9278 35.8605 34.8987 35.8146 34.8428L35.1871 34.0856C35.1122 33.9961 35.1155 33.8663 35.1927 33.7802L35.8213 33.0845C35.9074 32.9894 36.0551 32.9816 36.1513 33.0677C36.2464 33.1549 36.2542 33.3026 36.1681 33.3977L35.6759 33.9435L36.1748 34.5453C36.2564 34.6448 36.243 34.7913 36.1435 34.8741C36.0998 34.9099 36.0473 34.9278 35.9947 34.9278Z" fill="black"/>
<path d="M37.0469 29.8164H38.4148V33.9371H37.0469V29.8164Z" fill="#ED1C24"/>
<path d="M38.4142 34.1703H37.0463C36.9176 34.1703 36.8125 34.0651 36.8125 33.9365V29.8158C36.8125 29.6861 36.9176 29.582 37.0463 29.582H38.4142C38.5429 29.582 38.648 29.6861 38.648 29.8158V33.9365C38.648 34.0651 38.5429 34.1703 38.4142 34.1703ZM37.28 33.7027H38.1805V30.0496H37.28V33.7027Z" fill="black"/>
<path d="M39.7227 30.6953H41.0906V33.9402H39.7227V30.6953Z" fill="#D9D9D9"/>
<path d="M41.09 34.1734H39.7221C39.5934 34.1734 39.4883 34.0682 39.4883 33.9396V30.6947C39.4883 30.565 39.5934 30.4609 39.7221 30.4609H41.09C41.2187 30.4609 41.3238 30.565 41.3238 30.6947V33.9396C41.3238 34.0682 41.2187 34.1734 41.09 34.1734ZM39.9558 33.7058H40.8562V30.9274H39.9558V33.7058Z" fill="black"/>
<path d="M42.3945 28.4492H43.7614V33.9368H42.3945V28.4492Z" fill="#ED1C24"/>
<path d="M43.7647 34.1699H42.3978C42.2681 34.1699 42.1641 34.0648 42.1641 33.9362V28.4486C42.1641 28.32 42.2681 28.2148 42.3978 28.2148H43.7647C43.8944 28.2148 43.9985 28.32 43.9985 28.4486V33.9362C43.9985 34.0648 43.8944 34.1699 43.7647 34.1699ZM42.6316 33.7024H43.532V28.6824H42.6316V33.7024Z" fill="black"/>
<path d="M32.5424 25.1325C32.5424 25.2488 32.52 25.3607 32.4752 25.4669C32.4305 25.5743 32.3679 25.6694 32.2862 25.7511C32.2034 25.8327 32.1095 25.8965 32.0021 25.9401C31.8947 25.9848 31.7829 26.0072 31.6677 26.0072C31.5513 26.0072 31.4395 25.9848 31.3321 25.9401C31.2258 25.8965 31.1308 25.8327 31.0491 25.7511C30.9663 25.6694 30.9037 25.5743 30.859 25.4669C30.8153 25.3607 30.793 25.2488 30.793 25.1325C30.793 25.0162 30.8153 24.9054 30.859 24.7981C30.9037 24.6907 30.9663 24.5967 31.0491 24.514C31.1308 24.4323 31.2258 24.3685 31.3321 24.3249C31.4395 24.2802 31.5513 24.2578 31.6677 24.2578C31.7829 24.2578 31.8947 24.2802 32.0021 24.3249C32.1095 24.3685 32.2034 24.4323 32.2862 24.514C32.3679 24.5967 32.4305 24.6907 32.4752 24.7981C32.52 24.9054 32.5424 25.0162 32.5424 25.1325Z" fill="#D9D9D9"/>
<path d="M31.6671 26.2443C31.0552 26.2443 30.5586 25.7465 30.5586 25.1358C30.5586 24.5251 31.0552 24.0273 31.6671 24.0273C32.2778 24.0273 32.7744 24.5251 32.7744 25.1358C32.7744 25.7465 32.2778 26.2443 31.6671 26.2443ZM31.6671 24.4949C31.3136 24.4949 31.0261 24.7824 31.0261 25.1358C31.0261 25.4893 31.3136 25.7767 31.6671 25.7767C32.0205 25.7767 32.308 25.4893 32.308 25.1358C32.308 24.7824 32.0205 24.4949 31.6671 24.4949Z" fill="black"/>
<path d="M35.6322 27.3747C35.6322 27.491 35.6098 27.6029 35.5651 27.7091C35.5215 27.8165 35.4577 27.9116 35.3761 27.9932C35.2933 28.0749 35.1993 28.1387 35.0919 28.1834C34.9846 28.227 34.8738 28.2494 34.7575 28.2494C34.6412 28.2494 34.5293 28.227 34.4231 28.1834C34.3157 28.1387 34.2206 28.0749 34.139 27.9932C34.0573 27.9116 33.9935 27.8165 33.9488 27.7091C33.9052 27.6029 33.8828 27.491 33.8828 27.3747C33.8828 27.2595 33.9052 27.1476 33.9488 27.0403C33.9935 26.9329 34.0573 26.8389 34.139 26.7561C34.2206 26.6745 34.3157 26.6107 34.4231 26.5671C34.5293 26.5224 34.6412 26.5 34.7575 26.5C34.8738 26.5 34.9846 26.5224 35.0919 26.5671C35.1993 26.6107 35.2933 26.6745 35.3761 26.7561C35.4577 26.8389 35.5215 26.9329 35.5651 27.0403C35.6098 27.1476 35.6322 27.2595 35.6322 27.3747Z" fill="#D9D9D9"/>
<path d="M34.7569 28.4826C34.1451 28.4826 33.6484 27.9859 33.6484 27.3741C33.6484 26.7634 34.1451 26.2656 34.7569 26.2656C35.3676 26.2656 35.8654 26.7634 35.8654 27.3741C35.8654 27.9859 35.3676 28.4826 34.7569 28.4826ZM34.7569 26.7332C34.4034 26.7332 34.116 27.0206 34.116 27.3741C34.116 27.7276 34.4034 28.015 34.7569 28.015C35.1104 28.015 35.3978 27.7276 35.3978 27.3741C35.3978 27.0206 35.1104 26.7332 34.7569 26.7332Z" fill="black"/>
<path d="M38.808 25.3669C38.808 25.4832 38.7856 25.5951 38.742 25.7013C38.6972 25.8087 38.6346 25.9038 38.5518 25.9854C38.4702 26.0671 38.3751 26.1308 38.2688 26.1756C38.1615 26.2192 38.0496 26.2416 37.9333 26.2416C37.8181 26.2416 37.7062 26.2192 37.5988 26.1756C37.4915 26.1308 37.3975 26.0671 37.3147 25.9854C37.2331 25.9038 37.1704 25.8087 37.1257 25.7013C37.081 25.5951 37.0586 25.4832 37.0586 25.3669C37.0586 25.2506 37.081 25.1398 37.1257 25.0324C37.1704 24.9251 37.2331 24.8311 37.3147 24.7483C37.3975 24.6667 37.4915 24.6029 37.5988 24.5593C37.7062 24.5146 37.8181 24.4922 37.9333 24.4922C38.0496 24.4922 38.1615 24.5146 38.2688 24.5593C38.3751 24.6029 38.4702 24.6667 38.5518 24.7483C38.6346 24.8311 38.6972 24.9251 38.742 25.0324C38.7856 25.1398 38.808 25.2506 38.808 25.3669Z" fill="#ED1C24"/>
<path d="M37.9316 26.4708C37.3208 26.4708 36.8242 25.9731 36.8242 25.3624C36.8242 24.7517 37.3208 24.2539 37.9316 24.2539C38.5434 24.2539 39.04 24.7517 39.04 25.3624C39.04 25.9731 38.5434 26.4708 37.9316 26.4708ZM37.9316 24.7215C37.5781 24.7215 37.2906 25.0089 37.2906 25.3624C37.2906 25.7158 37.5781 26.0033 37.9316 26.0033C38.285 26.0033 38.5725 25.7158 38.5725 25.3624C38.5725 25.0089 38.285 24.7215 37.9316 24.7215Z" fill="black"/>
<path d="M41.5697 27.5739C41.5697 27.6902 41.5473 27.8021 41.5037 27.9084C41.459 28.0157 41.3952 28.1108 41.3136 28.1925C41.2319 28.2741 41.1368 28.3379 41.0294 28.3826C40.9232 28.4262 40.8113 28.4486 40.695 28.4486C40.5798 28.4486 40.4679 28.4262 40.3606 28.3826C40.2532 28.3379 40.1592 28.2741 40.0765 28.1925C39.9948 28.1108 39.9322 28.0157 39.8874 27.9084C39.8427 27.8021 39.8203 27.6902 39.8203 27.5739C39.8203 27.4576 39.8427 27.3469 39.8874 27.2395C39.9322 27.1321 39.9948 27.0381 40.0765 26.9554C40.1592 26.8737 40.2532 26.81 40.3606 26.7663C40.4679 26.7216 40.5798 26.6992 40.695 26.6992C40.8113 26.6992 40.9232 26.7216 41.0294 26.7663C41.1368 26.81 41.2319 26.8737 41.3136 26.9554C41.3952 27.0381 41.459 27.1321 41.5037 27.2395C41.5473 27.3469 41.5697 27.4576 41.5697 27.5739Z" fill="#D9D9D9"/>
<path d="M40.6944 28.6818C40.0837 28.6818 39.5859 28.184 39.5859 27.5733C39.5859 26.9626 40.0837 26.4648 40.6944 26.4648C41.3062 26.4648 41.8029 26.9626 41.8029 27.5733C41.8029 28.184 41.3062 28.6818 40.6944 28.6818ZM40.6944 26.9324C40.3409 26.9324 40.0535 27.2199 40.0535 27.5733C40.0535 27.9268 40.3409 28.2142 40.6944 28.2142C41.0479 28.2142 41.3353 27.9268 41.3353 27.5733C41.3353 27.2199 41.0479 26.9324 40.6944 26.9324Z" fill="black"/>
<path d="M37.0585 40.4292V39.9907C37.0585 39.7256 37.2509 39.5008 37.5104 39.465L39.5729 39.1798C39.687 39.1675 39.7877 39.1138 39.8626 39.0355L41.3145 37.7145C41.6724 37.389 41.3514 37.0333 41.3514 37.0333C41.3514 37.0333 41.0494 36.6597 40.7407 36.9405L40.008 37.6083L39.8447 37.757C39.7553 37.8376 39.6412 37.8856 39.5215 37.8912L35.8337 38.078C35.7912 38.0803 35.7498 38.087 35.7095 38.0993C35.5809 38.1407 35.3292 38.2626 35.148 38.6216C35.11 38.6966 35.0898 38.7805 35.0898 38.8655V40.4292H37.0585Z" fill="#D9D9D9"/>
<path d="M37.0579 40.6652C36.9281 40.6652 36.8241 40.5612 36.8241 40.4326V39.9941C36.8241 39.6138 37.1048 39.2883 37.4773 39.2368L39.5399 38.9516C39.5421 38.9516 39.5444 38.9516 39.5466 38.9516C39.6171 38.9438 39.6652 38.9069 39.6931 38.8778C39.6965 38.8744 39.701 38.87 39.7054 38.8666L41.1573 37.5445C41.3128 37.4024 41.2367 37.2626 41.1763 37.1922C41.1718 37.1877 41.173 37.1888 41.1685 37.1832C41.1416 37.1508 41.06 37.0781 40.9918 37.0736C40.9806 37.0725 40.9492 37.0702 40.8978 37.1161L40.0007 37.9326C39.8721 38.0501 39.7054 38.1194 39.5332 38.1284L35.8443 38.3152C35.8196 38.3163 35.7984 38.3196 35.7794 38.3252C35.6821 38.3566 35.4975 38.4505 35.3555 38.7302C35.3342 38.7727 35.323 38.8196 35.323 38.8688V40.4326C35.323 40.5612 35.219 40.6652 35.0892 40.6652C34.9606 40.6652 34.8555 40.5612 34.8555 40.4326V38.8688C34.8555 38.7469 34.8846 38.6261 34.9382 38.5187C35.1575 38.087 35.4707 37.9338 35.6373 37.8801C35.6944 37.8622 35.757 37.851 35.8208 37.8476L39.5097 37.6619C39.5746 37.6586 39.6372 37.6317 39.6864 37.587L40.5835 36.7705C40.749 36.6206 40.9168 36.5982 41.0287 36.6072C41.2993 36.6273 41.4906 36.8398 41.5275 36.8834C41.7177 37.0982 41.8575 37.5389 41.4716 37.8901L40.0253 39.2066C39.9112 39.323 39.7614 39.3968 39.6014 39.4158L37.5411 39.6999C37.399 39.7201 37.2905 39.8464 37.2905 39.9941V40.4326C37.2916 40.5612 37.1865 40.6652 37.0579 40.6652Z" fill="black"/>
<mask id="mask4_3476_27339" style="mask-type:luminance" maskUnits="userSpaceOnUse" x="24" y="38" width="12" height="8">
<path d="M24.0508 38.25H35.5046V45.3314H24.0508V38.25Z" fill="white"/>
</mask>
<g mask="url(#mask4_3476_27339)">
<path d="M31.2943 38.3828C33.2182 38.3828 34.8356 39.7351 35.2103 41.5214C35.2103 41.5214 35.5515 43.084 35.3915 43.9028L32.9073 45.1578H25.7475C24.8281 45.1578 24.082 44.4005 24.082 43.4666V42.31C24.082 40.1501 25.8806 38.3828 28.0786 38.3828H31.2943Z" fill="#D9D9D9"/>
</g>
<mask id="mask5_3476_27339" style="mask-type:luminance" maskUnits="userSpaceOnUse" x="23" y="37" width="13" height="9">
<path d="M23.7656 37.9648H35.7921V45.3326H23.7656V37.9648Z" fill="white"/>
</mask>
<g mask="url(#mask5_3476_27339)">
<path d="M32.9067 45.391H25.7469C24.7 45.391 23.8477 44.5274 23.8477 43.466V42.3094C23.8477 41.202 24.2895 40.1573 25.0915 39.3688C25.8923 38.5813 26.9538 38.1484 28.078 38.1484C28.2077 38.1484 28.3117 38.2525 28.3117 38.3822C28.3117 38.5108 28.2077 38.616 28.078 38.616C26.0031 38.616 24.3152 40.2725 24.3152 42.3094V43.466C24.3152 44.2691 24.9572 44.9234 25.7469 44.9234H32.8507L35.1784 43.7467C35.2813 42.9593 34.9849 41.5846 34.9816 41.57C34.6225 39.8576 33.0722 38.616 31.2937 38.616C31.1651 38.616 31.06 38.5108 31.06 38.3822C31.06 38.2525 31.1651 38.1484 31.2937 38.1484C33.2914 38.1484 35.0341 39.5466 35.439 41.4727C35.4525 41.5365 35.788 43.0901 35.6202 43.9469C35.6057 44.0174 35.5598 44.0778 35.4961 44.1102L33.0118 45.3652C32.9794 45.382 32.9436 45.391 32.9067 45.391Z" fill="black"/>
</g>
<path d="M31.2939 37.7734V38.4938C31.2939 39.1034 30.5702 39.6011 29.6866 39.6011C28.8018 39.6011 28.0781 39.1034 28.0781 38.4938V37.7734H31.2939Z" fill="#D9D9D9"/>
<path d="M29.6849 39.8343C29.2106 39.8343 28.7598 39.7045 28.4164 39.4674C28.0473 39.2135 27.8438 38.8668 27.8438 38.4932V37.7728C27.8438 37.6442 27.9478 37.5391 28.0764 37.5391C28.2062 37.5391 28.3102 37.6442 28.3102 37.7728V38.4932C28.3102 38.9674 28.9399 39.3667 29.6849 39.3667C30.4298 39.3667 31.0584 38.9674 31.0584 38.4932V37.7728C31.0584 37.6442 31.1636 37.5391 31.2922 37.5391C31.4219 37.5391 31.526 37.6442 31.526 37.7728V38.4932C31.526 38.8668 31.3224 39.2135 30.9533 39.4674C30.6099 39.7045 30.1591 39.8343 29.6849 39.8343Z" fill="black"/>
<mask id="mask6_3476_27339" style="mask-type:luminance" maskUnits="userSpaceOnUse" x="31" y="40" width="7" height="6">
<path d="M31.2109 40.2578H37.7969V45.3348H31.2109V40.2578Z" fill="white"/>
</mask>
<g mask="url(#mask6_3476_27339)">
<path d="M31.375 45.16H35.4621C36.2429 45.16 36.9308 44.7148 37.3077 44.0526C37.3077 44.0526 37.5225 43.5325 37.5896 43.1925C37.6567 42.8524 37.5896 40.4297 37.5896 40.4297H34.8L31.375 45.16Z" fill="#D9D9D9"/>
</g>
<mask id="mask7_3476_27339" style="mask-type:luminance" maskUnits="userSpaceOnUse" x="30" y="39" width="9" height="7">
<path d="M30.9258 39.9727H38.0844V45.336H30.9258V39.9727Z" fill="white"/>
</mask>
<g mask="url(#mask7_3476_27339)">
<path d="M35.4654 45.3931H31.3783C31.2486 45.3931 31.1445 45.288 31.1445 45.1594C31.1445 45.0296 31.2486 44.9256 31.3783 44.9256H35.4654C36.1265 44.9256 36.7517 44.552 37.1007 43.9491C37.1332 43.8675 37.3077 43.4301 37.3636 43.1471C37.405 42.9357 37.3882 41.5968 37.3658 40.6617H34.8033C34.6746 40.6617 34.5695 40.5577 34.5695 40.4291C34.5695 40.2993 34.6746 40.1953 34.8033 40.1953H37.5929C37.7193 40.1953 37.8233 40.296 37.8267 40.4224C37.8378 40.8318 37.8904 42.8899 37.8222 43.2366C37.7517 43.5957 37.5358 44.1191 37.5269 44.1415C37.5224 44.1505 37.5191 44.1594 37.5135 44.1672C37.084 44.9234 36.2987 45.3931 35.4654 45.3931Z" fill="black"/>
</g>
<path d="M35.3935 44.1387C35.3789 44.1387 35.3633 44.1376 35.3476 44.1354C35.2212 44.1097 35.1384 43.9877 35.1642 43.8602C35.3129 43.0996 34.9874 41.5896 34.9841 41.5739C34.625 39.8615 33.0747 38.6199 31.2963 38.6199C31.1676 38.6199 31.0625 38.5147 31.0625 38.3861C31.0625 38.2564 31.1676 38.1523 31.2963 38.1523C33.294 38.1523 35.0367 39.5505 35.4416 41.4766C35.455 41.5404 35.7894 43.094 35.6228 43.9508C35.6004 44.0616 35.5031 44.1387 35.3935 44.1387Z" fill="black"/>
<path d="M33.6191 30.9512V33.1704L25.918 33.1458V30.9434C25.918 30.0631 26.4202 29.4591 27.0723 29.2555H27.0734C26.9515 29.0441 26.881 28.798 26.881 28.5352H31.2019C32.5363 28.5352 33.6191 29.6168 33.6191 30.9512Z" fill="#D9D9D9"/>
<path d="M33.6185 33.4035L25.9174 33.3789C25.7876 33.3789 25.6836 33.2738 25.6836 33.1452V30.9428C25.6836 30.4763 25.8145 30.0491 26.0605 29.7079C26.2429 29.4573 26.4789 29.2605 26.7552 29.1285C26.6836 28.9406 26.6467 28.7392 26.6467 28.5346C26.6467 28.4059 26.7518 28.3008 26.8804 28.3008H31.2013C32.6633 28.3008 33.8523 29.4898 33.8523 30.9506V33.1698C33.8523 33.2324 33.8276 33.2917 33.784 33.3353C33.7404 33.3789 33.6811 33.4035 33.6185 33.4035ZM26.1511 32.9125L33.3847 32.936V30.9506C33.3847 29.747 32.406 28.7683 31.2013 28.7683H27.1366C27.1623 28.8981 27.2093 29.0234 27.2753 29.1374C27.3178 29.2102 27.3178 29.2996 27.2753 29.3712C27.244 29.4271 27.1903 29.4663 27.1299 29.482C26.5259 29.6766 26.1511 30.2347 26.1511 30.9428V32.9125Z" fill="black"/>
<path d="M26.8308 32.7326V32.4083C26.8308 31.0649 27.9203 29.9766 29.2636 29.9766H30.2658C31.6092 29.9766 32.6986 31.0649 32.6986 32.4083V32.7338C33.3653 32.7438 33.9033 33.2863 33.9033 33.9552C33.9033 34.6252 33.3653 35.1677 32.6986 35.1766V35.2773C32.6986 36.7448 31.5085 37.9349 30.041 37.9349H29.4896C28.0209 37.9349 26.8308 36.7448 26.8308 35.2773V35.1778C26.1563 35.1778 25.6094 34.6308 25.6094 33.9552C25.6094 33.2807 26.1563 32.7326 26.8308 32.7326Z" fill="#D9D9D9"/>
<path d="M30.0443 38.167H29.4918C27.937 38.167 26.6652 36.9332 26.6037 35.393C25.9102 35.2812 25.3789 34.6794 25.3789 33.9546C25.3789 33.232 25.9091 32.6302 26.6015 32.5173V32.4077C26.6015 30.9379 27.7972 29.7422 29.2669 29.7422H30.2691C31.7389 29.7422 32.9346 30.9379 32.9346 32.4077V32.5206C33.2321 32.5721 33.5051 32.7141 33.7209 32.9322C33.9916 33.2063 34.1404 33.5698 34.1404 33.9546C34.1404 34.3405 33.9916 34.7029 33.7209 34.9769C33.5039 35.1962 33.231 35.3382 32.9335 35.3897C32.8731 36.931 31.6002 38.167 30.0443 38.167ZM29.2669 30.2097C28.0544 30.2097 27.0679 31.1963 27.0679 32.4077V32.732C27.0679 32.8618 26.9639 32.9658 26.8341 32.9658C26.2894 32.9658 25.8453 33.4099 25.8453 33.9546C25.8453 34.5004 26.2894 34.9434 26.8341 34.9434C26.9639 34.9434 27.0679 35.0485 27.0679 35.1771V35.2756C27.0679 36.6122 28.1551 37.7006 29.4918 37.7006H30.0443C31.381 37.7006 32.4682 36.6122 32.4682 35.2756V35.176C32.4682 35.0485 32.57 34.9445 32.6986 34.9434C33.2355 34.9355 33.6728 34.4926 33.6728 33.9546C33.6728 33.4177 33.2355 32.9748 32.6986 32.9669C32.57 32.9658 32.4682 32.8607 32.4682 32.7332V32.4077C32.4682 31.1963 31.4816 30.2097 30.2691 30.2097H29.2669Z" fill="black"/>
</svg>
