<svg width="48" height="44" viewBox="0 0 48 44" fill="none" xmlns="http://www.w3.org/2000/svg">
<mask id="mask0_3476_27196" style="mask-type:luminance" maskUnits="userSpaceOnUse" x="6" y="32" width="15" height="12">
<path d="M6.1875 32.4766H20.4423V43.6421H6.1875V32.4766Z" fill="white"/>
</mask>
<g mask="url(#mask0_3476_27196)">
<path d="M19.9372 43.6698C19.9183 43.6698 19.8983 43.6675 19.8793 43.662C19.0675 43.447 18.2612 43.1831 17.4794 42.8757C17.3625 42.8289 17.3046 42.6964 17.3513 42.5795C17.397 42.4626 17.5295 42.4046 17.6465 42.4514C18.4115 42.7521 19.2022 43.0105 19.9963 43.221C20.1177 43.2533 20.19 43.378 20.1578 43.5005C20.131 43.6018 20.0386 43.6698 19.9372 43.6698ZM15.2944 41.8434C15.2588 41.8434 15.222 41.8344 15.1875 41.8166C14.448 41.4213 13.723 40.9792 13.0326 40.5014C12.929 40.429 12.9034 40.2876 12.9747 40.184C13.0459 40.0804 13.1885 40.0548 13.292 40.1261C13.968 40.5938 14.6786 41.0282 15.4024 41.4146C15.5127 41.4736 15.555 41.6117 15.496 41.7231C15.4548 41.7999 15.3757 41.8434 15.2944 41.8434ZM11.1928 39.0046C11.1393 39.0046 11.0859 38.9857 11.0425 38.9478C10.4121 38.3944 9.8063 37.7997 9.24279 37.1771C9.15815 37.0847 9.16483 36.9399 9.25838 36.8553C9.35193 36.7706 9.49559 36.7784 9.58023 36.8709C10.1326 37.48 10.7251 38.0636 11.3431 38.6048C11.4378 38.6884 11.4467 38.832 11.3643 38.9267C11.3186 38.9779 11.2563 39.0046 11.1928 39.0046ZM7.84181 35.3084C7.77165 35.3084 7.70149 35.2761 7.65694 35.2138C7.16804 34.5311 6.71256 33.8139 6.30607 33.0811C6.24482 32.9708 6.28491 32.8316 6.39405 32.7704C6.5043 32.7102 6.64351 32.7492 6.70476 32.8595C7.10345 33.5767 7.5478 34.2794 8.02779 34.9476C8.10017 35.05 8.07679 35.1926 7.97545 35.2661C7.93424 35.295 7.88858 35.3084 7.84181 35.3084Z" fill="black"/>
</g>
<mask id="mask1_3476_27196" style="mask-type:luminance" maskUnits="userSpaceOnUse" x="44" y="14" width="4" height="18">
<path d="M44.9648 14.2305H47.5006V31.9065H44.9648V14.2305Z" fill="white"/>
</mask>
<g mask="url(#mask1_3476_27196)">
<path d="M45.2437 31.8109C45.2114 31.8109 45.178 31.8042 45.1479 31.7897C45.0332 31.7363 44.9842 31.6015 45.0366 31.4868C45.3829 30.7418 45.6892 29.9678 45.9475 29.1882C45.9865 29.0691 46.1157 29.0045 46.2349 29.0435C46.3551 29.0836 46.4197 29.2127 46.3807 29.3319C46.1168 30.1282 45.8039 30.9178 45.4497 31.6795C45.4119 31.7619 45.3295 31.8109 45.2437 31.8109ZM46.8095 27.0745C46.7939 27.0745 46.7794 27.0734 46.7638 27.0701C46.6402 27.0444 46.5612 26.9242 46.5857 26.8006C46.7516 25.9976 46.873 25.1746 46.9454 24.355C46.9565 24.2291 47.0668 24.1367 47.1926 24.1478C47.3173 24.159 47.4109 24.2692 47.3997 24.3951C47.3251 25.2314 47.2015 26.0722 47.0322 26.893C47.01 26.9999 46.9153 27.0745 46.8095 27.0745ZM47.2505 22.1054C47.128 22.1054 47.0267 22.0063 47.0233 21.8826C47.0022 21.0596 46.9342 20.23 46.8206 19.4192C46.8028 19.2945 46.8897 19.1787 47.0144 19.162C47.1391 19.1442 47.255 19.231 47.2717 19.3558C47.3886 20.1843 47.4577 21.0307 47.4788 21.8715C47.4822 21.9973 47.383 22.102 47.2572 22.1054C47.255 22.1054 47.2527 22.1054 47.2505 22.1054ZM46.5567 17.1652C46.4554 17.1652 46.3629 17.0973 46.3362 16.9948C46.1291 16.1996 45.8729 15.4078 45.5756 14.6427C45.5299 14.5258 45.5878 14.3933 45.7059 14.3476C45.8228 14.302 45.9553 14.3599 46.001 14.4779C46.305 15.2597 46.5667 16.0682 46.7772 16.8801C46.8095 17.0015 46.736 17.1262 46.6146 17.1574C46.5957 17.163 46.5756 17.1652 46.5567 17.1652Z" fill="black"/>
</g>
<mask id="mask2_3476_27196" style="mask-type:luminance" maskUnits="userSpaceOnUse" x="13" y="0" width="18" height="5">
<path d="M13.0352 0.472656H30.426V4.82261H13.0352V0.472656Z" fill="white"/>
</mask>
<g mask="url(#mask2_3476_27196)">
<path d="M13.3765 4.63662C13.303 4.63662 13.2317 4.6021 13.1872 4.5364C13.117 4.43171 13.1449 4.29028 13.2484 4.22012C13.9445 3.75015 14.675 3.31583 15.419 2.92939C15.5303 2.87148 15.6684 2.91491 15.7263 3.02627C15.7842 3.13875 15.7408 3.27573 15.6283 3.33364C14.9 3.71229 14.185 4.13771 13.5046 4.59765C13.4645 4.62437 13.4211 4.63662 13.3765 4.63662ZM17.8033 2.33803C17.712 2.33803 17.6251 2.28235 17.5906 2.19103C17.5449 2.07298 17.6051 1.94157 17.722 1.89703C18.506 1.59856 19.3168 1.34354 20.1297 1.13751C20.2522 1.10633 20.3759 1.18094 20.407 1.30233C20.4382 1.42483 20.3636 1.54845 20.2422 1.57963C19.4448 1.7812 18.6519 2.03066 17.8846 2.32356C17.8579 2.33358 17.83 2.33803 17.8033 2.33803ZM30.097 1.4059C30.0814 1.4059 30.0647 1.40479 30.0491 1.40145C29.2473 1.22994 28.4254 1.10299 27.6057 1.02392C27.4799 1.01167 27.3886 0.900301 27.4008 0.775571C27.412 0.649728 27.5244 0.558408 27.6492 0.570658C28.4855 0.650842 29.3252 0.780026 30.1449 0.95487C30.2674 0.981598 30.3464 1.10299 30.3197 1.22549C30.2963 1.3324 30.2017 1.4059 30.097 1.4059ZM22.6388 1.11524C22.5263 1.11524 22.4283 1.03171 22.4127 0.917006C22.3972 0.792276 22.484 0.677569 22.6087 0.660865C23.4384 0.551726 24.2848 0.488247 25.1267 0.472656C25.1278 0.472656 25.129 0.472656 25.1312 0.472656C25.2548 0.472656 25.3561 0.571772 25.3584 0.696502C25.3606 0.822345 25.2604 0.925915 25.1345 0.928142C24.3104 0.943734 23.4807 1.0061 22.6689 1.11301C22.6589 1.11524 22.6488 1.11524 22.6388 1.11524Z" fill="black"/>
</g>
<path d="M41.4805 22.4303C41.4805 22.9526 41.4549 23.4738 41.4037 23.9938C41.3524 24.5139 41.2756 25.0307 41.1731 25.5429C41.0718 26.0563 40.9448 26.5619 40.7934 27.062C40.6419 27.562 40.466 28.0542 40.2655 28.5365C40.0651 29.0198 39.8423 29.4909 39.5962 29.9519C39.3501 30.413 39.0817 30.8607 38.791 31.295C38.5004 31.7304 38.1897 32.1492 37.8578 32.5534C37.527 32.9577 37.1762 33.3441 36.8065 33.7139C36.4368 34.0836 36.0503 34.4333 35.6461 34.7651C35.2418 35.097 34.8231 35.4077 34.3887 35.6984C33.9544 35.9879 33.5067 36.2563 33.0457 36.5036C32.5846 36.7497 32.1124 36.9724 31.6302 37.1729C31.1469 37.3722 30.6558 37.5482 30.1557 37.6996C29.6557 37.8522 29.149 37.9792 28.6367 38.0805C28.1233 38.183 27.6077 38.2587 27.0876 38.3099C26.5675 38.3612 26.0463 38.3868 25.5229 38.3868C25.0006 38.3868 24.4794 38.3612 23.9593 38.3099C23.4392 38.2587 22.9225 38.183 22.4102 38.0805C21.8979 37.9792 21.3912 37.8522 20.8912 37.6996C20.3912 37.5482 19.9 37.3722 19.4167 37.1729C18.9334 36.9724 18.4623 36.7497 18.0013 36.5036C17.5402 36.2563 17.0925 35.9879 16.6582 35.6984C16.2239 35.4077 15.804 35.097 15.3997 34.7651C14.9966 34.4333 14.6091 34.0836 14.2393 33.7139C13.8707 33.3441 13.5199 32.9577 13.188 32.5534C12.8562 32.1492 12.5454 31.7304 12.2559 31.295C11.9652 30.8607 11.6968 30.413 11.4507 29.9519C11.2035 29.4909 10.9808 29.0198 10.7803 28.5365C10.5809 28.0542 10.405 27.562 10.2535 27.062C10.101 26.5619 9.97512 26.0563 9.87266 25.5429C9.77132 25.0307 9.69448 24.5139 9.64325 23.9938C9.59202 23.4738 9.56641 22.9526 9.56641 22.4303C9.56641 21.908 9.59202 21.3868 9.64325 20.8656C9.69448 20.3455 9.77132 19.8299 9.87266 19.3176C9.97512 18.8042 10.101 18.2986 10.2535 17.7986C10.405 17.2985 10.5809 16.8063 10.7803 16.3241C10.9808 15.8408 11.2035 15.3686 11.4507 14.9086C11.6968 14.4476 11.9652 13.9999 12.2559 13.5644C12.5454 13.1301 12.8562 12.7114 13.188 12.3071C13.5199 11.9029 13.8707 11.5164 14.2393 11.1467C14.6091 10.7769 14.9966 10.4273 15.3997 10.0954C15.804 9.76352 16.2239 9.45281 16.6582 9.16214C17.0925 8.87148 17.5402 8.6042 18.0013 8.35697C18.4623 8.11085 18.9334 7.88812 19.4167 7.68766C19.9 7.48831 20.3912 7.31235 20.8912 7.15978C21.3912 7.00833 21.8979 6.88137 22.4102 6.78003C22.9225 6.67757 23.4392 6.60073 23.9593 6.5495C24.4794 6.49827 25.0006 6.47266 25.5229 6.47266C26.0463 6.47266 26.5675 6.49827 27.0876 6.5495C27.6077 6.60073 28.1233 6.67757 28.6367 6.78003C29.149 6.88137 29.6557 7.00833 30.1557 7.15978C30.6558 7.31235 31.1469 7.48831 31.6302 7.68766C32.1124 7.88812 32.5846 8.11085 33.0457 8.35697C33.5067 8.6042 33.9544 8.87148 34.3887 9.16214C34.8231 9.45281 35.2418 9.76352 35.6461 10.0954C36.0503 10.4273 36.4368 10.7769 36.8065 11.1467C37.1762 11.5164 37.527 11.9029 37.8578 12.3071C38.1897 12.7114 38.5004 13.1301 38.791 13.5644C39.0817 13.9999 39.3501 14.4476 39.5962 14.9086C39.8423 15.3686 40.0651 15.8408 40.2655 16.3241C40.466 16.8063 40.6419 17.2985 40.7934 17.7986C40.9448 18.2986 41.0718 18.8042 41.1731 19.3176C41.2756 19.8299 41.3524 20.3455 41.4037 20.8656C41.4549 21.3868 41.4805 21.908 41.4805 22.4303Z" fill="black"/>
<path d="M0.726562 25.5066H1.91038V25.5746C2.22109 24.3083 3.39823 23.3762 4.76469 23.4141C5.03531 23.4219 5.97189 23.4787 6.19797 23.5054L13.6472 24.3952C14.6707 24.5177 15.4836 25.4521 15.4547 26.4711C15.4491 26.519 15.4391 26.5646 15.4302 26.6114L16.7432 25.7305L19.9427 23.5845C21.288 22.6813 22.2669 24.2538 22.2669 24.2538C22.2669 24.2538 23.3283 25.7728 21.7703 26.8174L15.4346 31.0671C15.1039 31.3255 14.684 31.4759 14.2319 31.4625H3.21225L0.726562 25.5066Z" fill="#D9D9D9"/>
<path d="M14.2849 31.6897C14.267 31.6897 14.2492 31.6897 14.2314 31.6886H3.21399C3.08814 31.6886 2.9868 31.5861 2.9868 31.4603C2.9868 31.3344 3.08814 31.2331 3.21399 31.2331H14.2336C14.2359 31.2331 14.2381 31.2331 14.2403 31.2331C14.6201 31.2431 14.9954 31.1195 15.2972 30.8856C15.3005 30.8823 15.305 30.8789 15.3094 30.8756L21.645 26.6259C22.0537 26.3519 22.2976 26.0189 22.37 25.6381C22.4936 24.9888 22.086 24.3885 22.0816 24.3818C22.0794 24.3796 22.0771 24.3752 22.076 24.3729C22.0716 24.3663 21.6395 23.6892 21.0036 23.5533C20.6973 23.4887 20.3833 23.5622 20.0714 23.7716L15.5589 26.7985C15.482 26.8508 15.3818 26.8508 15.305 26.7985C15.2281 26.7473 15.1903 26.6548 15.2081 26.5646C15.2159 26.5268 15.2237 26.4878 15.2281 26.451C15.2482 25.549 14.5299 24.7282 13.6222 24.6202L6.17186 23.7292C5.96138 23.7047 5.0415 23.6479 4.75974 23.6402C3.52804 23.6056 2.4244 24.4409 2.13374 25.6269C2.10701 25.7383 2.0001 25.8129 1.88539 25.7984C1.83194 25.7929 1.78516 25.7684 1.74952 25.7316H0.7283C0.602457 25.7316 0.5 25.6303 0.5 25.5044C0.5 25.3786 0.602457 25.2761 0.7283 25.2761H1.76177C2.18497 24.0132 3.41333 23.1457 4.77199 23.1836C5.0415 23.1913 5.98588 23.2481 6.22643 23.2771L13.6768 24.1669C14.7136 24.2916 15.5544 25.1614 15.6714 26.1737L19.8175 23.3929C20.2374 23.1112 20.6695 23.0154 21.1016 23.1089C21.9045 23.2804 22.4112 24.05 22.4591 24.1268C22.5092 24.1992 22.9714 24.9053 22.8188 25.7182C22.7242 26.2261 22.4146 26.6593 21.8989 27.0045L15.57 31.2498C15.2025 31.5349 14.7481 31.6897 14.2849 31.6897Z" fill="black"/>
<path d="M13.5734 28.3288C13.4888 28.3288 13.4031 28.3243 13.3173 28.3143L8.47846 27.7352C8.35262 27.7207 8.26352 27.6071 8.27911 27.4824C8.29359 27.3565 8.40719 27.2674 8.53191 27.283L13.3719 27.861C13.4387 27.8688 13.5066 27.8733 13.5723 27.8733C14.3953 27.8733 15.107 27.2697 15.2072 26.45C15.2584 26.0302 15.1404 25.6114 14.8742 25.2729C14.6002 24.9232 14.2071 24.7027 13.765 24.6492C13.6392 24.6348 13.5501 24.5212 13.5657 24.3964C13.5801 24.2706 13.6937 24.1815 13.8185 24.1971C14.382 24.2639 14.8842 24.5457 15.2328 24.9911C15.5747 25.4254 15.7261 25.9645 15.6604 26.5057C15.5313 27.5559 14.6214 28.3288 13.5734 28.3288Z" fill="black"/>
<path d="M1.8654 27.0899C1.75627 27.0899 1.66049 27.0108 1.64156 26.8994C1.41214 25.5408 2.15495 24.5006 2.18725 24.4572C2.26075 24.3558 2.4033 24.3324 2.50576 24.4071C2.6071 24.4806 2.62937 24.6231 2.55587 24.7256C2.54919 24.7345 1.89436 25.6599 2.09148 26.8237C2.11152 26.9484 2.028 27.0665 1.90438 27.0865C1.89102 27.0888 1.87877 27.0899 1.8654 27.0899Z" fill="black"/>
<path d="M11.5448 28.0703C11.5426 28.0703 11.5403 28.0703 11.5381 28.0703C11.4123 28.0658 11.3131 27.9611 11.3165 27.8353L11.3365 27.1248C11.3365 27.1181 11.3376 27.1114 11.3376 27.1047C11.4234 26.3452 12.1172 25.795 12.8834 25.8797L13.7521 25.9755C13.8768 25.9899 13.967 26.1024 13.9536 26.2271C13.9403 26.353 13.8278 26.4432 13.7019 26.4287L12.8333 26.3329C12.3188 26.2762 11.8544 26.6414 11.792 27.147L11.772 27.8486C11.7686 27.9723 11.6673 28.0703 11.5448 28.0703Z" fill="black"/>
<path d="M20.6812 27.7132C20.6244 27.7132 20.5676 27.6931 20.5241 27.6508L20.0497 27.1964C20.0453 27.192 20.0408 27.1875 20.0375 27.1831C19.8081 26.9247 19.6945 26.5917 19.7179 26.2465C19.7412 25.9012 19.8972 25.5861 20.1589 25.3589L20.7625 24.8366C20.8571 24.7542 21.0019 24.7653 21.0843 24.86C21.1667 24.9546 21.1556 25.0994 21.0609 25.1818L20.4584 25.7041C20.2892 25.85 20.1878 26.0538 20.1733 26.2765C20.1577 26.4971 20.229 26.7086 20.3727 26.8746L20.8393 27.3212C20.9306 27.408 20.9329 27.5528 20.846 27.643C20.8014 27.6898 20.7413 27.7132 20.6812 27.7132Z" fill="black"/>
<path d="M17.0404 20.3607L17.7932 21.1447C18.0104 21.3707 18.3701 21.3741 18.5917 21.1514L19.8123 19.9286C20.0305 19.7114 20.0305 19.3584 19.8134 19.1401L19.0149 18.3371C19.4949 17.6122 19.8357 16.8281 20.0205 15.9016C20.0205 15.9016 20.7277 15.9016 21.2533 15.9016C21.5618 15.9016 21.8124 15.651 21.8124 15.3425V13.6798C21.8124 13.3713 21.5618 13.1208 21.2533 13.1208H20.0339C19.8546 12.1942 19.5082 11.3868 19.0294 10.6551L19.8067 9.87111C20.0228 9.65283 20.0228 9.30092 19.8056 9.08264L18.5872 7.86207C18.3645 7.63823 18.0003 7.64379 17.7843 7.87321L17.0883 8.61156C16.3555 8.12712 15.3242 7.77186 14.7061 7.58811V6.57468C14.7061 6.2662 14.4567 6.01562 14.1471 6.01562H12.177C11.8674 6.01562 11.618 6.2662 11.618 6.57468V7.58811C10.6903 7.77186 9.9486 8.12378 9.21581 8.60934L8.47523 7.85205C8.25695 7.62932 7.89947 7.6282 7.68008 7.84982L6.46396 9.07262C6.24791 9.28978 6.2468 9.6417 6.46285 9.85997L7.24686 10.6551C6.7691 11.3868 6.42832 12.1942 6.25014 13.1208H5.07189C4.76229 13.1208 4.51172 13.3713 4.51172 13.6798V15.3425C4.51172 15.651 4.76229 15.9016 5.07189 15.9016H6.26239C6.44726 16.8281 6.79695 17.6122 7.27693 18.3371L6.47844 19.1401C6.26128 19.3584 6.26128 19.7114 6.47955 19.9286L7.70012 21.1514C7.92174 21.3741 8.28145 21.3707 8.49862 21.1447L9.25145 20.3607C9.97533 20.834 10.6903 21.1803 11.618 21.3607V22.4477C11.618 22.7561 11.8674 23.0067 12.177 23.0067H14.1471C14.4567 23.0067 14.7061 22.7561 14.7061 22.4477V21.3607C15.3242 21.1803 16.3287 20.8362 17.0515 20.3629L17.0404 20.3607Z" fill="#ED1C24"/>
<path d="M14.1477 23.2367H12.1777C11.7433 23.2367 11.3903 22.8837 11.3903 22.4494V21.5473C10.6575 21.3836 10.0105 21.1097 9.28771 20.6553L8.66406 21.3034C8.51594 21.4582 8.31771 21.544 8.10389 21.5462C7.89118 21.5484 7.68961 21.466 7.53927 21.3146L6.3187 20.0918C6.01355 19.7855 6.01244 19.2877 6.31758 18.9803L6.98578 18.3077C6.55145 17.6183 6.2541 16.9023 6.07815 16.1316H5.07251C4.63819 16.1305 4.28516 15.7775 4.28516 15.3443V13.6816C4.28516 13.2483 4.63819 12.8942 5.07251 12.8942H6.06478C6.23851 12.1013 6.53141 11.3763 6.95794 10.688L6.30088 10.0221C5.99908 9.71582 6.00019 9.21913 6.30311 8.91399L7.51922 7.69008C7.66845 7.53973 7.8678 7.45732 8.07939 7.45844C8.2921 7.45955 8.49033 7.54307 8.63845 7.69453L9.24873 8.31818C9.96815 7.86158 10.6408 7.57426 11.3903 7.40498V6.57642C11.3903 6.14209 11.7433 5.78906 12.1777 5.78906H14.1477C14.582 5.78906 14.9351 6.14209 14.9351 6.57642V7.42057C15.493 7.5943 16.3617 7.90279 17.0521 8.32041L17.619 7.71903C17.766 7.56201 17.9664 7.47403 18.1814 7.4718C18.3952 7.46846 18.5979 7.55087 18.7494 7.70233L19.9666 8.92401C20.2717 9.22915 20.2728 9.72696 19.9688 10.0332L19.3207 10.688C19.7516 11.383 20.0479 12.108 20.2194 12.8942H21.254C21.6872 12.8942 22.0402 13.2483 22.0402 13.6816V15.3443C22.0402 15.7775 21.6872 16.1305 21.254 16.1305C20.8943 16.1316 20.451 16.1316 20.206 16.1316C20.0301 16.9123 19.7338 17.6273 19.3073 18.3077L19.9755 18.9803C20.2806 19.2877 20.2806 19.7855 19.9744 20.0918L18.7538 21.3146C18.6046 21.4638 18.4075 21.5462 18.197 21.5462C18.1947 21.5462 18.1914 21.5462 18.1892 21.5462C17.9754 21.544 17.7771 21.4582 17.629 21.3046L17.0098 20.6597C16.3271 21.0685 15.4796 21.3647 14.9351 21.5317V22.4494C14.9351 22.8837 14.582 23.2367 14.1477 23.2367ZM9.25207 20.1341C9.2955 20.1341 9.33894 20.1463 9.3768 20.172C10.1742 20.6932 10.858 20.9816 11.662 21.1386C11.7689 21.1598 11.8458 21.2533 11.8458 21.3625V22.4494C11.8458 22.632 11.995 22.7801 12.1777 22.7801H14.1477C14.3304 22.7801 14.4796 22.632 14.4796 22.4494V21.3625C14.4796 21.2611 14.5464 21.172 14.6433 21.1431C15.1701 20.9894 16.149 20.6664 16.8717 20.2087C16.8751 20.2054 16.8795 20.202 16.8829 20.1987C16.9363 20.1463 17.0087 20.1263 17.0777 20.1374C17.1423 20.1452 17.2047 20.1798 17.2437 20.2399C17.2459 20.2443 17.2493 20.2488 17.2515 20.2533L17.9575 20.9883C18.0199 21.0529 18.1034 21.0885 18.1936 21.0896C18.2827 21.0896 18.3674 21.0562 18.4308 20.9927L19.6525 19.7699C19.7806 19.6407 19.7806 19.4314 19.6525 19.3022L18.854 18.4992C18.7783 18.4224 18.7661 18.3032 18.8262 18.213C19.3095 17.4825 19.628 16.7129 19.7984 15.8588C19.8196 15.7519 19.9131 15.675 20.0211 15.675C20.0211 15.675 20.7283 15.675 21.254 15.675C21.4366 15.675 21.5847 15.5269 21.5847 15.3443V13.6816C21.5847 13.4989 21.4366 13.3508 21.254 13.3508H20.0345C19.9254 13.3508 19.8307 13.2728 19.8107 13.1659C19.6447 12.3073 19.3273 11.5277 18.8396 10.7816C18.7805 10.6914 18.7928 10.5733 18.8685 10.4965L19.6447 9.71248C19.7728 9.5833 19.7728 9.37393 19.6447 9.24586L18.4264 8.02417C18.3629 7.9607 18.2783 7.92617 18.187 7.92729C18.0967 7.9284 18.0132 7.96515 17.9509 8.03086L17.2548 8.77033C17.178 8.85051 17.0555 8.86499 16.963 8.80374C16.2336 8.32041 15.1957 7.97295 14.6422 7.80813C14.5453 7.77917 14.4796 7.69119 14.4796 7.58985V6.57642C14.4796 6.39378 14.3304 6.24566 14.1477 6.24566H12.1777C11.995 6.24566 11.8458 6.39378 11.8458 6.57642V7.58985C11.8458 7.69899 11.7689 7.79253 11.662 7.81369C10.8446 7.97517 10.1285 8.28032 9.34228 8.80039C9.25096 8.86165 9.12957 8.84828 9.05384 8.77033L8.31326 8.01415C8.25089 7.94956 8.16737 7.91504 8.07828 7.91392C8.07716 7.91392 8.07716 7.91392 8.07716 7.91392C7.98807 7.91392 7.90455 7.94845 7.84218 8.01192L6.62607 9.23583C6.49911 9.36391 6.49911 9.57216 6.62607 9.70134L7.41008 10.4965C7.48581 10.5733 7.49806 10.6914 7.43904 10.7816C6.95682 11.5188 6.64166 12.2984 6.47461 13.1659C6.45345 13.2728 6.3599 13.3508 6.25076 13.3508H5.07251C4.88987 13.3508 4.74064 13.4989 4.74064 13.6816V15.3443C4.74064 15.5269 4.88987 15.675 5.07251 15.675H6.26301C6.37215 15.675 6.4657 15.7519 6.48686 15.8588C6.65502 16.7007 6.97575 17.4702 7.46688 18.213C7.52702 18.3032 7.51477 18.4224 7.43904 18.4992L6.64054 19.3022C6.51247 19.4314 6.51247 19.6407 6.64166 19.7699L7.86223 20.9927C7.92571 21.0562 8.00923 21.0907 8.09944 21.0896C8.18964 21.0885 8.27317 21.0529 8.33553 20.9883L9.08836 20.2043C9.13291 20.1586 9.19193 20.1341 9.25207 20.1341Z" fill="black"/>
<path d="M17.8752 14.5093C17.8752 14.6641 17.8674 14.8178 17.8519 14.9715C17.8374 15.1252 17.814 15.2766 17.7839 15.4281C17.7539 15.5796 17.7171 15.7288 17.6726 15.8769C17.6269 16.0239 17.5757 16.1698 17.5166 16.3112C17.4576 16.4538 17.3919 16.593 17.3184 16.73C17.246 16.8658 17.167 16.9972 17.0812 17.1253C16.9955 17.2545 16.9041 17.3781 16.8061 17.4973C16.7081 17.6164 16.6046 17.73 16.4954 17.8392C16.3863 17.9483 16.2727 18.0519 16.1535 18.1499C16.0344 18.2479 15.9107 18.3392 15.7827 18.425C15.6535 18.5107 15.5221 18.5898 15.3862 18.6622C15.2492 18.7357 15.11 18.8014 14.9686 18.8604C14.826 18.9194 14.6802 18.9706 14.5332 19.0152C14.385 19.0609 14.2358 19.0976 14.0843 19.1277C13.934 19.1577 13.7814 19.1811 13.6277 19.1956C13.4741 19.2112 13.3204 19.219 13.1667 19.219C13.0119 19.219 12.8582 19.2112 12.7045 19.1956C12.5508 19.1811 12.3983 19.1577 12.2479 19.1277C12.0965 19.0976 11.9472 19.0609 11.7991 19.0152C11.6521 18.9706 11.5062 18.9194 11.3648 18.8604C11.2222 18.8014 11.083 18.7357 10.9461 18.6622C10.8102 18.5898 10.6788 18.5107 10.5507 18.425C10.4215 18.3392 10.2979 18.2479 10.1787 18.1499C10.0596 18.0519 9.94599 17.9483 9.83685 17.8392C9.72772 17.73 9.62415 17.6164 9.52614 17.4973C9.42814 17.3781 9.33682 17.2545 9.25107 17.1253C9.16532 16.9972 9.08625 16.8658 9.01386 16.73C8.94036 16.593 8.87465 16.4538 8.81563 16.3112C8.75661 16.1698 8.70538 16.0239 8.66083 15.8769C8.61517 15.7288 8.57842 15.5796 8.54835 15.4281C8.51828 15.2766 8.4949 15.1252 8.48042 14.9715C8.46483 14.8178 8.45703 14.6641 8.45703 14.5093C8.45703 14.3556 8.46483 14.202 8.48042 14.0483C8.4949 13.8946 8.51828 13.742 8.54835 13.5917C8.57842 13.4402 8.61517 13.291 8.66083 13.1429C8.70538 12.9959 8.75661 12.85 8.81563 12.7074C8.87465 12.566 8.94036 12.4257 9.01386 12.2898C9.08625 12.1539 9.16532 12.0225 9.25107 11.8933C9.33682 11.7653 9.42814 11.6417 9.52614 11.5225C9.62415 11.4033 9.72772 11.2897 9.83685 11.1806C9.94599 11.0715 10.0596 10.9679 10.1787 10.8699C10.2979 10.7719 10.4215 10.6806 10.5507 10.5948C10.6788 10.5091 10.8102 10.43 10.9461 10.3576C11.083 10.2841 11.2222 10.2184 11.3648 10.1594C11.5062 10.1004 11.6521 10.0491 11.7991 10.0035C11.9472 9.95892 12.0965 9.92217 12.2479 9.8921C12.3983 9.86203 12.5508 9.83865 12.7045 9.82417C12.8582 9.80858 13.0119 9.80078 13.1667 9.80078C13.3204 9.80078 13.4741 9.80858 13.6277 9.82417C13.7814 9.83865 13.934 9.86203 14.0843 9.8921C14.2358 9.92217 14.385 9.95892 14.5332 10.0035C14.6802 10.0491 14.826 10.1004 14.9686 10.1594C15.11 10.2184 15.2503 10.2841 15.3862 10.3576C15.5221 10.43 15.6535 10.5091 15.7827 10.5948C15.9107 10.6806 16.0344 10.7719 16.1535 10.8699C16.2727 10.9679 16.3863 11.0715 16.4954 11.1806C16.6046 11.2897 16.7081 11.4033 16.8061 11.5225C16.9041 11.6417 16.9955 11.7653 17.0812 11.8933C17.167 12.0225 17.246 12.1539 17.3184 12.2898C17.3919 12.4257 17.4576 12.566 17.5166 12.7074C17.5757 12.85 17.6269 12.9959 17.6726 13.1429C17.7171 13.291 17.7539 13.4402 17.7839 13.5917C17.814 13.742 17.8374 13.8946 17.8519 14.0483C17.8674 14.202 17.8752 14.3556 17.8752 14.5093Z" fill="#D9D9D9"/>
<path d="M13.1634 19.4507C11.8437 19.4507 10.6042 18.9373 9.67209 18.0052C8.73996 17.073 8.22656 15.8335 8.22656 14.5139C8.22656 13.1953 8.73996 11.9558 9.67209 11.0237C10.6042 10.0915 11.8437 9.57812 13.1634 9.57812C14.482 9.57812 15.7215 10.0915 16.6536 11.0237C17.5857 11.9558 18.0991 13.1953 18.0991 14.5139C18.0991 15.8335 17.5857 17.073 16.6536 18.0052C15.7215 18.9373 14.482 19.4507 13.1634 19.4507ZM13.1634 10.0336C10.6922 10.0336 8.68205 12.0438 8.68205 14.5139C8.68205 16.9851 10.6922 18.9952 13.1634 18.9952C15.6335 18.9952 17.6437 16.9851 17.6437 14.5139C17.6437 12.0438 15.6335 10.0336 13.1634 10.0336Z" fill="black"/>
<path d="M18.0072 11.0675C17.6308 10.6911 17.0205 10.6911 16.6441 11.0675L13.0102 14.7013L11.8943 13.5866C11.5179 13.2101 10.9087 13.2101 10.5323 13.5866C10.1559 13.9619 10.1559 14.5722 10.5323 14.9486L12.2473 16.6636C12.4556 16.8719 12.7374 16.9609 13.0102 16.9376C13.283 16.9609 13.5637 16.8719 13.7731 16.6636L18.0072 12.4295C18.3825 12.0531 18.3825 11.4439 18.0072 11.0675Z" fill="#D9D9D9"/>
<path d="M12.9293 17.1662C12.6141 17.1662 12.3123 17.0437 12.0907 16.821L10.3756 15.107C9.91124 14.6415 9.91124 13.8865 10.3756 13.4221C10.6006 13.1971 10.9002 13.0735 11.2176 13.0735C11.5361 13.0735 11.8356 13.1971 12.0606 13.4221L13.015 14.3765L16.4885 10.903C16.9529 10.4386 17.708 10.4386 18.1724 10.903C18.6368 11.3674 18.6368 12.1236 18.1724 12.5879L13.9382 16.821C13.6966 17.0637 13.3614 17.1874 13.015 17.1629C12.9861 17.1651 12.9582 17.1662 12.9293 17.1662ZM13.015 16.7063C13.0206 16.7063 13.0273 16.7063 13.0339 16.7074C13.2533 16.7263 13.4649 16.6506 13.6164 16.4991L17.8505 12.265C18.1367 11.9788 18.1367 11.5122 17.8505 11.2248C17.5632 10.9386 17.0977 10.9386 16.8104 11.2248L13.1754 14.8598C13.0863 14.9489 12.9426 14.9489 12.8535 14.8598L11.7376 13.745C11.5984 13.6058 11.4147 13.529 11.2176 13.529C11.0216 13.529 10.8367 13.6058 10.6986 13.745C10.4113 14.0313 10.4113 14.4979 10.6986 14.7841L12.4136 16.4991C12.564 16.6506 12.7767 16.7263 12.995 16.7074C13.0016 16.7063 13.0083 16.7063 13.015 16.7063Z" fill="black"/>
<path d="M32.2754 7.1747C31.0704 7.1747 30.0938 6.19802 30.0938 4.99416C30.0938 3.78918 31.0704 2.8125 32.2754 2.8125C33.4804 2.8125 34.4571 3.78918 34.4571 4.99416C34.4571 6.19802 33.4804 7.1747 32.2754 7.1747Z" fill="#D9D9D9"/>
<path d="M32.2732 7.40474C30.9446 7.40474 29.8633 6.32449 29.8633 4.99589C29.8633 3.6673 30.9446 2.58594 32.2732 2.58594C33.6018 2.58594 34.6821 3.6673 34.6821 4.99589C34.6821 6.32449 33.6018 7.40474 32.2732 7.40474ZM32.2732 3.04254C31.1963 3.04254 30.3199 3.91787 30.3199 4.99589C30.3199 6.0728 31.1963 6.94925 32.2732 6.94925C33.3501 6.94925 34.2266 6.0728 34.2266 4.99589C34.2266 3.91787 33.3501 3.04254 32.2732 3.04254Z" fill="black"/>
<path d="M34.457 21.6985V8.44706C34.457 7.74434 35.0261 7.17415 35.7288 7.17415H38.6377L41.178 4.70071C41.5343 4.34434 42.1045 4.32763 42.4809 4.66173C42.8897 5.02478 42.9075 5.65734 42.521 6.04378L38.8192 9.53733V21.6985H34.457Z" fill="#D9D9D9"/>
<path d="M38.8171 21.9262C38.6912 21.9262 38.5899 21.8249 38.5899 21.6991V9.5379C38.5899 9.47554 38.6155 9.4154 38.6611 9.37308L42.3596 5.88065C42.501 5.73921 42.5745 5.551 42.569 5.35166C42.5634 5.15009 42.4777 4.96633 42.3273 4.83269C42.0422 4.57989 41.6068 4.59214 41.3373 4.86165C41.3362 4.86276 41.3362 4.86388 41.335 4.86388L38.7948 7.33842C38.7525 7.37963 38.6957 7.40302 38.6355 7.40302H35.7267C35.1509 7.40302 34.682 7.87187 34.682 8.44763V21.6991C34.682 21.8249 34.5807 21.9262 34.4549 21.9262C34.329 21.9262 34.2266 21.8249 34.2266 21.6991V8.44763C34.2266 7.62018 34.8992 6.94753 35.7267 6.94753H38.5431L41.0165 4.53869C41.4564 4.09991 42.1647 4.07875 42.6302 4.49191C42.8752 4.71019 43.0156 5.00977 43.0245 5.33829C43.0345 5.66571 42.912 5.97308 42.6803 6.20472C42.6792 6.20695 42.677 6.20806 42.6759 6.21029L39.0454 9.63702V21.6991C39.0454 21.8249 38.9429 21.9262 38.8171 21.9262Z" fill="black"/>
<path d="M34.8189 21.7006V9.72213C34.8189 9.01941 34.2499 8.44922 33.5471 8.44922H30.8198C30.1171 8.44922 29.5469 9.01941 29.5469 9.72213V21.6995L34.8189 21.7006Z" fill="#D9D9D9"/>
<path d="M34.8196 21.9257H29.5475C29.4217 21.9257 29.3203 21.8232 29.3203 21.6974V9.71996C29.3203 8.89251 29.993 8.21875 30.8204 8.21875H33.5478C34.3752 8.21875 35.0479 8.89251 35.0479 9.71996V21.6985C35.0479 21.7586 35.0234 21.8165 34.981 21.8588C34.9387 21.9023 34.8797 21.9257 34.8196 21.9257ZM29.7758 21.4702H34.5913V9.71996C34.5913 9.1442 34.1235 8.67535 33.5478 8.67535H30.8204C30.2446 8.67535 29.7758 9.1442 29.7758 9.71996V21.4702Z" fill="black"/>
<path d="M30.6362 21.6973V10.9905C30.6362 10.2878 30.066 9.71875 29.3633 9.71875H26.2729C25.5702 9.71875 25 10.2878 25 10.9905V16.4441C25 16.9464 25.4076 17.354 25.9099 17.354V21.6973H30.6362Z" fill="#D9D9D9"/>
<path d="M30.6408 21.9262C30.5149 21.9262 30.4125 21.8248 30.4125 21.699V10.9923C30.4125 10.4165 29.9436 9.94767 29.3678 9.94767H26.2774C25.7017 9.94767 25.2328 10.4165 25.2328 10.9923V16.4459C25.2328 16.8223 25.5391 17.1274 25.9144 17.1274C26.0402 17.1274 26.1416 17.2299 26.1416 17.3557V21.699C26.1416 21.8248 26.0402 21.9262 25.9144 21.9262C25.7885 21.9262 25.6861 21.8248 25.6861 21.699V17.5606C25.1682 17.4548 24.7773 16.9949 24.7773 16.4459V10.9923C24.7773 10.1648 25.45 9.49219 26.2774 9.49219H29.3678C30.1953 9.49219 30.8691 10.1648 30.8691 10.9923V21.699C30.8691 21.8248 30.7666 21.9262 30.6408 21.9262Z" fill="black"/>
<path d="M44.6335 21.9281H24.8572C24.7302 21.9281 24.6289 21.8267 24.6289 21.7009C24.6289 21.5751 24.7302 21.4726 24.8572 21.4726H44.4052V0.814237C44.4052 0.688394 44.5077 0.585938 44.6335 0.585938C44.7594 0.585938 44.8618 0.688394 44.8618 0.814237V21.7009C44.8618 21.8267 44.7594 21.9281 44.6335 21.9281Z" fill="black"/>
<path d="M45.9101 2.86003C45.8377 2.86003 45.7675 2.82662 45.723 2.76314L44.6372 1.21181L43.5513 2.76314C43.4789 2.86671 43.3364 2.89121 43.2339 2.81882C43.1304 2.74643 43.1059 2.605 43.1783 2.50143L44.4501 0.683939C44.4924 0.622688 44.5625 0.585938 44.6372 0.585938C44.7118 0.585938 44.7808 0.622688 44.8242 0.683939L46.096 2.50143C46.1684 2.605 46.1439 2.74643 46.0404 2.81882C46.0003 2.84666 45.9546 2.86003 45.9101 2.86003Z" fill="black"/>
<path d="M29.9102 15.5352H34.6365V21.697H29.9102V15.5352Z" fill="#ED1C24"/>
<path d="M34.6383 21.9287H29.9119C29.7861 21.9287 29.6836 21.8274 29.6836 21.7016V15.5397C29.6836 15.4138 29.7861 15.3125 29.9119 15.3125H34.6383C34.7641 15.3125 34.8666 15.4138 34.8666 15.5397V21.7016C34.8666 21.8274 34.7641 21.9287 34.6383 21.9287ZM30.1402 21.4733H34.41V15.768H30.1402V21.4733Z" fill="black"/>
<path d="M34.6367 13.3555H39.9088V21.699H34.6367V13.3555Z" fill="#D9D9D9"/>
<path d="M39.9066 21.9229H34.6345C34.5087 21.9229 34.4062 21.8216 34.4062 21.6957V13.3522C34.4062 13.2263 34.5087 13.125 34.6345 13.125H39.9066C40.0325 13.125 40.1349 13.2263 40.1349 13.3522V21.6957C40.1349 21.8216 40.0325 21.9229 39.9066 21.9229ZM34.8628 21.4674H39.6783V13.5805H34.8628V21.4674Z" fill="black"/>
<path d="M39.9102 10.8086H44.6365V21.6968H39.9102V10.8086Z" fill="#ED1C24"/>
<path d="M44.6344 21.9258H39.908C39.7821 21.9258 39.6797 21.8244 39.6797 21.6986V10.8103C39.6797 10.6845 39.7821 10.582 39.908 10.582H44.6344C44.7602 10.582 44.8627 10.6845 44.8627 10.8103V21.6986C44.8627 21.8244 44.7602 21.9258 44.6344 21.9258ZM40.1363 21.4703H44.4061V11.0386H40.1363V21.4703Z" fill="black"/>
<path d="M29.9141 6.26759C29.9141 6.41126 29.8996 6.55269 29.8718 6.69301C29.8439 6.83445 29.8027 6.97031 29.7482 7.10284C29.6936 7.23536 29.6257 7.36121 29.5466 7.48037C29.4664 7.59842 29.3762 7.70867 29.2749 7.81001C29.1735 7.91135 29.0633 8.00267 28.9441 8.08174C28.8249 8.16081 28.6991 8.22875 28.5677 8.28332C28.4352 8.33789 28.2982 8.37909 28.1579 8.40693C28.0175 8.43589 27.8761 8.44925 27.7324 8.44925C27.5888 8.44925 27.4473 8.43589 27.307 8.40693C27.1667 8.37909 27.0297 8.33789 26.8972 8.28332C26.7658 8.22875 26.6399 8.16081 26.5208 8.08174C26.4016 8.00267 26.2914 7.91135 26.19 7.81001C26.0887 7.70867 25.9985 7.59842 25.9183 7.48037C25.8392 7.36121 25.7724 7.23536 25.7167 7.10284C25.6621 6.97031 25.6209 6.83445 25.5931 6.69301C25.5653 6.55269 25.5508 6.41126 25.5508 6.26759C25.5508 6.12505 25.5653 5.9825 25.5931 5.84218C25.6209 5.70186 25.6621 5.56488 25.7167 5.43346C25.7724 5.30094 25.8392 5.1751 25.9183 5.05593C25.9985 4.93677 26.0887 4.82652 26.19 4.72518C26.2914 4.62383 26.4016 4.53363 26.5208 4.45456C26.6399 4.37438 26.7658 4.30756 26.8972 4.25299C27.0297 4.1973 27.1667 4.1561 27.307 4.12826C27.4473 4.10041 27.5888 4.08594 27.7324 4.08594C27.8761 4.08594 28.0175 4.10041 28.1579 4.12826C28.2982 4.1561 28.4352 4.1973 28.5677 4.25299C28.6991 4.30756 28.8249 4.37438 28.9441 4.45456C29.0633 4.53363 29.1735 4.62383 29.2749 4.72518C29.3762 4.82652 29.4664 4.93677 29.5466 5.05593C29.6257 5.1751 29.6936 5.30094 29.7482 5.43346C29.8027 5.56488 29.8439 5.70186 29.8718 5.84218C29.8996 5.9825 29.9141 6.12505 29.9141 6.26759Z" fill="#D9D9D9"/>
<path d="M27.7303 8.67427C26.4017 8.67427 25.3203 7.59291 25.3203 6.26431C25.3203 4.93572 26.4017 3.85547 27.7303 3.85547C29.0589 3.85547 30.1402 4.93572 30.1402 6.26431C30.1402 7.59291 29.0589 8.67427 27.7303 8.67427ZM27.7303 4.31095C26.6534 4.31095 25.7769 5.1874 25.7769 6.26431C25.7769 7.34122 26.6534 8.21767 27.7303 8.21767C28.8072 8.21767 29.6836 7.34122 29.6836 6.26431C29.6836 5.1874 28.8072 4.31095 27.7303 4.31095Z" fill="black"/>
<path d="M25.9141 17.3555C26.4152 17.3555 26.8228 16.9479 26.8228 16.4456V12.9922L25.9141 17.3555Z" fill="#D9D9D9"/>
<path d="M25.9119 17.5805C25.7861 17.5805 25.6836 17.4792 25.6836 17.3533C25.6836 17.2275 25.7861 17.125 25.9119 17.125C26.2872 17.125 26.5923 16.8199 26.5923 16.4435V12.99C26.5923 12.8642 26.6948 12.7617 26.8206 12.7617C26.9465 12.7617 27.0489 12.8642 27.0489 12.99V16.4435C27.0489 17.0705 26.5389 17.5805 25.9119 17.5805Z" fill="black"/>
<path d="M39 3.90431C39 4.04798 38.9856 4.18941 38.9577 4.32973C38.9299 4.47005 38.8887 4.60703 38.8341 4.73956C38.7784 4.87208 38.7116 4.99793 38.6314 5.11597C38.5523 5.23514 38.4621 5.34539 38.3608 5.44673C38.2594 5.54807 38.1492 5.63828 38.03 5.71846C37.9109 5.79753 37.785 5.86547 37.6525 5.92003C37.5211 5.9746 37.3841 6.01581 37.2438 6.04365C37.1035 6.07149 36.9609 6.08597 36.8184 6.08597C36.6747 6.08597 36.5333 6.07149 36.393 6.04365C36.2515 6.01581 36.1157 5.9746 35.9831 5.92003C35.8506 5.86547 35.7248 5.79753 35.6067 5.71846C35.4876 5.63828 35.3773 5.54807 35.276 5.44673C35.1746 5.34539 35.0844 5.23514 35.0042 5.11597C34.9252 4.99793 34.8572 4.87208 34.8027 4.73956C34.7481 4.60703 34.7069 4.47005 34.679 4.32973C34.6501 4.18941 34.6367 4.04798 34.6367 3.90431C34.6367 3.76176 34.6501 3.61922 34.679 3.4789C34.7069 3.33857 34.7481 3.20159 34.8027 3.07018C34.8572 2.93766 34.9252 2.81181 35.0042 2.69265C35.0844 2.57349 35.1746 2.46324 35.276 2.3619C35.3773 2.26055 35.4876 2.17035 35.6067 2.09016C35.7248 2.01109 35.8506 1.94427 35.9831 1.88859C36.1157 1.83402 36.2515 1.79282 36.393 1.76498C36.5333 1.73713 36.6747 1.72266 36.8184 1.72266C36.9609 1.72266 37.1035 1.73713 37.2438 1.76498C37.3841 1.79282 37.5211 1.83402 37.6525 1.88859C37.785 1.94427 37.9109 2.01109 38.03 2.09016C38.1492 2.17035 38.2594 2.26055 38.3608 2.3619C38.4621 2.46324 38.5523 2.57349 38.6314 2.69265C38.7116 2.81181 38.7784 2.93766 38.8341 3.07018C38.8887 3.20159 38.9299 3.33857 38.9577 3.4789C38.9856 3.61922 39 3.76176 39 3.90431Z" fill="#D9D9D9"/>
<path d="M36.8162 6.31489C35.4876 6.31489 34.4062 5.23353 34.4062 3.90494C34.4062 2.57634 35.4876 1.49609 36.8162 1.49609C38.1448 1.49609 39.225 2.57634 39.225 3.90494C39.225 5.23353 38.1448 6.31489 36.8162 6.31489ZM36.8162 1.95158C35.7393 1.95158 34.8628 2.82803 34.8628 3.90494C34.8628 4.98184 35.7393 5.85829 36.8162 5.85829C37.8931 5.85829 38.7696 4.98184 38.7696 3.90494C38.7696 2.82803 37.8931 1.95158 36.8162 1.95158Z" fill="black"/>
<path d="M46.0864 38.7127C46.0864 38.696 46.0875 38.6782 46.0875 38.6604C46.0875 38.6526 46.0875 38.6448 46.0875 38.637C46.0875 38.5869 46.0864 38.5379 46.0853 38.4878C46.0842 38.4221 46.0842 38.3564 46.0819 38.2918C46.0819 38.2662 46.0797 38.2405 46.0797 38.2149C45.8536 31.5107 40.5649 26.0905 33.9141 25.6595C33.913 25.6595 33.9119 25.6595 33.9097 25.6595C33.8317 25.6551 33.7537 25.6506 33.6747 25.6473C33.639 25.6462 33.6045 25.6439 33.5689 25.6417C33.5099 25.6395 33.4497 25.6384 33.3907 25.6373C33.3406 25.6362 33.2894 25.6339 33.2392 25.6339C33.2359 25.6339 33.2326 25.6339 33.2292 25.6339C33.1735 25.6328 33.1167 25.6328 33.0599 25.6328C33.0031 25.6328 32.9463 25.6328 32.8895 25.6339C32.8862 25.6339 32.8829 25.6339 32.8795 25.6339C32.8294 25.6339 32.7793 25.6362 32.7281 25.6373C32.669 25.6384 32.61 25.6395 32.551 25.6417C32.5154 25.6439 32.4797 25.6462 32.4441 25.6473C32.3661 25.6506 32.2871 25.6551 32.2091 25.6595C32.208 25.6595 32.2058 25.6595 32.2046 25.6595C25.555 26.0905 20.2651 31.5107 20.0402 38.2149C20.039 38.2405 20.0379 38.2662 20.0368 38.2918C20.0357 38.3564 20.0346 38.4221 20.0335 38.4878C20.0335 38.5379 20.0324 38.5869 20.0324 38.637C20.0313 38.6448 20.0312 38.6526 20.0312 38.6604C20.0312 38.6782 20.0324 38.696 20.0324 38.7127C20.0324 38.7929 20.0335 38.872 20.0346 38.9511L20.0368 38.9522C20.0424 39.186 20.0513 39.4177 20.068 39.6471C20.2028 41.4345 21.6772 42.8232 23.4702 42.8232H42.6497C44.4415 42.8232 45.9171 41.4345 46.0508 39.6471C46.0675 39.4177 46.0775 39.186 46.0819 38.9522L46.0842 38.9511C46.0864 38.872 46.0864 38.7929 46.0864 38.7127Z" fill="#D9D9D9"/>
<path d="M42.6553 43.0519H23.4759C22.5515 43.0519 21.6717 42.7044 20.9969 42.073C20.3242 41.4438 19.9155 40.5885 19.8465 39.6653C19.8309 39.4626 19.822 39.2476 19.8153 38.9904C19.813 38.9792 19.813 38.9692 19.8119 38.9581C19.8108 38.8846 19.8108 38.8111 19.8097 38.7398V38.7153C19.8097 38.7086 19.8097 38.7019 19.8097 38.6953C19.8097 38.6841 19.8086 38.673 19.8086 38.6618C19.8086 38.6563 19.8097 38.6507 19.8097 38.6451V38.6373C19.8097 38.6028 19.8097 38.5672 19.8108 38.5315L19.8119 38.4514C19.8119 38.3979 19.813 38.3422 19.8142 38.2865C19.8153 38.271 19.8153 38.2554 19.8164 38.2387C19.8164 38.2286 19.8175 38.2186 19.8175 38.2086C19.9289 34.9144 21.2552 31.7961 23.5549 29.4274C25.8491 27.0642 28.9183 25.6465 32.1958 25.4338H32.198C32.1992 25.4338 32.1992 25.4338 32.2003 25.4338C32.2749 25.4294 32.3495 25.4249 32.4208 25.4216H32.4397C32.4542 25.4204 32.4675 25.4193 32.482 25.4193C32.5043 25.4182 32.5255 25.4171 32.5477 25.416C32.5901 25.4138 32.6324 25.4127 32.6758 25.4127L32.7281 25.4104C32.7471 25.4104 32.7649 25.4104 32.7827 25.4093C32.8161 25.4082 32.8495 25.4071 32.8829 25.4071C32.8841 25.4071 32.8841 25.4071 32.8852 25.4071H32.8907H32.8919C32.9331 25.406 32.9732 25.406 33.0132 25.4071H33.1168C33.1569 25.406 33.1981 25.406 33.2382 25.4071C33.2382 25.4071 33.2393 25.4071 33.2404 25.4071H33.2449C33.246 25.4071 33.2471 25.4071 33.2482 25.4071C33.2805 25.4071 33.3139 25.4082 33.3473 25.4093C33.3652 25.4104 33.3841 25.4104 33.4019 25.4104L33.4554 25.4127C33.4977 25.4127 33.54 25.4138 33.5834 25.416C33.6046 25.4171 33.6269 25.4182 33.648 25.4193C33.6625 25.4193 33.677 25.4204 33.6903 25.4216H33.7093C33.7817 25.4249 33.8563 25.4294 33.9298 25.4338C33.9309 25.4338 33.9309 25.4338 33.932 25.4338H33.9354C37.2117 25.6465 40.281 27.0642 42.5751 29.4274C44.8748 31.7961 46.2023 34.9144 46.3125 38.2086C46.3125 38.2186 46.3137 38.2297 46.3137 38.2398C46.3148 38.2554 46.3148 38.271 46.3159 38.2865C46.317 38.3422 46.3181 38.3979 46.3181 38.4525L46.3192 38.5315C46.3203 38.5672 46.3203 38.6028 46.3215 38.6385V38.6463C46.3215 38.6507 46.3215 38.6563 46.3215 38.6618C46.3215 38.673 46.3215 38.6841 46.3203 38.6953C46.3203 38.7019 46.3203 38.7086 46.3203 38.7153V38.7376C46.3203 38.81 46.3192 38.8835 46.3181 38.9581C46.3181 38.9692 46.317 38.9792 46.3148 38.9904C46.3092 39.2476 46.2992 39.4626 46.2836 39.6653C46.2145 40.5885 45.8058 41.4438 45.1332 42.073C44.4583 42.7044 43.5785 43.0519 42.6553 43.0519ZM20.2674 38.9169C20.2696 38.928 20.2708 38.938 20.2708 38.9492C20.2763 39.212 20.2864 39.428 20.3008 39.6318C20.4256 41.2945 21.8199 42.5964 23.4759 42.5964H42.6553C44.3102 42.5964 45.7045 41.2945 45.8292 39.6318C45.8437 39.4292 45.8537 39.212 45.8593 38.9492C45.8604 38.938 45.8615 38.928 45.8626 38.918C45.8637 38.8567 45.8637 38.7955 45.8637 38.7365V38.7142C45.8637 38.7031 45.8649 38.693 45.8649 38.683C45.8649 38.6763 45.8649 38.6685 45.8649 38.6618V38.6541C45.8649 38.6485 45.8649 38.644 45.8649 38.6385C45.8649 38.6062 45.8637 38.5728 45.8637 38.5393L45.8626 38.458C45.8615 38.4046 45.8615 38.3522 45.8593 38.2999C45.8593 38.2865 45.8593 38.2721 45.8582 38.2587C45.8582 38.2476 45.8571 38.2364 45.8571 38.2242C45.6354 31.6191 40.497 26.3158 33.9053 25.8893C33.9053 25.8893 33.9042 25.8893 33.9031 25.8893L33.9008 25.8882C33.8307 25.8837 33.7583 25.8804 33.6881 25.877H33.6692C33.6547 25.8759 33.6391 25.8748 33.6235 25.8748C33.6046 25.8737 33.5845 25.8726 33.5656 25.8715C33.5255 25.8704 33.4854 25.8693 33.4442 25.8681L33.3908 25.867C33.3718 25.8659 33.3518 25.8659 33.3329 25.8648C33.3028 25.8648 33.2738 25.8637 33.2438 25.8626C33.2393 25.8626 33.2349 25.8626 33.2315 25.8626C33.1937 25.8626 33.1558 25.8626 33.1179 25.8626H33.0121C32.9743 25.8626 32.9364 25.8626 32.8985 25.8626C32.8952 25.8626 32.8907 25.8626 32.8874 25.8626C32.8584 25.8637 32.8273 25.8637 32.7972 25.8648C32.7783 25.8659 32.7582 25.8659 32.7393 25.867L32.6858 25.8681C32.6457 25.8693 32.6045 25.8704 32.5644 25.8715C32.5455 25.8726 32.5266 25.8737 32.5065 25.8737C32.4909 25.8748 32.4753 25.8759 32.4609 25.877H32.4419C32.3729 25.8804 32.3005 25.8837 32.2303 25.8882L32.2259 25.8893C25.633 26.3158 20.4957 31.6191 20.273 38.2242C20.273 38.2353 20.273 38.2465 20.2719 38.2576C20.2719 38.2721 20.2708 38.2854 20.2708 38.2999C20.2685 38.3522 20.2685 38.4046 20.2674 38.4569L20.2663 38.5393C20.2663 38.5728 20.2652 38.6051 20.2652 38.6385C20.2652 38.644 20.2652 38.6485 20.2652 38.6541V38.6618C20.2652 38.6685 20.2652 38.6763 20.2652 38.683C20.2663 38.693 20.2663 38.7031 20.2663 38.7142V38.7376C20.2663 38.7966 20.2663 38.8579 20.2674 38.9169Z" fill="black"/>
<path d="M30.3243 27.8V27.7989C30.4846 27.7577 30.6461 27.7221 30.8076 27.6887C30.8265 27.6842 30.8443 27.6809 30.8633 27.6775C31.0325 27.643 31.2018 27.6118 31.3733 27.5862C31.3822 27.5851 31.3911 27.584 31.4 27.5818C31.5649 27.5573 31.7319 27.5361 31.899 27.5194C31.9168 27.5172 31.9346 27.5149 31.9524 27.5127C32.1195 27.496 32.2876 27.4838 32.4569 27.4748C32.487 27.4726 32.517 27.4715 32.5471 27.4704C32.7175 27.4626 32.8879 27.457 33.0605 27.457C33.0605 27.457 33.0616 27.457 33.0627 27.457C33.0627 27.457 33.0638 27.457 33.065 27.457C33.2365 27.457 33.408 27.4626 33.5772 27.4704C33.6073 27.4715 33.6374 27.4726 33.6675 27.4748C33.8367 27.4838 34.006 27.496 34.1731 27.5127C34.1909 27.5149 34.2076 27.5172 34.2254 27.5194C34.3936 27.5361 34.5595 27.5573 34.7243 27.5818C34.7332 27.584 34.7421 27.5851 34.751 27.5862C34.9225 27.6118 35.0929 27.643 35.2611 27.6775C35.28 27.6809 35.2978 27.6842 35.3168 27.6887C35.4794 27.7221 35.6409 27.7577 35.8001 27.7989V27.8C38.0374 28.3702 40.0019 29.6242 41.4586 31.3248L38.6733 33.3817C37.7089 32.2859 36.4293 31.4707 34.9771 31.0842C34.9225 31.0697 34.868 31.0553 34.8134 31.0419C34.7644 31.0308 34.7154 31.0196 34.6653 31.0085C34.6018 30.9951 34.5372 30.9806 34.4726 30.9684C34.4247 30.9595 34.3769 30.9506 34.329 30.9428C34.2644 30.9316 34.1998 30.9216 34.1352 30.9116C34.0828 30.9049 34.0305 30.8971 33.977 30.8904C33.9203 30.8838 33.8623 30.8782 33.8055 30.8715C33.7365 30.8648 33.6663 30.8593 33.5984 30.8548C33.545 30.8503 33.4915 30.847 33.4369 30.8448C33.3712 30.8414 33.3055 30.8392 33.2398 30.837C33.1808 30.8359 33.1218 30.8348 33.0627 30.8348C33.0037 30.8348 32.9447 30.8359 32.8857 30.837C32.82 30.8392 32.7531 30.8414 32.6874 30.8448C32.634 30.847 32.5805 30.8503 32.5271 30.8548C32.458 30.8593 32.389 30.8648 32.3199 30.8715C32.262 30.8782 32.2052 30.8838 32.1473 30.8904C32.095 30.8971 32.0426 30.9049 31.9892 30.9116C31.9246 30.9216 31.86 30.9316 31.7965 30.9428C31.7475 30.9506 31.6996 30.9595 31.6517 30.9684C31.5871 30.9806 31.5237 30.9951 31.4591 31.0085C31.4101 31.0196 31.36 31.0308 31.311 31.0419C31.2564 31.0553 31.2018 31.0697 31.1484 31.0842C30.8956 31.151 30.6483 31.2312 30.4078 31.3237L29.3086 28.113C29.6405 27.9927 29.979 27.888 30.3243 27.8Z" fill="#ED1C24"/>
<path d="M38.6723 33.6078C38.6088 33.6078 38.5454 33.5811 38.5008 33.531C37.542 32.4418 36.3025 31.6712 34.9159 31.3026L34.9026 31.2992C34.8525 31.2858 34.8057 31.2736 34.7578 31.2613C34.7155 31.2513 34.6743 31.2424 34.6286 31.2324L34.6141 31.2291C34.5395 31.2123 34.4816 31.2012 34.4271 31.1901C34.3814 31.1812 34.3335 31.1734 34.2878 31.1656C34.2244 31.1544 34.1609 31.1444 34.0996 31.1355C34.0517 31.1288 34.0005 31.1221 33.9471 31.1155C33.8947 31.1088 33.8402 31.1021 33.7811 31.0965C33.7154 31.0898 33.6486 31.0843 33.5796 31.0798C33.5205 31.0754 33.4704 31.072 33.4236 31.0698C33.3657 31.0665 33.3023 31.0642 33.2321 31.0631C33.1642 31.062 33.1096 31.0609 33.0606 31.0609C33.0105 31.0609 32.9559 31.062 32.8891 31.0631C32.8178 31.0642 32.7554 31.0665 32.6964 31.0698C32.6497 31.072 32.6007 31.0754 32.5405 31.0798C32.4726 31.0843 32.4046 31.0898 32.3401 31.0965C32.2799 31.1021 32.2253 31.1088 32.173 31.1155C32.1196 31.1221 32.0683 31.1288 32.0204 31.1355C31.9614 31.1444 31.9002 31.1533 31.8322 31.1656C31.7799 31.1745 31.7365 31.1823 31.693 31.1901C31.6273 31.2034 31.5616 31.2168 31.5059 31.2291L31.4914 31.2324C31.4469 31.2424 31.4046 31.2513 31.3623 31.2613C31.3133 31.2736 31.2643 31.287 31.2119 31.3003L31.2041 31.3026C30.9625 31.3671 30.7208 31.4451 30.4869 31.5342C30.429 31.5565 30.3644 31.5542 30.3087 31.5275C30.2531 31.5019 30.2096 31.454 30.1896 31.395L29.0904 28.1843C29.0503 28.0663 29.1116 27.9382 29.2285 27.8959C29.5604 27.7756 29.9011 27.6709 30.2419 27.5829C30.2497 27.5807 30.2575 27.5774 30.2664 27.5751C30.4134 27.5384 30.5749 27.5016 30.7598 27.4627C30.7787 27.4593 30.7976 27.4549 30.8166 27.4515C30.9992 27.4148 31.1696 27.3836 31.3366 27.358C31.3422 27.358 31.3478 27.3569 31.3522 27.3557C31.3556 27.3557 31.3589 27.3557 31.3623 27.3546C31.5282 27.3301 31.6997 27.3079 31.8734 27.29L31.8935 27.2878C31.9046 27.2867 31.9158 27.2856 31.9269 27.2845C32.0928 27.2678 32.2654 27.2544 32.4425 27.2444C32.4659 27.2433 32.4882 27.2422 32.5116 27.241L32.5338 27.2399C32.7321 27.231 32.898 27.2266 33.0584 27.2266C33.0595 27.2266 33.0606 27.2266 33.0628 27.2266C33.2221 27.2266 33.388 27.231 33.5862 27.2399L33.6085 27.241C33.6319 27.2422 33.6553 27.2433 33.6776 27.2444C33.8546 27.2544 34.0284 27.2678 34.1932 27.2845C34.2043 27.2856 34.2155 27.2867 34.2266 27.2878L34.2478 27.29C34.4204 27.3079 34.5919 27.3301 34.7567 27.3546C34.7611 27.3557 34.7645 27.3557 34.7678 27.3557C34.7723 27.3569 34.7779 27.358 34.7823 27.358C34.9505 27.3836 35.1209 27.4148 35.3046 27.4515C35.3235 27.4549 35.3425 27.4593 35.3614 27.4627C35.5463 27.5016 35.7078 27.5384 35.8548 27.5751C35.8626 27.5774 35.8704 27.5807 35.8781 27.5829C36.9963 27.8714 38.0598 28.328 39.0409 28.9427C40.012 29.5519 40.8829 30.3025 41.6302 31.1734C41.6714 31.2224 41.6903 31.2847 41.6836 31.3482C41.6759 31.4106 41.6436 31.4685 41.5923 31.5052L38.8071 33.5633C38.767 33.5933 38.7191 33.6078 38.6723 33.6078ZM33.0606 30.6043C33.1129 30.6043 33.1708 30.6054 33.2421 30.6076C33.3178 30.6087 33.3847 30.611 33.447 30.6143C33.4971 30.6165 33.5495 30.6199 33.6119 30.6243C33.6854 30.6299 33.7566 30.6355 33.8257 30.6433C33.8892 30.6488 33.9471 30.6555 34.0027 30.6622C34.0584 30.6689 34.1141 30.6767 34.1653 30.6845C34.231 30.6934 34.2979 30.7045 34.3658 30.7157C34.4126 30.7246 34.4627 30.7324 34.5128 30.7424C34.5718 30.7535 34.6331 30.7669 34.7121 30.7836L34.7266 30.7869C34.7723 30.797 34.8191 30.807 34.8647 30.8181C34.9171 30.8315 34.9694 30.8448 35.0195 30.8582L35.0329 30.8615C36.4405 31.2357 37.7045 31.9986 38.7024 33.0733L41.1224 31.2858C39.6824 29.6777 37.827 28.5507 35.7412 28.0184C35.7334 28.0173 35.7256 28.0139 35.7178 28.0117C35.5841 27.9783 35.4371 27.9449 35.2679 27.9092C35.25 27.9059 35.2322 27.9026 35.2144 27.8981C35.0384 27.8625 34.8747 27.8335 34.7144 27.809L34.7066 27.8079C34.6999 27.8068 34.6932 27.8068 34.6876 27.8057C34.5306 27.7823 34.3669 27.7611 34.1999 27.7433L34.1754 27.7411C34.1665 27.74 34.1575 27.7388 34.1486 27.7377C33.9894 27.7221 33.8234 27.7088 33.6531 27.6999C33.6319 27.6988 33.6096 27.6976 33.5885 27.6965L33.5651 27.6954C33.3758 27.6876 33.2176 27.6832 33.0662 27.6832C33.0628 27.6832 33.0595 27.6832 33.055 27.6832C32.9036 27.6832 32.7443 27.6876 32.555 27.6954L32.5316 27.6965C32.5104 27.6976 32.4893 27.6988 32.467 27.6999C32.2977 27.7088 32.1307 27.7221 31.9725 27.7377C31.9636 27.7388 31.9536 27.74 31.9447 27.7411L31.9213 27.7433C31.7543 27.7611 31.5894 27.7823 31.4313 27.8057C31.4269 27.8068 31.4202 27.8068 31.4146 27.8079L31.4057 27.809C31.2453 27.8335 31.0827 27.8625 30.9057 27.8981C30.8878 27.9026 30.8711 27.9059 30.8533 27.9092C30.684 27.9449 30.5359 27.9783 30.4023 28.0117C30.3945 28.0139 30.3867 28.0173 30.3789 28.0184C30.1161 28.0863 29.8533 28.1631 29.5949 28.2511L30.546 31.0275C30.7241 30.9662 30.9057 30.9105 31.0872 30.8615L31.095 30.8593C31.1473 30.846 31.2008 30.8315 31.2554 30.8181C31.3021 30.807 31.3489 30.797 31.3934 30.7869L31.4079 30.7836C31.4669 30.7713 31.536 30.7557 31.6073 30.7424C31.6574 30.7324 31.7075 30.7246 31.7554 30.7157C31.8267 30.7034 31.8913 30.6934 31.9547 30.6845C32.0071 30.6767 32.0616 30.6689 32.1184 30.6622C32.173 30.6555 32.232 30.6488 32.2944 30.6433C32.3634 30.6355 32.4358 30.6299 32.5082 30.6243C32.5717 30.6199 32.624 30.6165 32.6742 30.6143C32.7365 30.611 32.8033 30.6087 32.878 30.6065C32.9492 30.6054 33.0071 30.6043 33.0606 30.6043Z" fill="black"/>
<path d="M29.3095 28.1094L30.4087 31.3201C27.7315 32.3435 25.7881 34.8671 25.6022 37.8249C25.5821 38.1523 25.5821 38.4764 25.6033 38.7938C25.669 39.8251 24.8482 40.6971 23.8147 40.6971C22.8536 40.6971 22.0629 39.9409 22.0217 38.982C22.0151 38.8239 22.0117 38.6669 22.0117 38.5076C22.0117 33.7211 25.0531 29.6462 29.3095 28.1094Z" fill="#D9D9D9"/>
<path d="M23.8126 40.9275C22.7256 40.9275 21.838 40.0778 21.7913 38.9931C21.7846 38.8327 21.7812 38.6701 21.7812 38.5098C21.7812 36.1432 22.5062 33.8781 23.8772 31.9592C24.5364 31.036 25.3294 30.2186 26.2337 29.5303C27.1469 28.8343 28.1547 28.2853 29.2294 27.8966C29.2873 27.8754 29.3508 27.8788 29.4054 27.9055C29.461 27.9322 29.5034 27.979 29.5234 28.0369L30.6215 31.2487C30.6616 31.3645 30.6025 31.4915 30.4878 31.5349C27.834 32.5506 26.0054 35.0251 25.8283 37.8416C25.8082 38.1545 25.8082 38.4708 25.8283 38.7815C25.8639 39.3428 25.6724 39.8785 25.287 40.2883C24.9062 40.6948 24.3683 40.9275 23.8126 40.9275ZM29.167 28.4067C25.0131 30.0092 22.2378 34.0395 22.2378 38.5098C22.2378 38.6635 22.2412 38.8205 22.2468 38.9742C22.2835 39.8139 22.9706 40.4709 23.8126 40.4709C24.2491 40.4709 24.6556 40.2961 24.9541 39.9765C25.2525 39.6591 25.4006 39.2448 25.3728 38.8105C25.3516 38.4808 25.3516 38.1456 25.3728 37.8137C25.5566 34.8926 27.4108 32.3167 30.1203 31.1908L29.167 28.4067Z" fill="black"/>
<path d="M40.5256 37.828C40.4198 36.1375 39.7393 34.5895 38.6758 33.3811L41.461 31.3242C43.1171 33.2564 44.116 35.7666 44.116 38.5107C44.116 38.6699 44.1127 38.8269 44.106 38.9851C44.0659 39.9439 43.2741 40.7001 42.3141 40.7001C41.2795 40.7001 40.4587 39.8281 40.5256 38.7969C40.5456 38.4795 40.5456 38.1554 40.5256 37.828Z" fill="#D9D9D9"/>
<path d="M42.311 40.9264C41.7541 40.9264 41.2162 40.6936 40.8354 40.2871C40.4512 39.8773 40.2585 39.3416 40.2941 38.7803C40.3142 38.4696 40.3142 38.1545 40.2952 37.8404C40.1961 36.2612 39.5591 34.7311 38.5023 33.5306C38.4599 33.4827 38.4399 33.4192 38.4466 33.3557C38.4533 33.2922 38.4867 33.2343 38.5379 33.1965L41.3232 31.1384C41.4189 31.0671 41.5537 31.0827 41.6316 31.174C42.488 32.1741 43.1573 33.3034 43.6195 34.5306C44.0984 35.8002 44.3412 37.1388 44.3412 38.5086C44.3412 38.669 44.3378 38.8316 44.3311 38.9919C44.2844 40.0766 43.3968 40.9264 42.311 40.9264ZM39.0056 33.4181C39.4845 33.9983 39.8754 34.642 40.1672 35.3336C40.5002 36.1231 40.6962 36.9573 40.7496 37.8126C40.7708 38.1444 40.7708 38.4796 40.7496 38.8093C40.7218 39.2436 40.8699 39.6579 41.1684 39.9753C41.4679 40.2949 41.8733 40.4698 42.311 40.4698C43.1518 40.4698 43.84 39.8127 43.8757 38.973C43.8823 38.8182 43.8857 38.6623 43.8857 38.5086C43.8857 35.9984 43.0115 33.5651 41.4212 31.6329L39.0056 33.4181Z" fill="black"/>
<path d="M36.3229 38.6609C36.3229 38.8747 36.3018 39.0863 36.2606 39.2968C36.2182 39.5062 36.157 39.71 36.0746 39.9082C35.9933 40.1053 35.8931 40.2935 35.7739 40.4717C35.6547 40.6488 35.52 40.8136 35.3685 40.9651C35.2171 41.1165 35.0522 41.2513 34.8741 41.3704C34.697 41.4896 34.5088 41.5898 34.3117 41.6722C34.1134 41.7535 33.9096 41.8159 33.7003 41.8571C33.4898 41.8994 33.2782 41.9195 33.0644 41.9195C32.8494 41.9195 32.6378 41.8994 32.4285 41.8571C32.218 41.8159 32.0142 41.7535 31.8171 41.6722C31.6188 41.5898 31.4317 41.4896 31.2536 41.3704C31.0754 41.2513 30.9106 41.1165 30.7591 40.9651C30.6087 40.8136 30.4729 40.6488 30.3537 40.4717C30.2357 40.2935 30.1354 40.1053 30.053 39.9082C29.9706 39.71 29.9094 39.5062 29.8671 39.2968C29.8258 39.0863 29.8047 38.8747 29.8047 38.6609C29.8047 38.4471 29.8258 38.2344 29.8671 38.025C29.9094 37.8156 29.9706 37.6118 30.053 37.4136C30.1354 37.2154 30.2357 37.0283 30.3537 36.8501C30.4729 36.6719 30.6087 36.5071 30.7591 36.3567C30.9106 36.2053 31.0754 36.0694 31.2536 35.9514C31.4317 35.8322 31.6188 35.732 31.8171 35.6496C32.0142 35.5683 32.218 35.5059 32.4285 35.4647C32.6378 35.4224 32.8494 35.4023 33.0644 35.4023C33.2782 35.4023 33.4898 35.4224 33.7003 35.4647C33.9096 35.5059 34.1134 35.5683 34.3117 35.6496C34.5088 35.732 34.697 35.8322 34.8741 35.9514C35.0522 36.0694 35.2171 36.2053 35.3685 36.3567C35.52 36.5071 35.6547 36.6719 35.7739 36.8501C35.8931 37.0283 35.9933 37.2154 36.0746 37.4136C36.157 37.6118 36.2182 37.8156 36.2606 38.025C36.3018 38.2344 36.3229 38.4471 36.3229 38.6609Z" fill="#ED1C24"/>
<path d="M33.0611 42.1456C31.1378 42.1456 29.5742 40.5809 29.5742 38.6587C29.5742 36.7355 31.1378 35.1719 33.0611 35.1719C34.9833 35.1719 36.5479 36.7355 36.5479 38.6587C36.5479 40.5809 34.9833 42.1456 33.0611 42.1456ZM33.0611 35.6274C31.3895 35.6274 30.0297 36.9871 30.0297 38.6587C30.0297 40.3303 31.3895 41.6901 33.0611 41.6901C34.7316 41.6901 36.0913 40.3303 36.0913 38.6587C36.0913 36.9871 34.7316 35.6274 33.0611 35.6274Z" fill="black"/>
<path d="M33.0604 38.8902C32.969 38.8902 32.8833 38.8346 32.8476 38.7455C32.802 38.6274 32.8599 38.4949 32.9768 38.4492L42.316 34.7931C42.4329 34.7474 42.5654 34.8042 42.6111 34.9223C42.6567 35.0392 42.5988 35.1717 42.4819 35.2174L33.1428 38.8747C33.116 38.8847 33.0882 38.8902 33.0604 38.8902Z" fill="black"/>
</svg>
