<svg width="61" height="57" viewBox="0 0 61 57" fill="none" xmlns="http://www.w3.org/2000/svg">
<path d="M5.03399 43.3601C4.93734 43.3601 4.84069 43.3104 4.78526 43.2222C4.21247 42.3069 3.68658 41.3475 3.22466 40.3739C3.15501 40.2275 3.21613 40.0527 3.36252 39.9831C3.50892 39.9134 3.68374 39.976 3.75338 40.1224C4.20678 41.0761 4.7213 42.0141 5.28272 42.911C5.36942 43.0488 5.32678 43.2294 5.19033 43.3146C5.14201 43.3459 5.088 43.3601 5.03399 43.3601ZM2.27948 37.564C2.15725 37.564 2.04212 37.4873 2.00091 37.365C1.65411 36.3431 1.36132 35.2899 1.13391 34.2353C1.09979 34.0761 1.20071 33.9212 1.35989 33.8871C1.51766 33.853 1.674 33.9524 1.70812 34.1116C1.93126 35.1449 2.21552 36.1754 2.55664 37.176C2.60923 37.3295 2.52679 37.4958 2.37329 37.5484C2.34202 37.5583 2.31075 37.564 2.27948 37.564ZM0.926394 31.2917C0.777156 31.2917 0.649238 31.178 0.635025 31.026C0.545482 30.1121 0.5 29.1797 0.5 28.2558C0.5 28.0981 0.501421 27.9389 0.504264 27.7811C0.507107 27.6191 0.64071 27.4912 0.80274 27.4926C0.964769 27.4954 1.09411 27.629 1.09127 27.7911C1.08842 27.9446 1.087 28.1009 1.087 28.2558C1.087 29.1612 1.13106 30.0737 1.21918 30.9691C1.23482 31.1311 1.11685 31.2747 0.95482 31.2903C0.944871 31.2903 0.936343 31.2917 0.926394 31.2917ZM1.03299 24.8731C1.0202 24.8731 1.00741 24.8717 0.994617 24.8703C0.834009 24.8489 0.721725 24.7025 0.741623 24.5405C0.882333 23.4688 1.087 22.3958 1.34995 21.3497C1.38974 21.1919 1.54893 21.0967 1.70669 21.1365C1.86304 21.1763 1.95827 21.3355 1.91989 21.4932C1.66263 22.5166 1.46223 23.5683 1.32436 24.6173C1.30446 24.7651 1.17797 24.8731 1.03299 24.8731ZM2.59786 18.6478C2.56232 18.6478 2.52821 18.6406 2.4941 18.6279C2.34202 18.571 2.26527 18.4019 2.32354 18.2498C2.70446 17.2407 3.15075 16.2429 3.64679 15.2835C3.72212 15.14 3.89836 15.0831 4.04333 15.157C4.18689 15.2323 4.24232 15.4086 4.16841 15.5536C3.68232 16.493 3.24598 17.4695 2.87217 18.4573C2.82669 18.5753 2.71583 18.6478 2.59786 18.6478ZM5.54708 12.9469C5.49165 12.9469 5.4348 12.9298 5.38363 12.8957C5.25003 12.8062 5.21449 12.6242 5.30404 12.4892C5.90667 11.5938 6.56901 10.7239 7.26971 9.90384C7.37631 9.78018 7.56108 9.76597 7.68331 9.87115C7.80697 9.97632 7.82118 10.1611 7.716 10.2847C7.02951 11.0892 6.38139 11.9406 5.79155 12.8175C5.73469 12.9014 5.64231 12.9469 5.54708 12.9469Z" fill="black"/>
<mask id="mask0_3476_27456" style="mask-type:luminance" maskUnits="userSpaceOnUse" x="30" y="39" width="25" height="18">
<path d="M30.6992 39.7695H54.3499V56.2937H30.6992V39.7695Z" fill="white"/>
</mask>
<g mask="url(#mask0_3476_27456)">
<path d="M31.1687 56.4106C31.0181 56.4106 30.8887 56.2954 30.8759 56.1419C30.8631 55.9813 30.9825 55.8392 31.1431 55.825C32.1992 55.7354 33.2581 55.5833 34.2914 55.373C34.4505 55.3403 34.6055 55.4441 34.6367 55.6018C34.6694 55.761 34.5671 55.9159 34.4079 55.9486C33.3533 56.1618 32.2717 56.3182 31.1929 56.4091C31.1844 56.4106 31.1773 56.4106 31.1687 56.4106ZM37.4552 55.1342C37.3315 55.1342 37.2178 55.056 37.1766 54.9324C37.1269 54.7775 37.2107 54.6126 37.3642 54.5614C38.3677 54.2345 39.364 53.8437 40.3234 53.4016C40.4712 53.3334 40.6446 53.3974 40.7128 53.5452C40.7811 53.6916 40.7157 53.8664 40.5693 53.9332C39.5886 54.3852 38.5723 54.7846 37.5462 55.12C37.5163 55.1299 37.485 55.1342 37.4552 55.1342ZM43.2826 52.4508C43.1831 52.4508 43.0879 52.3996 43.0324 52.3086C42.9471 52.1708 42.9912 51.9903 43.1305 51.9064C44.0316 51.3564 44.9128 50.7495 45.7471 50.0985C45.8751 49.999 46.0584 50.0218 46.1579 50.1497C46.2574 50.2776 46.2346 50.4624 46.1067 50.5618C45.2554 51.2256 44.3557 51.8467 43.4347 52.4067C43.3878 52.4366 43.3352 52.4508 43.2826 52.4508ZM48.3453 48.5066C48.27 48.5066 48.1932 48.4768 48.1364 48.4185C48.0227 48.3034 48.0241 48.1172 48.1392 48.0035C48.8939 47.263 49.6145 46.4713 50.2783 45.6498C50.3806 45.5233 50.5654 45.5048 50.6919 45.6057C50.817 45.7081 50.8369 45.8928 50.7345 46.0193C50.0566 46.8579 49.3217 47.6666 48.5514 48.4228C48.4931 48.4782 48.4192 48.5066 48.3453 48.5066ZM52.3818 43.5164C52.3278 43.5164 52.2738 43.5022 52.2255 43.4709C52.089 43.3842 52.0478 43.2037 52.1345 43.0658C52.7016 42.1733 53.2218 41.238 53.6823 40.2872C53.7534 40.1408 53.9282 40.0797 54.0746 40.1507C54.2196 40.2218 54.2807 40.3966 54.211 40.543C53.7406 41.5138 53.209 42.4689 52.6306 43.3814C52.5737 43.4695 52.4785 43.5164 52.3818 43.5164Z" fill="black"/>
</g>
<path d="M54.7717 18.2809C54.6552 18.2809 54.5443 18.2113 54.4988 18.0962C54.1108 17.114 53.6617 16.1447 53.1628 15.2123C53.086 15.0702 53.14 14.8911 53.2822 14.8158C53.4257 14.739 53.6034 14.793 53.6801 14.9352C54.189 15.8874 54.6481 16.8781 55.0446 17.8801C55.1043 18.0308 55.0304 18.2013 54.8797 18.261C54.8442 18.2752 54.8072 18.2809 54.7717 18.2809ZM51.7443 12.6269C51.6519 12.6269 51.5595 12.5829 51.5027 12.5004C50.9015 11.6334 50.242 10.7906 49.5441 9.99609C49.4361 9.87386 49.4489 9.68909 49.5711 9.58249C49.6919 9.47447 49.8781 9.48726 49.9847 9.60949C50.6968 10.4196 51.3705 11.2795 51.9845 12.1664C52.0769 12.2986 52.0442 12.482 51.912 12.5744C51.8609 12.6099 51.8026 12.6269 51.7443 12.6269ZM47.5074 7.80727C47.4377 7.80727 47.3667 7.78169 47.3112 7.73052C46.5267 7.02128 45.6938 6.35042 44.8339 5.735C44.7017 5.64119 44.6719 5.45784 44.7657 5.32566C44.8609 5.1949 45.0442 5.16363 45.175 5.25886C46.0534 5.88566 46.9033 6.57215 47.7049 7.2956C47.8243 7.40504 47.8343 7.58981 47.7248 7.71062C47.668 7.77458 47.5884 7.80727 47.5074 7.80727ZM42.2869 4.07348C42.2386 4.07348 42.1902 4.06069 42.1448 4.03653C41.2195 3.52343 40.2544 3.06009 39.278 2.65785C39.1273 2.59532 39.0563 2.42476 39.1174 2.2741C39.1799 2.12486 39.3505 2.0538 39.5011 2.11491C40.4989 2.52567 41.4839 2.99897 42.429 3.52343C42.5712 3.60161 42.6223 3.78069 42.5442 3.9214C42.4901 4.01805 42.3892 4.07348 42.2869 4.07348ZM36.3501 1.63025C36.3231 1.63025 36.2961 1.62598 36.2705 1.61888C35.2528 1.33319 34.2067 1.10294 33.1621 0.935224C33.0015 0.90964 32.8934 0.758981 32.919 0.599794C32.9446 0.439186 33.0953 0.329745 33.2545 0.355328C34.3219 0.527307 35.3907 0.761824 36.4297 1.05461C36.5846 1.09867 36.6756 1.2607 36.6315 1.41563C36.596 1.54497 36.478 1.63025 36.3501 1.63025ZM26.796 0.653804C26.6439 0.653804 26.5146 0.535835 26.5046 0.380912C26.4933 0.218882 26.6155 0.0795935 26.7761 0.068223C27.4313 0.022741 28.0965 0 28.7546 0C29.1767 0 29.6031 0.00852797 30.0238 0.0270049C30.1858 0.035533 30.3109 0.171979 30.3038 0.334008C30.2967 0.496038 30.1603 0.621113 29.9982 0.614007C29.586 0.59553 29.1682 0.587002 28.7546 0.587002C28.1093 0.587002 27.4583 0.608322 26.8173 0.653804C26.8102 0.653804 26.8031 0.653804 26.796 0.653804Z" fill="black"/>
<path d="M49.2869 28.2574C49.2869 28.9297 49.2528 29.6006 49.1874 30.2686C49.122 30.938 49.0225 31.6032 48.8917 32.2627C48.761 32.9222 48.5975 33.5731 48.4028 34.217C48.2067 34.8594 47.9807 35.4919 47.7234 36.113C47.4662 36.7341 47.1791 37.341 46.8621 37.9351C46.5452 38.5278 46.1998 39.1035 45.826 39.662C45.4522 40.222 45.0528 40.7607 44.6264 41.2809C44.2 41.8011 43.748 42.2986 43.2733 42.7733C42.7971 43.2494 42.2997 43.7 41.7809 44.1264C41.2607 44.5528 40.7206 44.9536 40.162 45.3274C39.6035 45.7012 39.0264 46.0452 38.4337 46.3621C37.841 46.6791 37.2341 46.9662 36.613 47.2248C35.9919 47.4821 35.3594 47.7081 34.7156 47.9028C34.0717 48.0975 33.4207 48.261 32.7613 48.3932C32.1018 48.5239 31.438 48.622 30.7686 48.6874C30.0991 48.7542 29.4283 48.7869 28.756 48.7869C28.0837 48.7869 27.4129 48.7542 26.7434 48.6888C26.074 48.622 25.4102 48.5239 24.7507 48.3932C24.0913 48.261 23.4403 48.0975 22.7964 47.9028C22.1526 47.7081 21.5201 47.4821 20.899 47.2248C20.2779 46.9662 19.671 46.6791 19.0783 46.3621C18.4856 46.0452 17.9085 45.7012 17.35 45.3274C16.7914 44.9536 16.2513 44.5528 15.7325 44.1264C15.2123 43.7 14.7149 43.2494 14.2387 42.7733C13.764 42.2986 13.312 41.8011 12.8856 41.2809C12.4592 40.7607 12.0598 40.222 11.686 39.662C11.3122 39.1035 10.9669 38.5278 10.6499 37.9351C10.3329 37.341 10.0458 36.7341 9.78859 36.113C9.53133 35.4919 9.30534 34.8594 9.1092 34.217C8.91448 33.5731 8.75103 32.9222 8.62027 32.2627C8.48951 31.6032 8.39001 30.938 8.32463 30.2686C8.25925 29.6006 8.22656 28.9297 8.22656 28.2574C8.22656 27.5837 8.25925 26.9143 8.32463 26.2448C8.39001 25.5754 8.48951 24.9117 8.62027 24.2522C8.75103 23.5927 8.91448 22.9403 9.1092 22.2979C9.30534 21.654 9.53133 21.0215 9.78859 20.4004C10.0458 19.7793 10.3329 19.1724 10.6499 18.5783C10.9669 17.9856 11.3122 17.41 11.686 16.8514C12.0598 16.2914 12.4592 15.7527 12.8856 15.2325C13.312 14.7123 13.764 14.2149 14.2387 13.7401C14.7149 13.264 15.2123 12.8134 15.7325 12.387C16.2513 11.9607 16.7914 11.5598 17.35 11.186C17.9085 10.8137 18.4856 10.4683 19.0783 10.1513C19.671 9.83437 20.2779 9.54726 20.899 9.29001C21.5201 9.03275 22.1526 8.80534 22.7964 8.61062C23.4403 8.4159 24.0913 8.25245 24.7507 8.12169C25.4102 7.98951 26.074 7.89143 26.7434 7.82605C27.4129 7.75925 28.0837 7.72656 28.756 7.72656C29.4283 7.72656 30.0991 7.75925 30.7686 7.82605C31.438 7.89143 32.1018 7.98951 32.7613 8.12169C33.4207 8.25245 34.0717 8.4159 34.7156 8.61062C35.3594 8.80534 35.9919 9.03275 36.613 9.29001C37.2341 9.54726 37.841 9.83437 38.4337 10.1513C39.0264 10.4683 39.6035 10.8137 40.162 11.186C40.7206 11.5598 41.2607 11.9607 41.7809 12.387C42.2997 12.8134 42.7971 13.264 43.2733 13.7401C43.748 14.2149 44.2 14.7123 44.6264 15.2325C45.0528 15.7527 45.4522 16.2914 45.826 16.8514C46.1998 17.41 46.5452 17.9856 46.8621 18.5783C47.1791 19.1724 47.4662 19.7793 47.7234 20.4004C47.9807 21.0215 48.2067 21.654 48.4028 22.2979C48.5975 22.9403 48.761 23.5927 48.8917 24.2522C49.0225 24.9117 49.122 25.5754 49.1874 26.2448C49.2528 26.9143 49.2869 27.5837 49.2869 28.2574Z" fill="black"/>
<path d="M30.7198 22.1115C30.7439 21.7704 30.7326 21.4349 30.6956 21.1066L32.1439 20.0961C32.0274 19.6057 31.8597 19.1196 31.6308 18.6463C31.402 18.1744 31.1234 17.7424 30.8093 17.3458L29.1179 17.8589C28.6461 17.3913 28.0861 17.0104 27.4635 16.7389L27.3129 14.9779C26.8296 14.8329 26.3251 14.7349 25.8006 14.6965C25.2761 14.6595 24.763 14.6851 24.2642 14.7576L23.8619 16.4802C23.2067 16.6593 22.5984 16.955 22.064 17.3515L20.4636 16.6025C20.0969 16.9479 19.76 17.3359 19.4644 17.7708C19.1702 18.2057 18.9357 18.6634 18.7495 19.1324L20.0386 20.3405C19.9547 20.6589 19.8951 20.9901 19.8709 21.3312C19.8467 21.6723 19.8581 22.0063 19.8951 22.3346L18.4453 23.3452C18.5633 23.837 18.7296 24.323 18.9598 24.7949C19.1887 25.2682 19.4672 25.7003 19.7799 26.0954L21.4713 25.5837C21.9446 26.0514 22.5032 26.4323 23.1257 26.7037L23.2778 28.4647C23.761 28.6083 24.2656 28.7078 24.7901 28.7447C25.3131 28.7831 25.8276 28.7575 26.3265 28.6836L26.7287 26.9624C27.3825 26.7833 27.9908 26.4863 28.5253 26.0912L30.1257 26.8402C30.4924 26.4934 30.8306 26.1054 31.1248 25.6704C31.4205 25.2355 31.655 24.7793 31.8412 24.3103L30.5521 23.1021C30.6359 22.7823 30.6942 22.4526 30.7198 22.1115Z" fill="#D9D9D9"/>
<path d="M25.2767 29.032C25.1076 29.032 24.9399 29.0249 24.7736 29.0135C24.2534 28.9766 23.7247 28.8785 23.2031 28.7221C23.095 28.6909 23.0183 28.5956 23.0083 28.4834L22.8705 26.8815C22.3289 26.6271 21.8358 26.2931 21.4008 25.8866L19.863 26.3528C19.7549 26.3855 19.6398 26.3485 19.5702 26.2604C19.2319 25.834 18.9448 25.3792 18.7174 24.9102C18.4886 24.4411 18.3095 23.9337 18.183 23.405C18.1574 23.2956 18.2015 23.1819 18.2924 23.1179L19.61 22.1983C19.5844 21.8927 19.5815 21.5943 19.6014 21.3072C19.6228 21.02 19.6682 20.7244 19.7379 20.4259L18.5653 19.3273C18.4843 19.2505 18.4573 19.1325 18.4985 19.0274C18.6989 18.5214 18.9491 18.0452 19.2419 17.6132C19.5346 17.1825 19.8843 16.7732 20.2794 16.3994C20.3604 16.3226 20.4812 16.3027 20.5836 16.3496L22.0376 17.0318C22.5265 16.6922 23.0623 16.4321 23.6351 16.2572L24.0018 14.6909C24.0274 14.5829 24.117 14.5005 24.2278 14.4834C24.7665 14.4038 25.3038 14.3825 25.824 14.4209C26.3442 14.4578 26.8715 14.5559 27.3945 14.7108C27.5011 14.7435 27.5793 14.8388 27.5878 14.9496L27.7257 16.5514C28.2672 16.8059 28.7618 17.1399 29.1953 17.5478L30.7332 17.0816C30.8412 17.0489 30.9577 17.0844 31.0274 17.1726C31.3657 17.6004 31.6528 18.0538 31.8802 18.5228C32.1076 18.9933 32.2867 19.4992 32.4132 20.0294C32.4387 20.1388 32.3961 20.2525 32.3037 20.3165L30.9862 21.2361C31.0132 21.5431 31.016 21.8359 30.9947 22.1273C30.9748 22.4129 30.9293 22.71 30.8582 23.0085L32.0308 24.1057C32.1133 24.1825 32.1388 24.3019 32.0976 24.4056C31.8972 24.913 31.6471 25.3877 31.3543 25.8198C31.0615 26.2519 30.7133 26.6598 30.3167 27.035C30.2357 27.1118 30.1149 27.1317 30.014 27.0834L28.5586 26.4026C28.0696 26.7423 27.5338 27.0024 26.961 27.1758L26.5957 28.742C26.5701 28.8515 26.4806 28.9339 26.3697 28.9496C26.003 29.0036 25.6363 29.032 25.2767 29.032ZM23.5371 28.2488C23.962 28.364 24.3913 28.4379 24.812 28.4691C25.2341 28.499 25.669 28.4876 26.1068 28.435L26.465 26.8958C26.4877 26.7991 26.563 26.7209 26.6597 26.6953C27.2794 26.5248 27.8536 26.2462 28.3667 25.8667C28.4477 25.807 28.5543 25.7971 28.6453 25.8397L30.0751 26.5092C30.3878 26.1979 30.6649 25.8639 30.9023 25.5142C31.1397 25.1632 31.3472 24.7808 31.5206 24.3758L30.3693 23.297C30.2954 23.2288 30.2656 23.125 30.2911 23.0284C30.3764 22.7043 30.4276 22.3959 30.4503 22.0875C30.4731 21.779 30.4645 21.4678 30.4276 21.1338C30.4162 21.0343 30.4603 20.9362 30.5427 20.8793L31.8361 19.9768C31.7238 19.5504 31.5732 19.1425 31.3884 18.7616C31.2036 18.3821 30.9762 18.0111 30.7118 17.6586L29.201 18.1163C29.1058 18.1447 29.0006 18.1191 28.9295 18.0495C28.4761 17.6004 27.9474 17.2422 27.3575 16.9849C27.2666 16.9451 27.204 16.8584 27.1955 16.7575L27.0605 15.1841C26.6341 15.069 26.2063 14.9951 25.7842 14.9653C25.362 14.9354 24.9285 14.9468 24.4908 14.9994L24.1312 16.5372C24.1084 16.6353 24.0345 16.712 23.9379 16.7391C23.3168 16.9082 22.7425 17.1868 22.2295 17.5663C22.1499 17.626 22.0418 17.6373 21.9523 17.5947L20.5225 16.9252C20.2098 17.2365 19.9312 17.5705 19.6938 17.9202C19.4565 18.2698 19.2504 18.6521 19.077 19.0572L20.2282 20.1374C20.3007 20.2056 20.3306 20.308 20.305 20.4046C20.2211 20.7301 20.1686 21.0371 20.1458 21.3455C20.1245 21.654 20.1316 21.9666 20.1686 22.3007C20.1799 22.4001 20.1359 22.4968 20.0534 22.5551L18.76 23.4576C18.8737 23.884 19.023 24.2919 19.2077 24.6714C19.3925 25.0523 19.6199 25.4233 19.8843 25.7758L21.3951 25.3181C21.4918 25.2883 21.5955 25.3138 21.6666 25.3849C22.12 25.834 22.6487 26.1922 23.2386 26.448C23.331 26.4878 23.3935 26.576 23.402 26.6755L23.5371 28.2488Z" fill="black"/>
<path d="M27.2913 19.7217C27.422 19.8525 27.54 19.996 27.6423 20.1496C27.7461 20.3045 27.8328 20.4665 27.9038 20.6385C27.9749 20.809 28.0289 20.9867 28.0645 21.1672C28.1014 21.3491 28.1185 21.5339 28.1185 21.7187C28.1185 21.9049 28.1014 22.0882 28.0645 22.2701C28.0289 22.4521 27.9749 22.6283 27.9038 22.8003C27.8328 22.9709 27.7461 23.1343 27.6423 23.2878C27.54 23.4427 27.422 23.5849 27.2913 23.717C27.1605 23.8478 27.0184 23.9644 26.8634 24.0681C26.7099 24.1704 26.5465 24.2571 26.3745 24.3282C26.204 24.3993 26.0277 24.4533 25.8458 24.4902C25.6639 24.5258 25.4791 24.5442 25.2943 24.5442C25.1081 24.5442 24.9248 24.5258 24.7429 24.4902C24.5609 24.4533 24.3847 24.3993 24.2127 24.3282C24.0421 24.2586 23.8787 24.1704 23.7252 24.0681C23.5703 23.9644 23.4281 23.8478 23.296 23.717C23.1652 23.5849 23.0486 23.4427 22.9449 23.2878C22.8426 23.1343 22.7559 22.9709 22.6848 22.8003C22.6137 22.6283 22.5597 22.4521 22.5242 22.2701C22.4872 22.0882 22.4688 21.9049 22.4688 21.7187C22.4688 21.5339 22.4872 21.3506 22.5242 21.1686C22.5597 20.9867 22.6137 20.809 22.6848 20.6385C22.7559 20.4665 22.8426 20.3045 22.9449 20.1496C23.0486 19.996 23.1652 19.8525 23.296 19.7217C23.4281 19.591 23.5703 19.473 23.7252 19.3707C23.8787 19.2669 24.0421 19.1802 24.2127 19.1091C24.3847 19.0381 24.5609 18.9841 24.7429 18.9485C24.9248 18.913 25.1081 18.8945 25.2943 18.8945C25.4791 18.8945 25.6639 18.913 25.8458 18.9485C26.0277 18.9841 26.204 19.0381 26.3745 19.1091C26.5465 19.1802 26.7085 19.2669 26.8634 19.3707C27.0169 19.473 27.1605 19.591 27.2913 19.7217Z" fill="#D9D9D9"/>
<path d="M25.3029 24.8135C25.2261 24.8135 25.1508 24.8107 25.0755 24.805C23.3713 24.6827 22.085 23.1975 22.2073 21.4933C22.267 20.6675 22.6436 19.9142 23.2704 19.3727C23.8958 18.8312 24.6946 18.5668 25.5203 18.6251C26.3447 18.6848 27.098 19.0629 27.6395 19.6883C28.181 20.3136 28.4468 21.1124 28.3871 21.9382C28.3274 22.7626 27.9508 23.5159 27.3254 24.0574C26.7569 24.5491 26.0462 24.8135 25.3029 24.8135ZM25.1138 24.2606C25.7947 24.3089 26.4527 24.0901 26.9672 23.6452C27.4832 23.1989 27.793 22.5778 27.8428 21.8984C27.8911 21.219 27.6722 20.5609 27.2273 20.045C26.781 19.5305 26.1599 19.2192 25.4805 19.1709C24.8012 19.1212 24.1431 19.34 23.6271 19.7863C23.1126 20.2326 22.8014 20.8523 22.753 21.5317C22.6507 22.936 23.711 24.1597 25.1138 24.2606Z" fill="black"/>
<path d="M36.3357 9.37949C36.2192 9.14781 36.0813 8.93461 35.9292 8.73563L36.4778 7.5133C36.2106 7.23899 35.9122 6.98742 35.5796 6.76996C35.2456 6.5525 34.8959 6.3791 34.5377 6.24407L33.6381 7.23615C33.1477 7.11676 32.636 7.08691 32.1244 7.15371L31.3398 6.06641C30.9688 6.16021 30.6021 6.29382 30.2468 6.4729C29.8915 6.65341 29.5674 6.86945 29.2718 7.11107L29.6811 8.38883C29.3244 8.75979 29.0444 9.19045 28.8511 9.65664L27.5179 9.79167C27.4141 10.1612 27.3459 10.545 27.3246 10.9415C27.3018 11.3395 27.3274 11.7289 27.39 12.107L28.699 12.3898C28.7686 12.63 28.8582 12.8674 28.9762 13.0991C29.0927 13.3307 29.2306 13.5439 29.3826 13.7429L28.834 14.9652C29.1012 15.2381 29.3997 15.4897 29.7337 15.7086C30.0663 15.9261 30.4159 16.098 30.7741 16.2345L31.6738 15.241C32.1642 15.3618 32.6758 15.3916 33.1875 15.3248L33.9721 16.4121C34.343 16.3169 34.7097 16.1847 35.0651 16.0042C35.4204 15.8251 35.7444 15.6091 36.0401 15.3661L35.6307 14.0897C35.9875 13.7173 36.2675 13.2881 36.4608 12.8219L37.794 12.6855C37.8977 12.3173 37.966 11.9336 37.9873 11.5356C38.01 11.1376 37.9844 10.7496 37.9219 10.3716L36.6129 10.0887C36.5432 9.84852 36.4537 9.60974 36.3357 9.37949Z" fill="#D9D9D9"/>
<path d="M33.9719 16.6848C33.8852 16.6848 33.8027 16.6436 33.7501 16.5711L33.058 15.6132C32.6259 15.6544 32.1924 15.6302 31.7688 15.5421L30.9757 16.4176C30.9004 16.5001 30.7824 16.5285 30.6773 16.4887C30.2864 16.3409 29.9183 16.1561 29.5829 15.9358C29.2488 15.7169 28.9305 15.454 28.6391 15.1555C28.5595 15.0759 28.5382 14.9551 28.5851 14.8528L29.0683 13.7768C28.939 13.5949 28.8267 13.4087 28.7315 13.2225C28.6377 13.0349 28.5538 12.8345 28.4842 12.6227L27.3315 12.3726C27.2221 12.3498 27.1382 12.2617 27.1197 12.1509C27.0515 11.7387 27.0288 11.3265 27.0515 10.9271C27.0742 10.5277 27.1425 10.1198 27.2547 9.71756C27.286 9.60954 27.3784 9.53137 27.4907 9.52L28.6647 9.40061C28.8452 9.00691 29.0826 8.64447 29.3725 8.32041L29.0115 7.19473C28.9774 7.08814 29.0115 6.97159 29.0982 6.90052C29.4222 6.63616 29.7662 6.41017 30.1244 6.22966C30.4811 6.04916 30.8677 5.90418 31.2728 5.80185C31.3808 5.77342 31.4959 5.81464 31.5613 5.9056L32.2535 6.86357C32.6856 6.82377 33.1191 6.84793 33.5426 6.93463L34.3357 6.06053C34.4111 5.97809 34.529 5.94966 34.6342 5.98804C35.0251 6.13586 35.3932 6.32205 35.7286 6.54093C36.0626 6.75981 36.381 7.02276 36.6724 7.32265C36.752 7.40225 36.7733 7.52164 36.7264 7.62397L36.2431 8.70133C36.3725 8.88325 36.4847 9.06802 36.58 9.25564C36.6738 9.44183 36.7576 9.64366 36.8273 9.85543L37.98 10.1042C38.0894 10.1283 38.1733 10.2164 38.1917 10.3273C38.26 10.7395 38.2827 11.1517 38.26 11.5511C38.2372 11.9504 38.169 12.3569 38.0567 12.7592C38.0255 12.8672 37.9331 12.9454 37.8208 12.9567L36.6468 13.0775C36.4663 13.4698 36.2289 13.8323 35.939 14.1577L36.3 15.282C36.3341 15.39 36.3 15.5066 36.2133 15.5776C35.8892 15.842 35.5453 16.068 35.1871 16.2485C34.8303 16.429 34.4437 16.5726 34.0387 16.6763C34.0173 16.682 33.9946 16.6848 33.9719 16.6848ZM33.1873 15.0518C33.274 15.0518 33.3564 15.093 33.4076 15.1655L34.0827 16.0978C34.384 16.0097 34.6726 15.8974 34.9412 15.761C35.2098 15.6245 35.4728 15.4597 35.7229 15.2692L35.3704 14.1734C35.3406 14.0782 35.3648 13.973 35.433 13.9005C35.7656 13.5537 36.0257 13.1557 36.2076 12.7165C36.246 12.6241 36.3327 12.5602 36.4322 12.5502L37.5777 12.4337C37.6516 12.1281 37.6985 11.8211 37.7142 11.5198C37.7312 11.2199 37.7199 10.91 37.6801 10.5988L36.5558 10.3543C36.4577 10.3344 36.3796 10.2605 36.3511 10.1653C36.2815 9.92365 36.1962 9.70761 36.0925 9.50152C35.9887 9.29686 35.8636 9.09929 35.7116 8.90031C35.6519 8.82072 35.6391 8.71412 35.6803 8.62315L36.1507 7.57422C35.9233 7.35676 35.6817 7.16347 35.4287 6.99859C35.1771 6.83372 34.9028 6.68875 34.6129 6.56794L33.8397 7.42072C33.7729 7.49463 33.6691 7.5259 33.5725 7.50174C33.1106 7.38803 32.6358 7.36245 32.1597 7.42357C32.0602 7.43636 31.9621 7.39372 31.9039 7.3127L31.2287 6.3789C30.9274 6.46702 30.6389 6.58073 30.3703 6.71717C30.1016 6.8522 29.8387 7.01849 29.5885 7.20895L29.941 8.30478C29.9709 8.40001 29.9467 8.50518 29.8785 8.57767C29.5459 8.92305 29.2858 9.32102 29.1039 9.7602C29.0655 9.85259 28.9788 9.91797 28.8793 9.92792L27.7337 10.0445C27.6598 10.35 27.6129 10.6556 27.5973 10.9569C27.5802 11.2583 27.5916 11.5681 27.6314 11.8794L28.7557 12.1224C28.8537 12.1437 28.9319 12.2162 28.9603 12.3129C29.03 12.5531 29.1152 12.7705 29.219 12.9752C29.3228 13.1813 29.4478 13.3789 29.5999 13.5778C29.6596 13.6574 29.6724 13.7626 29.6312 13.855L29.1607 14.9039C29.3881 15.1214 29.6298 15.3147 29.8828 15.4796C30.1343 15.6444 30.4086 15.7894 30.6986 15.9102L31.4718 15.0574C31.5386 14.9835 31.6423 14.9523 31.739 14.9764C32.2009 15.0887 32.6756 15.1157 33.1518 15.0532C33.1631 15.0518 33.1745 15.0518 33.1873 15.0518Z" fill="black"/>
<path d="M34.169 9.43259C34.2784 9.54203 34.3751 9.66 34.4618 9.78792C34.547 9.91583 34.6181 10.0509 34.6778 10.193C34.7361 10.3351 34.7815 10.4815 34.8114 10.6336C34.8412 10.7843 34.8555 10.9363 34.8555 11.0898C34.8555 11.2448 34.8412 11.3968 34.8114 11.5475C34.7815 11.6982 34.7361 11.8446 34.6778 11.9867C34.6195 12.1288 34.547 12.2638 34.4618 12.3918C34.3751 12.5197 34.2784 12.6391 34.169 12.7471C34.0609 12.8565 33.943 12.9532 33.8151 13.0385C33.6871 13.1252 33.5521 13.1962 33.4086 13.2559C33.2664 13.3142 33.12 13.3597 32.9694 13.3895C32.8187 13.4194 32.6666 13.4336 32.5117 13.4336C32.3582 13.4336 32.2061 13.4194 32.0555 13.3895C31.9034 13.3597 31.757 13.3142 31.6149 13.2559C31.4727 13.1962 31.3377 13.1252 31.2098 13.0385C31.0819 12.9532 30.9639 12.8565 30.8545 12.7471C30.7464 12.6391 30.6484 12.5211 30.5631 12.3918C30.4778 12.2638 30.4053 12.1288 30.3471 11.9867C30.2874 11.8446 30.2433 11.6982 30.2135 11.5475C30.1836 11.3968 30.168 11.2448 30.168 11.0898C30.168 10.9363 30.1836 10.7843 30.2135 10.6336C30.2433 10.4815 30.2874 10.3351 30.3471 10.193C30.4053 10.0509 30.4778 9.91583 30.5631 9.78792C30.6484 9.66 30.7464 9.54203 30.8545 9.43259C30.9639 9.32457 31.0819 9.2265 31.2098 9.14122C31.3377 9.05594 31.4727 8.98345 31.6149 8.92518C31.757 8.86548 31.9034 8.82142 32.0555 8.79158C32.2061 8.76173 32.3582 8.74609 32.5117 8.74609C32.6666 8.74609 32.8187 8.76173 32.9694 8.79158C33.12 8.82142 33.2664 8.86548 33.4086 8.92518C33.5507 8.98345 33.6871 9.05594 33.8151 9.14122C33.943 9.2265 34.0609 9.32457 34.169 9.43259Z" fill="#D9D9D9"/>
<path d="M32.5164 13.7076C31.5599 13.7076 30.6361 13.1817 30.1755 12.2721C29.5246 10.9843 30.0434 9.40669 31.3311 8.75573C31.955 8.4402 32.6643 8.38619 33.328 8.60507C33.9932 8.82253 34.5319 9.2873 34.8474 9.91126C35.1629 10.5352 35.2169 11.2444 34.9981 11.9082C34.7806 12.572 34.3158 13.1121 33.6919 13.4262C33.3152 13.618 32.913 13.7076 32.5164 13.7076ZM32.5093 9.01867C32.1895 9.01867 31.8712 9.094 31.5784 9.24324C30.5593 9.75775 30.1485 11.0057 30.6631 12.0247C31.0283 12.7454 31.7589 13.1618 32.515 13.1618C32.8291 13.1618 33.1475 13.0907 33.446 12.9387C33.9392 12.6899 34.3059 12.2635 34.4793 11.7376C34.6513 11.2118 34.61 10.6503 34.3599 10.1571C34.1112 9.66395 33.6833 9.29583 33.1575 9.12385C32.9457 9.05421 32.7268 9.01867 32.5093 9.01867Z" fill="black"/>
<path d="M10.2309 16.1133L5.56471 20.3886C4.41487 21.4418 4.33669 23.227 5.38989 24.3768C6.44308 25.5252 8.22825 25.6048 9.37809 24.5516L14.0443 20.2763L10.2309 16.1133Z" fill="#D9D9D9"/>
<path d="M7.47214 25.5628C6.63357 25.5628 5.79784 25.2259 5.18809 24.5593C4.62952 23.9496 4.34241 23.1593 4.37794 22.3335C4.4149 21.5063 4.77023 20.7445 5.37997 20.1859L10.0461 15.9121C10.1584 15.8097 10.3304 15.8168 10.4327 15.9291C10.5351 16.04 10.5265 16.2119 10.4157 16.3143L5.74951 20.5882C5.24637 21.0487 4.95358 21.6769 4.92373 22.3577C4.89388 23.0371 5.13124 23.6895 5.59032 24.1912C6.09347 24.7384 6.78138 25.017 7.47214 25.017C8.08757 25.017 8.70442 24.7967 9.19335 24.349L13.8595 20.0751C13.9704 19.9727 14.1438 19.9798 14.2461 20.0921C14.347 20.203 14.3399 20.375 14.2291 20.4773L9.56289 24.7512C8.96878 25.2956 8.21975 25.5628 7.47214 25.5628Z" fill="black"/>
<path d="M11.0577 14.1094L9.517 15.5747C9.23131 15.8363 9.21141 16.2811 9.47293 16.5668L13.5251 20.9899C13.7866 21.2756 14.2315 21.2955 14.5172 21.034L16.092 19.5573L11.0577 14.1094Z" fill="#D9D9D9"/>
<path d="M14.0438 21.4921C14.0295 21.4921 14.0139 21.4907 13.9997 21.4907C13.7396 21.4793 13.4994 21.367 13.3232 21.1751L9.27241 16.752C9.09617 16.5601 9.0052 16.3114 9.01658 16.0499C9.02795 15.7912 9.14023 15.551 9.33069 15.3762L10.87 13.9122C10.9794 13.807 11.1528 13.8113 11.2566 13.9208C11.3603 14.0302 11.3561 14.2036 11.2466 14.3074L9.70449 15.7727C9.70449 15.7741 9.70307 15.7756 9.70165 15.777C9.61637 15.8537 9.56804 15.9603 9.56236 16.074C9.5581 16.1892 9.59789 16.2986 9.67464 16.3825L13.7254 20.8056C13.8036 20.8909 13.9087 20.9392 14.0239 20.9449C14.1376 20.9506 14.247 20.9108 14.3309 20.834L15.9057 19.3573C16.0151 19.2549 16.1885 19.2606 16.2923 19.3701C16.3946 19.4809 16.3889 19.6529 16.2795 19.7567L14.7032 21.2334L14.7018 21.2348C14.5199 21.4011 14.2882 21.4921 14.0438 21.4921Z" fill="black"/>
<path d="M27.3476 3.57313C27.5778 3.80338 27.7953 4.04359 28.0014 4.29516C28.2075 4.54531 28.4008 4.80683 28.5813 5.07688C28.7618 5.34693 28.9295 5.62551 29.0816 5.91119C29.2351 6.1983 29.3744 6.49109 29.498 6.7924C29.6231 7.0923 29.7325 7.39788 29.8264 7.70773C29.9202 8.019 29.9998 8.33453 30.0623 8.6529C30.1262 8.97128 30.1732 9.29249 30.2058 9.61513C30.2371 9.93919 30.2527 10.2632 30.2527 10.5873C30.2527 10.9128 30.2371 11.2368 30.2058 11.5595C30.1732 11.8835 30.1262 12.2048 30.0623 12.5231C29.9998 12.8415 29.9202 13.157 29.8264 13.4669C29.7325 13.7782 29.6231 14.0837 29.498 14.3836C29.3744 14.6835 29.2351 14.9777 29.0816 15.2634C28.9295 15.5505 28.7618 15.8291 28.5813 16.0992C28.4008 16.3692 28.2075 16.6293 28.0014 16.8809C27.7953 17.1325 27.5778 17.3727 27.3476 17.6029C27.1188 17.8317 26.8785 18.0492 26.627 18.2553C26.3754 18.4614 26.1153 18.6547 25.8453 18.8352C25.5752 19.0157 25.2966 19.1834 25.0095 19.3369C24.7238 19.489 24.4296 19.6283 24.1297 19.7519C23.8298 19.877 23.5243 19.9864 23.213 20.0803C22.9017 20.1755 22.5876 20.2537 22.2692 20.3176C21.9509 20.3802 21.6296 20.4285 21.3056 20.4597C20.9829 20.4924 20.6589 20.5081 20.3334 20.5081C20.0093 20.5081 19.6853 20.4924 19.3612 20.4597C19.0386 20.4285 18.7174 20.3802 18.399 20.3176C18.0792 20.2537 17.7651 20.1755 17.4538 20.0803C17.144 19.9864 16.8384 19.877 16.5371 19.7534C16.2372 19.6283 15.9444 19.489 15.6573 19.3369C15.3716 19.1834 15.093 19.0171 14.823 18.8366C14.5529 18.6561 14.2914 18.4628 14.0413 18.2567C13.7897 18.0506 13.5495 17.8317 13.3192 17.6029C13.0904 17.3727 12.8715 17.1325 12.6654 16.8809C12.4593 16.6307 12.266 16.3692 12.0855 16.0992C11.905 15.8291 11.7387 15.5505 11.5852 15.2648C11.4317 14.9777 11.2939 14.685 11.1688 14.3836C11.0451 14.0837 10.9357 13.7782 10.8405 13.4683C10.7466 13.157 10.6685 12.8415 10.6045 12.5231C10.5406 12.2048 10.4937 11.8835 10.461 11.5609C10.4297 11.2368 10.4141 10.9128 10.4141 10.5887C10.4141 10.2632 10.4297 9.93919 10.461 9.61655C10.4937 9.29249 10.5406 8.97128 10.6045 8.6529C10.6685 8.33453 10.7466 8.019 10.8405 7.70915C10.9357 7.39788 11.0451 7.0923 11.1688 6.7924C11.2939 6.49251 11.4317 6.1983 11.5852 5.91261C11.7387 5.62551 11.905 5.34693 12.0855 5.07688C12.266 4.80683 12.4593 4.54673 12.6654 4.29516C12.8715 4.04359 13.089 3.80338 13.3192 3.57313C13.5495 3.3443 13.7897 3.12684 14.0398 2.92075C14.2914 2.71466 14.5529 2.51994 14.823 2.34085C15.093 2.16035 15.3702 1.99263 15.6573 1.83913C15.9444 1.68705 16.2372 1.54776 16.5371 1.42411C16.837 1.29903 17.1426 1.18959 17.4538 1.09578C17.7651 1.00056 18.0792 0.922384 18.3976 0.858425C18.7174 0.795887 19.0372 0.747562 19.3612 0.716293C19.6839 0.683603 20.0079 0.667969 20.3334 0.667969C20.6589 0.667969 20.9829 0.683603 21.3056 0.716293C21.6296 0.747562 21.9494 0.795887 22.2692 0.858425C22.5876 0.922384 22.9017 1.00056 23.213 1.09578C23.5243 1.18959 23.8298 1.29903 24.1297 1.42269C24.4296 1.54776 24.7224 1.68705 25.0095 1.83913C25.2966 1.99263 25.5738 2.15893 25.8453 2.33943C26.1153 2.51994 26.3754 2.71324 26.627 2.91933C26.8771 3.12542 27.1188 3.3443 27.3476 3.57313Z" fill="#ED1C24"/>
<path d="M20.3442 20.7804C20.1921 20.7804 20.04 20.7775 19.8865 20.7704C18.5121 20.7107 17.1903 20.3824 15.958 19.7968C14.7684 19.2297 13.7109 18.448 12.8169 17.4716C11.9229 16.4965 11.2364 15.3751 10.7773 14.14C10.3012 12.8608 10.0908 11.5148 10.1505 10.1404C10.2102 8.76602 10.5385 7.4442 11.1241 6.21192C11.6912 5.02228 12.473 3.96482 13.4494 3.07082C14.4244 2.17681 15.5458 1.49032 16.781 1.03123C18.0601 0.555093 19.4061 0.344739 20.7805 0.404434C22.1549 0.464129 23.4768 0.792452 24.709 1.37803C25.8987 1.94514 26.9561 2.72686 27.8501 3.7033C28.7441 4.67832 29.4306 5.79974 29.8897 7.03486C30.3659 8.31404 30.5762 9.66002 30.5165 11.0344C30.4568 12.4088 30.1285 13.7307 29.5429 14.9629C28.9758 16.1526 28.1941 17.21 27.2176 18.104C26.2426 18.998 25.1212 19.6845 23.8861 20.1436C22.749 20.5672 21.5608 20.7804 20.3442 20.7804ZM10.6963 10.1646C10.4632 15.4789 14.5964 19.9915 19.9107 20.2246C20.0542 20.2317 20.1964 20.2346 20.3385 20.2346C25.4652 20.2346 29.7433 16.181 29.9707 11.0103C30.2038 5.69598 26.0707 1.18331 20.7564 0.950218C15.4421 0.717123 10.9294 4.8503 10.6963 10.1646Z" fill="black"/>
<path d="M25.4759 5.44553C25.6436 5.61325 25.8028 5.78949 25.9549 5.97426C26.1055 6.15761 26.2477 6.34949 26.3798 6.54705C26.512 6.74461 26.6343 6.94928 26.7465 7.15821C26.8588 7.36857 26.9597 7.58319 27.0507 7.80349C27.1417 8.02379 27.2227 8.24694 27.2909 8.47577C27.3605 8.70318 27.4188 8.93343 27.4643 9.16795C27.5112 9.40105 27.5467 9.63556 27.5695 9.87292C27.5922 10.1103 27.605 10.3476 27.605 10.585C27.605 10.8238 27.5936 11.0611 27.5695 11.2985C27.5467 11.5344 27.5112 11.7704 27.4643 12.0035C27.4188 12.238 27.3605 12.4682 27.2923 12.6956C27.2227 12.9231 27.1431 13.1476 27.0507 13.3679C26.9597 13.5868 26.8588 13.8029 26.7465 14.0118C26.6343 14.2221 26.512 14.4268 26.3798 14.6244C26.2477 14.8219 26.1055 15.0138 25.9549 15.1972C25.8042 15.3819 25.6436 15.5582 25.4759 15.7259C25.3068 15.8936 25.1305 16.0542 24.9472 16.2049C24.7624 16.3555 24.5719 16.4977 24.3744 16.6298C24.1754 16.762 23.9721 16.8843 23.7618 16.9965C23.5514 17.1088 23.3368 17.2112 23.1165 17.3021C22.8976 17.3931 22.6731 17.4727 22.4456 17.5423C22.2182 17.6105 21.9866 17.6688 21.7535 17.7157C21.5204 17.7612 21.2844 17.7967 21.0485 17.8195C20.8111 17.8436 20.5738 17.855 20.335 17.855C20.0976 17.855 19.8603 17.8436 19.6229 17.8195C19.3856 17.7967 19.151 17.7612 18.9165 17.7157C18.6834 17.6688 18.4532 17.6105 18.2258 17.5423C17.9969 17.4727 17.7738 17.3931 17.5535 17.3021C17.3332 17.2112 17.1186 17.1088 16.9082 16.9965C16.6979 16.8843 16.4946 16.762 16.297 16.6298C16.0981 16.4977 15.9076 16.3555 15.7243 16.2049C15.5395 16.0542 15.3632 15.895 15.1955 15.7259C15.0264 15.5582 14.8672 15.3819 14.7166 15.1972C14.5645 15.0138 14.4238 14.8219 14.2916 14.6244C14.1594 14.4268 14.0357 14.2221 13.9249 14.0132C13.8126 13.8029 13.7103 13.5882 13.6193 13.3679C13.5283 13.1476 13.4473 12.9245 13.3791 12.6956C13.3095 12.4682 13.2526 12.238 13.2057 12.0035C13.1588 11.7704 13.1247 11.5359 13.1005 11.2985C13.0778 11.0611 13.0664 10.8238 13.0664 10.5864C13.0664 10.3476 13.0778 10.1103 13.1005 9.87292C13.1247 9.63698 13.1588 9.40105 13.2057 9.16795C13.2512 8.93343 13.3095 8.70318 13.3791 8.47577C13.4473 8.24836 13.5283 8.02379 13.6193 7.80349C13.7103 7.58461 13.8112 7.36857 13.9235 7.15964C14.0357 6.94928 14.158 6.74461 14.2902 6.54705C14.4238 6.34949 14.5645 6.15761 14.7151 5.97426C14.8672 5.78949 15.0264 5.61325 15.1955 5.44553C15.3632 5.27782 15.5395 5.11721 15.7228 4.96655C15.9076 4.81589 16.0981 4.67376 16.297 4.54158C16.4946 4.4094 16.6979 4.28716 16.9082 4.17488C17.1186 4.0626 17.3332 3.96026 17.5535 3.8693C17.7738 3.77833 17.9969 3.69874 18.2243 3.6291C18.4532 3.56087 18.6834 3.5026 18.9165 3.45569C19.151 3.41021 19.3856 3.37468 19.6229 3.35194C19.8589 3.32778 20.0976 3.31641 20.335 3.31641C20.5738 3.31641 20.8111 3.32778 21.0471 3.35194C21.2844 3.37468 21.5204 3.40879 21.7535 3.45569C21.9866 3.5026 22.2168 3.55945 22.4456 3.6291C22.6731 3.69874 22.8976 3.77833 23.1165 3.8693C23.3368 3.96026 23.5514 4.0626 23.7618 4.17488C23.9721 4.28716 24.1754 4.4094 24.3744 4.54158C24.5719 4.67376 24.7624 4.81589 24.9472 4.96655C25.1305 5.11721 25.3068 5.2764 25.4759 5.44553Z" fill="#D9D9D9"/>
<path d="M20.3394 18.1277C20.2271 18.1277 20.1148 18.1262 20.0011 18.1206C17.9885 18.0324 16.1309 17.1654 14.7693 15.6802C13.4091 14.1949 12.7083 12.2676 12.7965 10.255C12.8846 8.24243 13.7516 6.38477 15.2369 5.02316C16.7221 3.66296 18.6494 2.96225 20.662 3.05037C22.6746 3.1385 24.5322 4.0055 25.8939 5.49077C27.2541 6.97604 27.9548 8.90334 27.8666 10.9159C27.7785 12.9285 26.9115 14.7862 25.4263 16.1478C24.0234 17.4312 22.2283 18.1277 20.3394 18.1277ZM20.328 3.58905C16.6098 3.58905 13.5071 6.52833 13.3423 10.2792C13.2598 12.1454 13.9108 13.9334 15.1729 15.3106C16.435 16.6893 18.1577 17.4938 20.0253 17.5748C20.129 17.579 20.2328 17.5819 20.3351 17.5819C24.0533 17.5819 27.156 14.6426 27.3209 10.8918C27.4033 9.02557 26.7523 7.23756 25.4902 5.86031C24.2281 4.48164 22.5055 3.67717 20.6378 3.59616C20.5341 3.59189 20.4303 3.58905 20.328 3.58905Z" fill="black"/>
<path d="M15.1406 10.7891H17.608V13.4398H15.1406V10.7891Z" fill="#D9D9D9"/>
<path d="M17.6114 13.7083C17.4607 13.7083 17.3385 13.586 17.3385 13.4354V11.0575H15.4169V13.4354C15.4169 13.586 15.2946 13.7083 15.144 13.7083C14.9933 13.7083 14.8711 13.586 14.8711 13.4354V10.7846C14.8711 10.634 14.9933 10.5117 15.144 10.5117H17.6114C17.762 10.5117 17.8843 10.634 17.8843 10.7846V13.4354C17.8843 13.586 17.762 13.7083 17.6114 13.7083Z" fill="black"/>
<path d="M19.1016 6.94531H21.5675V13.4393H19.1016V6.94531Z" fill="#D9D9D9"/>
<path d="M21.567 13.7077C21.4163 13.7077 21.2941 13.5855 21.2941 13.4348V7.21375H19.3739V13.4348C19.3739 13.5855 19.2517 13.7077 19.101 13.7077C18.9504 13.7077 18.8281 13.5855 18.8281 13.4348V6.94086C18.8281 6.7902 18.9504 6.66797 19.101 6.66797H21.567C21.7177 6.66797 21.8399 6.7902 21.8399 6.94086V13.4348C21.8399 13.5855 21.7177 13.7077 21.567 13.7077Z" fill="black"/>
<path d="M23.0625 9.35938H25.5299V13.4343H23.0625V9.35938Z" fill="#D9D9D9"/>
<path d="M25.5294 13.7066C25.3787 13.7066 25.2565 13.5844 25.2565 13.4337V9.63172H23.3348V13.4337C23.3348 13.5844 23.2126 13.7066 23.062 13.7066C22.9113 13.7066 22.7891 13.5844 22.7891 13.4337V9.35883C22.7891 9.20817 22.9113 9.08594 23.062 9.08594H25.5294C25.68 9.08594 25.8022 9.20817 25.8022 9.35883V13.4337C25.8022 13.5844 25.68 13.7066 25.5294 13.7066Z" fill="black"/>
<path d="M25.5295 13.7113H15.144C14.9933 13.7113 14.8711 13.589 14.8711 13.4384C14.8711 13.2877 14.9933 13.1641 15.144 13.1641H25.5295C25.6802 13.1641 25.8024 13.2877 25.8024 13.4384C25.8024 13.589 25.6802 13.7113 25.5295 13.7113Z" fill="black"/>
<path d="M31.3436 54.7184H9.3232C8.62676 54.7184 8.0625 54.1541 8.0625 53.4577V34.2373C8.0625 33.5408 8.62676 32.9766 9.3232 32.9766H31.3436C32.04 32.9766 32.6043 33.5408 32.6043 34.2373V53.4577C32.6043 54.1541 32.04 54.7184 31.3436 54.7184Z" fill="#D9D9D9"/>
<path d="M31.347 54.9907H9.32657C8.48088 54.9907 7.79297 54.3028 7.79297 53.4571V34.2367C7.79297 33.391 8.48088 32.7031 9.32657 32.7031H31.347C32.1926 32.7031 32.8806 33.391 32.8806 34.2367V53.4571C32.8806 54.3028 32.1926 54.9907 31.347 54.9907ZM9.32657 33.2489C8.7822 33.2489 8.33875 33.6924 8.33875 34.2367V53.4571C8.33875 54.0015 8.7822 54.4449 9.32657 54.4449H31.347C31.8913 54.4449 32.3348 54.0015 32.3348 53.4571V34.2367C32.3348 33.6924 31.8913 33.2489 31.347 33.2489H9.32657Z" fill="black"/>
<path d="M29.6405 35.0886C29.6405 35.1952 29.6206 35.2989 29.5794 35.397C29.5382 35.4965 29.4799 35.5832 29.4046 35.6585C29.3293 35.7353 29.2411 35.7935 29.1431 35.8333C29.0436 35.8745 28.9412 35.8959 28.8346 35.8959C28.7266 35.8959 28.6243 35.8745 28.5248 35.8333C28.4267 35.7935 28.3386 35.7353 28.2633 35.6585C28.188 35.5832 28.1297 35.4965 28.0885 35.397C28.0472 35.2989 28.0273 35.1952 28.0273 35.0886C28.0273 34.982 28.0472 34.8782 28.0885 34.7801C28.1297 34.6806 28.188 34.5939 28.2633 34.5186C28.3386 34.4419 28.4267 34.3836 28.5248 34.3438C28.6243 34.3026 28.7266 34.2812 28.8346 34.2812C28.9412 34.2812 29.0436 34.3026 29.1431 34.3438C29.2411 34.3836 29.3293 34.4419 29.4046 34.5186C29.4799 34.5939 29.5382 34.6806 29.5794 34.7801C29.6206 34.8782 29.6405 34.982 29.6405 35.0886Z" fill="#D9D9D9"/>
<path d="M28.838 36.1721C28.2425 36.1721 27.7578 35.6874 27.7578 35.0919C27.7578 34.4964 28.2425 34.0117 28.838 34.0117C29.4321 34.0117 29.9168 34.4964 29.9168 35.0919C29.9168 35.6874 29.4321 36.1721 28.838 36.1721ZM28.838 34.5589C28.5438 34.5589 28.3036 34.7977 28.3036 35.0919C28.3036 35.3861 28.5438 35.6249 28.838 35.6249C29.1322 35.6249 29.371 35.3861 29.371 35.0919C29.371 34.7977 29.1322 34.5589 28.838 34.5589Z" fill="black"/>
<path d="M26.8241 35.0886C26.8241 35.1952 26.8042 35.2989 26.763 35.397C26.7218 35.4965 26.6635 35.5832 26.5882 35.6585C26.5129 35.7353 26.4262 35.7935 26.3267 35.8333C26.2286 35.8745 26.1248 35.8959 26.0182 35.8959C25.9116 35.8959 25.8079 35.8745 25.7098 35.8333C25.6103 35.7935 25.5236 35.7353 25.4483 35.6585C25.3715 35.5832 25.3133 35.4965 25.2735 35.397C25.2323 35.2989 25.2109 35.1952 25.2109 35.0886C25.2109 34.982 25.2323 34.8782 25.2735 34.7801C25.3133 34.6806 25.3715 34.5939 25.4483 34.5186C25.5236 34.4419 25.6103 34.3836 25.7098 34.3438C25.8079 34.3026 25.9116 34.2812 26.0182 34.2812C26.1248 34.2812 26.2286 34.3026 26.3267 34.3438C26.4262 34.3836 26.5129 34.4419 26.5882 34.5186C26.6635 34.5939 26.7218 34.6806 26.763 34.7801C26.8042 34.8782 26.8241 34.982 26.8241 35.0886Z" fill="#D9D9D9"/>
<path d="M26.0138 36.1721C25.4183 36.1721 24.9336 35.6874 24.9336 35.0919C24.9336 34.4964 25.4183 34.0117 26.0138 34.0117C26.6093 34.0117 27.094 34.4964 27.094 35.0919C27.094 35.6874 26.6093 36.1721 26.0138 36.1721ZM26.0138 34.5589C25.7196 34.5589 25.4794 34.7977 25.4794 35.0919C25.4794 35.3861 25.7196 35.6249 26.0138 35.6249C26.308 35.6249 26.5468 35.3861 26.5468 35.0919C26.5468 34.7977 26.308 34.5589 26.0138 34.5589Z" fill="black"/>
<path d="M32.6077 37.413H8.06586C7.9152 37.413 7.79297 37.2907 7.79297 37.1401C7.79297 36.9894 7.9152 36.8672 8.06586 36.8672H32.6077C32.7583 36.8672 32.8806 36.9894 32.8806 37.1401C32.8806 37.2907 32.7583 37.413 32.6077 37.413Z" fill="black"/>
<path d="M19.168 44.4809C19.6882 44.4809 20.0791 44.0048 19.9739 43.4959C19.5177 41.2901 17.5648 39.6328 15.2253 39.6328C12.8858 39.6328 10.933 41.2901 10.4781 43.4959C10.373 44.0048 10.7638 44.4809 11.2826 44.4809H19.168Z" fill="#D9D9D9"/>
<path d="M19.1636 44.7572H11.2781C10.9484 44.7572 10.6385 44.6108 10.4296 44.3535C10.2207 44.0977 10.1397 43.7665 10.2065 43.4439C10.441 42.3068 11.0664 41.2721 11.9675 40.5302C12.88 39.7783 14.0355 39.3633 15.2209 39.3633C16.4062 39.3633 17.5618 39.7783 18.4757 40.5302C19.3768 41.2721 20.0022 42.3068 20.2367 43.4439C20.3035 43.7665 20.2225 44.0977 20.0135 44.3535C19.8046 44.6108 19.4947 44.7572 19.1636 44.7572ZM15.2209 39.9091C13.0619 39.9091 11.1772 41.4427 10.7409 43.5547C10.7082 43.7153 10.748 43.8802 10.8532 44.0081C10.9569 44.1375 11.1133 44.2114 11.2781 44.2114H19.1636C19.3299 44.2114 19.4848 44.1375 19.59 44.0081C19.6937 43.8802 19.735 43.7153 19.7023 43.5547C19.2659 41.4427 17.3813 39.9091 15.2209 39.9091Z" fill="black"/>
<path d="M13.9941 44.175C13.9558 44.175 13.916 44.1665 13.8776 44.148L12.0981 43.3052C11.9617 43.2412 11.9034 43.0778 11.9674 42.9413C12.0327 42.8049 12.1948 42.7466 12.3312 42.812L14.1121 43.6548C14.2486 43.7202 14.3068 43.8822 14.2415 44.0187C14.1946 44.1168 14.0965 44.175 13.9941 44.175Z" fill="black"/>
<path d="M13.9062 44.384C13.9062 43.6563 14.4961 43.0664 15.2238 43.0664C15.9515 43.0664 16.5428 43.6563 16.5428 44.384H13.9062Z" fill="#D9D9D9"/>
<path d="M16.5422 44.6563H13.9057C13.755 44.6563 13.6328 44.5341 13.6328 44.3834C13.6328 43.5065 14.3463 42.793 15.2233 42.793C16.1016 42.793 16.8151 43.5065 16.8151 44.3834C16.8151 44.5341 16.6929 44.6563 16.5422 44.6563ZM14.2156 44.1105H16.2324C16.1116 43.6671 15.7051 43.3388 15.2233 43.3388C14.7414 43.3388 14.3349 43.6671 14.2156 44.1105Z" fill="black"/>
<path d="M11.1342 51.4731C10.6154 51.4731 10.2245 50.997 10.3297 50.4881C10.7845 48.2837 12.7374 46.625 15.0769 46.625C17.4178 46.625 19.3692 48.2837 19.8255 50.4881C19.9307 50.997 19.5398 51.4731 19.0196 51.4731H11.1342Z" fill="#D9D9D9"/>
<path d="M19.0191 51.7508H11.1336C10.8039 51.7508 10.494 51.603 10.2851 51.3457C10.0762 51.0899 9.99514 50.7587 10.0619 50.4361C10.2965 49.299 10.9218 48.2643 11.8229 47.5224C12.7354 46.7705 13.891 46.3555 15.0763 46.3555C16.2617 46.3555 17.4172 46.7705 18.3311 47.5224C19.2322 48.2643 19.8576 49.299 20.0921 50.4361C20.1589 50.7587 20.0779 51.0899 19.869 51.3457C19.6601 51.603 19.3502 51.7508 19.0191 51.7508ZM15.0763 46.9027C12.9174 46.9027 11.0327 48.4348 10.5964 50.5469C10.5637 50.7075 10.6035 50.8738 10.7086 51.0017C10.8138 51.1297 10.9687 51.2036 11.1336 51.2036H19.0191C19.1853 51.2036 19.3403 51.1297 19.4454 51.0017C19.5492 50.8738 19.5904 50.7075 19.5577 50.5469C19.1214 48.4348 17.2367 46.9027 15.0763 46.9027Z" fill="black"/>
<path d="M16.3045 51.1672C16.2022 51.1672 16.1041 51.1104 16.0572 51.0109C15.9932 50.8744 16.0515 50.7124 16.188 50.647L17.9674 49.8042C18.1039 49.7388 18.2673 49.7971 18.3313 49.9335C18.3967 50.07 18.3384 50.2334 18.202 50.2974L16.4211 51.1416C16.3841 51.1587 16.3443 51.1672 16.3045 51.1672Z" fill="black"/>
<path d="M16.3983 51.3776C16.3983 50.6484 15.8084 50.0586 15.0793 50.0586C14.3516 50.0586 13.7617 50.6484 13.7617 51.3776H16.3983Z" fill="#D9D9D9"/>
<path d="M16.3977 51.6499H13.7612C13.6105 51.6499 13.4883 51.5277 13.4883 51.377C13.4883 50.4987 14.2018 49.7852 15.0787 49.7852C15.9571 49.7852 16.6706 50.4987 16.6706 51.377C16.6706 51.5277 16.5484 51.6499 16.3977 51.6499ZM14.071 51.1027H16.0879C15.9671 50.6593 15.5606 50.3309 15.0787 50.3309C14.5969 50.3309 14.1904 50.6593 14.071 51.1027Z" fill="black"/>
<path d="M22.1133 42.3359H24.0193V44.384H22.1133V42.3359Z" fill="#ED1C24"/>
<path d="M24.0187 44.6564C23.8681 44.6564 23.7458 44.5342 23.7458 44.3835V42.6083H22.3856V44.3835C22.3856 44.5342 22.2634 44.6564 22.1127 44.6564C21.9621 44.6564 21.8398 44.5342 21.8398 44.3835V42.3354C21.8398 42.1847 21.9621 42.0625 22.1127 42.0625H24.0187C24.1694 42.0625 24.2916 42.1847 24.2916 42.3354V44.3835C24.2916 44.5342 24.1694 44.6564 24.0187 44.6564Z" fill="black"/>
<path d="M25.1719 39.3672H27.0764V44.3844H25.1719V39.3672Z" fill="#ED1C24"/>
<path d="M27.0759 44.6568C26.9252 44.6568 26.803 44.5345 26.803 44.3839V39.6395H25.4442V44.3839C25.4442 44.5345 25.322 44.6568 25.1713 44.6568C25.0207 44.6568 24.8984 44.5345 24.8984 44.3839V39.3666C24.8984 39.216 25.0207 39.0938 25.1713 39.0938H27.0759C27.2265 39.0938 27.3488 39.216 27.3488 39.3666V44.3839C27.3488 44.5345 27.2265 44.6568 27.0759 44.6568Z" fill="black"/>
<path d="M28.2266 41.2383H30.1325V44.3865H28.2266V41.2383Z" fill="#ED1C24"/>
<path d="M30.132 44.6588C29.9813 44.6588 29.8591 44.5366 29.8591 44.3859V41.5106H28.4989V44.3859C28.4989 44.5366 28.3767 44.6588 28.226 44.6588C28.0754 44.6588 27.9531 44.5366 27.9531 44.3859V41.2377C27.9531 41.0871 28.0754 40.9648 28.226 40.9648H30.132C30.2827 40.9648 30.4063 41.0871 30.4063 41.2377V44.3859C30.4063 44.5366 30.2827 44.6588 30.132 44.6588Z" fill="black"/>
<path d="M30.1346 44.6552H22.1127C21.9621 44.6552 21.8398 44.5329 21.8398 44.3823C21.8398 44.2316 21.9621 44.1094 22.1127 44.1094H30.1346C30.2853 44.1094 30.4089 44.2316 30.4089 44.3823C30.4089 44.5329 30.2853 44.6552 30.1346 44.6552Z" fill="black"/>
<path d="M30.1346 51.6541H22.1127C21.9621 51.6541 21.8398 51.5319 21.8398 51.3812V46.6284C21.8398 46.4777 21.9621 46.3555 22.1127 46.3555C22.2634 46.3555 22.3856 46.4777 22.3856 46.6284V51.1069H30.1346C30.2853 51.1069 30.4089 51.2291 30.4089 51.3812C30.4089 51.5319 30.2853 51.6541 30.1346 51.6541Z" fill="black"/>
<path d="M22.1131 50.8011C22.0434 50.8011 21.9724 50.7741 21.9198 50.7201C21.8132 50.6135 21.8132 50.4415 21.9198 50.3349L23.5245 48.7303C23.5756 48.6791 23.6453 48.6507 23.7178 48.6507C23.7888 48.6507 23.8585 48.6791 23.9096 48.7303L24.4611 49.2803L26.3529 47.3885C26.4595 47.2819 26.6329 47.2819 26.7395 47.3885L28.5644 49.2135L30.1634 47.6131C30.27 47.5065 30.4434 47.5065 30.55 47.6131C30.6566 47.7197 30.6566 47.8931 30.55 47.9997L28.7563 49.792C28.7051 49.8431 28.6355 49.8716 28.5644 49.8716C28.4919 49.8716 28.4223 49.8431 28.3711 49.792L26.5462 47.967L24.653 49.8602C24.6018 49.9114 24.5336 49.9398 24.4611 49.9398C24.3886 49.9398 24.319 49.9114 24.2678 49.8602L23.7178 49.3087L22.3064 50.7201C22.2524 50.7741 22.1827 50.8011 22.1131 50.8011Z" fill="black"/>
<path d="M59.1651 31.1836V38.6967C59.1651 39.1728 58.7799 39.5594 58.3038 39.5594H37.7573C37.2811 39.5594 36.8945 39.1728 36.8945 38.6967V31.1836H59.1651Z" fill="#D9D9D9"/>
<path d="M58.3032 39.8317H37.7567C37.1299 39.8317 36.6211 39.3215 36.6211 38.6961V31.183C36.6211 31.0324 36.7433 30.9102 36.894 30.9102C37.0446 30.9102 37.1669 31.0324 37.1669 31.183V38.6961C37.1669 39.0216 37.4312 39.2845 37.7567 39.2845H58.3032C58.6273 39.2845 58.8916 39.0216 58.8916 38.6961V31.183C58.8916 31.0324 59.0139 30.9102 59.1645 30.9102C59.3152 30.9102 59.4374 31.0324 59.4374 31.183V38.6961C59.4374 39.3215 58.9286 39.8317 58.3032 39.8317Z" fill="black"/>
<path d="M53.6526 22.391C53.5019 22.391 53.3797 22.2687 53.3797 22.1181V19.7815C53.3797 18.9258 52.6846 18.2308 51.829 18.2308H44.2292C43.375 18.2308 42.6786 18.9258 42.6786 19.7815V22.1181C42.6786 22.2687 42.5564 22.391 42.4057 22.391C42.255 22.391 42.1328 22.2687 42.1328 22.1181V19.7815C42.1328 18.6245 43.0737 17.6836 44.2292 17.6836H51.829C52.986 17.6836 53.9269 18.6245 53.9269 19.7815V22.1181C53.9269 22.2687 53.8046 22.391 53.6526 22.391Z" fill="black"/>
<mask id="mask1_3476_27456" style="mask-type:luminance" maskUnits="userSpaceOnUse" x="35" y="21" width="26" height="11">
<path d="M35.7969 21.9375H60.5007V31.3978H35.7969V21.9375Z" fill="white"/>
</mask>
<g mask="url(#mask1_3476_27456)">
<path d="M40.5767 31.1873H36.7548C36.2517 31.1873 35.8438 30.7794 35.8438 30.2748V23.0361C35.8438 22.5329 36.2517 22.125 36.7548 22.125H59.3068C59.8113 22.125 60.2193 22.5329 60.2193 23.0361V30.2748C60.2193 30.7794 59.8113 31.1873 59.3068 31.1873H40.5767Z" fill="#D9D9D9"/>
</g>
<mask id="mask2_3476_27456" style="mask-type:luminance" maskUnits="userSpaceOnUse" x="35" y="21" width="26" height="11">
<path d="M35.4297 21.5703H60.4974V31.7583H35.4297V21.5703Z" fill="white"/>
</mask>
<g mask="url(#mask2_3476_27456)">
<path d="M59.3077 31.4493H55.4957C55.345 31.4493 55.2228 31.3271 55.2228 31.1764C55.2228 31.0258 55.345 30.9036 55.4957 30.9036H59.3077C59.6601 30.9036 59.9472 30.6164 59.9472 30.264V23.0252C59.9472 22.6727 59.6601 22.387 59.3077 22.387H36.7557C36.4032 22.387 36.1175 22.6727 36.1175 23.0252V30.264C36.1175 30.6164 36.4032 30.9036 36.7557 30.9036H40.5776C40.7283 30.9036 40.8505 31.0258 40.8505 31.1764C40.8505 31.3271 40.7283 31.4493 40.5776 31.4493H36.7557C36.1033 31.4493 35.5703 30.9178 35.5703 30.264V23.0252C35.5703 22.3714 36.1033 21.8398 36.7557 21.8398H59.3077C59.9615 21.8398 60.493 22.3714 60.493 23.0252V30.264C60.493 30.9178 59.9615 31.4493 59.3077 31.4493Z" fill="black"/>
</g>
<path d="M55.493 30.8305C55.493 31.075 55.4817 31.318 55.4575 31.5611C55.4333 31.8055 55.3978 32.0457 55.3495 32.2859C55.3026 32.5261 55.2429 32.7621 55.1718 32.9966C55.1007 33.2311 55.0183 33.4599 54.9245 33.6859C54.8307 33.9119 54.7269 34.1322 54.6118 34.3482C54.4967 34.5643 54.3716 34.7732 54.2352 34.9765C54.0987 35.1797 53.9538 35.3759 53.7988 35.5649C53.6439 35.7539 53.4805 35.9344 53.3071 36.1078C53.1337 36.2798 52.9531 36.4447 52.7641 36.5996C52.5751 36.7545 52.3789 36.8995 52.1757 37.036C51.9724 37.171 51.7635 37.2975 51.5475 37.4126C51.3314 37.5277 51.1111 37.6315 50.8851 37.7253C50.6591 37.8191 50.4303 37.9015 50.1958 37.9726C49.9627 38.0437 49.7253 38.1019 49.4851 38.1503C49.2464 38.1986 49.0047 38.2341 48.7603 38.2583C48.5172 38.281 48.2742 38.2938 48.0297 38.2938C47.7853 38.2938 47.5408 38.281 47.2977 38.2583C47.0547 38.2341 46.8131 38.1986 46.5729 38.1503C46.3341 38.1019 46.0967 38.0437 45.8622 37.9726C45.6291 37.9015 45.3989 37.8191 45.1729 37.7253C44.9469 37.6315 44.7266 37.5277 44.5105 37.4126C44.2959 37.2975 44.0856 37.171 43.8823 37.036C43.6791 36.8995 43.4829 36.7545 43.2939 36.5996C43.1049 36.4447 42.9244 36.2798 42.7524 36.1078C42.579 35.9344 42.4155 35.7539 42.2606 35.5649C42.1043 35.3759 41.9593 35.1797 41.8243 34.9765C41.6878 34.7732 41.5627 34.5643 41.4476 34.3482C41.3325 34.1322 41.2273 33.9119 41.1335 33.6859C41.0397 33.4599 40.9587 33.2311 40.8876 32.9966C40.8166 32.7621 40.7569 32.5261 40.7085 32.2859C40.6616 32.0457 40.6261 31.8055 40.6019 31.5611C40.5778 31.318 40.5664 31.075 40.5664 30.8305C40.5664 30.586 40.5778 30.3416 40.6019 30.0985C40.6261 29.8555 40.6616 29.6139 40.7085 29.3737C40.7569 29.1349 40.8166 28.8975 40.8876 28.663C40.9587 28.4299 41.0397 28.1997 41.1335 27.9737C41.2273 27.7477 41.3325 27.5274 41.4476 27.3113C41.5627 27.0967 41.6878 26.8864 41.8243 26.6831C41.9593 26.4799 42.1043 26.2837 42.2606 26.0947C42.4155 25.9057 42.579 25.7251 42.7524 25.5532C42.9244 25.3798 43.1049 25.2163 43.2939 25.06C43.4829 24.905 43.6791 24.7601 43.8823 24.6236C44.0856 24.4886 44.2959 24.3635 44.5105 24.2484C44.7266 24.1319 44.9469 24.0281 45.1729 23.9343C45.3989 23.8405 45.6291 23.7595 45.8622 23.6884C46.0967 23.6173 46.3341 23.5576 46.5729 23.5093C46.8131 23.4624 47.0547 23.4269 47.2977 23.4027C47.5408 23.3786 47.7853 23.3672 48.0297 23.3672C48.2742 23.3672 48.5172 23.3786 48.7603 23.4027C49.0047 23.4269 49.2464 23.4624 49.4851 23.5093C49.7253 23.5576 49.9627 23.6173 50.1958 23.6884C50.4303 23.7595 50.6591 23.8405 50.8851 23.9343C51.1111 24.0281 51.3314 24.1319 51.5475 24.2484C51.7635 24.3635 51.9724 24.4886 52.1757 24.6236C52.3789 24.7601 52.5751 24.905 52.7641 25.06C52.9531 25.2163 53.1337 25.3798 53.3071 25.5532C53.4805 25.7251 53.6439 25.9057 53.7988 26.0947C53.9538 26.2837 54.0987 26.4799 54.2352 26.6831C54.3716 26.8864 54.4967 27.0967 54.6118 27.3113C54.7269 27.5274 54.8307 27.7477 54.9245 27.9737C55.0183 28.1997 55.1007 28.4299 55.1718 28.663C55.2429 28.8975 55.3026 29.1349 55.3495 29.3737C55.3978 29.6139 55.4333 29.8555 55.4575 30.0985C55.4817 30.3416 55.493 30.586 55.493 30.8305Z" fill="#D9D9D9"/>
<path d="M48.0306 38.5637C45.964 38.5637 44.0211 37.7592 42.56 36.2981C41.0989 34.837 40.293 32.8941 40.293 30.8275C40.293 28.7609 41.0989 26.8179 42.56 25.3568C44.0211 23.8957 45.964 23.0898 48.0306 23.0898C50.0972 23.0898 52.0401 23.8957 53.5012 25.3568C54.9623 26.8179 55.7668 28.7609 55.7668 30.8275C55.7668 32.8941 54.9623 34.837 53.5012 36.2981C52.0401 37.7592 50.0972 38.5637 48.0306 38.5637ZM48.0306 23.637C44.0651 23.637 40.8402 26.862 40.8402 30.8275C40.8402 34.7915 44.0651 38.0179 48.0306 38.0179C51.9946 38.0179 55.221 34.7915 55.221 30.8275C55.221 26.862 51.9946 23.637 48.0306 23.637Z" fill="black"/>
<path d="M52.7482 30.8241C52.7482 31.0473 52.7184 31.2704 52.6573 31.4893C52.5976 31.7096 52.508 31.9228 52.3886 32.1303C52.2707 32.3364 52.1257 32.534 51.9537 32.7202C51.7817 32.9064 51.5856 33.0784 51.3667 33.2375C51.1478 33.3953 50.9091 33.5374 50.6518 33.6625C50.3945 33.7862 50.1231 33.8913 49.8374 33.9766C49.5503 34.0633 49.2561 34.1273 48.9519 34.1713C48.6477 34.2154 48.3422 34.2367 48.0323 34.2367C47.7225 34.2367 47.4155 34.2154 47.1113 34.1713C46.8086 34.1273 46.5129 34.0633 46.2273 33.9766C45.9416 33.8913 45.6687 33.7862 45.4114 33.6625C45.1542 33.5374 44.9154 33.3953 44.6965 33.2375C44.4776 33.0784 44.2829 32.9064 44.1109 32.7202C43.9389 32.534 43.7925 32.3364 43.6746 32.1303C43.5566 31.9228 43.4671 31.7096 43.4059 31.4893C43.3463 31.2704 43.3164 31.0473 43.3164 30.8241C43.3164 30.5996 43.3463 30.3779 43.4059 30.1576C43.4671 29.9387 43.5566 29.7241 43.6746 29.518C43.7925 29.3105 43.9389 29.1143 44.1109 28.9267C44.2829 28.7405 44.4776 28.5685 44.6965 28.4108C44.9154 28.2516 45.1542 28.1094 45.4114 27.9858C45.6687 27.8607 45.9416 27.7555 46.2273 27.6703C46.5129 27.585 46.8086 27.5196 47.1113 27.4755C47.4155 27.4329 47.7225 27.4102 48.0323 27.4102C48.3422 27.4102 48.6477 27.4329 48.9519 27.4755C49.2561 27.5196 49.5503 27.585 49.8374 27.6703C50.1231 27.7555 50.3945 27.8607 50.6518 27.9858C50.9091 28.1094 51.1478 28.2516 51.3667 28.4108C51.5856 28.5685 51.7817 28.7405 51.9537 28.9267C52.1257 29.1143 52.2707 29.3105 52.3886 29.518C52.508 29.7241 52.5976 29.9387 52.6573 30.1576C52.7184 30.3779 52.7482 30.5996 52.7482 30.8241Z" fill="#D9D9D9"/>
<path d="M48.0289 34.513C46.9033 34.513 45.8316 34.1619 44.9276 33.4967C44.0436 32.8458 43.394 31.9518 43.0529 30.9128C43.0344 30.8574 43.0344 30.7977 43.0529 30.7422C43.394 29.7018 44.0436 28.8092 44.9276 28.1569C45.8316 27.4917 46.9033 27.1406 48.0289 27.1406C49.1532 27.1406 50.2263 27.4917 51.1288 28.1569C52.0143 28.8092 52.6624 29.7018 53.005 30.7422C53.022 30.7977 53.022 30.8574 53.005 30.9128C52.6624 31.9518 52.0143 32.8458 51.1288 33.4967C50.2263 34.1619 49.1532 34.513 48.0289 34.513ZM43.6001 30.8275C44.2596 32.7093 46.0277 33.9672 48.0289 33.9672C50.0301 33.9672 51.7983 32.7093 52.4563 30.8275C51.7983 28.9457 50.0301 27.6864 48.0289 27.6864C46.0277 27.6864 44.2596 28.9457 43.6001 30.8275Z" fill="black"/>
<path d="M49.8931 29.7055C50.0892 30.0324 50.2029 30.4162 50.2029 30.8255C50.2029 32.0251 49.2307 32.9973 48.0311 32.9973C46.8316 32.9973 45.8594 32.0251 45.8594 30.8255C45.8594 29.6259 46.8316 28.6523 48.0311 28.6523C48.1903 28.6523 48.3467 28.6708 48.4959 28.7035L49.8931 29.7055Z" fill="#ED1C24"/>
<path d="M48.032 33.2735C46.6832 33.2735 45.5859 32.1763 45.5859 30.8289C45.5859 29.4801 46.6832 28.3828 48.032 28.3828C48.2083 28.3828 48.3845 28.4027 48.5551 28.4397C48.7029 28.4724 48.7967 28.6173 48.764 28.7651C48.7313 28.9115 48.5863 29.0053 48.4385 28.9727C48.3063 28.9442 48.1685 28.93 48.032 28.93C46.9845 28.93 46.1331 29.7814 46.1331 30.8289C46.1331 31.875 46.9845 32.7278 48.032 32.7278C49.0795 32.7278 49.9309 31.875 49.9309 30.8289C49.9309 30.4835 49.8371 30.1452 49.6594 29.851C49.5827 29.7217 49.6239 29.554 49.7532 29.4758C49.8826 29.3976 50.0503 29.4388 50.1285 29.5682C50.3559 29.9477 50.4767 30.384 50.4767 30.8289C50.4767 32.1763 49.3794 33.2735 48.032 33.2735Z" fill="black"/>
<path d="M49.8932 29.5833C49.8932 29.707 49.869 29.8263 49.8221 29.9401C49.7752 30.0538 49.707 30.1547 49.6203 30.2428C49.5322 30.3295 49.4327 30.3963 49.3175 30.4446C49.2038 30.4915 49.0859 30.5143 48.9622 30.5143C48.8386 30.5143 48.7192 30.4915 48.6055 30.4446C48.4918 30.3963 48.3908 30.3295 48.3041 30.2428C48.216 30.1547 48.1492 30.0538 48.1023 29.9401C48.054 29.8263 48.0312 29.707 48.0312 29.5833C48.0312 29.4611 48.054 29.3417 48.1023 29.228C48.1492 29.1143 48.216 29.0134 48.3041 28.9252C48.3908 28.8385 48.4918 28.7717 48.6055 28.7234C48.7192 28.6765 48.8386 28.6523 48.9622 28.6523C49.0859 28.6523 49.2038 28.6765 49.3175 28.7234C49.4327 28.7717 49.5322 28.8385 49.6203 28.9252C49.707 29.0134 49.7752 29.1143 49.8221 29.228C49.869 29.3417 49.8932 29.4611 49.8932 29.5833Z" fill="#D9D9D9"/>
<path d="M48.9578 30.7912C48.6351 30.7912 48.3338 30.6647 48.1064 30.4373C47.879 30.2099 47.7539 29.9086 47.7539 29.586C47.7539 29.2647 47.879 28.962 48.1064 28.7346C48.5754 28.2656 49.3387 28.2656 49.8091 28.7346C50.2782 29.205 50.2782 29.9683 49.8091 30.4373C49.5817 30.6647 49.279 30.7912 48.9578 30.7912ZM48.9578 28.9293C48.7886 28.9293 48.6209 28.9933 48.4916 29.1212C48.3679 29.2463 48.2997 29.4111 48.2997 29.586C48.2997 29.7622 48.3679 29.9271 48.4916 30.0521C48.6166 30.1758 48.7815 30.244 48.9578 30.244C49.1326 30.244 49.2989 30.1758 49.4225 30.0521C49.6784 29.7949 49.6784 29.3784 49.4225 29.1212C49.2946 28.9933 49.1255 28.9293 48.9578 28.9293Z" fill="black"/>
<mask id="mask3_3476_27456" style="mask-type:luminance" maskUnits="userSpaceOnUse" x="33" y="37" width="16" height="17">
<path d="M33.2148 37.957H48.8493V53.5929H33.2148V37.957Z" fill="white"/>
</mask>
<g mask="url(#mask3_3476_27456)">
<mask id="mask4_3476_27456" style="mask-type:luminance" maskUnits="userSpaceOnUse" x="33" y="37" width="16" height="17">
<path d="M41.0321 37.9609C36.7141 37.9609 33.2148 41.4616 33.2148 45.7782C33.2148 50.0961 36.7141 53.5968 41.0321 53.5968C45.3486 53.5968 48.8493 50.0961 48.8493 45.7782C48.8493 41.4616 45.3486 37.9609 41.0321 37.9609Z" fill="white"/>
</mask>
<g mask="url(#mask4_3476_27456)">
<path d="M33.2148 37.9609H48.8493V53.5968H33.2148V37.9609Z" fill="#D9D9D9"/>
</g>
</g>
<mask id="mask5_3476_27456" style="mask-type:luminance" maskUnits="userSpaceOnUse" x="33" y="37" width="16" height="17">
<path d="M33.2148 37.957H48.7612V53.5048H33.2148V37.957Z" fill="white"/>
</mask>
<g mask="url(#mask5_3476_27456)">
<mask id="mask6_3476_27456" style="mask-type:luminance" maskUnits="userSpaceOnUse" x="33" y="37" width="16" height="17">
<path d="M41.0306 37.9609C36.7141 37.9609 33.2148 41.4602 33.2148 45.7767C33.2148 50.0947 36.7141 53.594 41.0306 53.594C45.3472 53.594 48.8464 50.0947 48.8464 45.7767C48.8464 41.4602 45.3472 37.9609 41.0306 37.9609Z" fill="white"/>
</mask>
<g mask="url(#mask6_3476_27456)">
<path d="M41.0306 37.9609C36.7141 37.9609 33.2148 41.4602 33.2148 45.7767C33.2148 50.0947 36.7141 53.594 41.0306 53.594C45.3472 53.594 48.8464 50.0947 48.8464 45.7767C48.8464 41.4602 45.3472 37.9609 41.0306 37.9609Z" stroke="black" stroke-width="3.99787"/>
</g>
</g>
<path d="M37.8091 49.5073H36.0495C35.9457 49.5073 35.8633 49.4249 35.8633 49.3211V49.2003C35.8633 49.1506 35.8832 49.1036 35.9173 49.0681L36.7004 48.2935C36.8369 48.1585 36.9492 48.0419 37.0344 47.9439C37.1211 47.8444 37.1879 47.7548 37.2348 47.6724C37.2832 47.5914 37.3159 47.5146 37.3315 47.4421C37.3486 47.3696 37.3571 47.2915 37.3571 47.2076C37.3571 47.1294 37.3457 47.0541 37.3244 46.9816C37.3031 46.9106 37.2704 46.848 37.2249 46.7926C37.1808 46.7386 37.1226 46.6959 37.0515 46.6647C36.9804 46.6334 36.8966 46.6178 36.7971 46.6178C36.6592 46.6178 36.5356 46.649 36.4233 46.7087C36.3622 46.7428 36.3039 46.7798 36.2485 46.8239C36.1689 46.8864 36.0537 46.875 35.9884 46.7983C35.9216 46.7173 35.9343 46.5993 36.0154 46.5325C36.1021 46.4628 36.1959 46.4032 36.2982 46.3534C36.4574 46.2767 36.6422 46.2383 36.8539 46.2383C36.9975 46.2383 37.1282 46.2596 37.2462 46.3022C37.3642 46.3449 37.4665 46.406 37.5532 46.487C37.6385 46.568 37.7053 46.6661 37.7522 46.7826C37.7991 46.9006 37.8233 47.0314 37.8233 47.1778C37.8233 47.3014 37.8062 47.4165 37.7735 47.5217C37.7394 47.6269 37.6897 47.7321 37.6229 47.8358C37.5561 47.941 37.4722 48.049 37.3699 48.1599C37.269 48.2722 37.1481 48.3944 37.0103 48.528L36.4233 49.098H37.8091C37.9128 49.098 37.9967 49.1818 37.9967 49.2842V49.3211C37.9967 49.4249 37.9128 49.5073 37.8091 49.5073Z" fill="#1A1A1A"/>
<path d="M39.9537 46.6963L38.8266 48.4161H39.9537V46.6963ZM40.7582 48.7941H40.3943V49.3186C40.3943 49.4224 40.309 49.5062 40.2053 49.5062H40.1427C40.039 49.5062 39.9537 49.4224 39.9537 49.3186V48.7941H38.585C38.4798 48.7941 38.3945 48.7089 38.3945 48.6051V48.5625C38.3945 48.4672 38.423 48.3734 38.4741 48.2924L39.6694 46.4447C39.7348 46.3424 39.8485 46.2812 39.9708 46.2812H40.2053C40.309 46.2812 40.3943 46.3651 40.3943 46.4703V48.4161H40.7582C40.8619 48.4161 40.9472 48.4999 40.9472 48.6051C40.9472 48.7089 40.8619 48.7941 40.7582 48.7941Z" fill="#1A1A1A"/>
<mask id="mask7_3476_27456" style="mask-type:luminance" maskUnits="userSpaceOnUse" x="41" y="46" width="3" height="5">
<path d="M41.4531 46H43.3875V50.0337H41.4531V46Z" fill="white"/>
</mask>
<g mask="url(#mask7_3476_27456)">
<path d="M43.365 46.2771L41.8257 49.9171C41.7958 49.9882 41.7262 50.0337 41.6509 50.0337C41.5144 50.0337 41.4235 49.8958 41.4761 49.7707L43.0153 46.1308C43.0452 46.0611 43.1134 46.0156 43.1902 46.0156C43.3252 46.0156 43.4176 46.1535 43.365 46.2771Z" fill="#1A1A1A"/>
</g>
<mask id="mask8_3476_27456" style="mask-type:luminance" maskUnits="userSpaceOnUse" x="43" y="45" width="4" height="5">
<path d="M43.8008 45.9492H46.5368V49.5878H43.8008V45.9492Z" fill="white"/>
</mask>
<g mask="url(#mask8_3476_27456)">
<path d="M46.3021 46.7776L45.0471 49.3886C45.0144 49.4582 44.9433 49.5023 44.8665 49.5023H44.8239C44.6747 49.5023 44.578 49.3474 44.6434 49.2138L45.9098 46.6767H44.3606C44.2497 46.6767 44.1602 46.5872 44.1602 46.4777C44.1602 46.3669 44.2497 46.2773 44.3606 46.2773H46.15C46.2609 46.2773 46.3504 46.3669 46.3504 46.4777V46.5644C46.3504 46.6384 46.3348 46.7123 46.3021 46.7776Z" fill="#1A1A1A"/>
</g>
<mask id="mask9_3476_27456" style="mask-type:luminance" maskUnits="userSpaceOnUse" x="35" y="39" width="12" height="7">
<path d="M35.6211 39.9453H46.5297V45.568H35.6211V39.9453Z" fill="white"/>
</mask>
<g mask="url(#mask9_3476_27456)">
<path d="M46.3449 45.5638C46.2426 45.5638 46.1601 45.4813 46.1601 45.379C46.1601 42.5861 43.8789 40.3149 41.0761 40.3149C38.2718 40.3149 35.9906 42.5861 35.9906 45.379C35.9906 45.4813 35.9082 45.5638 35.8059 45.5638C35.7035 45.5638 35.6211 45.4813 35.6211 45.379C35.6211 44.6456 35.7646 43.9335 36.0489 43.2641C36.1868 42.9414 36.3559 42.6316 36.5521 42.3416C36.7482 42.0531 36.9713 41.7831 37.2186 41.5372C37.4645 41.2913 37.7374 41.0681 38.026 40.8734C38.3173 40.6773 38.6286 40.5096 38.9527 40.3731C39.6249 40.0889 40.3399 39.9453 41.0761 39.9453C41.8123 39.9453 42.5258 40.0889 43.1981 40.3731C43.5222 40.5096 43.8334 40.6773 44.1248 40.8734C44.4148 41.0681 44.6862 41.2913 44.9321 41.5372C45.1794 41.7831 45.404 42.0531 45.5987 42.3416C45.7963 42.6316 45.9654 42.9414 46.1019 43.2641C46.3861 43.9335 46.5297 44.6456 46.5297 45.379C46.5297 45.4813 46.4472 45.5638 46.3449 45.5638Z" fill="#1A1A1A"/>
</g>
<path d="M41.0773 45.568C41.0247 45.568 40.9721 45.5453 40.9351 45.5012L38.715 42.8775C38.6497 42.7993 38.6596 42.6828 38.7378 42.6174C38.8159 42.552 38.9325 42.5619 38.9993 42.6401L41.218 45.2639C41.2848 45.342 41.2748 45.4586 41.1952 45.524C41.1611 45.5538 41.1185 45.568 41.0773 45.568Z" fill="#1A1A1A"/>
<path d="M41.0801 45.5682C41.0162 45.5682 40.9536 45.5355 40.9195 45.4758C40.8684 45.3876 40.8982 45.2754 40.9863 45.2242L42.9406 44.0914C43.0288 44.0402 43.1425 44.0701 43.1936 44.1582C43.2462 44.2463 43.215 44.3586 43.1268 44.4098L41.1725 45.5426C41.1441 45.5596 41.1114 45.5682 41.0801 45.5682Z" fill="#1A1A1A"/>
<mask id="mask10_3476_27456" style="mask-type:luminance" maskUnits="userSpaceOnUse" x="40" y="39" width="2" height="3">
<path d="M40.8906 39.9453H41.6183V41.5812H40.8906V39.9453Z" fill="white"/>
</mask>
<g mask="url(#mask10_3476_27456)">
<path d="M41.0846 41.2572C40.9823 41.2572 40.8984 41.1747 40.8984 41.0724V40.1301C40.8984 40.0277 40.9823 39.9453 41.0846 39.9453C41.187 39.9453 41.2694 40.0277 41.2694 40.1301V41.0724C41.2694 41.1747 41.187 41.2572 41.0846 41.2572Z" fill="#1A1A1A"/>
</g>
<mask id="mask11_3476_27456" style="mask-type:luminance" maskUnits="userSpaceOnUse" x="35" y="44" width="3" height="2">
<path d="M35.6211 44.8594H37.2457V45.5871H35.6211V44.8594Z" fill="white"/>
</mask>
<g mask="url(#mask11_3476_27456)">
<path d="M36.7525 45.5688H35.8059C35.7035 45.5688 35.6211 45.4863 35.6211 45.384C35.6211 45.2817 35.7035 45.1992 35.8059 45.1992H36.7525C36.8548 45.1992 36.9372 45.2817 36.9372 45.384C36.9372 45.4863 36.8548 45.5688 36.7525 45.5688Z" fill="#1A1A1A"/>
</g>
<mask id="mask12_3476_27456" style="mask-type:luminance" maskUnits="userSpaceOnUse" x="45" y="45" width="2" height="1">
<path d="M45.207 45.1875H46.5331V45.5727H45.207V45.1875Z" fill="white"/>
</mask>
<g mask="url(#mask12_3476_27456)">
<path d="M46.3462 45.5649H45.3996C45.2973 45.5649 45.2148 45.4824 45.2148 45.3801C45.2148 45.2777 45.2973 45.1953 45.3996 45.1953H46.3462C46.4485 45.1953 46.531 45.2777 46.531 45.3801C46.531 45.4824 46.4485 45.5649 46.3462 45.5649Z" fill="#1A1A1A"/>
</g>
</svg>
