<svg width="48" height="44" viewBox="0 0 48 44" fill="none" xmlns="http://www.w3.org/2000/svg">
<mask id="mask0_3476_27261" style="mask-type:luminance" maskUnits="userSpaceOnUse" x="7" y="0" width="27" height="9">
<path d="M7.05859 0.472656H33.5631V8.10296H7.05859V0.472656Z" fill="white"/>
</mask>
<g mask="url(#mask0_3476_27261)">
<path d="M7.29499 7.86806C7.23821 7.86806 7.18032 7.84691 7.13468 7.80349C7.04228 7.71554 7.03782 7.56859 7.12577 7.47508C7.7158 6.85276 8.34702 6.25828 9.00384 5.70833C9.10181 5.62484 9.24876 5.63819 9.33226 5.73728C9.41464 5.83524 9.40128 5.98219 9.30331 6.06457C8.65985 6.60451 8.04199 7.18563 7.4642 7.7957C7.41856 7.84357 7.35733 7.86806 7.29499 7.86806ZM11.1992 4.59395C11.1235 4.59395 11.0489 4.55722 11.0044 4.48931C10.9331 4.38243 10.9632 4.23771 11.0701 4.16757C11.7859 3.69444 12.5362 3.25915 13.2999 2.87396C13.4146 2.81496 13.5549 2.86172 13.6128 2.97638C13.6706 3.09105 13.625 3.23132 13.5103 3.28921C12.7622 3.66772 12.0275 4.09299 11.3272 4.5561C11.2871 4.58171 11.2426 4.59395 11.1992 4.59395ZM33.1138 3.16787C33.0804 3.16787 33.0448 3.16007 33.0125 3.14449C32.2577 2.776 31.4739 2.44981 30.6824 2.17149C30.5611 2.12919 30.4976 1.99671 30.5399 1.87537C30.5822 1.75402 30.7158 1.68945 30.8372 1.73176C31.6454 2.01564 32.4458 2.34962 33.2162 2.7259C33.332 2.78156 33.3798 2.92072 33.3242 3.0365C33.283 3.11999 33.2006 3.16787 33.1138 3.16787ZM15.7446 2.29618C15.65 2.29618 15.561 2.23829 15.5253 2.14366C15.4819 2.02343 15.5431 1.88984 15.6645 1.84531C16.4683 1.54918 17.2977 1.29758 18.1304 1.0972C18.2562 1.06603 18.382 1.14395 18.412 1.26864C18.4421 1.39332 18.3653 1.51912 18.2395 1.54918C17.4246 1.74623 16.6119 1.99226 15.8248 2.28171C15.7981 2.29173 15.7714 2.29618 15.7446 2.29618ZM28.3078 1.48127C28.29 1.48127 28.2733 1.47905 28.2555 1.47459C27.4384 1.2909 26.6012 1.15286 25.7651 1.06269C25.6371 1.04933 25.5447 0.93466 25.5581 0.806635C25.5714 0.67861 25.6861 0.586209 25.8141 0.599568C26.668 0.690856 27.5241 0.83224 28.3579 1.02038C28.4837 1.04933 28.5628 1.17401 28.5338 1.2987C28.5104 1.4078 28.4136 1.48127 28.3078 1.48127ZM20.6942 1.10165C20.5784 1.10165 20.4782 1.01593 20.4638 0.897923C20.4482 0.769897 20.5395 0.654118 20.6664 0.638532C21.5147 0.534999 22.3797 0.479336 23.2391 0.472656C23.2402 0.472656 23.2402 0.472656 23.2414 0.472656C23.3683 0.472656 23.4729 0.57619 23.474 0.704215C23.4751 0.83224 23.3716 0.938 23.2425 0.939113C22.4008 0.94468 21.5537 0.999229 20.7232 1.10054C20.7131 1.10165 20.7042 1.10165 20.6942 1.10165Z" fill="black"/>
</g>
<path d="M4.92552 35.4274C4.85093 35.4274 4.77634 35.3906 4.73181 35.3238C4.25645 34.6102 3.81782 33.8621 3.42707 33.0995C3.36918 32.9849 3.41482 32.8446 3.52837 32.7867C3.64304 32.7277 3.78331 32.7733 3.84231 32.888C4.22416 33.6339 4.65388 34.3664 5.11923 35.0656C5.19048 35.1724 5.16153 35.3172 5.05466 35.3884C5.01458 35.4151 4.97005 35.4274 4.92552 35.4274ZM2.60659 30.8919C2.51197 30.8919 2.4229 30.834 2.38839 30.7405C2.08893 29.9379 1.83288 29.1085 1.62803 28.2769C1.59686 28.1522 1.67368 28.0253 1.79836 27.9952C1.92305 27.9641 2.04996 28.0409 2.08002 28.1656C2.28041 28.9805 2.53089 29.792 2.82479 30.578C2.86932 30.6982 2.80809 30.8318 2.68786 30.8775C2.66114 30.8875 2.63331 30.8919 2.60659 30.8919Z" fill="black"/>
<path d="M36.5503 41.0261C36.4779 41.0261 36.4078 40.9939 36.3622 40.9315C36.2854 40.828 36.3076 40.6822 36.4112 40.6064C37.0869 40.1088 37.7415 39.5678 38.3571 38.9956C38.4506 38.9087 38.5976 38.9143 38.6855 39.0078C38.7735 39.1024 38.7679 39.2494 38.6733 39.3373C38.0454 39.9207 37.3775 40.474 36.6872 40.9816C36.646 41.0117 36.5982 41.0261 36.5503 41.0261ZM40.282 37.5583C40.2285 37.5583 40.174 37.5405 40.1306 37.5027C40.0326 37.4192 40.0215 37.2722 40.105 37.1743C40.6505 36.5364 41.1659 35.8606 41.6346 35.1648C41.7058 35.0591 41.8506 35.0301 41.9574 35.1025C42.0643 35.1737 42.0921 35.3185 42.0209 35.4253C41.5422 36.1356 41.0167 36.8258 40.459 37.4771C40.4133 37.5316 40.3476 37.5583 40.282 37.5583ZM43.1297 33.3346C43.0941 33.3346 43.0573 33.3257 43.0228 33.3079C42.9082 33.2489 42.8636 33.1086 42.9226 32.994C43.3089 32.2481 43.6563 31.4732 43.9535 30.6884C43.9991 30.5682 44.1339 30.508 44.2541 30.5537C44.3743 30.5993 44.4344 30.734 44.3888 30.8543C44.0849 31.6547 43.7309 32.4473 43.3368 33.2088C43.2956 33.2879 43.2143 33.3346 43.1297 33.3346ZM44.9365 28.5699C44.9176 28.5699 44.8987 28.5676 44.8797 28.5632C44.7551 28.5309 44.6794 28.4051 44.7105 28.2804C44.9154 27.4677 45.0746 26.6328 45.1837 25.8001C45.2015 25.672 45.3184 25.583 45.4453 25.5997C45.5733 25.6164 45.6624 25.7333 45.6457 25.8602C45.5343 26.7118 45.3707 27.5635 45.1625 28.394C45.1358 28.4997 45.0412 28.5699 44.9365 28.5699Z" fill="black"/>
<path d="M39.7063 22.9014C39.7063 23.4358 39.6796 23.9679 39.6272 24.4989C39.5749 25.03 39.497 25.5577 39.3923 26.0809C39.2888 26.6052 39.1585 27.1218 39.0038 27.6328C38.8491 28.1438 38.6698 28.6447 38.465 29.1379C38.2613 29.6311 38.033 30.1131 37.7814 30.584C37.5298 31.0549 37.256 31.5125 36.9599 31.9556C36.6626 32.3998 36.3453 32.8273 36.0069 33.2403C35.6685 33.6533 35.31 34.0474 34.9326 34.4248C34.5552 34.8022 34.16 35.1607 33.7481 35.4991C33.3351 35.8375 32.9065 36.1559 32.4634 36.452C32.0192 36.7482 31.5616 37.022 31.0918 37.2736C30.6209 37.5252 30.1389 37.7534 29.6457 37.9583C29.1525 38.162 28.6505 38.3412 28.1395 38.4971C27.6296 38.6518 27.1119 38.781 26.5887 38.8856C26.0655 38.9892 25.5378 39.0671 25.0068 39.1194C24.4757 39.1717 23.9436 39.1985 23.4092 39.1985C22.876 39.1985 22.3427 39.1717 21.8117 39.1194C21.2807 39.0671 20.7541 38.9892 20.2297 38.8856C19.7065 38.781 19.19 38.6518 18.679 38.4971C18.168 38.3412 17.6659 38.162 17.1727 37.9583C16.6795 37.7534 16.1975 37.5252 15.7277 37.2736C15.2568 37.022 14.7992 36.7482 14.3551 36.452C13.912 36.1559 13.4834 35.8375 13.0715 35.4991C12.6584 35.1607 12.2632 34.8022 11.8858 34.4248C11.5084 34.0474 11.1511 33.6533 10.8115 33.2403C10.4731 32.8273 10.1558 32.3998 9.8597 31.9556C9.56246 31.5125 9.2886 31.0549 9.037 30.584C8.7854 30.1131 8.55718 29.6311 8.35346 29.1379C8.14862 28.6447 7.96938 28.1438 7.81464 27.6328C7.65989 27.1218 7.52964 26.6052 7.42611 26.0809C7.32146 25.5577 7.24353 25.03 7.19121 24.4989C7.13889 23.9679 7.11328 23.4358 7.11328 22.9014C7.11328 22.3682 7.13889 21.836 7.19121 21.305C7.24353 20.774 7.32146 20.2463 7.42611 19.723C7.52964 19.1987 7.65989 18.6821 7.81464 18.1712C7.96938 17.6602 8.14862 17.1592 8.35346 16.666C8.55718 16.1728 8.7854 15.6908 9.037 15.2199C9.2886 14.749 9.56246 14.2914 9.8597 13.8484C10.1558 13.4042 10.4731 12.9767 10.8115 12.5637C11.1511 12.1506 11.5084 11.7565 11.8858 11.3791C12.2632 11.0017 12.6584 10.6433 13.0715 10.3048C13.4834 9.96641 13.912 9.64802 14.3551 9.35189C14.7992 9.05576 15.2568 8.7819 15.7277 8.5303C16.1975 8.2787 16.6795 8.05048 17.1727 7.84564C17.6659 7.64192 18.168 7.46268 18.679 7.30682C19.19 7.15208 19.7065 7.02294 20.2297 6.9183C20.7541 6.81476 21.2807 6.73683 21.8117 6.68451C22.3427 6.63219 22.876 6.60547 23.4092 6.60547C23.9436 6.60547 24.4757 6.63219 25.0068 6.68451C25.5378 6.73683 26.0655 6.81476 26.5887 6.9183C27.1119 7.02294 27.6296 7.15208 28.1395 7.30682C28.6505 7.46268 29.1525 7.64192 29.6457 7.84564C30.1389 8.05048 30.6209 8.2787 31.0918 8.5303C31.5616 8.7819 32.0192 9.05576 32.4634 9.35189C32.9065 9.64802 33.3351 9.96641 33.7481 10.3048C34.16 10.6433 34.5552 11.0017 34.9326 11.3791C35.31 11.7565 35.6685 12.1506 36.0069 12.5637C36.3453 12.9767 36.6626 13.4042 36.9599 13.8484C37.256 14.2914 37.5298 14.749 37.7814 15.2199C38.033 15.6908 38.2613 16.1728 38.465 16.666C38.6698 17.1592 38.8491 17.6602 39.0038 18.1712C39.1585 18.6821 39.2888 19.1987 39.3923 19.723C39.497 20.2463 39.5749 20.774 39.6272 21.305C39.6796 21.836 39.7063 22.3682 39.7063 22.9014Z" fill="#ED1C24"/>
<path d="M17.4163 12.8421H13.5321C12.7417 12.8421 12.1016 13.4822 12.1016 14.2726V21.2862L17.7803 20.4946V15.5762L19.1908 14.1668V11.0664L17.4163 12.8421Z" fill="black"/>
<path d="M12.0999 21.5207C12.0442 21.5207 11.9896 21.5006 11.9462 21.4628C11.8961 21.4194 11.8672 21.3548 11.8672 21.288V14.2744C11.8672 13.3571 12.6131 12.6101 13.5304 12.6101H17.3177L19.0244 10.9035C19.0911 10.8378 19.1913 10.8178 19.2782 10.8534C19.365 10.8901 19.4218 10.9747 19.4218 11.0682V14.1687C19.4218 14.2299 19.3973 14.29 19.3539 14.3334L18.0113 15.6749V20.4965C18.0113 20.6122 17.9256 20.7113 17.8109 20.7269L12.1321 21.5184C12.121 21.5195 12.1099 21.5207 12.0999 21.5207ZM13.5304 13.0766C12.8702 13.0766 12.3325 13.6143 12.3325 14.2744V21.0197L17.5459 20.2938V15.5781C17.5459 15.5168 17.5704 15.4578 17.6138 15.4144L18.9564 14.0718V11.6304L17.5782 13.0075C17.5348 13.0521 17.4758 13.0766 17.4146 13.0766H13.5304Z" fill="black"/>
<path d="M13.3144 20.7288V15.5766C13.3144 14.8719 12.7422 14.3008 12.0375 14.3008H8.42384C7.63343 14.3008 6.99219 14.9409 6.99219 15.7313V21.2019L13.3144 20.7288Z" fill="black"/>
<path d="M6.99439 21.4368C6.86637 21.4368 6.76172 21.3332 6.76172 21.2041V15.7335C6.76172 14.8162 7.50872 14.0703 8.42605 14.0703H12.0397C12.8724 14.0703 13.5493 14.7472 13.5493 15.5788V20.731C13.5493 20.859 13.4446 20.9636 13.3166 20.9636C13.1875 20.9636 13.0839 20.859 13.0839 20.731V15.5788C13.0839 15.0043 12.6153 14.5357 12.0397 14.5357H8.42605C7.76477 14.5357 7.22818 15.0734 7.22818 15.7335V21.2041C7.22818 21.3332 7.12353 21.4368 6.99439 21.4368Z" fill="black"/>
<path d="M8.57663 19.7438V17.0308C8.57663 16.3261 8.00552 15.7539 7.29972 15.7539H3.28863C2.58394 15.7539 2.01172 16.3261 2.01172 17.0308V19.7717L8.57663 19.7438Z" fill="black"/>
<path d="M2.01002 20.0065C1.94879 20.0065 1.88978 19.9821 1.84637 19.9386C1.80184 19.8952 1.77734 19.8351 1.77734 19.7739V17.033C1.77734 16.2003 2.45421 15.5234 3.28693 15.5234H7.29801C8.13073 15.5234 8.8076 16.2003 8.8076 17.033V19.746C8.8076 19.8741 8.70406 19.9787 8.57604 19.9787L2.01113 20.0065C2.01113 20.0065 2.01113 20.0065 2.01002 20.0065ZM3.28693 15.9888C2.71137 15.9888 2.24269 16.4575 2.24269 17.033V19.5401L8.34225 19.5145V17.033C8.34225 16.4575 7.87357 15.9888 7.29801 15.9888H3.28693Z" fill="black"/>
<path d="M21.7038 6.08947H23.3459L20.792 2.625L18.2393 6.08947H19.8803L19.514 10.7429L19.3014 14.056L18.8806 18.0225C18.8427 18.951 18.1157 19.6947 17.2062 19.7659C17.1583 19.7692 17.1105 19.7715 17.0615 19.7715H0.734375V23.2359H16.5627C19.6977 23.2359 22.0689 21.0317 22.0689 17.8889L21.9576 11.3908L21.9309 9.97921L21.7038 6.08947Z" fill="#D9D9D9"/>
<mask id="mask1_3476_27261" style="mask-type:luminance" maskUnits="userSpaceOnUse" x="0" y="2" width="24" height="22">
<path d="M0.5 2.11719H23.5891V23.4918H0.5V2.11719Z" fill="white"/>
</mask>
<g mask="url(#mask1_3476_27261)">
<path d="M16.561 23.4669H0.732672C0.603533 23.4669 0.5 23.3623 0.5 23.2342V19.7698C0.5 19.6406 0.603533 19.5371 0.732672 19.5371H17.0598C17.1021 19.5371 17.1444 19.5349 17.1856 19.5315C17.986 19.4692 18.6128 18.8157 18.6462 18.0108C18.6462 18.0064 18.6473 18.0008 18.6473 17.9963L19.0681 14.0342L19.2807 10.7256C19.2807 10.7245 19.2807 10.7234 19.2807 10.7223L19.627 6.32044H18.2376C18.1497 6.32044 18.0695 6.27146 18.0305 6.19242C17.9905 6.11449 17.9983 6.01986 18.0506 5.94973L20.6033 2.48525C20.6478 2.42514 20.7169 2.39062 20.7903 2.39062C20.8649 2.39062 20.9339 2.42514 20.9785 2.48525L23.5312 5.94973C23.5835 6.01986 23.5913 6.11449 23.5512 6.19242C23.5123 6.27146 23.4321 6.32044 23.3442 6.32044H21.9492L22.1619 9.96304C22.1619 9.96638 22.1619 9.96972 22.1619 9.97306L22.1886 11.3847L22.2999 17.8828C22.2999 17.885 22.2999 17.8861 22.2999 17.8872C22.2999 18.6866 22.153 19.4447 21.8624 20.1383C21.5819 20.8107 21.1733 21.4063 20.6512 21.9072C19.6014 22.9136 18.1497 23.4669 16.561 23.4669ZM0.965344 23.0016H16.561C19.6158 23.0016 21.8335 20.8519 21.8346 17.8895L21.7232 11.3936L21.6965 9.98642L21.4705 6.10113C21.4661 6.03767 21.4895 5.97422 21.5329 5.92746C21.5774 5.8807 21.6386 5.8551 21.7021 5.8551H22.8833L20.7903 3.01517L18.6985 5.8551H19.8786C19.9442 5.8551 20.0055 5.88182 20.05 5.92969C20.0945 5.97756 20.1168 6.04101 20.1112 6.10558L19.745 10.7568L19.5323 14.0687C19.5323 14.0721 19.5312 14.0754 19.5312 14.0788L19.1115 18.0375C19.0648 19.074 18.2543 19.9145 17.2223 19.9958C17.1689 20.0002 17.1143 20.0024 17.0598 20.0024H0.965344V23.0016Z" fill="black"/>
</g>
<path d="M7.29887 11.9337C7.29887 12.0885 7.28439 12.2432 7.25322 12.3958C7.22316 12.5483 7.17863 12.6963 7.11852 12.8399C7.05951 12.9847 6.98604 13.1205 6.90032 13.2507C6.81348 13.3799 6.71552 13.499 6.6053 13.6092C6.49509 13.7194 6.37486 13.8174 6.24572 13.9042C6.11658 13.9911 5.97965 14.0634 5.83604 14.1235C5.69243 14.1825 5.54436 14.2282 5.39073 14.2582C5.23822 14.2883 5.08459 14.3039 4.92873 14.3039C4.77287 14.3039 4.61924 14.2883 4.46673 14.2582C4.3131 14.2282 4.16503 14.1825 4.02142 14.1235C3.87781 14.0634 3.74088 13.9911 3.61174 13.9042C3.4826 13.8174 3.36237 13.7194 3.25216 13.6092C3.14194 13.499 3.04398 13.3799 2.95826 13.2507C2.87142 13.1205 2.79795 12.9847 2.73894 12.8399C2.67883 12.6963 2.6343 12.5483 2.60424 12.3958C2.57307 12.2432 2.55859 12.0885 2.55859 11.9337C2.55859 11.7779 2.57307 11.6231 2.60424 11.4706C2.6343 11.3181 2.67883 11.1701 2.73894 11.0264C2.79795 10.8817 2.87142 10.7459 2.95826 10.6168C3.04398 10.4865 3.14194 10.3674 3.25216 10.2572C3.36237 10.147 3.4826 10.049 3.61174 9.96216C3.74088 9.87533 3.87781 9.80296 4.02142 9.74285C4.16503 9.68385 4.3131 9.6382 4.46673 9.60814C4.61924 9.57809 4.77287 9.5625 4.92873 9.5625C5.08459 9.5625 5.23822 9.57809 5.39073 9.60814C5.54436 9.6382 5.69243 9.68385 5.83604 9.74285C5.97965 9.80296 6.11658 9.87533 6.24572 9.96216C6.37486 10.049 6.49509 10.147 6.6053 10.2572C6.71552 10.3674 6.81348 10.4865 6.90032 10.6168C6.98604 10.7459 7.05951 10.8817 7.11852 11.0264C7.17863 11.1701 7.22316 11.3181 7.25322 11.4706C7.28439 11.6231 7.29887 11.7779 7.29887 11.9337Z" fill="#D9D9D9"/>
<path d="M4.92703 14.5349C3.49203 14.5349 2.32422 13.367 2.32422 11.932C2.32422 10.4959 3.49203 9.32812 4.92703 9.32812C6.36314 9.32812 7.53095 10.4959 7.53095 11.932C7.53095 13.367 6.36314 14.5349 4.92703 14.5349ZM4.92703 9.79347C3.74808 9.79347 2.78956 10.7531 2.78956 11.932C2.78956 13.1099 3.74808 14.0695 4.92703 14.0695C6.10597 14.0695 7.06449 13.1099 7.06449 11.932C7.06449 10.7531 6.10597 9.79347 4.92703 9.79347Z" fill="black"/>
<path d="M2.01172 18.6719V24.1424C2.01172 24.7469 2.50155 25.2368 3.10606 25.2368C3.71056 25.2368 4.20039 24.7469 4.20039 24.1424V18.6719H2.01172Z" fill="black"/>
<path d="M3.10435 25.4717C2.37294 25.4717 1.77734 24.8761 1.77734 24.1447V18.6741C1.77734 18.5449 1.88199 18.4414 2.01002 18.4414C2.13915 18.4414 2.24269 18.5449 2.24269 18.6741V24.1447C2.24269 24.6189 2.62899 25.0063 3.10435 25.0063C3.57972 25.0063 3.96602 24.6189 3.96602 24.1447V18.6741C3.96602 18.5449 4.06955 18.4414 4.19869 18.4414C4.32671 18.4414 4.43136 18.5449 4.43136 18.6741V24.1447C4.43136 24.8761 3.83577 25.4717 3.10435 25.4717Z" fill="black"/>
<path d="M12.4629 10.4444C12.4629 10.6002 12.4485 10.755 12.4173 10.9075C12.3872 11.06 12.3427 11.2081 12.2826 11.3517C12.2236 11.4953 12.1501 11.6322 12.0633 11.7613C11.9775 11.8916 11.8796 12.0107 11.7694 12.1209C11.6592 12.2311 11.5389 12.3291 11.4098 12.4159C11.2806 12.5017 11.1437 12.5751 11.0001 12.6353C10.8565 12.6943 10.7084 12.7388 10.5548 12.77C10.4023 12.8 10.2486 12.8156 10.0928 12.8156C9.93694 12.8156 9.78331 12.8 9.63079 12.77C9.47716 12.7388 9.32909 12.6943 9.18548 12.6353C9.04187 12.5751 8.90494 12.5017 8.7758 12.4159C8.64666 12.3291 8.52643 12.2311 8.41622 12.1209C8.30601 12.0107 8.20804 11.8916 8.1212 11.7613C8.03548 11.6322 7.96201 11.4953 7.903 11.3517C7.84289 11.2081 7.79836 11.06 7.7683 10.9075C7.73713 10.755 7.72266 10.6002 7.72266 10.4444C7.72266 10.2885 7.73713 10.1349 7.7683 9.98235C7.79836 9.82983 7.84289 9.68177 7.903 9.53705C7.96201 9.39344 8.03548 9.2565 8.1212 9.12737C8.20804 8.99823 8.30601 8.87799 8.41622 8.76889C8.52643 8.65868 8.64666 8.5596 8.7758 8.47388C8.90494 8.38705 9.04187 8.31357 9.18548 8.25457C9.32909 8.19445 9.47716 8.14992 9.63079 8.11986C9.78331 8.0898 9.93694 8.07422 10.0928 8.07422C10.2486 8.07422 10.4023 8.0898 10.5548 8.11986C10.7084 8.14992 10.8565 8.19445 11.0001 8.25457C11.1437 8.31357 11.2806 8.38705 11.4098 8.47388C11.5389 8.5596 11.6592 8.65868 11.7694 8.76889C11.8796 8.87799 11.9775 8.99823 12.0633 9.12737C12.1501 9.2565 12.2236 9.39344 12.2826 9.53705C12.3427 9.68177 12.3872 9.82983 12.4173 9.98235C12.4485 10.1349 12.4629 10.2885 12.4629 10.4444Z" fill="#D9D9D9"/>
<path d="M10.0922 13.0466C8.65609 13.0466 7.48828 11.8788 7.48828 10.4427C7.48828 9.00766 8.65721 7.83984 10.0922 7.83984C11.5272 7.83984 12.6961 9.00766 12.6961 10.4427C12.6961 11.8788 11.5272 13.0466 10.0922 13.0466ZM10.0922 8.30519C8.91326 8.30519 7.95474 9.26371 7.95474 10.4427C7.95474 11.6216 8.91326 12.5801 10.0922 12.5801C11.2711 12.5801 12.2297 11.6216 12.2297 10.4427C12.2297 9.26371 11.2711 8.30519 10.0922 8.30519Z" fill="black"/>
<path d="M17.752 8.98453C17.752 9.14039 17.7375 9.29402 17.7075 9.44653C17.6763 9.59905 17.6318 9.74823 17.5716 9.89184C17.5126 10.0355 17.4392 10.1724 17.3534 10.3015C17.2666 10.4307 17.1686 10.5509 17.0584 10.6611C16.9482 10.7702 16.828 10.8693 16.6988 10.955C16.5697 11.0418 16.4328 11.1153 16.2892 11.1743C16.1456 11.2344 15.9975 11.279 15.845 11.309C15.6913 11.3402 15.5377 11.3547 15.3819 11.3547C15.226 11.3547 15.0724 11.3402 14.9199 11.309C14.7673 11.279 14.6182 11.2344 14.4745 11.1743C14.3309 11.1153 14.194 11.0418 14.0649 10.955C13.9357 10.8693 13.8155 10.7702 13.7053 10.6611C13.5962 10.5509 13.4971 10.4307 13.4114 10.3015C13.3245 10.1724 13.2511 10.0355 13.1921 9.89184C13.132 9.74823 13.0874 9.59905 13.0574 9.44653C13.0262 9.29402 13.0117 9.14039 13.0117 8.98453C13.0117 8.82867 13.0262 8.67504 13.0574 8.52141C13.0874 8.3689 13.132 8.22083 13.1921 8.07722C13.2511 7.93361 13.3245 7.79668 13.4114 7.66754C13.4971 7.5384 13.5962 7.41817 13.7053 7.30796C13.8155 7.19774 13.9357 7.09978 14.0649 7.01294C14.194 6.92722 14.3309 6.85375 14.4745 6.79474C14.6182 6.73463 14.7673 6.6901 14.9199 6.65893C15.0724 6.62887 15.226 6.61328 15.3819 6.61328C15.5377 6.61328 15.6913 6.62887 15.845 6.65893C15.9975 6.6901 16.1456 6.73463 16.2892 6.79474C16.4328 6.85375 16.5697 6.92722 16.6988 7.01294C16.828 7.09978 16.9482 7.19774 17.0584 7.30796C17.1686 7.41817 17.2666 7.5384 17.3534 7.66754C17.4392 7.79668 17.5126 7.93361 17.5716 8.07722C17.6318 8.22083 17.6763 8.3689 17.7075 8.52141C17.7375 8.67504 17.752 8.82867 17.752 8.98453Z" fill="#D9D9D9"/>
<path d="M15.3802 11.5856C13.9452 11.5856 12.7773 10.4178 12.7773 8.98283C12.7773 7.54672 13.9452 6.37891 15.3802 6.37891C16.8163 6.37891 17.9841 7.54672 17.9841 8.98283C17.9841 10.4178 16.8163 11.5856 15.3802 11.5856ZM15.3802 6.84536C14.2012 6.84536 13.2427 7.80388 13.2427 8.98283C13.2427 10.1618 14.2012 11.1203 15.3802 11.1203C16.5591 11.1203 17.5176 10.1618 17.5176 8.98283C17.5176 7.80388 16.5591 6.84536 15.3802 6.84536Z" fill="black"/>
<path d="M18.9094 14.4449L21.8818 11.4725C22.3282 11.0272 22.307 10.298 21.835 9.87826C21.4019 9.49308 20.7429 9.512 20.3321 9.9228L17.4844 12.7705L18.9094 14.4449Z" fill="black"/>
<path d="M18.9074 14.684C18.8484 14.684 18.7883 14.6606 18.7426 14.615C18.6524 14.5248 18.6524 14.3768 18.7426 14.2855L21.7161 11.3131C21.8853 11.1439 21.9755 10.9179 21.9677 10.6774C21.961 10.438 21.8586 10.2176 21.6783 10.0584C21.3376 9.7545 20.8177 9.77009 20.4949 10.0929L17.6472 12.9407C17.557 13.0308 17.4089 13.0308 17.3176 12.9407C17.2275 12.8494 17.2275 12.7024 17.3176 12.6111L20.1654 9.76341C20.663 9.26689 21.4634 9.24351 21.9878 9.70997C22.265 9.956 22.4231 10.2944 22.4331 10.664C22.4442 11.0336 22.3062 11.381 22.0445 11.6426L19.0721 14.615C19.0265 14.6606 18.9675 14.684 18.9074 14.684Z" fill="black"/>
<path d="M21.377 39.9307C21.7032 39.56 21.9859 39.167 22.2309 38.7584C22.645 39.4531 23.1704 40.0954 23.8095 40.6576C27.1092 43.5621 32.1389 43.2426 35.0445 39.9418C37.949 36.6421 37.6284 31.6124 34.3287 28.7079C31.029 25.8034 25.9981 26.1229 23.0936 29.4237C22.7674 29.7933 22.4847 30.1863 22.2398 30.5949C21.8256 29.9013 21.3002 29.259 20.6612 28.6968C17.3614 25.7911 12.3317 26.1118 9.42722 29.4115C6.52161 32.7123 6.84223 37.742 10.1419 40.6465C13.4416 43.551 18.4725 43.2304 21.377 39.9307Z" fill="#D9D9D9"/>
<path d="M23.0685 41.9351L23.7598 41.1002C27.2098 43.9479 32.3375 43.5605 35.3132 40.1795C38.3491 36.7306 38.0129 31.456 34.564 28.4201C31.7708 25.962 27.6429 25.6581 24.5246 27.682C24.4511 27.7299 24.3866 27.7867 24.332 27.849C24.0615 28.1563 24.0159 28.6172 24.2496 28.9779C24.5313 29.4109 25.1113 29.5345 25.5444 29.2528C27.9613 27.6843 31.1619 27.9203 33.3272 29.8262C36.0001 32.1796 36.2606 36.2686 33.9072 38.9427C31.6016 41.5622 27.6284 41.8628 24.9543 39.6585L25.5867 38.8948C25.8449 38.5831 25.6401 38.11 25.2371 38.0844L21.8862 37.8717C21.55 37.8506 21.2917 38.1634 21.3752 38.4896L22.2068 41.7414C22.307 42.1344 22.8102 42.2469 23.0685 41.9351Z" fill="#D9D9D9"/>
<path d="M29.0517 43.2325C27.1424 43.2325 25.3044 42.6024 23.7959 41.4234L23.2504 42.0814C23.0745 42.294 22.7985 42.3875 22.5302 42.3274C22.2619 42.2673 22.0526 42.0647 21.9835 41.7975L21.1519 38.5457C21.094 38.3163 21.1464 38.0814 21.2967 37.9C21.447 37.7185 21.6685 37.6228 21.9034 37.6383L25.2543 37.851C25.5293 37.8677 25.7675 38.0358 25.8766 38.2885C25.9857 38.5412 25.9445 38.8295 25.7686 39.0422L25.2877 39.6222C27.8872 41.6116 31.5543 41.2642 33.7351 38.7861C36.004 36.21 35.7524 32.268 33.1763 29.9991C31.0889 28.1623 28.0041 27.934 25.674 29.447C25.4124 29.6162 25.0996 29.6741 24.7945 29.6095C24.4884 29.5449 24.2268 29.3646 24.0564 29.103C23.7726 28.6643 23.8149 28.0854 24.16 27.6936C24.2301 27.6134 24.3114 27.5433 24.4016 27.4854C27.6066 25.4047 31.8493 25.7164 34.7204 28.2435C35.5876 29.0061 36.279 29.9168 36.7755 30.951C37.2553 31.9485 37.5347 33.0183 37.606 34.1282C37.6761 35.2393 37.5347 36.3358 37.1851 37.3856C36.8233 38.4744 36.2533 39.4652 35.4908 40.3313C34.0135 42.0101 31.9695 43.031 29.7352 43.2058C29.507 43.2236 29.2788 43.2325 29.0517 43.2325ZM23.7625 40.8657C23.8149 40.8657 23.8672 40.8835 23.9106 40.9191C27.3027 43.7179 32.2356 43.3249 35.1412 40.0241C36.5684 38.4032 37.2787 36.3191 37.1406 34.1583C37.0026 31.9963 36.034 30.0203 34.4131 28.5931C31.6979 26.204 27.6857 25.9079 24.6543 27.8761C24.5997 27.9107 24.5518 27.953 24.5095 28.0008C24.3014 28.2368 24.2769 28.5853 24.4472 28.8491C24.5496 29.0061 24.7077 29.1152 24.8914 29.1542C25.0751 29.1931 25.2632 29.1586 25.4202 29.0562C27.9239 27.4308 31.2403 27.6746 33.4835 29.6496C36.2533 32.0876 36.5228 36.3247 34.0847 39.0945C32.9314 40.4048 31.335 41.203 29.5894 41.3399C29.4112 41.3544 29.232 41.3611 29.0539 41.3611C27.5031 41.3611 26.0124 40.829 24.809 39.837C24.7611 39.797 24.7311 39.7402 24.7255 39.679C24.7188 39.6177 24.7378 39.5565 24.7778 39.5086L25.4102 38.7449C25.4747 38.667 25.4892 38.5657 25.4491 38.4733C25.4091 38.3809 25.3256 38.3219 25.2243 38.3152L21.8744 38.1026C21.7898 38.097 21.7097 38.1315 21.6551 38.1972C21.6017 38.2629 21.5817 38.3475 21.6028 38.4299L22.4355 41.6817C22.46 41.7797 22.5335 41.8509 22.6326 41.8732C22.7305 41.8955 22.8274 41.8621 22.892 41.7841L23.5833 40.9503C23.6289 40.8946 23.6957 40.8657 23.7625 40.8657Z" fill="black"/>
<path d="M21.4518 27.3865L20.7604 28.2215C17.3104 25.3737 12.1827 25.7612 9.207 29.1421C6.17113 32.591 6.50733 37.8657 9.95622 40.9015C12.7483 43.3596 16.8774 43.6635 19.9945 41.6396C20.0691 41.5917 20.1337 41.535 20.1882 41.4726C20.4587 41.1654 20.5044 40.7045 20.2706 40.3438C19.9889 39.9107 19.4089 39.7871 18.9748 40.0688C16.559 41.6374 13.3584 41.4014 11.1931 39.4955C8.52011 37.142 8.25961 33.053 10.6119 30.379C12.9186 27.7595 16.8918 27.4589 19.5659 29.6631L18.9336 30.4268C18.6753 30.7385 18.879 31.2117 19.2831 31.2373L22.6341 31.4499C22.9691 31.4711 23.2285 31.1582 23.145 30.8321L22.3134 27.5802C22.2132 27.1872 21.71 27.0748 21.4518 27.3865Z" fill="black"/>
<path d="M15.4702 43.2059C13.4318 43.2059 11.4023 42.4845 9.80036 41.0751C8.93424 40.3125 8.24291 39.4019 7.74639 38.3677C7.26658 37.3702 6.98715 36.3003 6.9159 35.1904C6.84576 34.0794 6.98715 32.9828 7.3356 31.933C7.69741 30.8442 8.26851 29.8534 9.0311 28.9873C10.5084 27.3085 12.5523 26.2876 14.7867 26.1129C16.9386 25.9437 19.0382 26.576 20.7259 27.8952L21.2714 27.2373C21.4473 27.0246 21.7234 26.9311 21.9917 26.9912C22.26 27.0513 22.4693 27.254 22.5372 27.5211L23.3699 30.773C23.4278 31.0023 23.3755 31.2372 23.2252 31.4187C23.0749 31.6001 22.8534 31.6959 22.6174 31.6803L19.2675 31.4677C18.9926 31.451 18.7543 31.2829 18.6452 31.0301C18.5361 30.7774 18.5773 30.4891 18.7532 30.2765L19.2342 29.6965C16.6347 27.7082 12.9665 28.0544 10.7856 30.5325C8.51788 33.1086 8.76837 37.0507 11.3456 39.3195C13.4329 41.1564 16.5178 41.3846 18.8478 39.8717C19.1095 39.7025 19.4223 39.6446 19.7273 39.7091C20.0324 39.7737 20.2951 39.9541 20.4643 40.2157C20.7493 40.6543 20.707 41.2332 20.3619 41.6251C20.2918 41.7052 20.2105 41.7754 20.1203 41.8332C18.7042 42.7528 17.0844 43.2059 15.4702 43.2059ZM15.4535 26.5337C13.2114 26.5337 10.986 27.4699 9.38066 29.2946C7.95346 30.9155 7.2432 32.9995 7.38124 35.1604C7.51817 37.3223 8.48671 39.2983 10.1087 40.7256C12.824 43.1146 16.8362 43.4107 19.8676 41.4425C19.921 41.408 19.97 41.3657 20.0123 41.3178C20.2194 41.0818 20.245 40.7333 20.0736 40.4695C19.9722 40.3125 19.8142 40.2034 19.6305 40.1645C19.4468 40.1255 19.2586 40.16 19.1006 40.2624C17.994 40.9805 16.7293 41.3345 15.468 41.3345C13.876 41.3345 12.2907 40.7712 11.0383 39.6691C8.26851 37.231 7.99799 32.9939 10.436 30.2241C11.5905 28.9138 13.1869 28.1156 14.9314 27.9787C16.6725 27.8418 18.3703 28.375 19.7129 29.4816C19.7607 29.5217 19.7908 29.5785 19.7963 29.6397C19.803 29.7009 19.7841 29.7621 19.744 29.81L19.1117 30.5737C19.0471 30.6516 19.0327 30.7529 19.0727 30.8453C19.1128 30.9377 19.1963 30.9967 19.2965 31.0034L22.6474 31.2161C22.732 31.2216 22.8122 31.1871 22.8667 31.1214C22.9202 31.0558 22.9391 30.9711 22.9179 30.8888L22.0863 27.6369C22.0618 27.539 21.9884 27.4677 21.8893 27.4454C21.7913 27.4232 21.6945 27.4566 21.6299 27.5345L20.9386 28.3683C20.8562 28.4674 20.7103 28.4808 20.6113 28.3995C19.0939 27.1471 17.2681 26.5337 15.4535 26.5337Z" fill="black"/>
<path d="M18.5652 37.5025C18.5652 37.5025 18.4104 34.1672 16.4399 34.1059C15.6339 34.0803 14.9348 34.0903 14.3492 34.1015C12.2953 34.1415 12.3164 37.5225 12.3164 37.5236C12.3164 37.8264 13.7158 38.0714 15.4413 38.0714C17.1669 38.0714 18.5652 37.8264 18.5652 37.5236C18.5652 37.517 18.564 37.5103 18.5618 37.5025H18.5652Z" fill="#D9D9D9"/>
<path d="M15.4396 38.3064C14.5913 38.3064 13.7931 38.2485 13.1897 38.1427C12.8858 38.0893 12.6442 38.0258 12.4717 37.9546C12.3748 37.9145 12.082 37.7931 12.082 37.526C12.082 37.4914 12.0809 36.6309 12.3392 35.7592C12.6999 34.5424 13.3935 33.8889 14.3431 33.8711C14.9732 33.8589 15.6623 33.8511 16.446 33.8745C17.3567 33.9034 18.0536 34.5535 18.4599 35.7548C18.7527 36.6175 18.7939 37.4592 18.7961 37.4948C18.7961 37.5015 18.7961 37.5081 18.7961 37.5148C18.7961 37.5182 18.7961 37.5226 18.7961 37.526C18.7961 37.7931 18.5033 37.9145 18.4065 37.9546C18.2339 38.0258 17.9923 38.0893 17.6884 38.1427C17.0861 38.2485 16.2868 38.3064 15.4396 38.3064ZM12.5485 37.4725C12.6108 37.5126 12.8224 37.6184 13.4402 37.7108C13.9946 37.7943 14.7038 37.841 15.4396 37.841C16.1744 37.841 16.8846 37.7943 17.4391 37.7108C18.0502 37.6195 18.264 37.5148 18.3285 37.4736C18.3018 37.1018 18.0525 34.391 16.4315 34.3409C15.6589 34.3164 14.9754 34.3242 14.352 34.3365C12.681 34.3687 12.5574 37.0628 12.5485 37.4725Z" fill="black"/>
<path d="M17.0463 32.6396C17.0463 32.7532 17.0352 32.8645 17.014 32.9747C16.9929 33.0861 16.9617 33.1929 16.9194 33.2976C16.8782 33.4022 16.827 33.5002 16.7669 33.5948C16.7057 33.6883 16.6366 33.7752 16.5598 33.8553C16.483 33.9344 16.3995 34.0056 16.3082 34.0691C16.218 34.1314 16.1223 34.1837 16.0221 34.2272C15.9208 34.2706 15.8173 34.3029 15.7104 34.3251C15.6035 34.3474 15.4955 34.3585 15.3864 34.3585C15.2773 34.3585 15.1694 34.3474 15.0625 34.3251C14.9556 34.3029 14.8521 34.2706 14.7519 34.2272C14.6506 34.1837 14.5548 34.1314 14.4647 34.0691C14.3745 34.0056 14.2899 33.9344 14.2131 33.8553C14.1362 33.7752 14.0672 33.6883 14.0071 33.5948C13.9459 33.5002 13.8947 33.4022 13.8535 33.2976C13.8112 33.1929 13.78 33.0861 13.7588 32.9747C13.7377 32.8645 13.7266 32.7532 13.7266 32.6396C13.7266 32.5272 13.7377 32.4159 13.7588 32.3045C13.78 32.1943 13.8112 32.0863 13.8535 31.9828C13.8947 31.8782 13.9459 31.7791 14.0071 31.6856C14.0672 31.5921 14.1362 31.5052 14.2131 31.4251C14.2899 31.3449 14.3745 31.2737 14.4647 31.2113C14.5548 31.149 14.6506 31.0955 14.7519 31.0521C14.8521 31.0098 14.9556 30.9764 15.0625 30.9553C15.1694 30.933 15.2773 30.9219 15.3864 30.9219C15.4955 30.9219 15.6035 30.933 15.7104 30.9553C15.8173 30.9764 15.9208 31.0098 16.0221 31.0521C16.1223 31.0955 16.218 31.149 16.3082 31.2113C16.3995 31.2737 16.483 31.3449 16.5598 31.4251C16.6366 31.5052 16.7057 31.5921 16.7669 31.6856C16.827 31.7791 16.8782 31.8782 16.9194 31.9828C16.9617 32.0863 16.9929 32.1943 17.014 32.3045C17.0352 32.4159 17.0463 32.5272 17.0463 32.6396Z" fill="#D9D9D9"/>
<path d="M15.3847 34.5973C14.3416 34.5973 13.4922 33.7223 13.4922 32.6457C13.4922 31.5703 14.3416 30.6953 15.3847 30.6953C16.4279 30.6953 17.2773 31.5703 17.2773 32.6457C17.2773 33.7223 16.4279 34.5973 15.3847 34.5973ZM15.3847 31.1607C14.5988 31.1607 13.9586 31.8275 13.9586 32.6457C13.9586 33.4651 14.5988 34.1308 15.3847 34.1308C16.1718 34.1308 16.8119 33.4651 16.8119 32.6457C16.8119 31.8275 16.1718 31.1607 15.3847 31.1607Z" fill="black"/>
<path d="M32.4625 37.0265C32.4625 37.0265 32.3089 33.69 30.3384 33.6288C29.5313 33.6043 28.8332 33.6132 28.2477 33.6255C26.1937 33.6644 26.2149 37.0465 26.2149 37.0476C26.2149 37.3493 27.6131 37.5942 29.3387 37.5942C31.0642 37.5942 32.4625 37.3493 32.4625 37.0476C32.4625 37.041 32.4614 37.0332 32.4603 37.0265H32.4625Z" fill="black"/>
<path d="M29.3409 37.8303C28.4937 37.8303 27.6943 37.7713 27.0921 37.6667C26.7882 37.6133 26.5466 37.5498 26.3729 37.4774C26.2772 37.4385 25.9844 37.3171 25.9844 37.05C25.9844 37.0488 25.9844 37.0488 25.9844 37.0477C25.9844 36.9787 25.9877 36.1371 26.2415 35.2832C26.6022 34.0664 27.2947 33.4129 28.2454 33.394C28.8744 33.3829 29.5646 33.374 30.3473 33.3984C31.259 33.4274 31.9559 34.0775 32.3623 35.2788C32.6539 36.1415 32.6962 36.9832 32.6973 37.0177C32.6985 37.0255 32.6985 37.0321 32.6973 37.0388C32.6985 37.0422 32.6985 37.0466 32.6985 37.05C32.6985 37.3171 32.4046 37.4385 32.3088 37.4774C32.1352 37.5498 31.8936 37.6133 31.5908 37.6667C30.9874 37.7713 30.1881 37.8303 29.3409 37.8303ZM26.4508 36.9965C26.5121 37.0366 26.7247 37.1424 27.3414 37.2348C27.8958 37.3182 28.6061 37.3639 29.3409 37.3639C30.0756 37.3639 30.7859 37.3182 31.3403 37.2348C31.9526 37.1435 32.1663 37.0388 32.2298 36.9976C32.2031 36.6258 31.9537 33.915 30.3328 33.8638C29.5602 33.8404 28.8777 33.8482 28.2543 33.8605C26.5822 33.8927 26.4597 36.5868 26.4508 36.9965Z" fill="black"/>
<path d="M30.9475 32.1631C30.9475 32.2755 30.9375 32.388 30.9164 32.4982C30.8952 32.6095 30.8629 32.7164 30.8217 32.821C30.7794 32.9245 30.7282 33.0236 30.6681 33.1171C30.608 33.2118 30.539 33.2986 30.4622 33.3776C30.3842 33.4578 30.3007 33.5291 30.2106 33.5914C30.1193 33.6548 30.0246 33.7072 29.9233 33.7506C29.8231 33.794 29.7185 33.8263 29.6116 33.8486C29.5048 33.8697 29.3968 33.8808 29.2888 33.8808C29.1797 33.8808 29.0717 33.8697 28.9648 33.8486C28.8579 33.8263 28.7544 33.794 28.6531 33.7506C28.5529 33.7072 28.4572 33.6548 28.3659 33.5914C28.2757 33.5291 28.1922 33.4578 28.1154 33.3776C28.0375 33.2986 27.9696 33.2118 27.9083 33.1171C27.8482 33.0236 27.797 32.9245 27.7547 32.821C27.7135 32.7164 27.6823 32.6095 27.6612 32.4982C27.6389 32.388 27.6289 32.2755 27.6289 32.1631C27.6289 32.0506 27.6389 31.9382 27.6612 31.828C27.6823 31.7178 27.7135 31.6098 27.7547 31.5051C27.797 31.4016 27.8482 31.3025 27.9083 31.209C27.9696 31.1144 28.0375 31.0275 28.1154 30.9485C28.1922 30.8684 28.2757 30.7971 28.3659 30.7348C28.4572 30.6713 28.5529 30.619 28.6531 30.5756C28.7544 30.5321 28.8579 30.4999 28.9648 30.4776C29.0717 30.4564 29.1797 30.4453 29.2888 30.4453C29.3968 30.4453 29.5048 30.4564 29.6116 30.4776C29.7185 30.4999 29.8231 30.5321 29.9233 30.5756C30.0246 30.619 30.1193 30.6713 30.2106 30.7348C30.3007 30.7971 30.3842 30.8684 30.4622 30.9485C30.539 31.0275 30.608 31.1144 30.6681 31.209C30.7282 31.3025 30.7794 31.4016 30.8217 31.5051C30.8629 31.6098 30.8952 31.7178 30.9164 31.828C30.9375 31.9382 30.9475 32.0506 30.9475 32.1631Z" fill="#D9D9D9"/>
<path d="M29.2871 34.1207C28.2428 34.1207 27.3945 33.2446 27.3945 32.1692C27.3945 31.0938 28.2428 30.2188 29.2871 30.2188C30.3302 30.2188 31.1785 31.0938 31.1785 32.1692C31.1785 33.2446 30.3302 34.1207 29.2871 34.1207ZM29.2871 30.6841C28.5 30.6841 27.8599 31.3498 27.8599 32.1692C27.8599 32.9885 28.5 33.6543 29.2871 33.6543C30.073 33.6543 30.7132 32.9885 30.7132 32.1692C30.7132 31.3498 30.073 30.6841 29.2871 30.6841Z" fill="black"/>
<path d="M32.5838 22.3178C32.6172 22.428 32.6361 22.546 32.6361 22.6673C32.6361 23.3152 32.1106 23.8407 31.4627 23.8407H26.1346C25.4366 23.8407 24.8711 23.2752 24.8711 22.5771V18.3557C24.8711 17.2958 25.7305 16.4375 26.7892 16.4375H31.1911L32.5838 22.3178Z" fill="black"/>
<path d="M31.461 24.0728H26.1329C25.308 24.0728 24.6367 23.4015 24.6367 22.5766V18.3551C24.6367 17.1683 25.6019 16.2031 26.7875 16.2031H31.1894C31.3185 16.2031 31.4221 16.3078 31.4221 16.4369C31.4221 16.5649 31.3185 16.6696 31.1894 16.6696H26.7875C25.858 16.6696 25.1021 17.4255 25.1021 18.3551V22.5766C25.1021 23.1443 25.5652 23.6074 26.1329 23.6074H31.461C31.9798 23.6074 32.4017 23.1855 32.4017 22.6667C32.4017 22.571 32.3873 22.4775 32.3594 22.3873C32.3205 22.2637 32.3895 22.1335 32.5119 22.0956C32.6355 22.0567 32.7658 22.1257 32.8036 22.2481C32.8459 22.384 32.8671 22.5242 32.8671 22.6667C32.8671 23.4427 32.2359 24.0728 31.461 24.0728Z" fill="black"/>
<path d="M32.5809 22.3179C32.6221 22.3045 32.6689 22.309 32.7101 22.3302C32.8782 22.417 33.054 22.4905 33.2377 22.5484C33.3079 22.5706 33.3569 22.6341 33.3569 22.7087V23.3443C33.3569 23.518 33.4971 23.6594 33.6708 23.6594H34.8475C35.0212 23.6594 35.1626 23.518 35.1626 23.3443V22.7087C35.1626 22.6341 35.2116 22.5706 35.2817 22.5484C35.4643 22.4905 35.6413 22.417 35.8094 22.3302C35.8751 22.2956 35.9541 22.3068 36.0064 22.3591L36.4562 22.8089C36.5798 22.9313 36.779 22.9313 36.9015 22.8089L37.7431 21.9672C37.8656 21.8448 37.8656 21.6455 37.7431 21.523L37.2922 21.0722C37.2399 21.0198 37.2299 20.9408 37.2644 20.8751C37.3512 20.707 37.4247 20.5311 37.4826 20.3474C37.5049 20.2773 37.5683 20.2283 37.6429 20.2283H38.2786C38.4523 20.2283 38.5936 20.088 38.5936 19.9133V18.918C38.5936 18.7443 38.4523 18.603 38.2786 18.603H37.6429C37.5683 18.603 37.5049 18.554 37.4826 18.4838C37.4247 18.3001 37.3512 18.1242 37.2644 17.9561C37.2299 17.8905 37.2399 17.8114 37.2922 17.7591L37.7431 17.3093C37.8656 17.1858 37.8656 16.9865 37.7431 16.864L36.9015 16.0224C36.779 15.8999 36.5798 15.8999 36.4562 16.0224L36.0064 16.4722C35.9541 16.5256 35.8751 16.5356 35.8094 16.5011C35.6413 16.4143 35.4643 16.3408 35.2817 16.2829C35.2116 16.2606 35.1626 16.1972 35.1626 16.1226V15.4869C35.1626 15.3133 35.0212 15.1719 34.8475 15.1719H33.6708C33.4971 15.1719 33.3569 15.3133 33.3569 15.4869V16.1226C33.3569 16.1972 33.3079 16.2606 33.2377 16.2829C33.054 16.3408 32.8782 16.4143 32.7101 16.5011C32.6444 16.5356 32.5642 16.5256 32.5119 16.4722L32.0621 16.0224C31.9397 15.8999 31.7404 15.8999 31.6168 16.0224L30.7763 16.864C30.6527 16.9865 30.6527 17.1858 30.7763 17.3093L31.2261 17.7591C31.2784 17.8114 31.2884 17.8905 31.255 17.9561C31.1682 18.1242 31.0947 18.3001 31.0357 18.4838C31.0134 18.554 30.95 18.603 30.8765 18.603H30.2397C30.0661 18.603 29.9258 18.7443 29.9258 18.918V19.9133C29.9258 20.088 30.0661 20.2283 30.2397 20.2283H30.8765C30.95 20.2283 31.0134 20.2773 31.0357 20.3474C31.0947 20.5311 31.1682 20.707 31.255 20.8751C31.2884 20.9408 31.2784 21.0198 31.2261 21.0722L30.8064 21.4919L32.5809 22.3179Z" fill="#D9D9D9"/>
<path d="M34.8497 23.8904H33.673C33.3713 23.8904 33.1264 23.6454 33.1264 23.3426V22.7548C32.9538 22.6981 32.7857 22.6268 32.6243 22.5455C32.5096 22.5656 32.395 22.4988 32.3605 22.3841C32.3226 22.2617 32.3916 22.1314 32.5141 22.0936C32.6154 22.0624 32.7234 22.0724 32.8191 22.1214C32.9761 22.2027 33.1409 22.2717 33.3101 22.3251C33.4782 22.3785 33.5917 22.5322 33.5917 22.707V23.3426C33.5917 23.3883 33.6285 23.425 33.673 23.425H34.8497C34.8954 23.425 34.9321 23.3883 34.9321 23.3426V22.707C34.9321 22.5322 35.0445 22.3785 35.2138 22.3251C35.3819 22.2717 35.5466 22.2027 35.7047 22.1214C35.8617 22.0401 36.0498 22.0691 36.1734 22.1926L36.6231 22.6424C36.6443 22.6635 36.6688 22.6658 36.681 22.6658C36.6944 22.6658 36.7178 22.6635 36.7389 22.6424L37.5806 21.8008C37.6017 21.7807 37.6039 21.7562 37.6039 21.7429C37.6039 21.7306 37.6017 21.7061 37.5806 21.6861L37.1308 21.2352C37.0072 21.1117 36.9783 20.9235 37.0595 20.7665C37.1408 20.6096 37.2098 20.4437 37.2633 20.2756C37.3167 20.1075 37.4703 19.9939 37.6451 19.9939H38.2808C38.3264 19.9939 38.3632 19.9572 38.3632 19.9116V18.9163C38.3632 18.8707 38.3264 18.8339 38.2808 18.8339H37.6451C37.4703 18.8339 37.3167 18.7215 37.2633 18.5523C37.2098 18.3842 37.1408 18.2183 37.0595 18.0613C36.9783 17.9043 37.0072 17.7162 37.1308 17.5926L37.5806 17.1429C37.6017 17.1217 37.6039 17.0972 37.6039 17.085C37.6039 17.0716 37.6017 17.0482 37.5806 17.0271L36.7389 16.1855C36.7178 16.1643 36.6944 16.1621 36.681 16.1621C36.6688 16.1621 36.6443 16.1654 36.6231 16.1855L36.1734 16.6352C36.0498 16.7588 35.8617 16.7877 35.7047 16.7065C35.5466 16.6252 35.3819 16.5562 35.2138 16.5027C35.0445 16.4493 34.9321 16.2957 34.9321 16.1209V15.4852C34.9321 15.4396 34.8954 15.4028 34.8497 15.4028H33.673C33.6285 15.4028 33.5917 15.4396 33.5917 15.4852V16.1209C33.5917 16.2957 33.4782 16.4493 33.3101 16.5027C33.1409 16.5562 32.9761 16.6252 32.8191 16.7065C32.6622 16.7877 32.474 16.7588 32.3493 16.6352L31.8996 16.1855C31.8795 16.1643 31.855 16.1621 31.8417 16.1621C31.8294 16.1621 31.8049 16.1654 31.7838 16.1855L30.9433 17.0271C30.911 17.0583 30.911 17.1106 30.9433 17.1429L31.393 17.5926C31.5166 17.7162 31.5456 17.9043 31.4643 18.0613C31.3819 18.2183 31.314 18.3842 31.2606 18.5523C31.2071 18.7215 31.0535 18.8339 30.8787 18.8339H30.2419C30.1974 18.8339 30.1607 18.8707 30.1607 18.9163V19.9116C30.1607 19.9572 30.1974 19.9939 30.2419 19.9939H30.8787C31.0535 19.9939 31.2071 20.1075 31.2606 20.2756C31.314 20.4437 31.3819 20.6096 31.4643 20.7665C31.5456 20.9235 31.5166 21.1117 31.393 21.2352L30.9733 21.6549C30.8821 21.7462 30.7351 21.7462 30.6438 21.6549C30.5525 21.5648 30.5525 21.4167 30.6438 21.3265L31.0301 20.9402C30.9522 20.7855 30.8854 20.624 30.8308 20.4593H30.2419C29.9402 20.4593 29.6953 20.2144 29.6953 19.9116V18.9163C29.6953 18.6146 29.9402 18.3686 30.2419 18.3686H30.8308C30.8854 18.2038 30.9522 18.0424 31.0301 17.8876L30.6138 17.4713C30.4 17.2587 30.4 16.9113 30.6138 16.6976L31.4554 15.8559C31.5578 15.7535 31.6958 15.6956 31.8417 15.6956C31.9886 15.6956 32.1256 15.7535 32.2291 15.8559L32.6455 16.2723C32.8002 16.1944 32.9616 16.1276 33.1264 16.073V15.4852C33.1264 15.1835 33.3713 14.9375 33.673 14.9375H34.8497C35.1514 14.9375 35.3974 15.1835 35.3974 15.4852V16.073C35.5622 16.1276 35.7236 16.1944 35.8784 16.2723L36.2936 15.8559C36.3972 15.7535 36.5352 15.6956 36.681 15.6956C36.828 15.6956 36.9649 15.7535 37.0685 15.8559L37.9101 16.6976C38.0125 16.8011 38.0704 16.938 38.0704 17.085C38.0704 17.2308 38.0125 17.3689 37.9101 17.4713L37.4937 17.8876C37.5716 18.0424 37.6384 18.2038 37.693 18.3686H38.2808C38.5825 18.3686 38.8285 18.6146 38.8285 18.9163V19.9116C38.8285 20.2144 38.5825 20.4593 38.2808 20.4593H37.693C37.6384 20.624 37.5716 20.7855 37.4937 20.9402L37.9101 21.3566C38.0125 21.4601 38.0704 21.597 38.0704 21.7429C38.0704 21.8898 38.0125 22.0268 37.9101 22.1303L37.0685 22.9719C36.9649 23.0754 36.828 23.1322 36.681 23.1322C36.5352 23.1322 36.3972 23.0754 36.2936 22.9719L35.8784 22.5556C35.7236 22.6335 35.5622 22.7003 35.3974 22.7548V23.3426C35.3974 23.6454 35.1514 23.8904 34.8497 23.8904Z" fill="black"/>
<path d="M39.6386 13.3275C39.7199 13.2907 39.8012 13.2529 39.8802 13.2117C39.9693 13.166 40.0773 13.1805 40.1496 13.2506L40.8053 13.893C40.9746 14.0578 41.244 14.0578 41.4132 13.893L42.2292 13.0948L43.8301 9.03027V8.20089C43.8301 7.96042 43.6352 7.76672 43.3959 7.76672H42.473C42.3717 7.76672 42.2837 7.69992 42.2526 7.60307C42.1691 7.34813 42.0655 7.1021 41.942 6.86831C41.893 6.77702 41.9075 6.66459 41.9821 6.59222L42.62 5.9688C42.7936 5.79847 42.7936 5.51793 42.62 5.3476L41.4132 4.16754C41.244 4.00277 40.9746 4.00277 40.8053 4.16754L40.1496 4.80989C40.0773 4.88003 39.9693 4.8945 39.8802 4.84885C39.6386 4.72528 39.3848 4.62175 39.1199 4.54048C39.0219 4.50931 38.954 4.42136 38.954 4.31894V3.3248C38.954 3.08545 38.7592 2.89062 38.5198 2.89062H36.861C36.6206 2.89062 36.4258 3.08545 36.4258 3.3248V4.31894C36.4258 4.42136 36.3578 4.50931 36.2599 4.54048C35.996 4.62175 35.7422 4.72528 35.4995 4.84885C35.4105 4.8945 35.3025 4.88003 35.2312 4.80989L34.5744 4.16754C34.4063 4.00277 34.1358 4.00277 33.9666 4.16754L32.7609 5.3476C32.5861 5.51793 32.5861 5.79847 32.7609 5.9688L33.3977 6.59222C33.4723 6.66459 33.4867 6.77702 33.4389 6.86831C33.3153 7.1021 33.2107 7.34813 33.1283 7.60307C33.0971 7.69881 33.0092 7.76672 32.9078 7.76672H31.985C31.7445 7.76672 31.5508 7.96042 31.5508 8.20089V9.85965C31.5508 10.1001 31.7445 10.2938 31.985 10.2938H32.9078C33.0092 10.2938 33.0971 10.3617 33.1283 10.4575C33.2107 10.7124 33.3153 10.9584 33.4389 11.1922C33.4867 11.2835 33.4723 11.396 33.3977 11.4683L32.7609 12.0917C32.5861 12.2621 32.5861 12.5426 32.7609 12.7129L33.9666 13.893C34.1358 14.0578 34.4063 14.0578 34.5744 13.893L35.2312 13.2506C35.3025 13.1805 35.4105 13.166 35.4995 13.2117C35.7422 13.3353 35.996 13.4388 36.2599 13.5201C36.3578 13.5512 36.4258 13.6392 36.4258 13.7416V14.7357C36.4258 14.9751 36.6206 15.1699 36.861 15.1699H38.5198L39.6386 13.3275Z" fill="#D9D9D9"/>
<path d="M38.5192 15.4048H36.8605C36.492 15.4048 36.1925 15.1053 36.1925 14.7379V13.746C36.1925 13.746 36.1914 13.746 36.1903 13.7449C35.9164 13.6603 35.6492 13.5512 35.3943 13.4221C35.3932 13.421 35.3921 13.421 35.3921 13.421L34.7363 14.0622C34.4792 14.3138 34.0606 14.3138 33.8034 14.0622L32.5967 12.8821C32.4675 12.7552 32.3963 12.586 32.3963 12.4045C32.3963 12.2242 32.4675 12.0539 32.5967 11.9281L33.2334 11.3058C33.2334 11.3046 33.2323 11.3046 33.2323 11.3035C33.1021 11.0564 32.9919 10.797 32.9061 10.532C32.905 10.5309 32.905 10.5298 32.905 10.5298H31.9844C31.6159 10.5298 31.3164 10.2303 31.3164 9.86185V8.20309C31.3164 7.8346 31.6159 7.53513 31.9844 7.53513H32.905C32.905 7.53513 32.905 7.53402 32.9061 7.53291C32.9919 7.26795 33.1021 7.00856 33.2323 6.76142C33.2323 6.76142 33.2334 6.7603 33.2334 6.75919L32.5967 6.13688C32.4675 6.01108 32.3963 5.84186 32.3963 5.6604C32.3963 5.47894 32.4675 5.30972 32.5967 5.18281L33.8034 4.00386C34.0606 3.75115 34.4792 3.75227 34.7363 4.00386L35.3921 4.64399C35.3921 4.64399 35.3932 4.64399 35.3943 4.64288C35.6492 4.51374 35.9164 4.40464 36.1903 4.32003C36.1914 4.32003 36.1925 4.31892 36.1925 4.31892V3.327C36.1925 2.95962 36.492 2.66016 36.8605 2.66016H38.5192C38.8866 2.66016 39.1861 2.95962 39.1861 3.327V4.31892C39.1872 4.31892 39.1872 4.32003 39.1883 4.32003C39.4621 4.40464 39.7304 4.51374 39.9854 4.64288C39.9865 4.64399 39.9865 4.64399 39.9876 4.64399L40.6422 4.00386C40.8994 3.75227 41.318 3.75227 41.5751 4.00386L42.7819 5.18392C42.911 5.30972 42.9823 5.47894 42.9823 5.6604C42.9823 5.84186 42.911 6.01108 42.7819 6.13688L42.1462 6.75919C42.1462 6.7603 42.1462 6.76142 42.1473 6.76253C42.2776 7.00856 42.3867 7.26795 42.4735 7.53291C42.4735 7.53402 42.4735 7.53513 42.4746 7.53513H43.3953C43.7627 7.53513 44.0622 7.8346 44.0622 8.20309V9.03247C44.0622 9.06142 44.0566 9.09036 44.0466 9.11819L42.4457 13.1816C42.4334 13.2128 42.4156 13.2406 42.3923 13.2629L41.5751 14.0622C41.318 14.3138 40.8994 14.3138 40.6422 14.0622L39.9876 13.421C39.9865 13.421 39.9865 13.421 39.9854 13.4221C39.9242 13.4532 39.8618 13.4833 39.7995 13.5122L38.7185 15.2935C38.6762 15.3625 38.6005 15.4048 38.5192 15.4048ZM35.3909 12.9556C35.4633 12.9556 35.5368 12.9723 35.6047 13.0068C35.8363 13.1248 36.0801 13.2228 36.3283 13.3007C36.5254 13.3619 36.6578 13.5401 36.6578 13.7438V14.7379C36.6578 14.8493 36.7491 14.9394 36.8605 14.9394H38.3879L39.4388 13.2083C39.4633 13.1671 39.5 13.1348 39.5434 13.1159C39.6213 13.0814 39.6993 13.0447 39.7739 13.0068C39.9531 12.9155 40.1691 12.9478 40.3116 13.087L40.9684 13.7282C41.0452 13.805 41.1721 13.805 41.25 13.7282L42.0304 12.9645L43.5968 8.98794V8.20309C43.5968 8.09176 43.5055 8.00159 43.3953 8.00159H42.4724C42.2709 8.00159 42.0928 7.87134 42.0304 7.67652C41.9525 7.43717 41.8534 7.20338 41.7354 6.97962C41.6375 6.79481 41.6709 6.57327 41.8189 6.42855L42.4568 5.80401C42.4958 5.76616 42.5169 5.71495 42.5169 5.6604C42.5169 5.60585 42.4958 5.55464 42.4568 5.51679L41.25 4.33673C41.1721 4.25991 41.0452 4.25991 40.9684 4.33673L40.3116 4.97797C40.1691 5.11713 39.9531 5.14941 39.7739 5.05812C39.5423 4.94012 39.2996 4.84215 39.0502 4.76422C38.8532 4.70299 38.7207 4.52487 38.7207 4.32114V3.327C38.7207 3.21567 38.6305 3.1255 38.5192 3.1255H36.8605C36.7491 3.1255 36.6578 3.21567 36.6578 3.327V4.32114C36.6578 4.52487 36.5254 4.70299 36.3283 4.76422C36.0801 4.84215 35.8363 4.94012 35.6047 5.05812C35.4255 5.14941 35.2095 5.11713 35.0681 4.97797L34.4113 4.33673C34.3333 4.25991 34.2064 4.25991 34.1296 4.33673L32.9228 5.51679C32.8839 5.55464 32.8627 5.60585 32.8627 5.6604C32.8627 5.71495 32.8839 5.76616 32.9228 5.80401L33.5607 6.42855C33.7088 6.57327 33.7422 6.79481 33.6442 6.97962C33.5262 7.20338 33.4272 7.43717 33.3492 7.67652C33.2858 7.87134 33.1088 8.00159 32.9073 8.00159H31.9844C31.873 8.00159 31.7829 8.09176 31.7829 8.20309V9.86185C31.7829 9.97318 31.873 10.0634 31.9844 10.0634H32.9073C33.1088 10.0634 33.2858 10.1936 33.3492 10.3884C33.4272 10.6278 33.5262 10.8627 33.6442 11.0853C33.7422 11.2701 33.7088 11.4928 33.5607 11.6375L32.9228 12.2609C32.8839 12.2988 32.8627 12.35 32.8627 12.4045C32.8627 12.4591 32.8839 12.5103 32.9228 12.5493L34.1296 13.7282C34.2064 13.805 34.3333 13.805 34.4113 13.7282L35.0681 13.087C35.156 13.0001 35.2729 12.9556 35.3909 12.9556Z" fill="black"/>
<path d="M38.5234 15.1696C38.5479 15.1696 38.5724 15.1674 38.5958 15.1641L38.5234 15.1696Z" fill="black"/>
<path d="M38.5217 15.4016C38.3926 15.4016 38.2891 15.298 38.2891 15.1689C38.2891 15.0409 38.3926 14.9362 38.5217 14.9362C38.5329 14.9362 38.544 14.9351 38.5551 14.9329C38.682 14.9117 38.8023 14.9975 38.8234 15.1244C38.8446 15.2513 38.7589 15.3715 38.6319 15.3927C38.5963 15.3994 38.5585 15.4016 38.5217 15.4016Z" fill="black"/>
<path d="M39.8587 9.03146C39.8587 9.1851 39.8442 9.33873 39.8142 9.48902C39.7841 9.64042 39.7396 9.78737 39.6806 9.92987C39.6216 10.0724 39.5492 10.2071 39.4635 10.3362C39.3778 10.4642 39.2809 10.5822 39.1718 10.6913C39.0627 10.8004 38.9436 10.8973 38.8156 10.983C38.6875 11.0687 38.5517 11.1411 38.4103 11.2001C38.2678 11.2591 38.1209 11.3036 37.9695 11.3337C37.8181 11.3637 37.6656 11.3793 37.5119 11.3793C37.3572 11.3793 37.2047 11.3637 37.0533 11.3337C36.9019 11.3036 36.7549 11.2591 36.6135 11.2001C36.471 11.1411 36.3352 11.0687 36.2072 10.983C36.0792 10.8973 35.96 10.8004 35.8509 10.6913C35.743 10.5822 35.645 10.4642 35.5593 10.3362C35.4735 10.2071 35.4012 10.0724 35.3422 9.92987C35.2832 9.78737 35.2387 9.64042 35.2086 9.48902C35.1785 9.33873 35.1641 9.1851 35.1641 9.03146C35.1641 8.87783 35.1785 8.7242 35.2086 8.57391C35.2387 8.42251 35.2832 8.27556 35.3422 8.13306C35.4012 7.99056 35.4735 7.85586 35.5593 7.72672C35.645 7.5987 35.743 7.48069 35.8509 7.37159C35.96 7.26249 36.0792 7.16564 36.2072 7.07992C36.3352 6.99419 36.471 6.92183 36.6135 6.86283C36.7549 6.80383 36.9019 6.7593 37.0533 6.72924C37.2047 6.69918 37.3572 6.68359 37.5119 6.68359C37.6656 6.68359 37.8181 6.69918 37.9695 6.72924C38.1209 6.7593 38.2678 6.80383 38.4103 6.86283C38.5517 6.92183 38.6875 6.99419 38.8156 7.07992C38.9436 7.16564 39.0627 7.26249 39.1718 7.37159C39.2809 7.48069 39.3778 7.5987 39.4635 7.72672C39.5492 7.85586 39.6216 7.99056 39.6806 8.13306C39.7396 8.27556 39.7841 8.42251 39.8142 8.57391C39.8442 8.7242 39.8587 8.87783 39.8587 9.03146Z" fill="#D9D9D9"/>
<path d="M37.5141 11.6103C36.0903 11.6103 34.9336 10.4525 34.9336 9.02976C34.9336 7.60701 36.0903 6.44922 37.5141 6.44922C38.9369 6.44922 40.0936 7.60701 40.0936 9.02976C40.0936 10.4525 38.9369 11.6103 37.5141 11.6103ZM37.5141 6.91456C36.3474 6.91456 35.3989 7.86418 35.3989 9.02976C35.3989 10.1953 36.3474 11.145 37.5141 11.145C38.6797 11.145 39.6282 10.1953 39.6282 9.02976C39.6282 7.86418 38.6797 6.91456 37.5141 6.91456Z" fill="black"/>
<path d="M31.011 12.8233C31.011 12.9781 30.9954 13.1306 30.9654 13.282C30.9353 13.4334 30.8908 13.5792 30.8318 13.7217C30.7728 13.8642 30.7015 14 30.6158 14.1281C30.5301 14.2561 30.4321 14.3752 30.323 14.4843C30.2139 14.5923 30.0959 14.6903 29.9679 14.776C29.8399 14.8617 29.7041 14.9341 29.5616 14.9931C29.4191 15.0521 29.2721 15.0966 29.1218 15.1267C28.9704 15.1567 28.8179 15.1712 28.6632 15.1712C28.5095 15.1712 28.357 15.1567 28.2056 15.1267C28.0542 15.0966 27.9073 15.0521 27.7648 14.9931C27.6223 14.9341 27.4876 14.8617 27.3595 14.776C27.2315 14.6903 27.1124 14.5923 27.0033 14.4843C26.8942 14.3752 26.7973 14.2561 26.7116 14.1281C26.6259 14 26.5535 13.8642 26.4945 13.7217C26.4355 13.5792 26.391 13.4334 26.3609 13.282C26.3309 13.1306 26.3164 12.9781 26.3164 12.8233C26.3164 12.6697 26.3309 12.5172 26.3609 12.3658C26.391 12.2144 26.4355 12.0674 26.4945 11.9249C26.5535 11.7835 26.6259 11.6477 26.7116 11.5197C26.7973 11.3917 26.8942 11.2725 27.0033 11.1634C27.1124 11.0543 27.2315 10.9575 27.3595 10.8718C27.4876 10.786 27.6223 10.7137 27.7648 10.6547C27.9073 10.5957 28.0542 10.5512 28.2056 10.5211C28.357 10.491 28.5095 10.4766 28.6632 10.4766C28.8179 10.4766 28.9704 10.491 29.1218 10.5211C29.2721 10.5512 29.4191 10.5957 29.5616 10.6547C29.7041 10.7137 29.8399 10.786 29.9679 10.8718C30.0959 10.9575 30.2139 11.0543 30.323 11.1634C30.4321 11.2725 30.5301 11.3917 30.6158 11.5197C30.7015 11.6477 30.7728 11.7835 30.8318 11.9249C30.8908 12.0674 30.9353 12.2144 30.9654 12.3658C30.9954 12.5172 31.011 12.6697 31.011 12.8233Z" fill="#D9D9D9"/>
<path d="M28.6626 15.4022C27.2398 15.4022 26.082 14.2455 26.082 12.8216C26.082 11.3989 27.2398 10.2422 28.6626 10.2422C30.0853 10.2422 31.2431 11.3989 31.2431 12.8216C31.2431 14.2455 30.0853 15.4022 28.6626 15.4022ZM28.6626 10.7075C27.497 10.7075 26.5485 11.656 26.5485 12.8216C26.5485 13.9883 27.497 14.9368 28.6626 14.9368C29.8293 14.9368 30.7778 13.9883 30.7778 12.8216C30.7778 11.656 29.8293 10.7075 28.6626 10.7075Z" fill="black"/>
<path d="M27.2188 21.4883H31.4625C31.9891 21.4883 32.4344 21.8356 32.5836 22.3132L27.2188 21.4883Z" fill="black"/>
<path d="M32.5819 22.5492C32.4828 22.5492 32.3915 22.4846 32.3603 22.3855C32.2367 21.9892 31.8761 21.7243 31.4619 21.7243H27.2182C27.089 21.7243 26.9844 21.6196 26.9844 21.4905C26.9844 21.3625 27.089 21.2578 27.2182 21.2578H31.4619C32.0809 21.2578 32.6208 21.6552 32.8045 22.2464C32.8435 22.37 32.7745 22.5002 32.652 22.5381C32.6286 22.5459 32.6052 22.5492 32.5819 22.5492Z" fill="black"/>
<path d="M46.1801 11.3791C46.1801 11.5328 46.1645 11.6853 46.1345 11.8367C46.1044 11.9881 46.0599 12.135 46.0009 12.2775C45.9419 12.42 45.8695 12.5547 45.7838 12.6828C45.6981 12.8108 45.6012 12.9299 45.4921 13.039C45.383 13.1481 45.265 13.2449 45.1359 13.3307C45.0079 13.4164 44.8731 13.4888 44.7306 13.5478C44.5882 13.6068 44.4412 13.6513 44.2898 13.6813C44.1384 13.7114 43.9859 13.7259 43.8322 13.7259C43.6775 13.7259 43.525 13.7114 43.3736 13.6813C43.2233 13.6513 43.0763 13.6068 42.9338 13.5478C42.7913 13.4888 42.6555 13.4164 42.5275 13.3307C42.3995 13.2449 42.2815 13.1481 42.1724 13.039C42.0633 12.9299 41.9653 12.8108 41.8807 12.6828C41.795 12.5547 41.7226 12.42 41.6636 12.2775C41.6046 12.135 41.5601 11.9881 41.53 11.8367C41.5 11.6853 41.4844 11.5328 41.4844 11.3791C41.4844 11.2244 41.5 11.0719 41.53 10.9205C41.5601 10.7702 41.6046 10.6232 41.6636 10.4807C41.7226 10.3382 41.795 10.2024 41.8807 10.0744C41.9653 9.94635 42.0633 9.82835 42.1724 9.71925C42.2815 9.61015 42.3995 9.51218 42.5275 9.42646C42.6555 9.34074 42.7913 9.26949 42.9338 9.21049C43.0763 9.15148 43.2233 9.10695 43.3736 9.07689C43.525 9.04684 43.6775 9.03125 43.8322 9.03125C43.9859 9.03125 44.1384 9.04684 44.2898 9.07689C44.4412 9.10695 44.5882 9.15148 44.7306 9.21049C44.8731 9.26949 45.0079 9.34074 45.1359 9.42646C45.265 9.51218 45.383 9.61015 45.4921 9.71925C45.6012 9.82835 45.6981 9.94635 45.7838 10.0744C45.8695 10.2024 45.9419 10.3382 46.0009 10.4807C46.0599 10.6232 46.1044 10.7702 46.1345 10.9205C46.1645 11.0719 46.1801 11.2244 46.1801 11.3791Z" fill="#D9D9D9"/>
<path d="M43.8344 13.958C42.4117 13.958 41.2539 12.8002 41.2539 11.3774C41.2539 9.95467 42.4117 8.79688 43.8344 8.79688C45.2572 8.79688 46.415 9.95467 46.415 11.3774C46.415 12.8002 45.2572 13.958 43.8344 13.958ZM43.8344 9.26222C42.6677 9.26222 41.7193 10.2107 41.7193 11.3774C41.7193 12.543 42.6677 13.4915 43.8344 13.4915C45 13.4915 45.9485 12.543 45.9485 11.3774C45.9485 10.2107 45 9.26222 43.8344 9.26222Z" fill="black"/>
<mask id="mask2_3476_27261" style="mask-type:luminance" maskUnits="userSpaceOnUse" x="36" y="11" width="12" height="14">
<path d="M36.418 11.5234H47.5027V24.0632H36.418V11.5234Z" fill="white"/>
</mask>
<g mask="url(#mask2_3476_27261)">
<path d="M45.4133 23.5171C45.6449 23.7509 45.9833 23.8778 46.3496 23.8211C46.855 23.7453 47.2624 23.2255 47.2624 22.7134V16.2498C47.2624 15.5517 46.6958 14.9862 45.9978 14.9862H41.3031L38.2328 11.918C37.8342 11.5173 37.1874 11.5173 36.7889 11.9158C36.5885 12.1162 36.4883 12.3789 36.4883 12.6406C36.4883 12.8999 36.5885 13.1627 36.7866 13.3608L40.761 17.3341V21.9842C40.761 22.6065 41.2664 23.1119 41.8898 23.1119H45.1573L45.4133 23.5171Z" fill="black"/>
</g>
<mask id="mask3_3476_27261" style="mask-type:luminance" maskUnits="userSpaceOnUse" x="36" y="11" width="12" height="14">
<path d="M36.125 11.2422H47.4948V24.352H36.125V11.2422Z" fill="white"/>
</mask>
<g mask="url(#mask3_3476_27261)">
<path d="M46.1753 24.0729C45.8257 24.0729 45.4951 23.9382 45.2457 23.6866C45.1556 23.5953 45.1567 23.4473 45.248 23.3571C45.3392 23.2669 45.4862 23.2669 45.5764 23.3582C45.769 23.5519 46.0373 23.6387 46.3133 23.5975C46.6941 23.5397 47.0281 23.1289 47.0281 22.7192V16.2556C47.0281 15.6878 46.5649 15.2247 45.9961 15.2247H41.3014C41.2391 15.2247 41.1801 15.2002 41.1367 15.1568L38.0674 12.0886C37.9171 11.9384 37.7201 11.856 37.5097 11.856C37.5086 11.856 37.5086 11.856 37.5086 11.856C37.2981 11.856 37.1 11.9384 36.9519 12.0864C36.8016 12.2356 36.7204 12.4349 36.7204 12.6464C36.7204 12.8568 36.8016 13.0538 36.9497 13.2019L40.924 17.1751C40.9675 17.2186 40.992 17.2776 40.992 17.3399V21.99C40.992 22.4832 41.3938 22.8851 41.8881 22.8851H45.1556C45.2836 22.8851 45.3882 22.9897 45.3882 23.1177C45.3882 23.2469 45.2836 23.3515 45.1556 23.3515H41.8881C41.1378 23.3515 40.5266 22.7403 40.5266 21.99V17.4356L36.6202 13.5314C36.3842 13.2954 36.2539 12.9804 36.2539 12.6464C36.2539 12.3102 36.3853 11.9951 36.6224 11.7569C36.8595 11.5209 37.1735 11.3906 37.5086 11.3906H37.5097C37.8448 11.3906 38.1598 11.522 38.3969 11.7591L41.3983 14.7594H45.9961C46.8221 14.7594 47.4934 15.4307 47.4934 16.2556V22.7192C47.4934 23.0231 47.3799 23.3293 47.175 23.5831C46.9635 23.8436 46.683 24.0117 46.3835 24.0573C46.3133 24.0685 46.2443 24.0729 46.1753 24.0729Z" fill="black"/>
</g>
<path d="M45.1562 23.1172C45.2097 23.2719 45.2987 23.41 45.4123 23.5224L45.1562 23.1172Z" fill="black"/>
<path d="M45.4115 23.7531C45.3525 23.7531 45.2923 23.7309 45.2478 23.6852C45.1086 23.5483 45.0007 23.378 44.935 23.1932C44.8927 23.0718 44.9561 22.9393 45.0775 22.8959C45.1988 22.8536 45.3313 22.9171 45.3747 23.0384C45.4159 23.1564 45.486 23.2666 45.5751 23.3546C45.6664 23.4448 45.6675 23.5928 45.5762 23.6841C45.5317 23.7297 45.4716 23.7531 45.4115 23.7531Z" fill="black"/>
<path d="M45.0938 18.5977V22.7512C45.0938 22.8782 45.116 22.9995 45.1561 23.1119L45.0938 18.5977Z" fill="black"/>
<path d="M45.1583 23.3518C45.0614 23.3518 44.9724 23.2917 44.9379 23.196C44.8889 23.0557 44.8633 22.9076 44.8633 22.7573V18.6038C44.8633 18.4757 44.9679 18.3711 45.096 18.3711C45.2251 18.3711 45.3286 18.4757 45.3286 18.6038V22.7573C45.3286 22.8553 45.3453 22.9499 45.3776 23.0412C45.4199 23.1626 45.3565 23.2951 45.2351 23.3385C45.2095 23.3474 45.1839 23.3518 45.1583 23.3518Z" fill="black"/>
<path d="M35.8336 19.4129C35.8336 19.5164 35.8236 19.6188 35.8035 19.7201C35.7835 19.8215 35.7534 19.9194 35.7133 20.0152C35.6744 20.1109 35.6254 20.2011 35.5686 20.2868C35.5107 20.3725 35.4462 20.4527 35.3727 20.525C35.2992 20.5985 35.2202 20.6642 35.1345 20.721C35.0487 20.7789 34.9574 20.8267 34.8628 20.8668C34.7671 20.9058 34.668 20.9358 34.5667 20.9559C34.4654 20.9759 34.3641 20.9859 34.2605 20.9859C34.157 20.9859 34.0546 20.9759 33.9533 20.9559C33.852 20.9358 33.754 20.9058 33.6583 20.8668C33.5625 20.8267 33.4724 20.7789 33.3866 20.721C33.2998 20.6642 33.2208 20.5985 33.1473 20.525C33.0749 20.4527 33.0092 20.3725 32.9525 20.2868C32.8946 20.2011 32.8467 20.1109 32.8066 20.0152C32.7677 19.9194 32.7376 19.8215 32.7176 19.7201C32.6975 19.6188 32.6875 19.5164 32.6875 19.4129C32.6875 19.3094 32.6975 19.2069 32.7176 19.1056C32.7376 19.0043 32.7677 18.9063 32.8066 18.8106C32.8467 18.716 32.8946 18.6247 32.9525 18.539C33.0092 18.4533 33.0749 18.3731 33.1473 18.3007C33.2208 18.2273 33.2998 18.1627 33.3866 18.1048C33.4724 18.0469 33.5625 17.999 33.6583 17.959C33.754 17.92 33.852 17.8899 33.9533 17.8699C34.0546 17.8499 34.157 17.8398 34.2605 17.8398C34.3641 17.8398 34.4654 17.8499 34.5667 17.8699C34.668 17.8899 34.7671 17.92 34.8628 17.959C34.9574 17.999 35.0487 18.0469 35.1345 18.1048C35.2202 18.1627 35.2992 18.2273 35.3727 18.3007C35.4462 18.3731 35.5107 18.4533 35.5686 18.539C35.6254 18.6247 35.6744 18.716 35.7133 18.8106C35.7534 18.9063 35.7835 19.0043 35.8035 19.1056C35.8236 19.2069 35.8336 19.3094 35.8336 19.4129Z" fill="#D9D9D9"/>
<path d="M34.26 21.2208C33.2636 21.2208 32.4531 20.4115 32.4531 19.4151C32.4531 18.4187 33.2636 17.6094 34.26 17.6094C35.2552 17.6094 36.0657 18.4187 36.0657 19.4151C36.0657 20.4115 35.2552 21.2208 34.26 21.2208ZM34.26 18.0747C33.5207 18.0747 32.9196 18.6759 32.9196 19.4151C32.9196 20.1543 33.5207 20.7555 34.26 20.7555C34.9992 20.7555 35.6003 20.1543 35.6003 19.4151C35.6003 18.6759 34.9992 18.0747 34.26 18.0747Z" fill="black"/>
</svg>
