<svg width="48" height="48" viewBox="0 0 48 48" fill="none" xmlns="http://www.w3.org/2000/svg">
<mask id="mask0_3476_27124" style="mask-type:luminance" maskUnits="userSpaceOnUse" x="4" y="0" width="37" height="11">
<path d="M4.49219 0.472656H40.6913V10.8095H4.49219V0.472656Z" fill="white"/>
</mask>
<g mask="url(#mask0_3476_27124)">
<path d="M4.93199 10.7116C4.883 10.7116 4.8329 10.696 4.78948 10.6648C4.67925 10.5869 4.65475 10.4332 4.73381 10.323C5.25822 9.59146 5.83163 8.88222 6.43732 8.21418C6.52862 8.11397 6.68338 8.10729 6.78359 8.19748C6.8838 8.28878 6.89159 8.44354 6.80029 8.54375C6.20685 9.19732 5.64569 9.89209 5.13129 10.6091C5.08342 10.6759 5.00882 10.7116 4.93199 10.7116ZM40.2604 7.643C40.1992 7.643 40.1368 7.61962 40.089 7.57286C39.4588 6.9538 38.7863 6.36592 38.0904 5.82369C37.9835 5.7413 37.9646 5.58654 38.0481 5.48076C38.1305 5.37388 38.2841 5.35495 38.391 5.43734C39.1025 5.9907 39.7883 6.59194 40.4319 7.22325C40.5288 7.31789 40.5299 7.47265 40.4352 7.56952C40.3874 7.61851 40.3239 7.643 40.2604 7.643ZM8.53275 6.74337C8.46484 6.74337 8.39692 6.71442 8.34904 6.65986C8.25997 6.55743 8.26999 6.40267 8.37131 6.31359C9.04938 5.72015 9.76975 5.15899 10.5102 4.64682C10.6215 4.56888 10.774 4.59672 10.8509 4.70806C10.9277 4.8194 10.8999 4.97194 10.7885 5.04876C10.0626 5.55091 9.3589 6.09982 8.6942 6.68213C8.64855 6.72333 8.59065 6.74337 8.53275 6.74337ZM36.0317 4.35066C35.9883 4.35066 35.9449 4.33952 35.9048 4.31503C35.1499 3.8563 34.3616 3.43655 33.561 3.06801C33.4375 3.01123 33.384 2.86537 33.4408 2.74289C33.4976 2.61931 33.6423 2.56586 33.7659 2.62265C34.5832 2.99898 35.3893 3.42764 36.1597 3.89638C36.2755 3.96764 36.3112 4.11795 36.241 4.23375C36.1954 4.30946 36.1141 4.35066 36.0317 4.35066ZM12.9407 3.69597C12.8528 3.69597 12.7682 3.64809 12.7247 3.5657C12.6602 3.44657 12.7058 3.29849 12.8249 3.23502C13.621 2.8097 14.4494 2.4278 15.2878 2.09823C15.4136 2.04924 15.555 2.11159 15.6051 2.23741C15.6541 2.36322 15.5929 2.50463 15.4659 2.55473C14.6454 2.8765 13.8348 3.25172 13.0554 3.66702C13.0187 3.68595 12.9797 3.69597 12.9407 3.69597ZM31.1639 2.11048C31.1394 2.11048 31.1138 2.10714 31.0882 2.09823C30.2498 1.82433 29.3858 1.5972 28.5207 1.42128C28.387 1.39456 28.3013 1.2654 28.3291 1.13291C28.3559 1.00041 28.485 0.914679 28.6175 0.941401C29.5016 1.12066 30.3834 1.35336 31.2407 1.63283C31.3687 1.67514 31.4389 1.8132 31.3966 1.94124C31.3632 2.04479 31.2674 2.11048 31.1639 2.11048ZM17.9266 1.73637C17.8186 1.73637 17.7195 1.664 17.6894 1.55378C17.6549 1.42351 17.7328 1.28878 17.8642 1.25427C18.7338 1.02491 19.6279 0.842308 20.5208 0.714266C20.6544 0.695338 20.7791 0.787751 20.7981 0.92136C20.817 1.05497 20.7246 1.17967 20.591 1.1986C19.7158 1.32441 18.8407 1.50256 17.9889 1.72858C17.9689 1.73415 17.9477 1.73637 17.9266 1.73637ZM25.9119 1.04606C25.9053 1.04606 25.8975 1.04606 25.8908 1.04606C25.2372 0.990391 24.5714 0.962556 23.9123 0.962556C23.6873 0.962556 23.4602 0.964783 23.2364 0.971463C23.1006 0.975917 22.9881 0.869029 22.9848 0.734307C22.9803 0.598471 23.0872 0.486017 23.2219 0.481564C23.4502 0.475997 23.6829 0.472656 23.9123 0.472656C24.5848 0.472656 25.265 0.500491 25.932 0.557275C26.0667 0.569523 26.1669 0.687544 26.1558 0.822266C26.1446 0.950308 26.0378 1.04606 25.9119 1.04606Z" fill="black"/>
</g>
<mask id="mask1_3476_27124" style="mask-type:luminance" maskUnits="userSpaceOnUse" x="0" y="26" width="26" height="22">
<path d="M0.5 26.7695H25.5829V47.6893H0.5V26.7695Z" fill="white"/>
</mask>
<g mask="url(#mask1_3476_27124)">
<path d="M23.908 47.6468C23.4181 47.6468 22.9237 47.6323 22.4383 47.6023C22.3025 47.5945 22.2 47.4776 22.2089 47.3429C22.2167 47.2081 22.3325 47.1057 22.4683 47.1135C22.9438 47.1424 23.4281 47.1569 23.908 47.1569C24.3122 47.1569 24.7208 47.1469 25.1238 47.1257C25.2586 47.1191 25.3732 47.2226 25.381 47.3584C25.3877 47.4932 25.2842 47.6078 25.1483 47.6156C24.7386 47.6368 24.3199 47.6468 23.908 47.6468ZM19.7895 47.285C19.775 47.285 19.7605 47.2838 19.7461 47.2816C18.8587 47.1235 17.9713 46.912 17.1084 46.6525C16.9792 46.6136 16.9058 46.4777 16.9447 46.3475C16.9837 46.2183 17.1207 46.1448 17.2498 46.1838C18.0938 46.4377 18.9633 46.6447 19.8318 46.7995C19.9654 46.8229 20.0534 46.9498 20.03 47.0834C20.0088 47.2015 19.9053 47.285 19.7895 47.285ZM14.6578 45.7429C14.6244 45.7429 14.5921 45.7362 14.5598 45.7228C13.7337 45.3654 12.9187 44.9557 12.137 44.5048C12.0201 44.438 11.9789 44.2877 12.0469 44.1708C12.1148 44.0538 12.264 44.0138 12.382 44.0806C13.1469 44.5226 13.9452 44.9234 14.7547 45.273C14.8783 45.3265 14.9361 45.4712 14.8827 45.5948C14.8426 45.6872 14.7524 45.7429 14.6578 45.7429ZM10.0149 43.0651C9.96478 43.0651 9.91356 43.0496 9.86903 43.0173C9.14643 42.4806 8.44498 41.8961 7.78807 41.2803C7.68898 41.1879 7.68341 41.0332 7.77582 40.9341C7.86823 40.835 8.02411 40.8305 8.12209 40.9229C8.76675 41.5264 9.45261 42.0987 10.1607 42.6242C10.2699 42.7044 10.2921 42.858 10.212 42.966C10.1641 43.0317 10.0906 43.0651 10.0149 43.0651ZM6.1046 39.4043C6.03557 39.4043 5.96653 39.3742 5.91754 39.3174C5.33412 38.6304 4.78521 37.9023 4.28417 37.1541C4.20958 37.0416 4.23964 36.8891 4.35209 36.8145C4.46455 36.7388 4.61597 36.7688 4.69168 36.8813C5.18158 37.615 5.71936 38.3276 6.29054 39.0001C6.37849 39.1036 6.36625 39.2584 6.2627 39.3452C6.21705 39.3842 6.16027 39.4043 6.1046 39.4043ZM3.12734 34.9517C3.03939 34.9517 2.95365 34.9028 2.91023 34.8181C2.49827 34.0165 2.12862 33.1825 1.81241 32.3386C1.76453 32.2116 1.82911 32.0714 1.95604 32.0235C2.08297 31.9756 2.22326 32.0402 2.27113 32.1671C2.58066 32.9921 2.94252 33.8094 3.34557 34.5943C3.40681 34.7146 3.36005 34.8627 3.2398 34.9239C3.20417 34.9428 3.1652 34.9517 3.12734 34.9517ZM1.2468 29.9358C1.13657 29.9358 1.03636 29.8612 1.00964 29.7488C0.792528 28.8759 0.624403 27.9796 0.509723 27.0844C0.493021 26.9497 0.587661 26.8272 0.722383 26.8105C0.855992 26.7938 0.978467 26.8884 0.996282 27.0221C1.10874 27.8983 1.27241 28.7768 1.48507 29.6319C1.51736 29.7621 1.43719 29.8958 1.30581 29.928C1.28577 29.9325 1.26573 29.9358 1.2468 29.9358Z" fill="black"/>
</g>
<mask id="mask2_3476_27124" style="mask-type:luminance" maskUnits="userSpaceOnUse" x="44" y="21" width="4" height="15">
<path d="M44.3945 21.3555H47.4998V35.037H44.3945V21.3555Z" fill="white"/>
</mask>
<g mask="url(#mask2_3476_27124)">
<path d="M44.7214 34.8954C44.6836 34.8954 44.6457 34.8865 44.6101 34.8687C44.4899 34.8064 44.442 34.6594 44.5032 34.5391C44.9052 33.752 45.2637 32.9336 45.571 32.1075C45.6177 31.9805 45.7591 31.916 45.8861 31.9627C46.013 32.0106 46.0776 32.1509 46.0297 32.2778C45.7168 33.1218 45.3494 33.9579 44.9397 34.7607C44.8962 34.8464 44.8105 34.8954 44.7214 34.8954ZM46.5886 29.8717C46.5697 29.8717 46.5497 29.8695 46.5296 29.8651C46.3982 29.8328 46.3181 29.7003 46.3504 29.5689C46.5597 28.7127 46.7222 27.8342 46.8313 26.9568C46.8481 26.8232 46.9705 26.7275 47.1052 26.7442C47.2389 26.7609 47.3346 26.8834 47.3179 27.0181C47.2055 27.9133 47.0407 28.8107 46.8258 29.6847C46.7991 29.7971 46.6989 29.8717 46.5886 29.8717ZM47.2544 24.5541C47.2544 24.5541 47.2533 24.5541 47.2522 24.5541C47.1175 24.553 47.0084 24.4416 47.0095 24.3069C47.0106 24.2245 47.0117 24.1421 47.0117 24.0609C47.0117 23.257 46.9694 22.4475 46.887 21.6526C46.8737 21.5178 46.9716 21.3976 47.1052 21.3842C47.24 21.3698 47.3602 21.4677 47.3747 21.6025C47.4582 22.413 47.5016 23.2403 47.5016 24.0597C47.5016 24.1444 47.5005 24.2279 47.4994 24.3114C47.4983 24.4461 47.3892 24.5541 47.2544 24.5541Z" fill="black"/>
</g>
<path d="M41.0502 24.0578C41.0502 24.62 41.0224 25.1801 40.9678 25.7379C40.9122 26.2968 40.8298 26.8513 40.7207 27.4024C40.6116 27.9525 40.4746 28.4969 40.3121 29.0336C40.1495 29.5714 39.9602 30.0991 39.7453 30.618C39.5304 31.1357 39.2911 31.6434 39.0261 32.1378C38.7611 32.6332 38.4738 33.1142 38.1609 33.5807C37.8492 34.0473 37.5152 34.4982 37.16 34.9324C36.8037 35.3655 36.4274 35.7808 36.0299 36.1783C35.6324 36.5747 35.2171 36.9521 34.784 37.3073C34.3498 37.6636 33.8988 37.9976 33.4323 38.3094C32.9658 38.6211 32.4848 38.9095 31.9893 39.1745C31.495 39.4395 30.9884 39.6789 30.4695 39.8938C29.9507 40.1087 29.4229 40.2979 28.8852 40.4605C28.3485 40.623 27.804 40.76 27.254 40.8691C26.7029 40.9782 26.1484 41.0606 25.5906 41.1163C25.0316 41.1708 24.4716 41.1987 23.9104 41.1987C23.3482 41.1987 22.7881 41.1708 22.2303 41.1163C21.6714 41.0606 21.1169 40.9782 20.5658 40.8691C20.0157 40.76 19.4713 40.623 18.9346 40.4605C18.3968 40.2979 17.8691 40.1087 17.3502 39.8938C16.8325 39.6789 16.3248 39.4395 15.8304 39.1745C15.335 38.9095 14.854 38.6211 14.3875 38.3094C13.9209 37.9976 13.47 37.6636 13.0369 37.3073C12.6027 36.9521 12.1874 36.5747 11.7899 36.1783C11.3935 35.7808 11.0172 35.3655 10.6609 34.9324C10.3046 34.4982 9.97058 34.0473 9.65882 33.5807C9.34707 33.1142 9.0587 32.6332 8.79371 32.1378C8.52872 31.6434 8.28933 31.1357 8.07445 30.618C7.85956 30.0991 7.67139 29.5714 7.50772 29.0336C7.34516 28.4969 7.20821 27.9525 7.0991 27.4024C6.98999 26.8513 6.90759 26.2968 6.85192 25.7379C6.79737 25.1801 6.76953 24.62 6.76953 24.0578C6.76953 23.4966 6.79737 22.9366 6.85192 22.3787C6.90759 21.8198 6.98999 21.2653 7.0991 20.7142C7.20821 20.1642 7.34516 19.6197 7.50772 19.0831C7.67139 18.5453 7.85956 18.0175 8.07445 17.4987C8.28933 16.9809 8.52872 16.4732 8.79371 15.9789C9.0587 15.4834 9.34707 15.0024 9.65882 14.5359C9.97058 14.0694 10.3046 13.6185 10.6609 13.1842C11.0172 12.7511 11.3935 12.3358 11.7899 11.9383C12.1874 11.542 12.6027 11.1645 13.0369 10.8093C13.47 10.453 13.9209 10.119 14.3875 9.80726C14.854 9.49551 15.335 9.20713 15.8304 8.94214C16.3248 8.67715 16.8325 8.43777 17.3502 8.22288C17.8691 8.00799 18.3968 7.81872 18.9346 7.65616C19.4713 7.4936 20.0157 7.35665 20.5658 7.24754C21.1169 7.13842 21.6714 7.05603 22.2303 7.00036C22.7881 6.9458 23.3482 6.91797 23.9104 6.91797C24.4716 6.91797 25.0316 6.9458 25.5906 7.00036C26.1484 7.05603 26.7029 7.13842 27.254 7.24754C27.804 7.35665 28.3485 7.4936 28.8852 7.65616C29.4229 7.81872 29.9507 8.00799 30.4695 8.22288C30.9884 8.43777 31.495 8.67715 31.9893 8.94214C32.4848 9.20713 32.9658 9.49551 33.4323 9.80726C33.8988 10.119 34.3498 10.453 34.784 10.8093C35.2171 11.1645 35.6324 11.542 36.0299 11.9383C36.4274 12.3358 36.8037 12.7511 37.16 13.1842C37.5152 13.6185 37.8492 14.0694 38.1609 14.5359C38.4738 15.0024 38.7611 15.4834 39.0261 15.9789C39.2911 16.4732 39.5304 16.9809 39.7453 17.4987C39.9602 18.0175 40.1495 18.5453 40.3121 19.0831C40.4746 19.6197 40.6116 20.1642 40.7207 20.7142C40.8298 21.2653 40.9122 21.8198 40.9678 22.3787C41.0224 22.9366 41.0502 23.4966 41.0502 24.0578Z" fill="black"/>
<path d="M33.8709 24.0706L34.4688 25.1028C34.9632 25.9579 36.0576 26.2507 36.9139 25.7552C37.769 25.2609 38.0618 24.1664 37.5663 23.3102L36.9795 22.2959L31.6241 13.0368L30.1254 10.4459L28.9085 8.34041C30.1043 7.23591 30.4238 5.41438 29.5743 3.94579C28.7348 2.49391 27.0268 1.86149 25.4858 2.31799L27.1237 5.1505L26.0615 6.99319L23.9349 6.99541L22.297 4.16291C21.1324 5.27075 20.8296 7.06667 21.6691 8.51856C22.5186 9.98714 24.2555 10.6184 25.8098 10.1319L26.7139 11.6962L33.8709 24.0706Z" fill="#D9D9D9"/>
<path d="M36.0207 26.2421C35.317 26.2421 34.6322 25.878 34.2559 25.2267L33.6591 24.1946C33.5912 24.0765 33.6313 23.9274 33.7482 23.8594C33.8651 23.7915 34.0154 23.8316 34.0833 23.9485L34.6801 24.9806C35.1065 25.7188 36.0529 25.9716 36.79 25.5451C37.5282 25.1187 37.781 24.1712 37.3545 23.4341L28.6955 8.46435C28.6388 8.36525 28.6577 8.23944 28.7412 8.1615C29.888 7.10376 30.143 5.4214 29.3625 4.07084C28.6466 2.83273 27.2403 2.207 25.8608 2.47867L27.3361 5.02948C27.3795 5.1052 27.3795 5.19872 27.3361 5.27443L26.2739 7.11712C26.2305 7.19284 26.1492 7.2396 26.0623 7.2396L23.9346 7.24183C23.8478 7.24183 23.7665 7.19506 23.7231 7.11935L22.2478 4.56853C21.3237 5.6285 21.1656 7.16055 21.8804 8.39754C22.662 9.74811 24.2475 10.366 25.7361 9.89953C25.8463 9.86501 25.9644 9.91178 26.0211 10.0109L26.9263 11.5741C26.9943 11.6921 26.9542 11.8413 26.8362 11.9092C26.7192 11.9771 26.5701 11.9371 26.5021 11.8202L25.6927 10.4206C24.9345 10.6155 24.1239 10.5698 23.3879 10.2892C22.5774 9.9797 21.8915 9.39516 21.4573 8.64249C21.0208 7.88872 20.8594 7.03585 20.9885 6.17629C21.1155 5.34347 21.5196 4.56519 22.1276 3.98622C22.1821 3.93501 22.2567 3.91051 22.3313 3.92164C22.4059 3.93278 22.4705 3.9762 22.5083 4.04189L24.076 6.75193L25.9198 6.7497L26.8406 5.15196L25.2729 2.44193C25.2362 2.37735 25.2306 2.2983 25.2585 2.22926C25.2863 2.15912 25.3442 2.10568 25.4154 2.08452C26.2204 1.84625 27.0967 1.88411 27.8816 2.1903C28.6911 2.50539 29.3502 3.071 29.7867 3.82478C30.2209 4.57744 30.3857 5.4626 30.2499 6.31992C30.1263 7.0982 29.7611 7.82302 29.2155 8.38418L37.7787 23.1892C38.3399 24.1601 38.007 25.4071 37.0361 25.9693C36.7154 26.1542 36.3658 26.2421 36.0207 26.2421Z" fill="black"/>
<path d="M46.4304 17.8879L42.9532 19.1026C42.4077 19.3008 41.8042 19.018 41.606 18.4724L39.161 11.7196C38.9628 11.1729 39.2456 10.5706 39.7911 10.3724L42.1683 9.51172L46.4304 17.8879Z" fill="#ED1C24"/>
<path d="M42.5942 19.4138C42.406 19.4138 42.2201 19.3726 42.0453 19.2913C41.7313 19.1444 41.493 18.8838 41.3761 18.5576L38.9299 11.8059C38.8119 11.4797 38.8275 11.1278 38.9745 10.8139C39.1215 10.501 39.382 10.2627 39.7071 10.1447L42.0842 9.28403C42.2112 9.23838 42.3514 9.30407 42.3982 9.431C42.4439 9.55793 42.3782 9.69822 42.2512 9.74498L39.8741 10.6056C39.6715 10.6791 39.51 10.8272 39.4176 11.0221C39.3263 11.2169 39.3174 11.4363 39.3898 11.6389L41.8359 18.3917C41.9094 18.5943 42.0575 18.7558 42.2524 18.8471C42.4472 18.9384 42.6665 18.9484 42.8692 18.8749C42.8703 18.8749 42.8714 18.8749 42.8725 18.8738L46.3497 17.6591C46.4766 17.6146 46.6169 17.6814 46.6614 17.8094C46.706 17.9374 46.6381 18.0766 46.5111 18.1212L43.0351 19.3359C42.8914 19.3882 42.7423 19.4138 42.5942 19.4138Z" fill="black"/>
<path d="M31.3259 19.1316L27.056 20.6971C26.3155 20.9676 25.4961 20.5879 25.2244 19.8475C24.9527 19.1071 25.3335 18.2865 26.0739 18.016L30.3439 16.4505C31.0843 16.18 31.9037 16.5596 32.1754 17.3001C32.4471 18.0405 32.0663 18.861 31.3259 19.1316Z" fill="#D9D9D9"/>
<path d="M26.569 21.0279C25.8865 21.0279 25.244 20.607 24.9969 19.9301C24.6795 19.0649 25.1249 18.1018 25.9911 17.7845L30.2611 16.2202C30.6808 16.0665 31.1351 16.0855 31.5404 16.2725C31.9456 16.4607 32.2541 16.7958 32.4077 17.2145C32.725 18.0807 32.2786 19.0438 31.4123 19.3611L27.1424 20.9254C26.9531 20.9945 26.7594 21.0279 26.569 21.0279ZM30.8378 16.6065C30.6997 16.6065 30.5628 16.631 30.4303 16.68L26.1604 18.2444C25.548 18.4693 25.2318 19.1496 25.4567 19.7619C25.6805 20.3743 26.3619 20.6905 26.9743 20.4656L31.2442 18.9013C31.8566 18.6764 32.1717 17.9961 31.9479 17.3837C31.8388 17.0864 31.6205 16.8504 31.3344 16.7179C31.1763 16.6444 31.007 16.6065 30.8378 16.6065Z" fill="black"/>
<path d="M29.8344 16.6399L25.5644 18.2042C24.824 18.4759 24.0034 18.0951 23.7318 17.3547C23.4612 16.6143 23.8409 15.7948 24.5813 15.5231L28.8512 13.9588C29.5916 13.6871 30.4122 14.0679 30.6828 14.8083C30.9544 15.5487 30.5748 16.3682 29.8344 16.6399Z" fill="#D9D9D9"/>
<path d="M25.0712 18.5399C24.8307 18.5399 24.5925 18.4876 24.3687 18.384C23.9634 18.1959 23.655 17.8618 23.5013 17.4421C23.3477 17.0223 23.3666 16.5681 23.5548 16.1628C23.7418 15.7575 24.077 15.4502 24.4967 15.2966L28.7666 13.7311C29.6318 13.4138 30.5949 13.8603 30.9122 14.7265C31.2295 15.5927 30.783 16.5547 29.9168 16.872L25.6469 18.4375C25.4598 18.5054 25.265 18.5399 25.0712 18.5399ZM29.34 14.1186C29.2053 14.1186 29.0684 14.142 28.9348 14.1909L24.6648 15.7564C24.3687 15.8644 24.1315 16.0826 23.999 16.3688C23.8654 16.656 23.8521 16.9767 23.9612 17.274C24.0703 17.5701 24.2874 17.8062 24.5747 17.9398C24.8608 18.0723 25.1826 18.0856 25.4787 17.9776L29.7487 16.4122C30.361 16.1884 30.6761 15.507 30.4523 14.8946C30.2764 14.417 29.8233 14.1186 29.34 14.1186Z" fill="black"/>
<path d="M32.9823 21.5652L28.9584 23.0405C28.218 23.311 27.3974 22.9314 27.1269 22.1909C26.8552 21.4505 27.2349 20.6299 27.9753 20.3594L31.9992 18.8841C32.7396 18.6136 33.5602 18.9932 33.8318 19.7336C34.1024 20.4741 33.7227 21.2946 32.9823 21.5652Z" fill="#D9D9D9"/>
<path d="M28.4673 23.3713C27.7848 23.3713 27.1435 22.9504 26.8952 22.2735C26.5778 21.4083 27.0243 20.4452 27.8906 20.1279L31.9144 18.6538C32.3342 18.5001 32.7884 18.5191 33.1937 18.7061C33.599 18.8943 33.9063 19.2294 34.0599 19.648C34.3773 20.5143 33.9308 21.4774 33.0657 21.7947L29.0407 23.2689C28.8514 23.3379 28.6577 23.3713 28.4673 23.3713ZM32.49 19.0401C32.3531 19.0401 32.215 19.0646 32.0825 19.1136L28.0587 20.5878C27.4463 20.8127 27.1312 21.493 27.355 22.1053C27.5309 22.5841 27.9841 22.8814 28.4673 22.8814C28.602 22.8814 28.739 22.858 28.8726 22.809L32.8964 21.3349C33.1937 21.2257 33.4298 21.0086 33.5623 20.7214C33.6959 20.4352 33.7092 20.1135 33.6001 19.8173C33.491 19.52 33.2739 19.284 32.9877 19.1504C32.8285 19.078 32.6604 19.0401 32.49 19.0401Z" fill="black"/>
<path d="M35.9891 16.4686C34.3546 16.1368 32.9005 15.1347 32.0176 13.6583L31.6413 13.0304L28.86 13.9523L26.1889 14.9321C25.4485 15.2026 24.6279 14.823 24.3574 14.0825C24.0857 13.3421 24.4654 12.5215 25.2058 12.251L31.6791 9.87832C32.9729 9.40512 34.4047 9.4864 35.6362 10.1066C36.5681 10.5753 37.3241 11.3246 37.8084 12.2432L39.1679 11.7455L41.5651 18.3591L39.8805 18.976C39.8159 19.2176 39.7357 19.457 39.6344 19.6886C39.1189 20.871 38.1658 21.8051 36.9801 22.2984L32.2358 13.9957L35.9891 16.4686Z" fill="#D9D9D9"/>
<path d="M36.9795 22.5443C36.8949 22.5443 36.8125 22.4987 36.7669 22.4207L32.0315 14.1336C31.9525 14.0201 31.8779 13.9043 31.8066 13.7851L31.5316 13.3253L28.9407 14.1849L26.2719 15.1624C26.0837 15.2315 25.8889 15.2649 25.6985 15.2649C25.0159 15.2649 24.3746 14.844 24.1263 14.167C23.9727 13.7484 23.9916 13.2941 24.1798 12.8888C24.3679 12.4836 24.702 12.1752 25.1217 12.0215L31.594 9.64995C32.9456 9.15448 34.4588 9.24133 35.7459 9.88822C36.6588 10.3481 37.4071 11.0551 37.9203 11.9425L39.0827 11.5171C39.144 11.4937 39.2108 11.4971 39.2698 11.5249C39.3288 11.5516 39.3745 11.6018 39.3967 11.663L41.795 18.2766C41.8406 18.4036 41.7761 18.5427 41.6491 18.5895L40.0826 19.164C40.018 19.3867 39.9445 19.5916 39.8588 19.7875C39.3154 21.0312 38.3267 22.0032 37.0742 22.5254C37.043 22.5376 37.0118 22.5443 36.9795 22.5443ZM33.4199 15.5755L37.0831 21.9854C38.1252 21.4966 38.9469 20.6526 39.4101 19.5916C39.5014 19.3822 39.5771 19.1607 39.6439 18.9135C39.6639 18.8367 39.7207 18.7743 39.7953 18.7476L41.2517 18.2132L39.0204 12.0616L37.8925 12.4747C37.7767 12.517 37.6487 12.4669 37.5919 12.3589C37.1254 11.4737 36.4106 10.7711 35.5254 10.3258C34.3597 9.73902 32.9879 9.66108 31.7632 10.1098L25.2898 12.4813C24.9937 12.5905 24.7565 12.8076 24.624 13.0948C24.4915 13.381 24.4782 13.7028 24.5862 13.9989C24.8111 14.6113 25.4914 14.9275 26.1037 14.7026L28.7748 13.7239C28.777 13.7228 28.7804 13.7217 28.7826 13.7217L31.5639 12.7987C31.673 12.7619 31.7921 12.8065 31.8512 12.9056L32.2275 13.5335C32.2898 13.6393 32.3566 13.7428 32.4268 13.843C32.4335 13.8519 32.4401 13.862 32.4457 13.872C33.2908 15.0823 34.5801 15.9329 36.0376 16.2291C36.1701 16.2558 36.2558 16.3849 36.2291 16.5186C36.2024 16.6511 36.0721 16.7357 35.9396 16.709C35.0177 16.5219 34.1581 16.13 33.4199 15.5755Z" fill="black"/>
<path d="M34.3072 23.9158L30.7855 25.2063C30.0941 25.4601 29.3281 25.105 29.0742 24.4124C28.8203 23.721 29.1755 22.9539 29.8681 22.7L33.3887 21.4096C34.0812 21.1568 34.8472 21.512 35.1011 22.2034C35.3549 22.896 34.9998 23.662 34.3072 23.9158Z" fill="#D9D9D9"/>
<path d="M30.3278 25.5313C29.6831 25.5313 29.0774 25.1349 28.8425 24.4958C28.543 23.6775 28.965 22.7689 29.7822 22.4694L33.3039 21.179C33.6992 21.0342 34.1289 21.0521 34.5108 21.2291C34.8939 21.4061 35.1845 21.7223 35.3303 22.1187C35.6298 22.9359 35.2078 23.8456 34.3906 24.1451L30.8689 25.4355C30.6907 25.5001 30.507 25.5313 30.3278 25.5313ZM33.8473 21.572C33.7214 21.572 33.5945 21.5943 33.472 21.6388L29.9503 22.9293C29.3869 23.1364 29.0963 23.7632 29.3023 24.3266C29.5094 24.8911 30.1363 25.1817 30.7008 24.9757L34.2225 23.6853C34.7859 23.4782 35.0765 22.8513 34.8705 22.2868C34.7703 22.014 34.5699 21.7958 34.3049 21.6733C34.159 21.6054 34.0042 21.572 33.8473 21.572Z" fill="black"/>
<path d="M39.9714 29.6758H41.0124C41.5547 29.6758 41.9944 30.1145 41.9944 30.6578V44.8003C41.9944 45.3437 41.5547 45.7834 41.0124 45.7834H24.7945C24.2523 45.7834 23.8125 45.3437 23.8125 44.8003V43.9864L39.9714 29.6758Z" fill="#D9D9D9"/>
<path d="M41.0074 46.0273H24.7895C24.1125 46.0273 23.5625 45.4772 23.5625 44.7992V43.9853C23.5625 43.8505 23.6727 43.7403 23.8074 43.7403C23.9433 43.7403 24.0524 43.8505 24.0524 43.9853V44.7992C24.0524 45.2067 24.3831 45.5374 24.7895 45.5374H41.0074C41.4138 45.5374 41.7456 45.2067 41.7456 44.7992V30.6567C41.7456 30.2503 41.4138 29.9196 41.0074 29.9196H39.9663C39.8316 29.9196 39.7214 29.8105 39.7214 29.6746C39.7214 29.5399 39.8316 29.4297 39.9663 29.4297H41.0074C41.6843 29.4297 42.2343 29.9797 42.2343 30.6567V44.7992C42.2343 45.4772 41.6843 46.0273 41.0074 46.0273Z" fill="black"/>
<path d="M41.9907 33.0055H39.9676C39.8329 33.0055 39.7227 32.8964 39.7227 32.7606C39.7227 32.6259 39.8329 32.5156 39.9676 32.5156H41.9907C42.1265 32.5156 42.2356 32.6259 42.2356 32.7606C42.2356 32.8964 42.1265 33.0055 41.9907 33.0055Z" fill="black"/>
<path d="M39.0341 43.9827H22.7193C22.2038 43.9827 21.7852 43.5651 21.7852 43.0496V28.808C21.7852 28.2925 22.2038 27.875 22.7193 27.875H39.0341C39.5496 27.875 39.9671 28.2925 39.9671 28.808V43.0496C39.9671 43.5651 39.5496 43.9827 39.0341 43.9827Z" fill="#D9D9D9"/>
<path d="M39.0368 44.2304H22.7221C22.0718 44.2304 21.543 43.7015 21.543 43.0513V28.8108C21.543 28.1617 22.0718 27.6328 22.7221 27.6328H39.0368C39.6859 27.6328 40.2148 28.1617 40.2148 28.8108V43.0513C40.2148 43.7015 39.6859 44.2304 39.0368 44.2304ZM22.7221 28.1227C22.3424 28.1227 22.0329 28.4311 22.0329 28.8108V43.0524C22.0329 43.4321 22.3424 43.7405 22.7221 43.7405H39.0368C39.4165 43.7405 39.7249 43.4321 39.7249 43.0524V28.8108C39.7249 28.4311 39.4165 28.1227 39.0368 28.1227H22.7221Z" fill="black"/>
<path d="M37.7739 29.4416C37.7739 29.5207 37.7583 29.5975 37.7283 29.6699C37.6982 29.7434 37.6548 29.808 37.5991 29.8636C37.5423 29.9204 37.4778 29.9638 37.4043 29.9939C37.3319 30.024 37.2551 30.0395 37.176 30.0395C37.097 30.0395 37.0201 30.024 36.9478 29.9939C36.8743 29.9638 36.8097 29.9204 36.7529 29.8636C36.6973 29.808 36.6538 29.7434 36.6238 29.6699C36.5937 29.5975 36.5781 29.5207 36.5781 29.4416C36.5781 29.3626 36.5937 29.2858 36.6238 29.2123C36.6538 29.1399 36.6973 29.0753 36.7529 29.0186C36.8097 28.9629 36.8743 28.9195 36.9478 28.8894C37.0201 28.8593 37.097 28.8438 37.176 28.8438C37.2551 28.8438 37.3319 28.8593 37.4043 28.8894C37.4778 28.9195 37.5423 28.9629 37.5991 29.0186C37.6548 29.0753 37.6982 29.1399 37.7283 29.2123C37.7583 29.2858 37.7739 29.3626 37.7739 29.4416Z" fill="#D9D9D9"/>
<path d="M37.1749 30.2873C36.7106 30.2873 36.332 29.9087 36.332 29.4444C36.332 28.9801 36.7106 28.6016 37.1749 28.6016C37.6392 28.6016 38.0177 28.9801 38.0177 29.4444C38.0177 29.9087 37.6392 30.2873 37.1749 30.2873ZM37.1749 29.0915C36.98 29.0915 36.8219 29.2496 36.8219 29.4444C36.8219 29.6393 36.98 29.7974 37.1749 29.7974C37.3697 29.7974 37.5278 29.6393 37.5278 29.4444C37.5278 29.2496 37.3697 29.0915 37.1749 29.0915Z" fill="black"/>
<path d="M35.6841 29.4416C35.6841 29.5207 35.6685 29.5975 35.6384 29.6699C35.6084 29.7434 35.5649 29.808 35.5093 29.8636C35.4525 29.9204 35.3879 29.9638 35.3144 29.9939C35.2421 30.024 35.1652 30.0395 35.0862 30.0395C35.0071 30.0395 34.9303 30.024 34.8579 29.9939C34.7844 29.9638 34.7199 29.9204 34.6631 29.8636C34.6074 29.808 34.564 29.7434 34.5339 29.6699C34.5039 29.5975 34.4883 29.5207 34.4883 29.4416C34.4883 29.3626 34.5039 29.2858 34.5339 29.2123C34.564 29.1399 34.6074 29.0753 34.6631 29.0186C34.7199 28.9629 34.7844 28.9195 34.8579 28.8894C34.9303 28.8593 35.0071 28.8438 35.0862 28.8438C35.1652 28.8438 35.2421 28.8593 35.3144 28.8894C35.3879 28.9195 35.4525 28.9629 35.5093 29.0186C35.5649 29.0753 35.6084 29.1399 35.6384 29.2123C35.6685 29.2858 35.6841 29.3626 35.6841 29.4416Z" fill="#D9D9D9"/>
<path d="M35.0889 30.2873C34.6247 30.2873 34.2461 29.9087 34.2461 29.4444C34.2461 28.9801 34.6247 28.6016 35.0889 28.6016C35.5532 28.6016 35.9318 28.9801 35.9318 29.4444C35.9318 29.9087 35.5532 30.2873 35.0889 30.2873ZM35.0889 29.0915C34.8941 29.0915 34.736 29.2496 34.736 29.4444C34.736 29.6393 34.8941 29.7974 35.0889 29.7974C35.2838 29.7974 35.4419 29.6393 35.4419 29.4444C35.4419 29.2496 35.2838 29.0915 35.0889 29.0915Z" fill="black"/>
<path d="M39.9699 31.2086H21.7879C21.6532 31.2086 21.543 31.0984 21.543 30.9637C21.543 30.8279 21.6532 30.7188 21.7879 30.7188H39.9699C40.1057 30.7188 40.2148 30.8279 40.2148 30.9637C40.2148 31.0984 40.1057 31.2086 39.9699 31.2086Z" fill="black"/>
<path d="M30.0102 36.4004C30.3943 36.4004 30.6838 36.0464 30.6058 35.6701C30.2685 34.0367 28.8222 32.8086 27.0886 32.8086C25.355 32.8086 23.9087 34.0367 23.5713 35.6701C23.4934 36.0464 23.7829 36.4004 24.167 36.4004H30.0102Z" fill="#D9D9D9"/>
<path d="M30.0131 36.6443H24.1699C23.9127 36.6443 23.6711 36.5296 23.5085 36.3292C23.346 36.1299 23.2825 35.8704 23.3337 35.6188C23.5097 34.767 23.9784 33.9921 24.6531 33.4365C25.3379 32.8731 26.203 32.5625 27.0915 32.5625C27.98 32.5625 28.8451 32.8731 29.5299 33.4365C30.2046 33.9921 30.6733 34.767 30.8492 35.6188C30.9005 35.8704 30.837 36.1299 30.6744 36.3292C30.5119 36.5296 30.2703 36.6443 30.0131 36.6443ZM27.0915 33.0524C25.5116 33.0524 24.1332 34.1736 23.8136 35.7179C23.7913 35.8248 23.8192 35.935 23.8882 36.0196C23.9572 36.1054 24.0608 36.1544 24.1699 36.1544H30.0131C30.1222 36.1544 30.2257 36.1054 30.2948 36.0196C30.3638 35.935 30.3916 35.8248 30.3694 35.7179C30.0498 34.1736 28.6714 33.0524 27.0915 33.0524Z" fill="black"/>
<path d="M26.1847 36.2135C26.1491 36.2135 26.1135 36.2057 26.0801 36.189L24.7607 35.5644C24.6382 35.5065 24.587 35.3606 24.6449 35.2382C24.7028 35.1157 24.8486 35.0634 24.9711 35.1212L26.2894 35.747C26.4119 35.8049 26.4642 35.9507 26.4063 36.0732C26.364 36.1612 26.276 36.2135 26.1847 36.2135Z" fill="black"/>
<path d="M26.1172 36.328C26.1172 35.7891 26.5548 35.3516 27.0936 35.3516C27.6325 35.3516 28.0701 35.7891 28.0701 36.328H26.1172Z" fill="#D9D9D9"/>
<path d="M28.0651 36.5718H26.1121C25.9763 36.5718 25.8672 36.4627 25.8672 36.3269C25.8672 35.6544 26.415 35.1055 27.0886 35.1055C27.7622 35.1055 28.31 35.6544 28.31 36.3269C28.31 36.4627 28.2009 36.5718 28.0651 36.5718ZM26.3994 36.083H27.7778C27.6776 35.7991 27.4059 35.5954 27.0886 35.5954C26.7713 35.5954 26.4996 35.7991 26.3994 36.083Z" fill="black"/>
<path d="M24.0662 41.584C23.6821 41.584 23.3926 41.2311 23.4694 40.8536C23.8068 39.2203 25.2542 37.9922 26.9878 37.9922C28.7214 37.9922 30.1677 39.2203 30.5051 40.8536C30.583 41.2311 30.2935 41.584 29.9083 41.584H24.0662Z" fill="#ED1C24"/>
<path d="M29.9071 41.8278H24.065C23.8078 41.8278 23.5662 41.7132 23.4026 41.5128C23.24 41.3135 23.1765 41.0551 23.2289 40.8035C23.4048 39.9518 23.8735 39.1768 24.5483 38.6201C25.2319 38.0567 26.0981 37.7461 26.9866 37.7461C27.874 37.7461 28.7402 38.0567 29.4239 38.6201C30.0997 39.1768 30.5673 39.9518 30.7433 40.8035C30.7956 41.0551 30.7321 41.3135 30.5696 41.5128C30.407 41.7132 30.1654 41.8278 29.9071 41.8278ZM26.9866 38.236C25.4056 38.236 24.0272 39.3572 23.7088 40.9026C23.6865 41.0095 23.7132 41.1186 23.7822 41.2032C23.8524 41.289 23.9548 41.3379 24.065 41.3379H29.9071C30.0173 41.3379 30.1209 41.289 30.1899 41.2032C30.2589 41.1186 30.2857 41.0095 30.2645 40.9026C29.9449 39.3572 28.5665 38.236 26.9866 38.236Z" fill="black"/>
<path d="M27.8936 41.396C27.8012 41.396 27.7132 41.3437 27.6721 41.2557C27.6142 41.1332 27.6665 40.9874 27.7878 40.9295L29.1072 40.3049C29.2297 40.247 29.3756 40.2993 29.4335 40.4207C29.4914 40.5431 29.439 40.689 29.3166 40.7469L27.9983 41.3726C27.9638 41.3882 27.9281 41.396 27.8936 41.396Z" fill="black"/>
<path d="M27.9607 41.5116C27.9607 40.9716 27.5232 40.5352 26.9843 40.5352C26.4443 40.5352 26.0078 40.9727 26.0078 41.5116H27.9607Z" fill="#D9D9D9"/>
<path d="M27.9635 41.7554H26.0106C25.8747 41.7554 25.7656 41.6452 25.7656 41.5105C25.7656 40.8369 26.3134 40.2891 26.987 40.2891C27.6606 40.2891 28.2084 40.8369 28.2084 41.5105C28.2084 41.6452 28.0982 41.7554 27.9635 41.7554ZM26.2967 41.2655H27.6762C27.5749 40.9816 27.3044 40.779 26.987 40.779C26.6686 40.779 26.398 40.9816 26.2967 41.2655Z" fill="black"/>
<path d="M32.1953 34.8086H33.6071V36.3251H32.1953V34.8086Z" fill="#D9D9D9"/>
<path d="M33.6099 36.5728C33.4752 36.5728 33.3649 36.4625 33.3649 36.3278V35.0563H32.443V36.3278C32.443 36.4625 32.3328 36.5728 32.1981 36.5728C32.0622 36.5728 31.9531 36.4625 31.9531 36.3278V34.8114C31.9531 34.6755 32.0622 34.5664 32.1981 34.5664H33.6099C33.7457 34.5664 33.8548 34.6755 33.8548 34.8114V36.3278C33.8548 36.4625 33.7457 36.5728 33.6099 36.5728Z" fill="black"/>
<path d="M34.4609 32.6094H35.8727V36.3259H34.4609V32.6094Z" fill="#ED1C24"/>
<path d="M35.8716 36.5736C35.7358 36.5736 35.6266 36.4634 35.6266 36.3287V32.8571H34.7047V36.3287C34.7047 36.4634 34.5956 36.5736 34.4598 36.5736C34.3251 36.5736 34.2148 36.4634 34.2148 36.3287V32.6121C34.2148 32.4774 34.3251 32.3672 34.4598 32.3672H35.8716C36.0063 32.3672 36.1165 32.4774 36.1165 32.6121V36.3287C36.1165 36.4634 36.0063 36.5736 35.8716 36.5736Z" fill="black"/>
<path d="M36.7305 33.9961H38.1423V36.3276H36.7305V33.9961Z" fill="#D9D9D9"/>
<path d="M38.1411 36.5753C38.0064 36.5753 37.8962 36.4651 37.8962 36.3303V34.2438H36.9743V36.3303C36.9743 36.4651 36.864 36.5753 36.7293 36.5753C36.5935 36.5753 36.4844 36.4651 36.4844 36.3303V33.9989C36.4844 33.863 36.5935 33.7539 36.7293 33.7539H38.1411C38.277 33.7539 38.3861 33.863 38.3861 33.9989V36.3303C38.3861 36.4651 38.277 36.5753 38.1411 36.5753Z" fill="black"/>
<path d="M38.1414 36.5719H32.1981C32.0622 36.5719 31.9531 36.4617 31.9531 36.327C31.9531 36.1911 32.0622 36.082 32.1981 36.082H38.1414C38.2773 36.082 38.3864 36.1911 38.3864 36.327C38.3864 36.4617 38.2773 36.5719 38.1414 36.5719Z" fill="black"/>
<path d="M38.1414 41.7566H32.1981C32.0622 41.7566 31.9531 41.6464 31.9531 41.5116V37.991C31.9531 37.8563 32.0622 37.7461 32.1981 37.7461C32.3328 37.7461 32.443 37.8563 32.443 37.991V41.2667H38.1414C38.2773 41.2667 38.3864 41.3758 38.3864 41.5116C38.3864 41.6464 38.2773 41.7566 38.1414 41.7566Z" fill="black"/>
<path d="M32.1947 41.122C32.1313 41.122 32.0689 41.0986 32.021 41.0507C31.9253 40.9549 31.9253 40.8002 32.021 40.7044L33.2102 39.5153C33.3059 39.4196 33.4607 39.4196 33.5564 39.5153L33.9339 39.8928L35.3056 38.521C35.4013 38.4253 35.5561 38.4253 35.6519 38.521L36.9735 39.8438L38.1292 38.688C38.2249 38.5923 38.3797 38.5923 38.4755 38.688C38.5712 38.7838 38.5712 38.9386 38.4755 39.0343L37.1472 40.3626C37.0514 40.4584 36.8966 40.4584 36.8009 40.3626L35.4793 39.041L34.1076 40.4127C34.0118 40.5085 33.8559 40.5085 33.7602 40.4127L33.3827 40.0353L32.3673 41.0507C32.3194 41.0986 32.2571 41.122 32.1947 41.122Z" fill="black"/>
<path d="M15.5449 32.5871L11.6646 34.932L7.78553 32.5871C4.11908 30.3726 1.87891 26.401 1.87891 22.1167V14.5421L11.6646 10.4648L21.4515 14.5421V22.1167C21.4515 26.401 19.2113 30.3726 15.5449 32.5871Z" fill="#ED1C24"/>
<path d="M11.6635 35.18C11.6201 35.18 11.5767 35.1677 11.5377 35.1443L7.65746 32.8006C5.82257 31.6917 4.29608 30.1184 3.2428 28.2512C2.18952 26.384 1.63281 24.2641 1.63281 22.1197V14.5452C1.63281 14.4472 1.69182 14.3581 1.78312 14.3192L11.57 10.2419C11.6301 10.2163 11.698 10.2163 11.7581 10.2419L21.545 14.3192C21.6363 14.3581 21.6953 14.4472 21.6953 14.5452V22.1197C21.6953 24.2641 21.1386 26.384 20.0853 28.2512C19.032 30.1184 17.5056 31.6917 15.6695 32.8006L11.7904 35.1443C11.7515 35.1677 11.708 35.18 11.6635 35.18ZM2.12271 14.7089V22.1197C2.12271 26.2916 4.34062 30.2242 7.91132 32.3809L11.6635 34.6489L15.4168 32.3809C18.9875 30.2242 21.2054 26.2916 21.2054 22.1197V14.7089L11.6635 10.7329L2.12271 14.7089Z" fill="black"/>
<path d="M19.3927 22.6998C19.1989 26.0289 17.3562 29.1108 14.487 30.8444L11.6612 32.5512L8.83644 30.8444C5.96607 29.1108 4.1245 26.0289 3.93076 22.6998L3.91406 15.9035L11.6612 12.6758L19.4094 15.9035L19.3927 22.6998Z" fill="#D9D9D9"/>
<path d="M11.6639 32.7953C11.6205 32.7953 11.5771 32.7831 11.5381 32.7597L8.71227 31.0528C7.27264 30.1833 6.049 28.9529 5.17275 27.4955C4.29984 26.0425 3.78656 24.3891 3.68858 22.7134C3.68858 22.7089 3.68858 22.7045 3.68858 22.7L3.67188 15.9038C3.67188 15.8047 3.73089 15.7145 3.82219 15.6767L11.5704 12.4489C11.6305 12.4233 11.6984 12.4233 11.7586 12.4489L19.5068 15.6767C19.5981 15.7145 19.6571 15.8047 19.6571 15.9038L19.6404 22.7C19.6404 22.7045 19.6404 22.7089 19.6393 22.7134C19.5424 24.3891 19.0291 26.0425 18.1562 27.4955C17.2799 28.9529 16.0552 30.1833 14.6167 31.0528L11.7908 32.7597C11.7519 32.7831 11.7085 32.7953 11.6639 32.7953ZM4.17848 22.6922C4.3711 25.9701 6.16034 28.9385 8.96613 30.6342L11.6639 32.2642L14.3628 30.6342C17.1686 28.9385 18.9579 25.9701 19.1505 22.6922L19.1672 16.0664L11.6639 12.9399L4.16177 16.0664L4.17848 22.6922Z" fill="black"/>
<path d="M11.6629 16.0115C11.5282 16.0115 11.418 15.9024 11.418 15.7666V12.6746C11.418 12.5388 11.5282 12.4297 11.6629 12.4297C11.7988 12.4297 11.9079 12.5388 11.9079 12.6746V15.7666C11.9079 15.9024 11.7988 16.0115 11.6629 16.0115Z" fill="black"/>
<path d="M11.6629 32.7979C11.5282 32.7979 11.418 32.6887 11.418 32.5529V29.0223C11.418 28.8876 11.5282 28.7773 11.6629 28.7773C11.7988 28.7773 11.9079 28.8876 11.9079 29.0223V32.5529C11.9079 32.6887 11.7988 32.7979 11.6629 32.7979Z" fill="black"/>
<path d="M16.5836 22.6116C16.5836 22.773 16.5758 22.9344 16.5602 23.0948C16.5435 23.2551 16.5201 23.4143 16.489 23.5724C16.4578 23.7305 16.4188 23.8864 16.3721 24.0401C16.3253 24.1948 16.2707 24.3462 16.2084 24.4954C16.1471 24.6435 16.0781 24.7894 16.0024 24.9319C15.9267 25.0733 15.8432 25.2114 15.7541 25.3461C15.665 25.4797 15.5693 25.6088 15.4669 25.7336C15.3644 25.8583 15.2564 25.9774 15.1417 26.091C15.0282 26.2056 14.909 26.3136 14.7843 26.4161C14.6596 26.5185 14.5305 26.6143 14.3969 26.7033C14.2621 26.7924 14.1241 26.8759 13.9827 26.9516C13.8402 27.0273 13.6943 27.0964 13.5462 27.1576C13.397 27.2199 13.2456 27.2745 13.0908 27.3213C12.9372 27.368 12.7813 27.407 12.6232 27.4382C12.4651 27.4694 12.3059 27.4927 12.1456 27.5094C11.9852 27.525 11.8238 27.5328 11.6623 27.5328C11.502 27.5328 11.3406 27.525 11.1802 27.5094C11.0199 27.4927 10.8607 27.4694 10.7026 27.4382C10.5445 27.407 10.3886 27.368 10.2349 27.3213C10.0802 27.2745 9.92876 27.2199 9.77956 27.1576C9.63037 27.0964 9.48562 27.0273 9.34311 26.9516C9.20059 26.8759 9.06253 26.7924 8.92892 26.7033C8.79531 26.6143 8.66616 26.5185 8.54145 26.4161C8.41675 26.3136 8.29762 26.2056 8.18294 26.091C8.06937 25.9774 7.96137 25.8583 7.85894 25.7336C7.7565 25.6088 7.66075 25.4797 7.57168 25.3461C7.48149 25.2114 7.3991 25.0733 7.32339 24.9319C7.24767 24.7894 7.17864 24.6435 7.11629 24.4954C7.05506 24.3462 7.0005 24.1948 6.95373 24.0401C6.90697 23.8864 6.868 23.7305 6.83683 23.5724C6.80565 23.4143 6.78116 23.2551 6.76557 23.0948C6.74998 22.9344 6.74219 22.773 6.74219 22.6116C6.74219 22.4512 6.74998 22.2898 6.76557 22.1294C6.78116 21.9691 6.80565 21.8099 6.83683 21.6518C6.868 21.4937 6.90697 21.3378 6.95373 21.1842C7.0005 21.0294 7.05506 20.878 7.11629 20.7288C7.17864 20.5796 7.24767 20.4348 7.32339 20.2923C7.3991 20.1498 7.48149 20.0117 7.57168 19.8781C7.66075 19.7445 7.7565 19.6154 7.85894 19.4907C7.96137 19.366 8.06937 19.2468 8.18294 19.1322C8.29762 19.0186 8.41675 18.9106 8.54145 18.8082C8.66616 18.7057 8.79531 18.61 8.92892 18.5209C9.06253 18.4307 9.20059 18.3483 9.34311 18.2726C9.48562 18.1969 9.63037 18.1279 9.77956 18.0655C9.92876 18.0043 10.0802 17.9497 10.2349 17.903C10.3886 17.8562 10.5445 17.8172 10.7026 17.786C10.8607 17.7549 11.0199 17.7304 11.1802 17.7148C11.3406 17.6992 11.502 17.6914 11.6623 17.6914C11.8238 17.6914 11.9852 17.6992 12.1456 17.7148C12.3059 17.7304 12.4651 17.7549 12.6232 17.786C12.7813 17.8172 12.9372 17.8562 13.0908 17.903C13.2456 17.9497 13.397 18.0043 13.5462 18.0655C13.6943 18.1279 13.8402 18.1969 13.9827 18.2726C14.1241 18.3483 14.2621 18.4307 14.3969 18.5209C14.5305 18.61 14.6596 18.7057 14.7843 18.8082C14.909 18.9106 15.0282 19.0186 15.1417 19.1322C15.2564 19.2468 15.3644 19.366 15.4669 19.4907C15.5693 19.6154 15.665 19.7445 15.7541 19.8781C15.8432 20.0117 15.9267 20.1498 16.0024 20.2923C16.0781 20.4348 16.1471 20.5796 16.2084 20.7288C16.2707 20.878 16.3253 21.0294 16.3721 21.1842C16.4188 21.3378 16.4578 21.4937 16.489 21.6518C16.5201 21.8099 16.5435 21.9691 16.5602 22.1294C16.5758 22.2898 16.5836 22.4512 16.5836 22.6116Z" fill="#D9D9D9"/>
<path d="M11.6651 27.7766C10.2856 27.7766 8.98847 27.2388 8.01312 26.2635C7.03778 25.2882 6.5 23.991 6.5 22.6104C6.5 21.2309 7.03778 19.9338 8.01312 18.9584C8.98847 17.9831 10.2856 17.4453 11.6651 17.4453C13.0457 17.4453 14.3428 17.9831 15.3182 18.9584C16.2935 19.9338 16.8313 21.2309 16.8313 22.6104C16.8313 23.991 16.2935 25.2882 15.3182 26.2635C14.3428 27.2388 13.0457 27.7766 11.6651 27.7766ZM11.6651 17.9352C9.08756 17.9352 6.9899 20.0329 6.9899 22.6104C6.9899 25.1891 9.08756 27.2867 11.6651 27.2867C14.2438 27.2867 16.3414 25.1891 16.3414 22.6104C16.3414 20.0329 14.2438 17.9352 11.6651 17.9352Z" fill="black"/>
<path d="M16.2753 19.1349C15.8611 18.7207 15.1886 18.7207 14.7744 19.1349L11.4665 22.4439L10.2373 21.2147C9.82311 20.8005 9.15061 20.8005 8.73642 21.2147C8.32223 21.6289 8.32223 22.3014 8.73642 22.7156L10.6259 24.605C10.8564 24.8344 11.1659 24.9324 11.4665 24.9068C11.7671 24.9324 12.0755 24.8344 12.306 24.605L16.2753 20.6357C16.6895 20.2215 16.6895 19.5502 16.2753 19.1349Z" fill="#D9D9D9"/>
<path d="M11.3707 25.1525C11.0256 25.1525 10.6949 25.0189 10.451 24.7751L8.5627 22.8856C8.31552 22.6396 8.17969 22.3111 8.17969 21.9626C8.17969 21.6141 8.31552 21.2857 8.5627 21.0396C9.07153 20.5308 9.8999 20.5308 10.4087 21.0396L11.4654 22.0951L14.6007 18.9597C15.1095 18.4509 15.9379 18.4509 16.4467 18.9597C16.9556 19.4686 16.9556 20.2969 16.4467 20.8069L12.4786 24.7751C12.2125 25.0401 11.845 25.1759 11.4654 25.1492C11.4331 25.1514 11.4019 25.1525 11.3707 25.1525ZM9.48571 21.1465C9.26749 21.1465 9.06262 21.2322 8.90897 21.3859C8.75421 21.5395 8.66959 21.7444 8.66959 21.9626C8.66959 22.1808 8.75421 22.3857 8.90897 22.5394L10.7984 24.4288C10.9654 24.5969 11.2015 24.6804 11.4442 24.6604C11.4576 24.6593 11.472 24.6593 11.4854 24.6604C11.7292 24.6804 11.9642 24.5969 12.1323 24.4288L16.1005 20.4606C16.4189 20.1422 16.4189 19.6244 16.1005 19.306C15.782 18.9876 15.2643 18.9876 14.947 19.306L11.6379 22.6151C11.5422 22.7097 11.3874 22.7097 11.2917 22.6151L10.0625 21.3859C9.90881 21.2322 9.70394 21.1465 9.48571 21.1465Z" fill="black"/>
</svg>
