<svg width="208" height="25" viewBox="0 0 208 25" fill="none" xmlns="http://www.w3.org/2000/svg">
<path d="M51.8298 9.1379C51.8298 6.20807 51.8424 3.46367 51.8172 0.719276C51.8172 0.150617 51.9684 -0.0224525 52.5476 0.00227175C53.6936 0.0517203 54.827 0.026996 55.973 0.00227175C56.3634 0.00227175 56.5019 0.101169 56.5019 0.50912C56.4767 5.88665 56.5649 11.2642 56.4264 16.6294C56.2878 21.8462 51.8424 25.3941 46.2762 24.9491C39.098 24.3804 35.2193 16.6912 39.0855 10.7079C41.2137 7.39483 45.7977 5.94846 49.4119 7.4072C50.306 7.7657 51.049 8.34672 51.8424 9.11317L51.8298 9.1379ZM51.8298 15.9247C51.8298 13.1309 49.8401 11.1406 47.0822 11.1529C44.3242 11.1777 42.3471 13.1803 42.3723 15.9618C42.3849 18.7186 44.3368 20.6718 47.0948 20.6965C49.8653 20.7212 51.8424 18.7309 51.8424 15.9247H51.8298Z" fill="#030303"/>
<path d="M73.5935 22.4396C72.5357 23.5522 71.3519 24.3434 69.8785 24.7266C65.0804 25.9752 60.0557 22.8105 59.275 18.0016C58.7712 14.9111 59.3127 12.0678 61.5166 9.68191C64.01 6.98696 68.6192 6.08452 72.3971 7.53089C75.7721 8.82892 77.8878 11.9813 77.9004 15.7888C77.9004 18.4838 77.8878 21.1911 77.913 23.886C77.913 24.4052 77.7744 24.5536 77.2455 24.5412C76.2507 24.5041 75.2432 24.4918 74.2357 24.5412C73.6816 24.5659 73.5431 24.3681 73.5935 23.8736C73.6313 23.4039 73.5935 22.9218 73.5935 22.4396ZM73.2661 15.9372C73.2661 13.1433 71.2889 11.1406 68.531 11.153C65.7731 11.153 63.7833 13.168 63.7833 15.9495C63.7833 18.7434 65.7983 20.7337 68.5562 20.6966C71.3141 20.6595 73.2535 18.7063 73.2535 15.9495L73.2661 15.9372Z" fill="#030303"/>
<path d="M112.063 22.1791C110.439 24.3053 108.361 25.0471 105.918 24.9729C101.485 24.8369 97.9211 21.4497 97.6189 17.0982C97.4174 14.1684 98.0219 11.4487 100.301 9.38424C103.412 6.55331 107.114 6.18244 110.93 7.59173C114.544 8.9392 116.194 11.8319 116.345 15.5282C116.458 18.3592 116.37 21.2024 116.395 24.0334C116.395 24.429 116.269 24.5402 115.879 24.5279C114.809 24.5031 113.738 24.5031 112.668 24.5279C112.227 24.5279 112.038 24.429 112.076 23.9592C112.114 23.4276 112.076 22.8837 112.076 22.1667L112.063 22.1791ZM102.266 15.9115C102.266 18.73 104.205 20.6832 107.001 20.6832C109.784 20.6832 111.736 18.7177 111.711 15.8867C111.698 13.1052 109.771 11.1644 107.013 11.1397C104.243 11.1149 102.266 13.1052 102.253 15.8991L102.266 15.9115Z" fill="#030303"/>
<path d="M81.2482 10.214C81.2482 7.49432 81.2608 4.77465 81.2482 2.04261C81.2482 1.5234 81.3867 1.37506 81.9156 1.38742C83.0616 1.42451 84.195 1.41214 85.341 1.38742C85.7691 1.38742 85.8951 1.49868 85.8951 1.91899C85.8699 3.4519 85.9077 4.9848 85.8699 6.51771C85.8573 7.11109 85.9832 7.33361 86.6507 7.32125C89.0686 7.2718 91.4991 7.32125 93.9296 7.28416C94.5718 7.28416 94.7104 7.46959 94.6852 8.05061C94.6348 9.01486 94.6474 9.96675 94.6852 10.931C94.6978 11.376 94.5592 11.512 94.0933 11.512C91.5746 11.4873 89.056 11.512 86.5373 11.4873C86.021 11.4873 85.8699 11.5985 85.8825 12.1178C85.9203 13.9721 85.8825 15.8264 85.8951 17.6807C85.8951 18.0269 85.9329 18.3606 85.9958 18.7068C86.2477 20.0295 87.104 20.6971 88.5145 20.6724C89.9375 20.66 90.7561 19.9924 90.9954 18.645C90.9954 18.5832 91.0079 18.509 91.0331 18.4472C91.1213 18.0269 90.8442 17.4211 91.1843 17.2233C91.5495 17.0132 92.1287 17.1368 92.6199 17.1244C93.5014 17.1244 94.3955 17.1244 95.2771 17.1244C95.466 17.1244 95.7178 17.0503 95.7178 17.384C95.7682 19.6834 95.34 21.8097 93.4636 23.4044C90.8065 25.6667 84.7239 25.6049 82.5075 22.3042C81.6512 21.0309 81.2986 19.6339 81.286 18.1505C81.2734 15.4926 81.286 12.8471 81.286 10.1893L81.2482 10.214Z" fill="#030303"/>
<path d="M200.182 16.8989C198.028 16.8989 195.862 16.8989 193.709 16.8989C193.205 16.8989 193.104 17.0225 193.243 17.5047C193.797 19.5197 195.434 20.9908 197.588 21.238C199.615 21.4605 201.517 21.2009 202.902 19.495C203.053 19.3095 203.229 19.2972 203.431 19.2972C204.3 19.2972 205.169 19.3219 206.038 19.2972C206.579 19.2724 206.504 19.495 206.327 19.8164C205.118 22.0663 203.229 23.4509 200.698 23.933C197.474 24.5511 194.477 24.0566 192.147 21.6336C189.515 18.9016 189.138 15.638 190.561 12.2631C191.933 8.99951 194.704 7.51605 198.217 7.39243C202.247 7.24408 205.433 9.25911 206.705 12.6216C207.184 13.8702 207.259 15.1682 207.247 16.491C207.247 16.936 206.982 16.9113 206.68 16.9113C204.527 16.9113 202.36 16.9113 200.207 16.9113L200.182 16.8989ZM198.532 14.1669C200.131 14.1669 201.731 14.1545 203.33 14.1669C203.796 14.1669 203.909 14.068 203.746 13.6106C203.028 11.6697 201.58 10.656 199.552 10.3099C196.857 9.85249 194.364 11.1134 193.444 13.4252C193.167 14.1174 193.193 14.1545 193.923 14.1545C195.459 14.1545 196.996 14.1545 198.52 14.1545L198.532 14.1669Z" fill="#EC1F27"/>
<path d="M167.792 20.7186C165.915 23.9081 162.628 24.4891 159.921 24.0193C156.747 23.4754 154.191 21.1637 153.511 18.0855C152.831 14.9826 153.322 12.0775 155.715 9.7905C158.523 7.10792 161.961 6.72469 165.512 7.99799C168.988 9.24657 170.55 12.0033 170.688 15.5265C170.776 18.0731 170.688 20.6321 170.713 23.1911C170.713 23.6361 170.55 23.7597 170.134 23.735C169.58 23.7103 169.026 23.6979 168.472 23.735C167.968 23.7721 167.754 23.6361 167.792 23.0922C167.842 22.301 167.804 21.4975 167.804 20.7063L167.792 20.7186ZM167.565 15.7614C167.552 12.4607 165.286 10.2603 161.948 10.2603C158.699 10.2603 156.445 12.5473 156.458 15.8232C156.458 19.0498 158.775 21.2997 162.049 21.2873C165.323 21.2749 167.578 19.0127 167.565 15.7491V15.7614Z" fill="#EC1F27"/>
<path d="M151.953 7.78911C150.933 8.72864 150.051 9.54454 149.17 10.3481C147.432 11.9428 145.694 13.5375 143.944 15.1199C143.579 15.4413 143.503 15.6267 143.919 16.0099C146.462 18.334 148.968 20.6828 151.487 23.0193C151.689 23.2047 151.94 23.3654 152.104 23.7239C150.769 23.7239 149.497 23.7239 148.213 23.7239C147.86 23.7239 147.684 23.4272 147.47 23.2171C145.354 21.1897 143.251 19.1376 141.148 17.0978C141.047 17.0113 140.972 16.9 140.858 16.8258C140.732 16.7269 140.657 16.4797 140.443 16.591C140.292 16.6651 140.355 16.8629 140.355 17.0113C140.355 18.2104 140.355 19.4095 140.355 20.6087C140.355 21.4616 140.342 22.3146 140.355 23.1676C140.355 23.5879 140.241 23.761 139.788 23.7363C139.12 23.6992 138.453 23.6992 137.786 23.7363C137.32 23.761 137.169 23.625 137.181 23.1553C137.206 21.2391 137.181 19.3106 137.181 17.3945C137.181 12.0911 137.181 6.78778 137.181 1.48442C137.181 0.989932 137.269 0.779775 137.823 0.816862C138.44 0.86631 139.07 0.86631 139.687 0.816862C140.229 0.779775 140.355 0.97757 140.342 1.47206C140.317 5.57629 140.329 9.68052 140.342 13.7848C140.342 14.0444 140.191 14.4276 140.481 14.5512C140.695 14.6377 140.896 14.2916 141.085 14.1185C143.188 12.1406 145.291 10.1503 147.369 8.15998C147.646 7.90037 147.911 7.77675 148.301 7.77675C149.447 7.80148 150.593 7.77675 151.928 7.77675L151.953 7.78911Z" fill="#EC1F27"/>
<path d="M181.996 10.658C180.686 10.658 179.364 10.6704 178.054 10.658C177.651 10.658 177.513 10.7693 177.513 11.1772C177.525 13.4642 177.488 15.7636 177.525 18.0506C177.576 20.7332 180.258 22.2166 182.689 20.9186C183.835 20.3005 184.225 19.2374 184.225 18.0506C184.225 17.3954 184.49 17.2965 185.031 17.3336C185.636 17.3707 186.227 17.3583 186.832 17.3336C187.222 17.3212 187.361 17.4201 187.373 17.8404C187.474 21.3513 185.346 23.7743 181.782 24.1328C180.85 24.2317 179.918 24.1946 178.999 23.9844C176.493 23.4405 175.007 21.9199 174.503 19.4599C174.377 18.8418 174.339 18.2113 174.339 17.5685C174.339 12.6731 174.352 7.79001 174.327 2.8946C174.327 2.26413 174.528 2.10343 175.12 2.15288C175.699 2.20232 176.279 2.18996 176.858 2.15288C177.374 2.11579 177.551 2.26413 177.538 2.79571C177.5 4.25444 177.538 5.72554 177.513 7.18427C177.513 7.66639 177.639 7.81474 178.143 7.80238C180.674 7.77765 183.218 7.80238 185.749 7.77765C186.366 7.77765 186.517 7.95072 186.467 8.50702C186.416 9.05095 186.429 9.59489 186.467 10.1388C186.492 10.5591 186.328 10.658 185.938 10.658C184.628 10.6333 183.318 10.658 181.996 10.658Z" fill="#EC1F27"/>
<path d="M121.498 19.0882C121.65 19.0882 121.813 19.1006 121.964 19.0882C122.632 19.014 123.123 19.0882 123.312 19.8917C123.45 20.4851 124.03 20.8189 124.622 21.0167C125.919 21.4865 127.241 21.4741 128.551 21.0661C128.979 20.9302 129.357 20.6953 129.671 20.3739C130.566 19.422 130.289 18.1487 129.067 17.6789C128.022 17.2833 126.888 17.2462 125.805 17.0732C125.012 16.9495 124.231 16.8259 123.463 16.591C121.927 16.1336 120.68 15.3425 120.352 13.6859C119.987 11.8811 120.39 10.2493 121.813 8.9636C124.206 6.80023 129.029 6.81259 131.435 8.9636C132.291 9.73006 132.795 10.6696 132.946 11.8069C132.996 12.1654 132.895 12.3385 132.492 12.3137C132.077 12.289 131.649 12.289 131.22 12.3137C130.452 12.3632 129.697 12.4126 129.533 11.3989C129.533 11.3742 129.508 11.3619 129.495 11.3495C128.45 9.79187 124.798 9.79187 123.74 11.3495C123.085 12.3137 123.413 13.3769 124.521 13.8096C125.377 14.1433 126.296 14.1928 127.203 14.3164C128.173 14.44 129.143 14.5637 130.087 14.848C131.636 15.3177 132.933 16.0718 133.261 17.7654C133.613 19.5456 133.248 21.1527 131.863 22.4507C130.792 23.4644 129.445 23.8971 128.009 24.0825C126.259 24.305 124.533 24.169 122.922 23.4273C121.31 22.6979 120.264 21.4988 119.962 19.731C119.874 19.2365 119.987 19.0388 120.529 19.0882C120.856 19.1253 121.196 19.0882 121.524 19.0882H121.498Z" fill="#EC1F27"/>
<path d="M15.9703 21.61C15.9703 22.3168 15.9703 23.0352 15.9703 23.742C15.9703 23.9969 15.9325 24.1823 15.5799 24.1823C10.7693 24.0896 6.18536 23.2901 2.50812 20.1616C-0.892055 17.2765 -0.803902 12.8734 2.58368 9.97668C5.06456 7.85626 8.12472 6.89455 11.3738 6.34996C12.6961 6.12981 14.0435 6.06028 15.391 6.03711C15.857 6.03711 15.9829 6.17615 15.9829 6.59328C15.9577 7.94896 15.9577 9.29305 15.9829 10.6487C15.9829 11.0774 15.8318 11.1701 15.3784 11.1933C12.8724 11.2744 10.4167 11.5757 8.1499 12.6649C7.45727 13.0009 6.81502 13.3717 6.27351 13.8931C5.3542 14.7737 5.3542 15.4573 6.27351 16.3263C7.44468 17.4271 8.94328 17.9833 10.4922 18.4236C12.0538 18.8523 13.6657 19.0377 15.2903 19.0377C15.8822 19.0377 16.0081 19.2115 15.9829 19.7097C15.9451 20.347 15.9829 20.9959 15.9829 21.6332L15.9703 21.61Z" fill="#030303"/>
<path d="M15.6457 15.3303C15.6457 14.7858 15.6835 14.2296 15.6457 13.685C15.608 13.1636 15.7591 12.9782 16.3761 12.9666C18.6933 12.9434 20.9223 12.5263 23.0254 11.6225C23.8439 11.2749 24.6121 10.8462 25.2418 10.2437C26.2744 9.25877 26.2744 8.35498 25.2418 7.37009C24.5869 6.75598 23.8188 6.30409 22.9624 5.95648C20.8593 5.09904 18.6681 4.65874 16.3761 4.64715C15.8346 4.64715 15.6331 4.51969 15.6457 3.99828C15.6835 2.828 15.6709 1.65771 15.6457 0.499016C15.6457 0.105059 15.7969 -0.0108106 16.2124 0.000776415C19.5119 0.0934722 22.698 0.603299 25.6574 2.00532C27.2945 2.78165 28.7427 3.76654 29.788 5.19174C31.7651 7.87992 31.4251 11.0895 28.9442 13.4185C26.8411 15.3883 24.2343 16.4311 21.3757 17.0568C19.6756 17.4276 17.9503 17.5898 16.1998 17.6361C15.7717 17.6361 15.6205 17.5319 15.6457 17.1379C15.6709 16.547 15.6457 15.9444 15.6457 15.3535V15.3303Z" fill="#ED2129"/>
</svg>
